<svg width="128" height="38" viewBox="0 0 128 38" fill="none" xmlns="http://www.w3.org/2000/svg">
<path d="M127.289 32.9576C127.289 34.9429 125.659 36.5511 123.644 36.5511H4.36084C2.34631 36.5511 0.711113 34.9429 0.711113 32.9576V4.30124C0.711113 2.31688 2.34631 0.703125 4.36084 0.703125H123.643C125.659 0.703125 127.288 2.31688 127.288 4.30124L127.289 32.9576Z" fill="white"/>
<path d="M123.259 0.746418C125.454 0.746418 127.24 2.50084 127.24 4.65689V32.5972C127.24 34.7532 125.454 36.5077 123.259 36.5077H4.74074C2.54578 36.5077 0.759703 34.7532 0.759703 32.5972V4.65689C0.759703 2.50084 2.54578 0.746418 4.74074 0.746418H123.259ZM123.259 0.000179291H4.74074C2.13452 0.000179291 0 2.09687 0 4.65689V32.5972C0 35.1572 2.13452 37.2539 4.74074 37.2539H123.259C125.865 37.2539 128 35.1572 128 32.5972V4.65689C128 2.09687 125.865 0.000179291 123.259 0.000179291Z" fill="#A6A6A6"/>
<path d="M28.5658 18.4256C28.5383 15.4239 31.068 13.9635 31.1836 13.8955C29.751 11.8438 27.5304 11.5634 26.7501 11.5411C24.8851 11.3483 23.076 12.6373 22.126 12.6373C21.157 12.6373 19.694 11.5597 18.1172 11.5914C16.0882 11.6221 14.19 12.776 13.1489 14.5679C11.0004 18.2216 12.6028 23.5908 14.6612 26.5441C15.6909 27.9905 16.8941 29.6054 18.469 29.5486C20.0097 29.4862 20.5852 28.5837 22.4446 28.5837C24.2868 28.5837 24.8273 29.5486 26.4334 29.5123C28.087 29.4862 29.1281 28.0594 30.1217 26.6C31.3116 24.9422 31.7895 23.3095 31.8085 23.2257C31.7696 23.2127 28.5971 22.0234 28.5658 18.4256Z" fill="black"/>
<path d="M25.5317 9.5983C26.3604 8.58034 26.9274 7.19544 26.77 5.79004C25.5706 5.84219 24.0706 6.60496 23.2069 7.60057C22.4427 8.4779 21.76 9.91589 21.9364 11.2682C23.2837 11.3669 24.667 10.6004 25.5317 9.5983Z" fill="black"/>
<path d="M46.5067 9.32182C46.5067 10.418 46.172 11.2432 45.5035 11.7973C44.8844 12.3086 44.0045 12.5648 42.8648 12.5648C42.2997 12.5648 41.8162 12.5405 41.4113 12.4921V6.50264C41.9395 6.41882 42.5083 6.37598 43.1227 6.37598C44.2084 6.37598 45.0266 6.60788 45.5784 7.07169C46.1966 7.59604 46.5067 8.34577 46.5067 9.32182ZM45.459 9.34882C45.459 8.63821 45.2675 8.09337 44.8844 7.71339C44.5013 7.33433 43.9419 7.14433 43.2052 7.14433C42.8923 7.14433 42.6259 7.16482 42.405 7.20767V11.761C42.5273 11.7796 42.7511 11.788 43.0763 11.788C43.8367 11.788 44.4236 11.5803 44.837 11.1649C45.2504 10.7496 45.459 10.1442 45.459 9.34882Z" fill="black"/>
<path d="M52.0619 10.2785C52.0619 10.9538 51.8656 11.507 51.4731 11.941C51.0616 12.3871 50.5164 12.6097 49.8356 12.6097C49.1795 12.6097 48.6571 12.3964 48.2674 11.968C47.8787 11.5405 47.6843 11.0013 47.6843 10.3512C47.6843 9.6713 47.8843 9.11343 48.2864 8.68035C48.6884 8.24728 49.2288 8.03027 49.9096 8.03027C50.5657 8.03027 51.0929 8.24355 51.492 8.67104C51.8713 9.08642 52.0619 9.62287 52.0619 10.2785ZM51.0312 10.3102C51.0312 9.90507 50.9421 9.55768 50.7648 9.26803C50.5562 8.91784 50.2595 8.74275 49.8736 8.74275C49.4744 8.74275 49.171 8.91784 48.9624 9.26803C48.7841 9.55768 48.696 9.91066 48.696 10.3279C48.696 10.733 48.7851 11.0804 48.9624 11.3701C49.1776 11.7203 49.4772 11.8953 49.8641 11.8953C50.2433 11.8953 50.5411 11.7175 50.7553 11.3608C50.9393 11.0655 51.0312 10.7153 51.0312 10.3102Z" fill="black"/>
<path d="M59.5105 8.12012L58.112 12.5105H57.2018L56.6225 10.604C56.4755 10.1281 56.356 9.65497 56.2631 9.18557H56.2451C56.1588 9.66801 56.0394 10.1402 55.8858 10.604L55.2704 12.5105H54.3498L53.0347 8.12012H54.0558L54.5612 10.2073C54.6835 10.7009 54.784 11.1712 54.8646 11.6164H54.8826C54.9566 11.2494 55.0789 10.7819 55.2514 10.2166L55.8858 8.12105H56.6955L57.3032 10.1719C57.4502 10.672 57.5697 11.1535 57.6616 11.6173H57.6891C57.7565 11.1656 57.8579 10.6841 57.9925 10.1719L58.5349 8.12105H59.5105V8.12012Z" fill="black"/>
<path d="M64.6618 12.5099H63.6682V9.99527C63.6682 9.22039 63.3685 8.83296 62.7674 8.83296C62.4725 8.83296 62.2346 8.93913 62.0497 9.15241C61.8667 9.36568 61.7738 9.61715 61.7738 9.90493V12.509H60.7801V9.37407C60.7801 8.98849 60.7678 8.57032 60.7441 8.11768H61.6173L61.6638 8.80408H61.6913C61.807 8.59081 61.9795 8.41478 62.2061 8.27415C62.4754 8.11023 62.7769 8.02734 63.1069 8.02734C63.524 8.02734 63.8711 8.15959 64.147 8.42503C64.4902 8.75007 64.6618 9.2353 64.6618 9.87979V12.5099Z" fill="black"/>
<path d="M67.402 12.5103H66.4093V6.10547H67.402V12.5103Z" fill="black"/>
<path d="M73.2521 10.2785C73.2521 10.9538 73.0558 11.507 72.6633 11.941C72.2518 12.3871 71.7056 12.6097 71.0258 12.6097C70.3687 12.6097 69.8463 12.3964 69.4576 11.968C69.0688 11.5405 68.8745 11.0013 68.8745 10.3512C68.8745 9.6713 69.0745 9.11343 69.4765 8.68035C69.8785 8.24728 70.419 8.03027 71.0988 8.03027C71.7559 8.03027 72.2821 8.24355 72.6822 8.67104C73.0615 9.08642 73.2521 9.62287 73.2521 10.2785ZM72.2205 10.3102C72.2205 9.90507 72.1313 9.55768 71.954 9.26803C71.7464 8.91784 71.4487 8.74275 71.0637 8.74275C70.6636 8.74275 70.3602 8.91784 70.1526 9.26803C69.9743 9.55768 69.8861 9.91066 69.8861 10.3279C69.8861 10.733 69.9753 11.0804 70.1526 11.3701C70.3678 11.7203 70.6674 11.8953 71.0542 11.8953C71.4335 11.8953 71.7303 11.7175 71.9446 11.3608C72.1294 11.0655 72.2205 10.7153 72.2205 10.3102Z" fill="black"/>
<path d="M78.0611 12.51H77.1688L77.0949 12.0043H77.0674C76.7621 12.4076 76.3269 12.6097 75.7618 12.6097C75.3399 12.6097 74.9985 12.4765 74.7416 12.212C74.5083 11.9717 74.3917 11.6728 74.3917 11.3179C74.3917 10.7815 74.6193 10.3726 75.0772 10.0895C75.5342 9.80634 76.1771 9.66757 77.0048 9.67409V9.59214C77.0048 9.01377 76.6957 8.72506 76.0766 8.72506C75.6357 8.72506 75.247 8.83402 74.9113 9.05009L74.7094 8.40933C75.1246 8.15694 75.6376 8.03027 76.2425 8.03027C77.4106 8.03027 77.9966 8.63565 77.9966 9.84639V11.4632C77.9966 11.9019 78.0184 12.2511 78.0611 12.51ZM77.0295 11.0013V10.3242C75.9334 10.3055 75.3854 10.6008 75.3854 11.2089C75.3854 11.4381 75.448 11.6094 75.576 11.724C75.704 11.8385 75.867 11.8953 76.0614 11.8953C76.2795 11.8953 76.4833 11.8274 76.6692 11.6923C76.856 11.5563 76.9707 11.384 77.0133 11.1726C77.0238 11.1251 77.0295 11.0674 77.0295 11.0013Z" fill="black"/>
<path d="M83.7073 12.5103H82.8255L82.779 11.8053H82.7515C82.47 12.3417 81.9902 12.61 81.3161 12.61C80.7775 12.61 80.329 12.4023 79.9735 11.9869C79.6179 11.5715 79.4406 11.0323 79.4406 10.3701C79.4406 9.65947 79.6331 9.0839 80.0199 8.64431C80.3945 8.23452 80.8534 8.02962 81.3995 8.02962C81.9997 8.02962 82.4197 8.228 82.6586 8.62568H82.6776V6.10547H83.6722V11.3275C83.6722 11.755 83.6836 12.149 83.7073 12.5103ZM82.6776 10.6588V9.92677C82.6776 9.80011 82.6681 9.69766 82.6501 9.61943C82.5942 9.38473 82.4737 9.18728 82.2908 9.02802C82.1059 8.86876 81.883 8.78867 81.6261 8.78867C81.2554 8.78867 80.9652 8.93303 80.7519 9.22267C80.5405 9.51232 80.4333 9.88207 80.4333 10.3338C80.4333 10.7678 80.5348 11.1198 80.7386 11.3908C80.9539 11.6796 81.244 11.8239 81.6071 11.8239C81.9333 11.8239 82.194 11.7038 82.3922 11.4626C82.5837 11.24 82.6776 10.9717 82.6776 10.6588Z" fill="black"/>
<path d="M92.2055 10.2785C92.2055 10.9538 92.0093 11.507 91.6167 11.941C91.2052 12.3871 90.661 12.6097 89.9793 12.6097C89.3241 12.6097 88.8017 12.3964 88.411 11.968C88.0223 11.5405 87.8279 11.0013 87.8279 10.3512C87.8279 9.6713 88.028 9.11343 88.43 8.68035C88.832 8.24728 89.3725 8.03027 90.0542 8.03027C90.7093 8.03027 91.2375 8.24355 91.6357 8.67104C92.015 9.08642 92.2055 9.62287 92.2055 10.2785ZM91.1758 10.3102C91.1758 9.90507 91.0867 9.55768 90.9094 9.26803C90.6999 8.91784 90.404 8.74275 90.0172 8.74275C89.619 8.74275 89.3156 8.91784 89.106 9.26803C88.9278 9.55768 88.8396 9.91066 88.8396 10.3279C88.8396 10.733 88.9287 11.0804 89.106 11.3701C89.3213 11.7203 89.6209 11.8953 90.0077 11.8953C90.387 11.8953 90.6856 11.7175 90.8999 11.3608C91.0829 11.0655 91.1758 10.7153 91.1758 10.3102Z" fill="black"/>
<path d="M97.5483 12.5099H96.5556V9.99527C96.5556 9.22039 96.256 8.83296 95.6539 8.83296C95.3591 8.83296 95.1211 8.93913 94.9371 9.15241C94.7532 9.36568 94.6612 9.61715 94.6612 9.90493V12.509H93.6666V9.37407C93.6666 8.98849 93.6552 8.57032 93.6315 8.11768H94.5038L94.5503 8.80408H94.5778C94.6944 8.59081 94.867 8.41478 95.0926 8.27415C95.3629 8.11023 95.6634 8.02734 95.9943 8.02734C96.4106 8.02734 96.7576 8.15959 97.0335 8.42503C97.3777 8.75007 97.5483 9.2353 97.5483 9.87979V12.5099Z" fill="black"/>
<path d="M104.236 8.85087H103.141V10.9836C103.141 11.5257 103.336 11.7967 103.721 11.7967C103.899 11.7967 104.047 11.7818 104.164 11.7511L104.189 12.4915C103.993 12.5641 103.735 12.6005 103.417 12.6005C103.025 12.6005 102.72 12.4831 102.499 12.2484C102.277 12.0137 102.167 11.6188 102.167 11.0647V8.85087H101.514V8.11976H102.167V7.31508L103.141 7.02637V8.11883H104.235V8.85087H104.236Z" fill="black"/>
<path d="M109.496 12.5103H108.501V10.0143C108.501 9.22733 108.202 8.83337 107.602 8.83337C107.141 8.83337 106.826 9.06155 106.653 9.51791C106.624 9.61384 106.607 9.73119 106.607 9.86903V12.5094H105.614V6.10547H106.607V8.75142H106.626C106.939 8.26991 107.387 8.02962 107.968 8.02962C108.38 8.02962 108.72 8.16187 108.991 8.42731C109.327 8.75793 109.496 9.24968 109.496 9.89976V12.5103Z" fill="black"/>
<path d="M114.922 10.1077C114.922 10.2828 114.909 10.43 114.885 10.5501H111.905C111.918 10.9841 112.061 11.3148 112.337 11.5439C112.589 11.7488 112.914 11.8512 113.312 11.8512C113.753 11.8512 114.155 11.7823 114.517 11.6435L114.673 12.3215C114.249 12.5022 113.75 12.5926 113.173 12.5926C112.481 12.5926 111.936 12.3923 111.541 11.9918C111.145 11.5914 110.949 11.054 110.949 10.3797C110.949 9.71751 111.131 9.16615 111.5 8.72656C111.885 8.25716 112.406 8.02246 113.063 8.02246C113.706 8.02246 114.194 8.25716 114.524 8.72656C114.79 9.09909 114.922 9.56011 114.922 10.1077ZM113.974 9.85534C113.982 9.5657 113.916 9.3161 113.782 9.10561C113.609 8.83459 113.346 8.69862 112.991 8.69862C112.667 8.69862 112.402 8.83087 112.2 9.0963C112.035 9.30771 111.937 9.56011 111.905 9.85534H113.974Z" fill="black"/>
<path d="M50.8634 29.3406H48.7102L47.5307 25.7H43.4309L42.3073 29.3406H40.211L44.2728 16.9463H46.7816L50.8634 29.3406ZM47.1751 24.1726L46.1084 20.9362C45.9956 20.6055 45.7842 19.8269 45.4722 18.6013H45.4343C45.3101 19.1284 45.11 19.907 44.8351 20.9362L43.7874 24.1726H47.1751Z" fill="black"/>
<path d="M61.3091 24.7619C61.3091 26.2818 60.891 27.4833 60.0547 28.3653C59.3057 29.1504 58.3756 29.5425 57.2653 29.5425C56.0668 29.5425 55.2059 29.1196 54.6816 28.274H54.6437V32.9819H52.6222V23.3453C52.6222 22.3898 52.5966 21.4091 52.5473 20.4032H54.3251L54.4379 21.8198H54.4758C55.15 20.7525 56.173 20.2197 57.5459 20.2197C58.6192 20.2197 59.5152 20.636 60.232 21.4696C60.9507 22.3041 61.3091 23.4012 61.3091 24.7619ZM59.2498 24.8345C59.2498 23.9647 59.0507 23.2475 58.6505 22.6831C58.2134 22.0945 57.6265 21.8002 56.8908 21.8002C56.392 21.8002 55.9388 21.9641 55.534 22.2873C55.1282 22.6133 54.8627 23.0389 54.7385 23.566C54.6759 23.8119 54.6446 24.0131 54.6446 24.1714V25.6616C54.6446 26.3116 54.8475 26.8602 55.2533 27.3082C55.6591 27.7562 56.1863 27.9797 56.8348 27.9797C57.5962 27.9797 58.1888 27.691 58.6126 27.1154C59.0374 26.5389 59.2498 25.7789 59.2498 24.8345Z" fill="black"/>
<path d="M71.7739 24.7619C71.7739 26.2818 71.3557 27.4833 70.5185 28.3653C69.7704 29.1504 68.8403 29.5425 67.73 29.5425C66.5315 29.5425 65.6706 29.1196 65.1473 28.274H65.1093V32.9819H63.0879V23.3453C63.0879 22.3898 63.0623 21.4091 63.013 20.4032H64.7907L64.9036 21.8198H64.9415C65.6147 20.7525 66.6377 20.2197 68.0116 20.2197C69.084 20.2197 69.98 20.636 70.6987 21.4696C71.4145 22.3041 71.7739 23.4012 71.7739 24.7619ZM69.7145 24.8345C69.7145 23.9647 69.5144 23.2475 69.1143 22.6831C68.6772 22.0945 68.0922 21.8002 67.3555 21.8002C66.8558 21.8002 66.4036 21.9641 65.9977 22.2873C65.5919 22.6133 65.3274 23.0389 65.2032 23.566C65.1416 23.8119 65.1093 24.0131 65.1093 24.1714V25.6616C65.1093 26.3116 65.3122 26.8602 65.7161 27.3082C66.1219 27.7552 66.6491 27.9797 67.2996 27.9797C68.0609 27.9797 68.6535 27.691 69.0773 27.1154C69.5021 26.5389 69.7145 25.7789 69.7145 24.8345Z" fill="black"/>
<path d="M83.474 25.8648C83.474 26.9191 83.1014 27.7769 82.3533 28.439C81.5313 29.1627 80.3868 29.5241 78.9163 29.5241C77.5585 29.5241 76.47 29.267 75.6461 28.752L76.1145 27.097C77.002 27.6241 77.9757 27.8886 79.0367 27.8886C79.798 27.8886 80.3906 27.7191 80.8164 27.382C81.2402 27.0448 81.4516 26.5922 81.4516 26.0278C81.4516 25.5249 81.2772 25.1011 80.9273 24.7574C80.5793 24.4138 79.9981 24.0943 79.1865 23.7991C76.9773 22.9897 75.8737 21.8041 75.8737 20.2451C75.8737 19.2262 76.2605 18.3908 77.0351 17.7407C77.8069 17.0897 78.8366 16.7646 80.1242 16.7646C81.2724 16.7646 82.2263 16.9612 82.9876 17.3533L82.4822 18.9719C81.7711 18.5919 80.9671 18.402 80.0673 18.402C79.3562 18.402 78.8006 18.5742 78.4024 18.917C78.0658 19.2234 77.897 19.5969 77.897 20.0393C77.897 20.5291 78.0895 20.9343 78.4763 21.2528C78.8129 21.5471 79.4245 21.8656 80.3119 22.2093C81.3976 22.6386 82.195 23.1406 82.7079 23.7162C83.219 24.2899 83.474 25.008 83.474 25.8648Z" fill="black"/>
<path d="M90.1575 21.8937H87.9294V26.2329C87.9294 27.3365 88.3219 27.8879 89.1089 27.8879C89.4701 27.8879 89.7697 27.8571 90.0068 27.7957L90.0627 29.3035C89.6645 29.4497 89.1402 29.5233 88.4907 29.5233C87.6923 29.5233 87.0685 29.284 86.6181 28.8062C86.1696 28.3275 85.9439 27.5247 85.9439 26.3968V21.8919H84.6165V20.4017H85.9439V18.7654L87.9294 18.1768V20.4017H90.1575V21.8937Z" fill="black"/>
<path d="M100.211 24.7983C100.211 26.172 99.8106 27.2998 99.0123 28.1818C98.175 29.0899 97.0638 29.5425 95.6786 29.5425C94.3436 29.5425 93.2807 29.1076 92.488 28.2377C91.6954 27.3678 91.2991 26.2698 91.2991 24.9463C91.2991 23.5614 91.7068 22.4271 92.525 21.5451C93.3414 20.6622 94.4431 20.2207 95.8284 20.2207C97.1634 20.2207 98.2376 20.6556 99.0483 21.5264C99.8239 22.3712 100.211 23.4618 100.211 24.7983ZM98.1134 24.8625C98.1134 24.0383 97.9342 23.3314 97.5711 22.7418C97.1472 22.0284 96.5414 21.6727 95.7563 21.6727C94.9437 21.6727 94.3265 22.0294 93.9027 22.7418C93.5395 23.3323 93.3603 24.0504 93.3603 24.8998C93.3603 25.724 93.5395 26.4309 93.9027 27.0195C94.3398 27.7329 94.9504 28.0887 95.7383 28.0887C96.5101 28.0887 97.116 27.7255 97.5531 27.0009C97.9257 26.4002 98.1134 25.6858 98.1134 24.8625Z" fill="black"/>
<path d="M106.781 22.1495C106.581 22.1131 106.368 22.0945 106.144 22.0945C105.433 22.0945 104.883 22.3581 104.496 22.8862C104.16 23.3518 103.991 23.9404 103.991 24.6511V29.3404H101.97L101.989 23.2177C101.989 22.1877 101.964 21.2498 101.914 20.4041H103.674L103.748 22.1141H103.804C104.018 21.5264 104.354 21.0533 104.815 20.6984C105.265 20.379 105.752 20.2197 106.276 20.2197C106.463 20.2197 106.632 20.2328 106.781 20.256V22.1495Z" fill="black"/>
<path d="M115.822 24.4491C115.822 24.8049 115.798 25.1048 115.748 25.3497H109.684C109.707 26.2326 110 26.9079 110.564 27.3735C111.075 27.7898 111.735 27.9985 112.547 27.9985C113.445 27.9985 114.264 27.8578 115.001 27.5756L115.318 28.954C114.457 29.3228 113.44 29.5063 112.267 29.5063C110.857 29.5063 109.749 29.0984 108.943 28.2835C108.139 27.4685 107.736 26.3742 107.736 25.0014C107.736 23.6537 108.111 22.5315 108.861 21.6365C109.646 20.6809 110.707 20.2031 112.042 20.2031C113.353 20.2031 114.346 20.6809 115.02 21.6365C115.554 22.3955 115.822 23.3343 115.822 24.4491ZM113.894 23.9341C113.908 23.3455 113.776 22.837 113.502 22.4076C113.152 21.8553 112.614 21.5796 111.891 21.5796C111.23 21.5796 110.693 21.8488 110.282 22.389C109.945 22.8183 109.745 23.3334 109.684 23.9332H113.894V23.9341Z" fill="black"/>
</svg>
