<svg width="20" height="20" viewBox="0 0 20 20" fill="none" xmlns="http://www.w3.org/2000/svg">
<path d="M15.8594 1.21094H11.1719C8.91051 1.21094 7.07031 3.05113 7.07031 5.3125C7.07031 7.37531 8.60098 9.08734 10.5859 9.3723V11.1719C10.5859 11.4087 10.7284 11.6228 10.9476 11.7132C11.1637 11.8034 11.4172 11.755 11.5862 11.5861L13.7582 9.41406H15.8594C18.1207 9.41406 20 7.57387 20 5.3125C20 3.05113 18.1207 1.21094 15.8594 1.21094ZM11.1719 5.89836C10.8482 5.89836 10.5859 5.63602 10.5859 5.31242C10.5859 4.98883 10.8482 4.72648 11.1719 4.72648C11.4955 4.72648 11.7578 4.98883 11.7578 5.31242C11.7578 5.63602 11.4955 5.89836 11.1719 5.89836ZM13.5156 5.89836C13.192 5.89836 12.9297 5.63602 12.9297 5.31242C12.9297 4.98883 13.192 4.72648 13.5156 4.72648C13.8392 4.72648 14.1016 4.98883 14.1016 5.31242C14.1016 5.63602 13.8392 5.89836 13.5156 5.89836ZM15.8594 5.89836C15.5357 5.89836 15.2734 5.63602 15.2734 5.31242C15.2734 4.98883 15.5357 4.72648 15.8594 4.72648C16.183 4.72648 16.4453 4.98883 16.4453 5.31242C16.4453 5.63602 16.183 5.89836 15.8594 5.89836Z" fill="white"/>
<path d="M13.1641 18.7891C14.1334 18.7891 14.9219 18.0005 14.9219 17.0312V14.6875C14.9219 14.4352 14.7605 14.2114 14.5213 14.1319L11.0139 12.96C10.8423 12.9022 10.6546 12.9285 10.5036 13.0281L9.01238 14.022C7.43309 13.269 5.55914 11.395 4.80609 9.8157L5.8 8.32453C5.90012 8.17402 5.92531 7.98578 5.86809 7.81414L4.69621 4.30676C4.61672 4.06762 4.39297 3.90625 4.14062 3.90625H1.75781C0.788516 3.90625 0 4.68652 0 5.65582C0 12.4067 6.4132 18.7891 13.1641 18.7891Z" fill="white"/>
</svg>
