<svg width="40" height="40" viewBox="0 0 40 40" fill="none" xmlns="http://www.w3.org/2000/svg">
<g clip-path="url(#clip0_138_61)">
<path fill-rule="evenodd" clip-rule="evenodd" d="M0 20C0 8.95469 8.95469 0 20 0C31.0453 0 40 8.95469 40 20C40 31.0453 31.0453 40 20 40C8.95469 40 0 31.0453 0 20ZM30.7498 8.2373L22.188 18.1896H22.1875L31.4993 31.7413H24.651L18.3804 22.6156L10.5297 31.7413H8.50073L17.4796 21.3048L8.50073 8.2373H15.3491L21.2867 16.8788L28.7209 8.2373H30.7498ZM14.3771 9.7647H11.2608L25.6055 30.2834H28.7218L14.3771 9.7647Z" fill="white"/>
</g>
<defs>
<clipPath id="clip0_138_61">
<rect width="40" height="40" fill="white"/>
</clipPath>
</defs>
</svg>
