<svg width="39" height="39" viewBox="0 0 39 39" fill="none" xmlns="http://www.w3.org/2000/svg">
<path d="M0.889807 33.9672C-0.244744 35.1017 -0.244744 36.9412 0.889807 38.0758C2.02436 39.2103 3.86383 39.2103 4.99838 38.0758L0.889807 33.9672ZM38.6342 3.23656C38.6342 1.63207 37.3335 0.331367 35.729 0.331367H9.58223C7.97773 0.331367 6.67703 1.63207 6.67703 3.23656C6.67703 4.84106 7.97773 6.14176 9.58223 6.14176L32.8238 6.14176L32.8238 29.3833C32.8238 30.9878 34.1245 32.2885 35.729 32.2885C37.3335 32.2885 38.6342 30.9878 38.6342 29.3833V3.23656ZM4.99838 38.0758L37.7833 5.29085L33.6747 1.18228L0.889807 33.9672L4.99838 38.0758Z" fill="white"/>
</svg>
