<svg width="51" height="50" viewBox="0 0 51 50" fill="none" xmlns="http://www.w3.org/2000/svg">
<path d="M14.8393 14.7734H6.27873C4.006 14.7734 2.11206 16.6674 2.11206 18.9401V31.4401C2.11206 32.9553 3.32418 34.2431 4.91509 34.2431H5.74842V48.4856C5.74842 48.9401 6.05145 49.2431 6.506 49.2431H14.6121C15.0666 49.2431 15.3696 48.9401 15.3696 48.4856V34.1674H16.203C17.7181 34.1674 19.006 32.9553 19.006 31.3643V18.8643C19.006 16.5916 17.1121 14.7734 14.8393 14.7734ZM17.4908 31.3643C17.4908 32.0462 16.9605 32.6522 16.203 32.6522H15.3696V20.6068C15.3696 20.1522 15.0666 19.8492 14.6121 19.8492C14.1575 19.8492 13.8545 20.1522 13.8545 20.6068V33.4098V47.728H11.2787V33.4098C11.2787 32.9553 10.9757 32.6522 10.5212 32.6522C10.0666 32.6522 9.76358 32.9553 9.76358 33.4098V47.728H7.26358V33.4098C7.26358 33.334 7.26358 33.2583 7.18782 33.1825V20.6068C7.18782 20.1522 6.88479 19.8492 6.43024 19.8492C5.9757 19.8492 5.67267 20.1522 5.67267 20.6068V32.6522H4.91509C4.23327 32.6522 3.62721 32.1219 3.62721 31.3643V18.8643C3.62721 17.425 4.83933 16.2128 6.27873 16.2128H14.8393C16.2787 16.2128 17.4908 17.425 17.4908 18.8643V31.3643Z" fill="black"/>
<path d="M10.5969 12.7275C13.3242 12.7275 15.5969 10.4548 15.5969 7.72754C15.5969 5.00027 13.3242 2.72754 10.5969 2.72754C7.86965 2.72754 5.59692 5.00027 5.59692 7.72754C5.59692 10.4548 7.79389 12.7275 10.5969 12.7275ZM10.5969 4.24269C12.4909 4.24269 14.0818 5.8336 14.0818 7.72754C14.0818 9.62148 12.4909 11.2124 10.5969 11.2124C8.70298 11.2124 7.11208 9.62148 7.11208 7.72754C7.11208 5.8336 8.62723 4.24269 10.5969 4.24269Z" fill="black"/>
<path d="M42.8696 12.7275C46.1272 12.7275 48.8545 10.076 48.8545 6.74266C48.8545 3.40933 46.2029 0.757812 42.8696 0.757812C39.5363 0.757812 36.8848 3.40933 36.8848 6.74266C36.8848 10.076 39.612 12.7275 42.8696 12.7275ZM42.8696 2.27296C45.2939 2.27296 47.3393 4.24266 47.3393 6.74266C47.3393 9.24266 45.3696 11.2124 42.8696 11.2124C40.3696 11.2124 38.3999 9.24266 38.3999 6.74266C38.3999 4.24266 40.4454 2.27296 42.8696 2.27296Z" fill="black"/>
<path d="M41.809 8.78766C42.1121 9.16644 42.7181 9.09069 42.9454 8.7119L45.1424 5.60584C45.3696 5.30281 45.2939 4.77251 44.9909 4.54523C44.6121 4.31796 44.1575 4.39372 43.9302 4.69675L42.2636 7.04523L41.8848 6.59069C41.5818 6.28766 41.1272 6.28766 40.8242 6.51493C40.5212 6.81796 40.5212 7.27251 40.7484 7.57554L41.809 8.78766Z" fill="black"/>
<path d="M42.8696 15.7578C39.612 15.7578 36.8848 18.4093 36.8848 21.7427C36.8848 25.076 39.5363 27.7275 42.8696 27.7275C46.2029 27.7275 48.8545 25.076 48.8545 21.7427C48.8545 18.4093 46.2029 15.7578 42.8696 15.7578ZM42.8696 26.2124C40.4454 26.2124 38.3999 24.2427 38.3999 21.7427C38.3999 19.2427 40.3696 17.273 42.8696 17.273C45.3696 17.273 47.3393 19.2427 47.3393 21.7427C47.3393 24.2427 45.3696 26.2124 42.8696 26.2124Z" fill="black"/>
<path d="M43.9302 19.7728L42.2636 22.1212L41.8848 21.6667C41.5818 21.3637 41.1272 21.3637 40.8242 21.5909C40.5212 21.894 40.5212 22.3485 40.7484 22.6515L41.809 23.7879C42.1121 24.1667 42.7181 24.0909 43.0212 23.7122L45.2181 20.6061C45.4454 20.2273 45.3696 19.7728 45.0666 19.5455C44.6121 19.394 44.1575 19.4697 43.9302 19.7728Z" fill="black"/>
<path d="M42.8696 30.834C39.612 30.834 36.8848 33.4855 36.8848 36.8188C36.8848 40.1522 39.5363 42.8037 42.8696 42.8037C46.2029 42.8037 48.8545 40.1522 48.8545 36.8188C48.8545 33.4855 46.2029 30.834 42.8696 30.834ZM42.8696 41.2885C40.4454 41.2885 38.3999 39.3188 38.3999 36.8188C38.3999 34.3188 40.3696 32.3491 42.8696 32.3491C45.3696 32.3491 47.3393 34.3188 47.3393 36.8188C47.3393 39.3188 45.3696 41.2885 42.8696 41.2885Z" fill="black"/>
<path d="M34.006 4.39453H23.0969C22.6424 4.39453 22.3394 4.69756 22.3394 5.15211C22.3394 5.60665 22.6424 5.90968 23.0969 5.90968H34.006C34.4606 5.90968 34.7636 5.60665 34.7636 5.15211C34.7636 4.69756 34.4606 4.39453 34.006 4.39453Z" fill="black"/>
<path d="M23.0969 11.6665H30.3697C30.8242 11.6665 31.1272 11.3635 31.1272 10.9089C31.1272 10.4544 30.8242 10.1514 30.3697 10.1514H23.0969C22.6424 10.1514 22.3394 10.4544 22.3394 10.9089C22.3394 11.3635 22.6424 11.6665 23.0969 11.6665Z" fill="black"/>
<path d="M34.006 18.1064H23.0969C22.6424 18.1064 22.3394 18.4095 22.3394 18.864C22.3394 19.3186 22.6424 19.6216 23.0969 19.6216H34.006C34.4606 19.6216 34.7636 19.3186 34.7636 18.864C34.7636 18.4095 34.4606 18.1064 34.006 18.1064Z" fill="black"/>
<path d="M34.006 23.8643H23.0969C22.6424 23.8643 22.3394 24.1673 22.3394 24.6218C22.3394 25.0764 22.6424 25.3794 23.0969 25.3794H34.006C34.4606 25.3794 34.7636 25.0764 34.7636 24.6218C34.7636 24.243 34.4606 23.8643 34.006 23.8643Z" fill="black"/>
<path d="M34.006 31.8184H23.0969C22.6424 31.8184 22.3394 32.1214 22.3394 32.5759C22.3394 33.0305 22.6424 33.3335 23.0969 33.3335H34.006C34.4606 33.3335 34.7636 33.0305 34.7636 32.5759C34.7636 32.1214 34.4606 31.8184 34.006 31.8184Z" fill="black"/>
<path d="M27.1121 37.5762H23.0969C22.6424 37.5762 22.3394 37.8792 22.3394 38.3337C22.3394 38.7883 22.6424 39.0913 23.0969 39.0913H27.1121C27.5666 39.0913 27.8697 38.7883 27.8697 38.3337C27.8697 37.8792 27.4909 37.5762 27.1121 37.5762Z" fill="black"/>
</svg>
