<svg width="51" height="50" viewBox="0 0 51 50" fill="none" xmlns="http://www.w3.org/2000/svg">
<g clip-path="url(#clip0_296_303)">
<path d="M46.8591 3.04492H39.124C38.8296 1.31855 37.3239 0 35.515 0H15.5275C13.7186 0 12.2128 1.31855 11.9184 3.04492H4.18335C2.16401 3.04492 0.52124 4.6877 0.52124 6.70703V35.9688C0.52124 37.9881 2.16401 39.6309 4.18335 39.6309H20.4695V43.2068H20.4058C18.0433 43.2068 16.1211 45.1289 16.1211 47.4914V48.7939C16.1211 49.459 16.6622 50 17.3272 50H33.7151C34.3801 50 34.9211 49.459 34.9211 48.7939V47.4914C34.9211 45.1289 32.9991 43.2068 30.6366 43.2068H30.573V39.6309H39.2681C39.6727 39.6309 40.0005 39.303 40.0005 38.8984C40.0005 38.4938 39.6727 38.166 39.2681 38.166H4.18335C2.97173 38.166 1.98608 37.1803 1.98608 35.9688V6.70703C1.98608 5.49551 2.97173 4.50977 4.18335 4.50977H11.8654V5.97461H4.57397C3.95474 5.97461 3.45093 6.47842 3.45093 7.09766V35.5781C3.45093 36.1974 3.95474 36.7012 4.57397 36.7012H46.4685C47.0877 36.7012 47.5916 36.1974 47.5916 35.5781V7.09766C47.5916 6.47842 47.0877 5.97461 46.4685 5.97461H39.1771V4.50977H46.8591C48.0707 4.50977 49.0564 5.49551 49.0564 6.70703V35.9688C49.0564 37.1803 48.0707 38.166 46.8591 38.166H42.6862C42.2816 38.166 41.9538 38.4938 41.9538 38.8984C41.9538 39.303 42.2816 39.6309 42.6862 39.6309H46.8591C48.8785 39.6309 50.5212 37.9881 50.5212 35.9688V6.70703C50.5212 4.6877 48.8785 3.04492 46.8591 3.04492ZM21.9343 39.6309H29.1082V43.2068H21.9343V39.6309ZM21.2019 44.6719C21.2032 44.6719 21.2044 44.6717 21.2057 44.6717H29.8369C29.8381 44.6717 29.8393 44.6719 29.8407 44.6719C29.842 44.6719 29.8432 44.6717 29.8445 44.6717H30.6368C32.1916 44.6717 33.4565 45.9366 33.4565 47.4914V48.5352H17.5861V47.4914C17.5861 45.9366 18.851 44.6717 20.4059 44.6717H21.1982C21.1994 44.6717 21.2006 44.6719 21.2019 44.6719ZM37.7123 35.2359H13.3302V13.5419C13.3302 13.1373 13.0023 12.8095 12.5978 12.8095C12.1933 12.8095 11.8654 13.1373 11.8654 13.5419V35.2363H4.91577V7.43945H11.8654V10.1239C11.8654 10.5285 12.1933 10.8563 12.5978 10.8563C13.0023 10.8563 13.3302 10.5285 13.3302 10.1239V3.66211C13.3302 2.45059 14.3159 1.46484 15.5275 1.46484H35.515C36.7265 1.46484 37.7123 2.45059 37.7123 3.66211V35.2359ZM46.1267 7.43945V35.2363H39.1771V7.43945H46.1267ZM33.9544 30.8594H17.0879C16.6834 30.8594 16.3555 31.1872 16.3555 31.5918C16.3555 31.9964 16.6834 32.3242 17.0879 32.3242H33.9544C34.359 32.3242 34.6869 31.9964 34.6869 31.5918C34.6869 31.1872 34.359 30.8594 33.9544 30.8594ZM33.9544 26.4648H17.0879C16.6834 26.4648 16.3555 26.7927 16.3555 27.1973C16.3555 27.6019 16.6834 27.9297 17.0879 27.9297H33.9544C34.359 27.9297 34.6869 27.6019 34.6869 27.1973C34.6869 26.7927 34.359 26.4648 33.9544 26.4648ZM30.4423 9.78496C29.5736 8.99453 28.2294 9.03965 27.3819 9.88701L24.0455 13.2234L23.6314 12.8094C22.7885 11.9579 21.3692 11.964 20.5239 12.8093C19.6672 13.6659 19.6671 15.0599 20.5239 15.9166L22.1466 17.5396C22.6533 18.046 23.3275 18.3248 24.0454 18.3248C24.7633 18.3248 25.4376 18.0459 25.9444 17.5393L30.5185 12.965C31.3961 12.0947 31.3493 10.6103 30.4423 9.78496ZM29.4827 11.9292L24.9085 16.5034C24.6786 16.7333 24.372 16.86 24.0454 16.86C23.7187 16.86 23.4122 16.7334 23.1824 16.5037L21.5597 14.881C21.2742 14.5953 21.2742 14.1307 21.5597 13.8452C21.8416 13.5634 22.315 13.5618 22.5956 13.8451L23.3203 14.5699C23.5139 14.7637 23.7714 14.8704 24.0454 14.8704C24.3193 14.8704 24.5767 14.7638 24.7705 14.5701L28.4177 10.9229C28.7063 10.6342 29.1724 10.6101 29.4564 10.8684C29.761 11.1454 29.7765 11.6389 29.4827 11.9292ZM25.5212 4.39453C20.3518 4.39453 16.1462 8.6001 16.1462 13.7695C16.1462 18.939 20.3518 23.1445 25.5212 23.1445C30.6907 23.1445 34.8962 18.939 34.8962 13.7695C34.8962 8.6001 30.6907 4.39453 25.5212 4.39453ZM25.5212 21.6797C21.1595 21.6797 17.6111 18.1312 17.6111 13.7695C17.6111 9.40791 21.1595 5.85938 25.5212 5.85938C29.8829 5.85938 33.4314 9.40791 33.4314 13.7695C33.4314 18.1312 29.8829 21.6797 25.5212 21.6797Z" fill="black"/>
</g>
<defs>
<clipPath id="clip0_296_303">
<rect width="50" height="50" fill="white" transform="translate(0.52124)"/>
</clipPath>
</defs>
</svg>
