<svg width="51" height="50" viewBox="0 0 51 50" fill="none" xmlns="http://www.w3.org/2000/svg">
<path d="M30.1425 18.3328C30.1425 15.9086 28.1728 14.0146 25.8243 14.0146C23.4 14.0146 21.5061 15.9843 21.5061 18.3328C21.5061 20.7571 23.4 22.651 25.8243 22.651C28.2485 22.651 30.1425 20.7571 30.1425 18.3328ZM25.8243 21.2116C24.2334 21.2116 22.9455 19.9237 22.9455 18.3328C22.9455 16.7419 24.2334 15.454 25.8243 15.454C27.4152 15.454 28.7031 16.7419 28.7031 18.3328C28.7031 19.9237 27.4152 21.2116 25.8243 21.2116Z" fill="black"/>
<path d="M37.5667 47.5754C37.5667 47.9542 37.8698 48.333 38.3243 48.333C38.7031 48.333 39.0819 48.03 39.0819 47.5754C39.0819 45.2269 36.8849 43.333 34.0819 43.03C33.7031 41.136 31.8091 39.6209 29.4607 39.3936V34.5451C29.6879 34.0906 29.991 33.636 30.294 33.1057C32.3395 34.4693 34.6879 37.1966 35.597 39.3936C35.6728 39.6966 35.9758 39.8481 36.2788 39.8481C36.5819 39.8481 36.8849 39.6209 36.9607 39.3178C37.0364 39.1663 38.2485 35.0754 38.4001 33.636C38.9304 29.2421 37.3395 25.3784 34.0819 23.4845C34.5364 21.6663 34.7637 19.8481 34.7637 18.0299C34.6879 7.49964 26.5819 1.13601 26.2788 0.908736C26.0516 0.681463 25.6728 0.681463 25.3698 0.908736C24.991 1.13601 16.9607 7.49964 16.9607 18.0299C16.9607 19.8481 17.1879 21.6663 17.6425 23.4845C14.4607 25.4542 12.794 29.3178 13.3243 33.636C13.5516 35.0754 14.7637 39.1663 14.7637 39.3178C14.8395 39.6209 15.1425 39.8481 15.4455 39.8481C15.7485 39.8481 16.0516 39.6966 16.1273 39.3936C17.0364 37.1966 19.3091 34.4693 21.3546 33.1057C21.6576 33.5603 21.8849 34.0906 22.1122 34.5451V39.3936C19.7637 39.6209 17.8698 41.136 17.491 43.03C14.6879 43.333 12.491 45.2269 12.491 47.5754C12.491 47.9542 12.794 48.333 13.2485 48.333C13.6273 48.333 14.0061 48.03 14.0061 47.5754C14.0061 45.833 15.9001 44.4693 18.1728 44.4693C18.5516 44.4693 18.9304 44.1663 18.9304 43.7118C18.9304 42.1209 20.6728 40.833 22.8698 40.833C23.2485 40.833 23.6273 40.53 23.6273 40.0754V35.0754H27.8698V40.0754C27.8698 40.4542 28.1728 40.833 28.6273 40.833C30.8243 40.833 32.5667 42.1209 32.5667 43.7118C32.5667 44.0906 32.8698 44.4693 33.3243 44.4693C35.6728 44.4693 37.5667 45.9087 37.5667 47.5754ZM36.8849 33.4845C36.8091 34.2421 36.3546 35.9087 35.9758 37.1966C34.6879 35.1512 32.7182 33.03 30.9001 31.8936C31.9607 29.8481 32.9455 27.4996 33.6273 24.9996C36.1273 26.6663 37.3395 29.7724 36.8849 33.4845ZM25.8243 2.42389C26.7334 3.25722 28.9304 5.37843 30.6728 8.48449C27.794 10.4542 23.9304 10.4542 20.9758 8.48449C22.7182 5.37843 24.9152 3.25722 25.8243 2.42389ZM15.6728 37.1209C15.294 35.833 14.8395 34.1663 14.7637 33.4087C14.3091 29.7724 15.5213 26.6663 18.0213 24.9239C18.7031 27.4239 19.6879 29.7724 20.7485 31.8178C18.9304 33.03 16.9607 35.0754 15.6728 37.1209ZM23.3243 33.636C20.6728 29.0148 18.4001 23.333 18.4001 18.0299C18.4001 14.9239 19.2334 12.1209 20.294 9.84813C21.9607 10.9087 23.8546 11.5148 25.8243 11.5148C27.794 11.5148 29.6879 10.9845 31.3546 9.84813C32.4152 12.1209 33.2485 14.9239 33.2485 18.0299C33.2485 23.7118 30.597 29.6209 28.2485 33.636H23.3243Z" fill="black"/>
<path d="M29.8396 45.7568C29.4608 45.7568 29.082 46.0599 29.082 46.5144C29.082 46.969 29.3851 47.272 29.8396 47.272C30.8245 47.272 31.7335 47.878 31.7335 48.5599C31.7335 48.9387 32.0366 49.3174 32.4911 49.3174C32.8699 49.3174 33.2487 49.0144 33.2487 48.5599C33.1729 46.969 31.6578 45.7568 29.8396 45.7568Z" fill="black"/>
<path d="M18.4758 48.4847C18.4758 48.8635 18.7789 49.2422 19.2334 49.2422C19.6122 49.2422 19.991 48.9392 19.991 48.4847C19.991 47.8029 20.8243 47.1968 21.8849 47.1968C22.2637 47.1968 22.6425 46.8938 22.6425 46.4392C22.6425 45.9847 22.3395 45.6816 21.8849 45.6816C19.9152 45.7574 18.4758 46.9695 18.4758 48.4847Z" fill="black"/>
<path d="M22.8696 42.575V44.1659C22.8696 44.5447 23.1727 44.9234 23.6272 44.9234C24.006 44.9234 24.3848 44.6204 24.3848 44.1659V42.575C24.3848 42.1962 24.0818 41.8174 23.6272 41.8174C23.1727 41.8931 22.8696 42.1962 22.8696 42.575Z" fill="black"/>
<path d="M25.4456 39.1668V42.6516C25.4456 43.0304 25.7486 43.4092 26.2031 43.4092C26.5819 43.4092 26.9607 43.1061 26.9607 42.6516V39.1668C26.9607 38.788 26.6577 38.4092 26.2031 38.4092C25.8243 38.4092 25.4456 38.7122 25.4456 39.1668Z" fill="black"/>
<path d="M41.2789 24.3175C41.6576 24.3175 42.0364 24.0144 42.0364 23.5599V23.0296H42.5667C42.9455 23.0296 43.3243 22.7266 43.3243 22.272C43.3243 21.8175 43.0213 21.5144 42.5667 21.5144H42.0364V20.9841C42.0364 20.6054 41.7334 20.2266 41.2789 20.2266C40.9001 20.2266 40.5213 20.5296 40.5213 20.9841V21.5144H39.991C39.6122 21.5144 39.2334 21.8175 39.2334 22.272C39.2334 22.7266 39.5364 23.0296 39.991 23.0296H40.5213V23.5599C40.597 23.9387 40.9001 24.3175 41.2789 24.3175Z" fill="black"/>
<path d="M39.688 15.9847V15.4544H40.2183C40.5971 15.4544 40.9759 15.1514 40.9759 14.6968C40.9759 14.2423 40.6729 13.9392 40.2183 13.9392H39.688V13.4089C39.688 13.0302 39.385 12.6514 38.9305 12.6514C38.4759 12.6514 38.1729 12.9544 38.1729 13.4089V13.9392H37.6426C37.2638 13.9392 36.885 14.2423 36.885 14.6968C36.885 15.1514 37.188 15.4544 37.6426 15.4544H38.1729V15.9847C38.1729 16.3635 38.4759 16.7423 38.9305 16.7423C39.385 16.7423 39.688 16.3635 39.688 15.9847Z" fill="black"/>
<path d="M44.0062 9.92401V9.3937H44.5365C44.9152 9.3937 45.294 9.09067 45.294 8.63613C45.294 8.25734 44.991 7.87855 44.5365 7.87855H44.0062V7.49976C44.0062 7.12098 43.7031 6.74219 43.2486 6.74219C42.794 6.74219 42.491 7.04522 42.491 7.49976V8.03007H41.9607C41.5819 8.03007 41.2031 8.3331 41.2031 8.78764C41.2031 9.16643 41.5062 9.54522 41.9607 9.54522H42.491V10.0755C42.491 10.4543 42.794 10.8331 43.2486 10.8331C43.7031 10.8331 44.0062 10.3786 44.0062 9.92401Z" fill="black"/>
<path d="M10.9759 11.9691V11.4388H11.5062C11.885 11.4388 12.2638 11.1357 12.2638 10.6812C12.2638 10.3024 11.9607 9.92362 11.5062 9.92362H10.9759V9.39332C10.9759 9.01453 10.6729 8.63574 10.2183 8.63574C9.83952 8.63574 9.46073 8.93877 9.46073 9.39332V9.92362H8.93043C8.55164 9.92362 8.17285 10.2267 8.17285 10.6812C8.17285 11.06 8.47588 11.4388 8.93043 11.4388H9.46073V11.9691C9.46073 12.3479 9.76376 12.7267 10.2183 12.7267C10.6729 12.7267 10.9759 12.4236 10.9759 11.9691Z" fill="black"/>
<path d="M12.7181 20.6056C13.0969 20.6056 13.4757 20.3025 13.4757 19.848V19.3177H14.006C14.3848 19.3177 14.7636 19.0146 14.7636 18.5601C14.7636 18.1813 14.4606 17.8025 14.006 17.8025H13.4V17.2722C13.4 16.8934 13.0969 16.5146 12.6424 16.5146C12.2636 16.5146 11.8848 16.8177 11.8848 17.2722V17.8025H11.3545C10.9757 17.8025 10.5969 18.1056 10.5969 18.5601C10.5969 18.9389 10.9 19.3177 11.3545 19.3177H11.8848V19.848C11.9606 20.2268 12.2636 20.6056 12.7181 20.6056Z" fill="black"/>
<path d="M7.79399 29.7725C8.17278 29.7725 8.55157 29.4695 8.55157 29.015V28.4847H9.08187C9.46066 28.4847 9.83944 28.1816 9.83944 27.7271C9.83944 27.3483 9.53641 26.9695 9.08187 26.9695H8.55157V26.4392C8.55157 26.0604 8.24854 25.6816 7.79399 25.6816C7.33944 25.6816 7.03641 25.9847 7.03641 26.4392V26.9695H6.50611C6.12732 26.9695 5.74854 27.2725 5.74854 27.7271C5.74854 28.1059 6.05157 28.4847 6.50611 28.4847H7.03641V29.015C7.03641 29.4695 7.33944 29.7725 7.79399 29.7725Z" fill="black"/>
</svg>
