<svg width="61" height="61" viewBox="0 0 61 61" fill="none" xmlns="http://www.w3.org/2000/svg">
<path fill-rule="evenodd" clip-rule="evenodd" d="M20.7606 20.0851L15.8125 15.1343C15.6029 15.3807 15.3742 15.6103 15.1286 15.8208L20.0789 20.767C20.2984 20.532 20.5257 20.3046 20.7609 20.0851H20.7606ZM29.9688 9.34992V16.3343C30.074 16.332 30.1795 16.3308 30.2852 16.3308C30.5034 16.3308 30.7205 16.3357 30.9364 16.3457V9.32438C30.6155 9.36617 30.2912 9.37458 29.9686 9.34945L29.9688 9.34992ZM44.867 15.2604L39.9297 20.1977C40.1629 20.4207 40.3883 20.6516 40.606 20.8903L45.574 15.9297C45.3231 15.7232 45.0871 15.4994 44.8675 15.2599L44.867 15.2604ZM51.237 29.8103H44.2371C44.2425 29.9701 44.2453 30.1306 44.2454 30.2917C44.2454 30.4528 44.2427 30.6132 44.2371 30.7731H51.237C51.2153 30.4525 51.2153 30.1308 51.237 29.8103ZM16.3252 30.2913C16.3252 30.1303 16.3279 29.9698 16.3334 29.8099H9.33426C9.35523 30.1305 9.35523 30.4521 9.33426 30.7727H16.3334C16.3279 30.6129 16.3252 30.4524 16.3252 30.2913ZM20.1913 39.9349L15.2556 44.8706C15.4858 45.0967 15.7068 45.3311 15.9169 45.5822L20.8857 40.6134C20.6464 40.3954 20.4148 40.1693 20.191 39.9352L20.1913 39.9349ZM29.9688 44.2484V51.2327C30.2917 51.2146 30.6156 51.2258 30.9365 51.2662V44.2366C30.7207 44.2465 30.5036 44.2514 30.2853 44.2515C30.1795 44.2515 30.074 44.2503 29.9689 44.248L29.9688 44.2484ZM39.8043 40.5032L44.7582 45.4485C44.9733 45.2098 45.2016 44.9834 45.4422 44.7704L40.4922 39.815C40.2709 40.0521 40.0416 40.2812 39.8043 40.5026V40.5032ZM14.8027 51.5092C14.2355 52.0767 13.5128 52.4632 12.7259 52.6199C11.9391 52.7766 11.1234 52.6964 10.3821 52.3895C9.64084 52.0825 9.00723 51.5626 8.56144 50.8956C8.11565 50.2285 7.8777 49.4442 7.8777 48.6419C7.8777 47.8396 8.11565 47.0553 8.56144 46.3882C9.00723 45.7211 9.64084 45.2013 10.3821 44.8943C11.1234 44.5874 11.9391 44.5072 12.7259 44.6639C13.5128 44.8206 14.2355 45.2071 14.8027 45.7746C15.5601 46.5367 15.9852 47.5675 15.9852 48.6419C15.9852 49.7163 15.5601 50.7471 14.8027 51.5092ZM45.7679 45.7746C46.3349 45.208 47.0571 44.8222 47.8434 44.6661C48.6296 44.5099 49.4445 44.5903 50.185 44.8972C50.9255 45.2041 51.5584 45.7236 52.0037 46.3902C52.449 47.0567 52.6866 47.8403 52.6866 48.6419C52.6866 49.4435 52.449 50.2271 52.0037 50.8936C51.5584 51.5601 50.9255 52.0797 50.185 52.3866C49.4445 52.6935 48.6296 52.7739 47.8434 52.6177C47.0571 52.4616 46.3349 52.0758 45.7679 51.5092C45.0082 50.7483 44.5815 49.7171 44.5815 48.6419C44.5815 47.5667 45.0082 46.5355 45.7679 45.7746ZM56.2327 26.2351C57.0349 26.2343 57.8194 26.4714 58.4868 26.9163C59.1543 27.3613 59.6749 27.9943 59.9826 28.7351C60.2904 29.4759 60.3716 30.2914 60.2159 31.0784C60.0602 31.8653 59.6746 32.5885 59.108 33.1563C58.5413 33.7242 57.819 34.1112 57.0324 34.2685C56.2457 34.4259 55.4301 34.3464 54.6886 34.0402C53.9471 33.7339 53.3131 33.2147 52.8667 32.5482C52.4204 31.8816 52.1817 31.0976 52.1808 30.2954C52.1816 29.2203 52.6084 28.1892 53.3679 27.4282C54.1274 26.6671 55.1575 26.2381 56.2327 26.2351ZM45.7679 9.08156C46.1438 8.70473 46.5904 8.40576 47.0821 8.20177C47.5737 7.99778 48.1008 7.89277 48.6331 7.89277C49.1654 7.89277 49.6925 7.99778 50.1841 8.20177C50.6758 8.40576 51.1224 8.70473 51.4983 9.08156C52.0655 9.64834 52.4519 10.3706 52.6085 11.157C52.7651 11.9434 52.685 12.7585 52.3783 13.4994C52.0716 14.2403 51.5521 14.8735 50.8854 15.319C50.2187 15.7646 49.4349 16.0024 48.6331 16.0024C47.8313 16.0024 47.0474 15.7646 46.3808 15.319C45.7141 14.8735 45.1946 14.2403 44.8878 13.4994C44.5811 12.7585 44.501 11.9434 44.6577 11.157C44.8143 10.3706 45.2007 9.64834 45.7679 9.08156ZM14.8027 14.8161C14.0416 15.573 13.0114 15.9971 11.938 15.9954C10.8647 15.9937 9.83583 15.5664 9.07712 14.8071C8.31842 14.0479 7.89182 13.0187 7.8909 11.9454C7.88999 10.872 8.31482 9.84211 9.07223 9.08156C9.83417 8.32549 10.8641 7.90123 11.9375 7.90123C13.0109 7.90123 14.0408 8.32549 14.8027 9.08156C15.5626 9.84232 15.9894 10.8736 15.9894 11.9488C15.9894 13.0241 15.5626 14.0554 14.8027 14.8161ZM34.3371 56.2392C34.3372 57.0407 34.0996 57.8243 33.6544 58.4907C33.2092 59.1572 32.5763 59.6767 31.8358 59.9835C31.0953 60.2902 30.2805 60.3705 29.4944 60.2142C28.7083 60.0579 27.9862 59.6719 27.4194 59.1052C26.8526 58.5384 26.4667 57.8163 26.3103 57.0302C26.154 56.2441 26.2342 55.4293 26.541 54.6888C26.8477 53.9483 27.3672 53.3154 28.0337 52.8701C28.7001 52.4249 29.4836 52.1873 30.2852 52.1873C31.3595 52.1883 32.3895 52.6155 33.1492 53.3752C33.9088 54.1349 34.336 55.1649 34.337 56.2392H34.3371ZM38.1429 40.6009C37.3674 41.1896 36.53 41.6921 35.6457 42.0995V36.2979C35.6457 36.1694 35.5946 36.0462 35.5038 35.9554C35.413 35.8646 35.2898 35.8136 35.1613 35.8136C35.0329 35.8136 34.9097 35.8646 34.8189 35.9554C34.728 36.0462 34.677 36.1694 34.677 36.2979V42.4929C31.8378 43.5087 28.7343 43.5087 25.8951 42.4929V36.2979C25.8961 36.2338 25.8843 36.1701 25.8605 36.1106C25.8366 36.051 25.8012 35.9968 25.7562 35.9511C25.7112 35.9054 25.6575 35.8691 25.5984 35.8444C25.5392 35.8196 25.4758 35.8068 25.4116 35.8068C25.3475 35.8068 25.284 35.8196 25.2249 35.8444C25.1657 35.8691 25.1121 35.9054 25.0671 35.9511C25.0221 35.9968 24.9866 36.051 24.9628 36.1106C24.9389 36.1701 24.9272 36.2338 24.9282 36.2979V42.0995C24.0427 41.6927 23.2045 41.1902 22.4284 40.6009V34.7156C22.4795 33.4348 23.2673 32.4135 24.4376 32.1204L29.3182 30.8647C29.629 30.7804 29.949 30.7354 30.271 30.7308C30.276 30.7308 30.2802 30.7391 30.2853 30.7391C30.2903 30.7391 30.2944 30.7308 30.3003 30.7308C30.6219 30.7354 30.9418 30.7804 31.2522 30.8647L36.1346 32.1204C37.3049 32.4134 38.091 33.4348 38.1429 34.7156V40.6009ZM27.3686 24.8203C27.3559 23.8325 27.6507 23.012 28.2191 22.4428C28.7647 21.9125 29.4985 21.6204 30.2593 21.6307H30.3187C31.0763 21.6256 31.8059 21.9171 32.3514 22.4428C32.9199 23.012 33.2145 23.8325 33.202 24.8203C33.1894 25.825 32.9407 29.1234 30.2853 29.7512C27.6298 29.1234 27.3811 25.8254 27.3686 24.8203ZM26.2325 4.3432C26.234 3.54208 26.473 2.7594 26.9193 2.09406C27.3655 1.42871 27.9989 0.910548 28.7395 0.605047C29.4801 0.299546 30.2946 0.220412 31.0801 0.377643C31.8657 0.534874 32.587 0.921414 33.1529 1.48843C33.7189 2.05544 34.1041 2.77747 34.2598 3.56331C34.4156 4.34915 34.3349 5.16352 34.028 5.90353C33.7211 6.64354 33.2018 7.27598 32.5356 7.72095C31.8694 8.16592 31.0863 8.40345 30.2852 8.40352C29.2093 8.4024 28.178 7.97402 27.418 7.21259C26.6579 6.45116 26.2315 5.41903 26.2323 4.3432H26.2325ZM30.2852 17.3277C32.8897 17.3256 35.4345 18.1085 37.5874 19.5743C39.7404 21.0401 41.4016 23.1208 42.3544 25.5448C43.3072 27.9688 43.5073 30.6238 42.9286 33.1632C42.35 35.7027 41.0194 38.0088 39.1105 39.7808V34.7073C39.1104 34.7016 39.1096 34.696 39.1081 34.6905C39.0461 32.9743 37.9729 31.593 36.3755 31.1828L31.9527 30.0526C33.5267 28.914 34.1461 26.7626 34.1696 24.8371C34.1863 23.5814 33.7936 22.5182 33.037 21.7646C32.2964 21.0555 31.3105 20.6596 30.2852 20.6596C29.2598 20.6596 28.274 21.0555 27.5334 21.7646C26.7774 22.5182 26.3849 23.5811 26.4014 24.8371C26.4241 26.7626 27.0453 28.914 28.6184 30.0526L24.1956 31.1828C22.5991 31.5929 21.5237 32.9743 21.4622 34.6905C21.4614 34.6989 21.4614 34.7073 21.4614 34.7073V39.7805C19.5523 38.0087 18.2215 35.7026 17.6426 33.1632C17.0638 30.6237 17.2637 27.9687 18.2164 25.5446C19.1691 23.1205 20.8303 21.0398 22.9833 19.574C25.1362 18.1081 27.681 17.3252 30.2856 17.3273L30.2852 17.3277ZM4.33727 26.2351C5.13947 26.2343 5.9239 26.4714 6.59136 26.9165C7.25881 27.3615 7.77931 27.9944 8.08704 28.7353C8.39477 29.4761 8.47591 30.2916 8.3202 31.0785C8.16448 31.8655 7.77891 32.5886 7.21224 33.1564C6.64556 33.7242 5.92324 34.1113 5.1366 34.2686C4.34997 34.4259 3.53435 34.3464 2.79289 34.0401C2.05143 33.7339 1.41743 33.2147 0.971059 32.5481C0.524687 31.8816 0.285991 31.0976 0.285156 30.2954C0.286082 29.2203 0.713003 28.1894 1.47244 27.4284C2.23187 26.6673 3.26192 26.2383 4.33703 26.2351H4.33727Z" fill="white"/>
</svg>
