<svg width="53" height="54" viewBox="0 0 53 54" fill="none" xmlns="http://www.w3.org/2000/svg">
<path fill-rule="evenodd" clip-rule="evenodd" d="M52.5475 26.873C52.5475 22.1621 51.2912 17.566 48.9088 13.5383C47.8471 14.0738 46.6482 14.3762 45.3803 14.3762C41.0396 14.3762 37.5076 10.8441 37.5076 6.50352C37.5076 5.4207 37.7279 4.38945 38.1252 3.44844C34.4889 1.61445 30.4236 0.646484 26.3221 0.646484C22.2205 0.646484 18.1553 1.61445 14.5189 3.44844C14.9162 4.38828 15.1365 5.4207 15.1365 6.50352C15.1365 10.8453 11.6045 14.3762 7.26387 14.3762C5.9959 14.3762 4.79824 14.0727 3.73535 13.5383C1.35293 17.566 0.0966797 22.1621 0.0966797 26.873C0.0966797 31.5852 1.35293 36.1813 3.73535 40.2078C4.79824 39.6734 5.9959 39.3699 7.26387 39.3699C11.6045 39.3699 15.1365 42.902 15.1365 47.2426C15.1365 48.3254 14.9162 49.3578 14.5189 50.2977C18.1553 52.1305 22.2217 53.0984 26.3221 53.0984C30.4236 53.0984 34.4889 52.1305 38.1252 50.2977C37.7279 49.3578 37.5076 48.3254 37.5076 47.2426C37.5076 42.902 41.0396 39.3699 45.3803 39.3699C46.6482 39.3699 47.8471 39.6734 48.9088 40.2078C51.2912 36.1801 52.5475 31.5852 52.5475 26.873ZM9.27715 44.1875H10.4936V50.2977H9.27715V44.1875ZM6.65566 46.4176H7.8709V50.2977H6.65566V46.4176ZM5.24941 48.6477V50.2977H4.03418V48.6477H5.24941ZM7.8709 43.4844C7.8709 43.0965 8.18613 42.7812 8.57402 42.7812H11.1967C11.5846 42.7812 11.8998 43.0965 11.8998 43.4844V51.0008C11.8998 51.3887 11.5846 51.7039 11.1967 51.7039H3.33105C2.94316 51.7039 2.62793 51.3887 2.62793 51.0008V47.9445C2.62793 47.5566 2.94316 47.2414 3.33105 47.2414H5.24941V45.7145C5.24941 45.3266 5.56465 45.0113 5.95254 45.0113H7.8709V43.4844ZM13.7303 47.2426C13.7303 50.8086 10.8287 53.709 7.26387 53.709C3.69785 53.709 0.797461 50.8086 0.797461 47.2426C0.797461 43.6766 3.69785 40.7762 7.26387 40.7762C10.8287 40.7762 13.7303 43.6766 13.7303 47.2426ZM45.3803 42.0441C45.7693 42.0441 46.0834 42.3594 46.0834 42.7473V43.5957C46.8346 43.7891 47.4545 44.3047 47.7182 44.9996C47.8553 45.3629 47.6725 45.7684 47.3092 45.9066C46.9459 46.0438 46.5404 45.8609 46.4033 45.4977C46.2732 45.1555 45.8701 44.9164 45.4236 44.9164C44.8705 44.9164 44.4041 45.2832 44.4041 45.718C44.4041 45.9336 44.4896 46.1938 44.7299 46.2758L45.6088 46.577C45.6193 46.5816 45.6299 46.5852 45.6404 46.5898L46.7174 47.0176C47.3725 47.2789 47.7639 47.9328 47.7639 48.7672C47.7639 49.748 47.0572 50.5801 46.0834 50.8672V51.7379C46.0834 52.1258 45.7693 52.441 45.3803 52.441C44.9924 52.441 44.6772 52.1258 44.6772 51.7379V50.8895C43.926 50.6961 43.3061 50.1805 43.0436 49.4855C42.9053 49.1223 43.0893 48.7168 43.4514 48.5785C43.8147 48.4414 44.2213 48.6242 44.3584 48.9875C44.4885 49.3297 44.8904 49.5688 45.3369 49.5688C45.89 49.5688 46.3576 49.202 46.3576 48.7672C46.3576 48.5855 46.3072 48.3687 46.1971 48.3242L45.1365 47.9023L44.274 47.6059C43.4982 47.341 42.9979 46.5992 42.9979 45.718C42.9979 44.7371 43.7045 43.9051 44.6772 43.618V42.7473C44.6772 42.3594 44.9924 42.0441 45.3803 42.0441ZM45.3803 40.7762C48.9463 40.7762 51.8467 43.6766 51.8467 47.2426C51.8467 50.8086 48.9463 53.709 45.3803 53.709C41.8154 53.709 38.9139 50.8086 38.9139 47.2426C38.9139 43.6766 41.8154 40.7762 45.3803 40.7762ZM27.5619 31.6473C31.1713 31.6473 34.2639 34.2523 34.9084 37.768C32.4721 39.6969 29.4779 40.7445 26.3221 40.7445C23.1662 40.7445 20.1732 39.6969 17.7357 37.768C18.3803 34.2523 21.4729 31.6473 25.0822 31.6473H27.5619ZM30.8643 25.1902C30.8643 27.6945 28.8264 29.7324 26.3221 29.7324C23.8178 29.7324 21.7799 27.6945 21.7799 25.1902C21.7799 22.6848 23.8178 20.6469 26.3221 20.6469C28.8264 20.6469 30.8643 22.6848 30.8643 25.1902ZM48.0697 3.03359L49.1092 2.675C49.4279 2.56484 49.7795 2.69609 49.9482 2.98789L50.7088 4.30625C50.8775 4.59805 50.8154 4.96836 50.5611 5.18867L49.7303 5.91055C49.7572 6.10742 49.7701 6.30547 49.7701 6.50352C49.7701 6.70273 49.7572 6.90078 49.7303 7.09766L50.5611 7.81953C50.8154 8.03984 50.8775 8.41016 50.7088 8.70195L49.9482 10.0203C49.7795 10.3121 49.4279 10.4434 49.1092 10.3332L48.0697 9.97461C47.7545 10.2184 47.4088 10.4188 47.0408 10.5688L46.8322 11.6492C46.7678 11.9797 46.4783 12.2187 46.142 12.2187H44.6197C44.2822 12.2187 43.9928 11.9797 43.9295 11.6492L43.7197 10.5699C43.3529 10.4199 43.0061 10.2195 42.692 9.97578L41.6514 10.3344C41.3338 10.4445 40.9822 10.3133 40.8135 10.0215L40.0518 8.70312C39.8842 8.41133 39.9463 8.04102 40.2006 7.8207L41.0314 7.09883C41.0045 6.90313 40.9904 6.70391 40.9904 6.50469C40.9904 6.30664 41.0045 6.10742 41.0314 5.91172L40.2006 5.18984C39.9463 4.96953 39.8842 4.59922 40.0518 4.30742L40.8135 2.98906C40.9822 2.69727 41.3338 2.56602 41.6514 2.67617L42.692 3.03477C43.0061 2.79219 43.3529 2.5918 43.7197 2.44062L43.9295 1.36016C43.9928 1.02969 44.2822 0.791797 44.6197 0.791797H46.142C46.4783 0.791797 46.7678 1.03086 46.8322 1.36016L47.0408 2.44062C47.4076 2.59062 47.7545 2.78984 48.0697 3.03359ZM45.3803 12.9699C41.8154 12.9699 38.9139 10.0684 38.9139 6.50352C38.9139 2.93867 41.8154 0.0371094 45.3803 0.0371094C48.9463 0.0371094 51.8467 2.93867 51.8467 6.50352C51.8467 10.0695 48.9475 12.9699 45.3803 12.9699ZM46.1783 6.50352C46.1783 6.94414 45.8209 7.30156 45.3803 7.30156C44.9408 7.30156 44.5834 6.94414 44.5834 6.50352C44.5834 6.06406 44.9408 5.70664 45.3803 5.70664C45.8209 5.70664 46.1783 6.06406 46.1783 6.50352ZM45.3803 4.30039C46.5955 4.30039 47.5846 5.28945 47.5846 6.50352C47.5846 7.71875 46.5955 8.70781 45.3803 8.70781C44.165 8.70781 43.1771 7.71875 43.1771 6.50352C43.1771 5.28828 44.165 4.30039 45.3803 4.30039ZM42.4787 5.80625C42.5396 5.55195 42.4541 5.28359 42.2561 5.11133L41.56 4.50664L41.7416 4.19258L42.6135 4.49375C42.8619 4.5793 43.1373 4.51953 43.3271 4.33906C43.6682 4.01562 44.0854 3.77539 44.533 3.6418C44.785 3.5668 44.9736 3.35938 45.024 3.10156L45.1998 2.19688H45.5619L45.7377 3.10156C45.7869 3.35938 45.9768 3.56797 46.2287 3.6418C46.6764 3.77422 47.0936 4.01562 47.4346 4.33906C47.6244 4.51953 47.8998 4.5793 48.1471 4.49375L49.0201 4.19258L49.2006 4.50664L48.5045 5.11133C48.3064 5.28359 48.2209 5.55078 48.2818 5.80625C48.3369 6.03359 48.3639 6.26797 48.3639 6.50352C48.3639 6.73906 48.3369 6.97344 48.2818 7.20078C48.2209 7.45625 48.3064 7.72344 48.5045 7.8957L49.2006 8.50039L49.0201 8.81445L48.1471 8.51328C47.8998 8.42773 47.6244 8.4875 47.4346 8.66797C47.0936 8.99141 46.6764 9.23281 46.2287 9.36523C45.9768 9.43906 45.7869 9.64766 45.7377 9.90547L45.5619 10.8113H45.1998L45.024 9.90547C44.9736 9.64766 44.785 9.43906 44.533 9.36523C44.0854 9.23281 43.6682 8.99141 43.3271 8.66797C43.1361 8.4875 42.8619 8.42773 42.6135 8.51328L41.7416 8.81445L41.56 8.50039L42.2561 7.8957C42.4541 7.72344 42.5396 7.45625 42.4787 7.20078C42.4248 6.97344 42.3967 6.73906 42.3967 6.50352C42.3967 6.26797 42.4248 6.03359 42.4787 5.80625ZM7.26387 12.9699C3.69785 12.9699 0.797461 10.0684 0.797461 6.50352C0.797461 2.93867 3.69902 0.0371094 7.26387 0.0371094C10.8287 0.0371094 13.7303 2.93867 13.7303 6.50352C13.7303 10.0695 10.8287 12.9699 7.26387 12.9699ZM6.56074 6.50352V2.78398C6.56074 2.39492 6.87481 2.08086 7.26387 2.08086C7.65176 2.08086 7.96699 2.39609 7.96699 2.78398V5.80039H9.45293C9.84082 5.80039 10.1561 6.11563 10.1561 6.50352C10.1561 6.89258 9.84082 7.20664 9.45293 7.20664H7.26387C6.87481 7.20664 6.56074 6.89258 6.56074 6.50352ZM15.5197 16.0707C21.4764 10.1141 31.1678 10.1141 37.1244 16.0707C43.0811 22.0273 43.0811 31.7187 37.1244 37.6754C34.2393 40.5617 30.4025 42.1508 26.3221 42.1508C22.2416 42.1508 18.4049 40.5617 15.5197 37.6754C9.56309 31.7187 9.56309 22.0273 15.5197 16.0707Z" fill="white"/>
</svg>
