<svg width="61" height="61" viewBox="0 0 61 61" fill="none" xmlns="http://www.w3.org/2000/svg">
<rect x="0.976807" y="0.269043" width="60" height="60" rx="15" fill="white"/>
<g clip-path="url(#clip0_243_257)">
<path d="M43.9768 16.269H31.2993C30.5009 15.6221 29.5044 15.269 28.4768 15.269C27.4492 15.269 26.4527 15.6221 25.6543 16.269H17.9768C17.4464 16.269 16.9377 16.4797 16.5626 16.8548C16.1875 17.2298 15.9768 17.7385 15.9768 18.269V38.269C15.9768 38.7994 16.1875 39.3081 16.5626 39.6832C16.9377 40.0583 17.4464 40.269 17.9768 40.269H26.7383L26.1383 41.769H24.4768C24.079 41.769 23.6975 41.927 23.4161 42.2083C23.1348 42.4896 22.9768 42.8711 22.9768 43.269V44.269C22.9768 44.5342 23.0822 44.7885 23.2697 44.9761C23.4572 45.1636 23.7116 45.269 23.9768 45.269H37.9768C38.242 45.269 38.4964 45.1636 38.6839 44.9761C38.8715 44.7885 38.9768 44.5342 38.9768 44.269V43.269C38.9768 42.8711 38.8188 42.4896 38.5375 42.2083C38.2562 41.927 37.8746 41.769 37.4768 41.769H35.8153L35.2153 40.269H43.9768C44.5072 40.269 45.0159 40.0583 45.391 39.6832C45.7661 39.3081 45.9768 38.7994 45.9768 38.269V18.269C45.9768 17.7385 45.7661 17.2298 45.391 16.8548C45.0159 16.4797 44.5072 16.269 43.9768 16.269ZM44.9768 18.269V36.269H32.4768V32.7625L32.9833 33.7085C33.091 33.9641 33.2586 34.19 33.472 34.3672C33.6853 34.5444 33.9383 34.6676 34.2093 34.7265C34.4722 34.7884 34.7461 34.787 35.0084 34.7223C35.2707 34.6577 35.5138 34.5316 35.7178 34.3545L39.0013 31.9135C39.0892 31.8361 39.1609 31.7421 39.2124 31.6369C39.2639 31.5317 39.2941 31.4174 39.3013 31.3005C39.6902 30.9775 40.1365 30.7307 40.6168 30.573C40.7554 30.5316 40.8871 30.4701 41.0078 30.3905C41.204 30.2679 41.373 30.1064 41.5042 29.9159C41.6355 29.7254 41.7262 29.51 41.7708 29.283C41.8141 29.0625 41.8115 28.8354 41.7631 28.616C41.7148 28.3965 41.6217 28.1894 41.4898 28.0075C41.2424 27.6704 40.8835 27.4319 40.4768 27.3345V23.769C40.4768 23.6364 40.4241 23.5092 40.3304 23.4154C40.2366 23.3216 40.1094 23.269 39.9768 23.269C39.8442 23.269 39.717 23.3216 39.6233 23.4154C39.5295 23.5092 39.4768 23.6364 39.4768 23.769V27.358C39.3268 27.4019 39.1833 27.4658 39.0503 27.548C38.8356 27.6715 38.6625 27.8559 38.5528 28.078C38.2957 28.553 37.9498 28.9743 37.5338 29.319C37.2986 29.2924 37.0624 29.36 36.8768 29.507L35.7138 30.4755L35.0413 28.6815C34.832 28.118 34.4853 27.6156 34.0327 27.2201C33.58 26.8246 33.0358 26.5483 32.4493 26.4165L30.4768 25.886V25.136C30.8805 24.8551 31.2205 24.4922 31.4745 24.0711C31.7286 23.65 31.891 23.1801 31.9513 22.692C32.2497 22.5921 32.5093 22.401 32.6933 22.1456C32.8773 21.8903 32.9764 21.5837 32.9768 21.269V19.769C32.9776 18.8785 32.7126 18.008 32.2158 17.269H43.9768C44.242 17.269 44.4964 17.3743 44.6839 17.5619C44.8715 17.7494 44.9768 18.0038 44.9768 18.269ZM24.9768 30.269C24.8442 30.269 24.717 30.3216 24.6233 30.4154C24.5295 30.5092 24.4768 30.6364 24.4768 30.769V36.269H22.9768V29.784C22.9753 29.2307 23.1496 28.6912 23.4746 28.2434C23.7995 27.7956 24.2583 27.4626 24.7848 27.2925C25.0817 28.0506 25.577 28.7149 26.2188 29.216C26.4005 29.3471 26.6157 29.4239 26.8393 29.4375L26.9643 29.8125L26.4863 33.0065C26.4624 33.1767 26.4869 33.3502 26.5572 33.5071C26.6274 33.664 26.7404 33.7979 26.8833 33.8935L27.9713 34.619C28.121 34.7187 28.2969 34.772 28.4768 34.772C28.6567 34.772 28.8326 34.7187 28.9823 34.619L30.0703 33.896C30.2136 33.8 30.3268 33.6654 30.3969 33.5079C30.4671 33.3503 30.4913 33.1762 30.4668 33.0055L29.9893 29.815L30.1128 29.444C30.3364 29.4295 30.5513 29.3516 30.7323 29.2195C31.3543 28.7367 31.8382 28.0986 32.1353 27.3695L32.2108 27.3895C32.6388 27.4837 33.0363 27.6836 33.3672 27.9709C33.698 28.2583 33.9516 28.6239 34.1048 29.0345L34.7768 30.828C34.8311 30.9725 34.9189 31.1021 35.0329 31.2062C35.1469 31.3103 35.2839 31.3859 35.4328 31.4269C35.5816 31.4678 35.738 31.473 35.8893 31.4419C36.0405 31.4108 36.1822 31.3443 36.3028 31.248L37.4268 30.348L38.2503 31.2275L35.0868 33.5775C34.9985 33.6568 34.8924 33.7138 34.7774 33.7436C34.6625 33.7733 34.542 33.775 34.4263 33.7485C34.3039 33.7197 34.1904 33.6614 34.0956 33.5787C34.0009 33.496 33.9278 33.3914 33.8828 33.274L32.4173 30.531C32.3646 30.4327 32.2805 30.3549 32.1784 30.31C32.0764 30.265 31.9622 30.2554 31.8541 30.2828C31.746 30.3102 31.6502 30.3729 31.5818 30.461C31.5134 30.549 31.4765 30.6575 31.4768 30.769V36.269H25.4768V30.769C25.4768 30.6364 25.4241 30.5092 25.3304 30.4154C25.2366 30.3216 25.1094 30.269 24.9768 30.269ZM29.4688 33.092L28.4768 33.7515L27.4848 33.092L27.9078 30.269H29.0458L29.4688 33.092ZM27.8373 29.269L27.7793 29.095C27.9211 28.9561 28.0245 28.7828 28.0793 28.592C28.1484 28.3234 28.2852 28.077 28.4768 27.8765C28.6668 28.0749 28.8025 28.3189 28.8708 28.585C28.9263 28.7783 29.0311 28.9538 29.1748 29.0945L29.1163 29.269H27.8373ZM30.1373 28.412C30.1111 28.4304 30.0808 28.4422 30.049 28.4465C30.0173 28.4507 29.985 28.4473 29.9548 28.4365C29.9247 28.4269 29.8974 28.4099 29.8755 28.3871C29.8536 28.3643 29.8377 28.3364 29.8293 28.306C29.7427 28.0107 29.6088 27.7314 29.4328 27.479C29.7278 27.323 29.9872 27.1077 30.1948 26.8465L31.1553 27.105C30.9299 27.6181 30.5806 28.0672 30.1388 28.412H30.1373ZM28.4768 24.769C27.814 24.7682 27.1786 24.5045 26.7099 24.0359C26.2412 23.5672 25.9776 22.9318 25.9768 22.269C25.9768 22.1364 25.9241 22.0092 25.8304 21.9154C25.7366 21.8217 25.6094 21.769 25.4768 21.769C25.3442 21.769 25.217 21.7163 25.1233 21.6225C25.0295 21.5288 24.9768 21.4016 24.9768 21.269C24.9768 21.1364 25.0295 21.0092 25.1233 20.9154C25.217 20.8217 25.3442 20.769 25.4768 20.769C25.6125 20.7588 25.7394 20.6978 25.8321 20.5981C25.9247 20.4985 25.9764 20.3676 25.9768 20.2315C25.9786 20.1379 26.0057 20.0466 26.0554 19.9674C26.1051 19.8881 26.1754 19.8238 26.2588 19.7815C26.3373 19.7397 26.4248 19.7175 26.5138 19.717C26.6141 19.7169 26.7121 19.7463 26.7958 19.8015C27.2976 20.1202 27.8826 20.2829 28.4768 20.269C29.0711 20.2824 29.6561 20.1193 30.1578 19.8005C30.237 19.7488 30.3288 19.7197 30.4233 19.7161C30.5178 19.7126 30.6115 19.7348 30.6943 19.7805C30.7825 19.8272 30.8557 19.8978 30.9057 19.9842C30.9556 20.0706 30.9803 20.1692 30.9768 20.269C30.9768 20.4016 31.0295 20.5288 31.1233 20.6225C31.217 20.7163 31.3442 20.769 31.4768 20.769C31.6094 20.769 31.7366 20.8217 31.8304 20.9154C31.9241 21.0092 31.9768 21.1364 31.9768 21.269C31.9768 21.4016 31.9241 21.5288 31.8304 21.6225C31.7366 21.7163 31.6094 21.769 31.4768 21.769C31.3442 21.769 31.217 21.8217 31.1233 21.9154C31.0295 22.0092 30.9768 22.1364 30.9768 22.269C30.976 22.9318 30.7124 23.5672 30.2437 24.0359C29.775 24.5045 29.1396 24.7682 28.4768 24.769ZM28.4768 25.769C28.8155 25.7689 29.1524 25.7194 29.4768 25.622V26.1405C29.3619 26.3073 29.2137 26.4486 29.0417 26.5556C28.8696 26.6625 28.6773 26.7328 28.4768 26.762C28.2764 26.7328 28.0842 26.6627 27.9121 26.5559C27.7401 26.4492 27.5919 26.3081 27.4768 26.1415V25.622C27.8012 25.7194 28.1381 25.7689 28.4768 25.769ZM26.7468 26.8325C26.956 27.1002 27.2194 27.3207 27.5198 27.4795C27.3422 27.734 27.2072 28.0157 27.1198 28.3135C27.1108 28.3425 27.0948 28.3689 27.0733 28.3903C27.0518 28.4117 27.0254 28.4276 26.9963 28.4365C26.9657 28.4475 26.9328 28.4509 26.9006 28.4464C26.8683 28.4419 26.8377 28.4295 26.8113 28.4105C26.3548 28.052 25.9962 27.584 25.7688 27.05L26.7468 26.8325ZM39.5808 28.3955C39.7548 28.2868 39.9629 28.2465 40.165 28.2822C40.367 28.3179 40.5486 28.4272 40.6748 28.589C40.7269 28.6607 40.7637 28.7423 40.783 28.8288C40.8024 28.9153 40.8038 29.0049 40.7873 29.092C40.7674 29.1871 40.7281 29.2771 40.6718 29.3563C40.6156 29.4356 40.5436 29.5023 40.4603 29.5525C40.4213 29.5788 40.3787 29.5994 40.3338 29.6135C39.7932 29.7829 39.2865 30.0459 38.8368 30.3905L38.3823 29.905C38.8201 29.5068 39.1836 29.0339 39.4558 28.5085C39.4866 28.4603 39.5298 28.4213 39.5808 28.3955ZM28.4768 16.269C29.4047 16.2702 30.2942 16.6393 30.9504 17.2954C31.6065 17.9515 31.9756 18.8411 31.9768 19.769V19.8585C31.9583 19.852 31.9408 19.8425 31.9218 19.8365C31.8563 19.6051 31.7374 19.3924 31.5748 19.2154C31.4121 19.0384 31.2101 18.902 30.9852 18.8172C30.7602 18.7324 30.5184 18.7016 30.2794 18.7273C30.0404 18.753 29.8107 18.8344 29.6088 18.965C29.2648 19.1639 28.8744 19.2687 28.4771 19.2687C28.0797 19.2687 27.6893 19.1639 27.3453 18.965C27.1434 18.8343 26.9136 18.7528 26.6744 18.7271C26.4352 18.7014 26.1933 18.7321 25.9682 18.8169C25.7431 18.9017 25.541 19.0381 25.3782 19.2152C25.2154 19.3922 25.0964 19.605 25.0308 19.8365C25.0123 19.842 24.9953 19.8515 24.9768 19.858V19.769C24.978 18.8411 25.3471 17.9515 26.0032 17.2954C26.6594 16.6393 27.5489 16.2702 28.4768 16.269ZM17.9768 17.269H24.7378C24.241 18.008 23.976 18.8785 23.9768 19.769V21.269C23.9772 21.5837 24.0764 21.8903 24.2604 22.1456C24.4444 22.401 24.7039 22.5921 25.0023 22.692C25.0626 23.1801 25.225 23.65 25.4791 24.0711C25.7332 24.4922 26.0731 24.8551 26.4768 25.136V25.869L24.8228 26.2375C24.0141 26.4134 23.2902 26.8616 22.7722 27.5071C22.2542 28.1526 21.9735 28.9563 21.9768 29.784V36.269H16.9768V18.269C16.9768 18.0038 17.0822 17.7494 17.2697 17.5619C17.4572 17.3743 17.7116 17.269 17.9768 17.269ZM37.9768 43.269V44.269H23.9768V43.269C23.9768 43.1364 24.0295 43.0092 24.1233 42.9154C24.217 42.8216 24.3442 42.769 24.4768 42.769H37.4768C37.6094 42.769 37.7366 42.8216 37.8304 42.9154C37.9241 43.0092 37.9768 43.1364 37.9768 43.269ZM34.7383 41.769H27.2153L27.8153 40.269H34.1383L34.7383 41.769ZM43.9768 39.269H17.9768C17.7116 39.269 17.4572 39.1636 17.2697 38.9761C17.0822 38.7885 16.9768 38.5342 16.9768 38.269V37.269H44.9768V38.269C44.9768 38.5342 44.8715 38.7885 44.6839 38.9761C44.4964 39.1636 44.242 39.269 43.9768 39.269Z" fill="black"/>
</g>
<defs>
<clipPath id="clip0_243_257">
<rect width="30" height="30" fill="white" transform="translate(15.9768 15.269)"/>
</clipPath>
</defs>
</svg>
