<svg width="61" height="61" viewBox="0 0 61 61" fill="none" xmlns="http://www.w3.org/2000/svg">
<rect x="0.976807" y="0.269043" width="60" height="60" rx="15" fill="white"/>
<g clip-path="url(#clip0_243_261)">
<path d="M17.4768 45.269H44.4768C44.8746 45.269 45.2562 45.111 45.5375 44.8297C45.8188 44.5484 45.9768 44.1669 45.9768 43.769C45.9768 40.2795 45.3268 34.88 45.3213 34.819C45.2272 34.1309 44.9321 33.4859 44.473 32.9647C44.0138 32.4436 43.4111 32.0696 42.7403 31.8895C43.2185 31.2633 43.4773 30.497 43.4768 29.709V28.829C43.4836 27.8932 43.1189 26.9928 42.4628 26.3254C41.8067 25.6581 40.9127 25.2782 39.9768 25.269C39.5146 25.2686 39.0571 25.361 38.6313 25.5407C38.2056 25.7205 37.8203 25.984 37.4983 26.3155C36.8418 26.9873 36.475 27.8898 36.4768 28.829V29.709C36.4752 30.6492 36.8426 31.5524 37.4998 32.2245C37.9844 32.7219 38.6074 33.0619 39.2878 33.2005C39.1496 33.4211 39.0406 33.6585 38.9633 33.907L38.7833 34.507C38.65 34.2831 38.461 34.0974 38.2347 33.968C38.0084 33.8387 37.7525 33.7702 37.4918 33.769H24.4618C24.2012 33.7704 23.9453 33.8392 23.7191 33.9687C23.4929 34.0982 23.304 34.284 23.1708 34.508L22.9903 33.908C22.9132 33.6595 22.8042 33.422 22.6658 33.2015C23.347 33.0626 23.9705 32.7218 24.4553 32.2235C25.112 31.5515 25.4788 30.6487 25.4768 29.709V28.829C25.4784 27.8889 25.1111 26.9857 24.4538 26.3135C24.1318 25.9825 23.7467 25.7195 23.3212 25.5401C22.8957 25.3607 22.4386 25.2685 21.9768 25.269C21.041 25.2782 20.1469 25.6581 19.4908 26.3254C18.8347 26.9928 18.47 27.8932 18.4768 28.829V29.709C18.4762 30.4972 18.735 31.2636 19.2133 31.89C18.5417 32.0708 17.9385 32.4458 17.4791 32.968C17.0198 33.4902 16.7249 34.1364 16.6313 34.8255C16.6268 34.88 15.9768 40.2795 15.9768 43.769C15.9768 44.1669 16.1348 44.5484 16.4161 44.8297C16.6975 45.111 17.079 45.269 17.4768 45.269ZM20.4768 43.769V42.719C20.5907 42.7512 20.7084 42.7681 20.8268 42.769H41.1268C41.2452 42.7681 41.3629 42.7512 41.4768 42.719V43.769C41.4768 43.9017 41.4241 44.0288 41.3304 44.1226C41.2366 44.2164 41.1094 44.269 40.9768 44.269H20.9768C20.8442 44.269 20.717 44.2164 20.6233 44.1226C20.5295 44.0288 20.4768 43.9017 20.4768 43.769ZM44.3293 34.946C44.3363 34.999 44.9768 40.34 44.9768 43.769C44.9768 43.9017 44.9241 44.0288 44.8304 44.1226C44.7366 44.2164 44.6094 44.269 44.4768 44.269H42.3848C42.444 44.1089 42.4751 43.9398 42.4768 43.769V41.419C42.4765 41.1877 42.4166 40.9604 42.3028 40.759L41.0528 38.5305L41.9378 36.466C41.9878 36.3446 41.9881 36.2083 41.9384 36.0867C41.8888 35.965 41.7933 35.8678 41.6725 35.816C41.5518 35.7643 41.4155 35.7621 41.2932 35.81C41.1708 35.8579 41.0723 35.952 41.0188 36.072L40.0368 38.36C39.9211 38.6299 39.7288 38.8599 39.4837 39.0214C39.2386 39.183 38.9514 39.2691 38.6578 39.269H35.7268C35.5279 39.269 35.3371 39.19 35.1965 39.0494C35.0558 38.9087 34.9768 38.718 34.9768 38.519C34.9768 38.3201 35.0558 38.1294 35.1965 37.9887C35.3371 37.8481 35.5279 37.769 35.7268 37.769H37.7328C38.0558 37.7706 38.3705 37.6671 38.6297 37.4743C38.8889 37.2816 39.0784 37.0098 39.1698 36.7L39.9198 34.1945C40.0416 33.7812 40.2944 33.4187 40.6402 33.1615C40.9859 32.9044 41.4059 32.7667 41.8368 32.769C42.4449 32.7705 43.032 32.9917 43.49 33.3917C43.9479 33.7917 44.246 34.3437 44.3293 34.946ZM37.4768 29.709V28.829C37.4752 28.151 37.7398 27.4994 38.2138 27.0145C38.4427 26.7785 38.7167 26.5908 39.0196 26.4627C39.3225 26.3347 39.648 26.2688 39.9768 26.269C40.6475 26.2779 41.2874 26.5523 41.756 27.0322C42.2247 27.5121 42.4839 28.1583 42.4768 28.829V29.709C42.4789 30.1178 42.3832 30.5211 42.1978 30.8853C42.0124 31.2496 41.7425 31.5642 41.4108 31.803C40.9839 31.8644 40.5754 32.0179 40.2138 32.253C40.1351 32.2626 40.056 32.2679 39.9768 32.269C39.6484 32.2693 39.3232 32.2037 39.0207 32.0759C38.7181 31.9482 38.4442 31.7611 38.2153 31.5255C37.7406 31.0402 37.4754 30.3879 37.4768 29.709ZM24.0208 35.0275C24.0645 34.949 24.1285 34.8836 24.206 34.8381C24.2836 34.7926 24.3719 34.7688 24.4618 34.769H37.4918C37.5812 34.7684 37.6692 34.7918 37.7465 34.8368C37.8238 34.8817 37.8876 34.9466 37.9313 35.0245L38.3858 35.8315L38.2118 36.4125C38.1809 36.5156 38.1177 36.6059 38.0314 36.6701C37.9451 36.7344 37.8404 36.7691 37.7328 36.769H35.7268C35.2627 36.769 34.8176 36.9534 34.4894 37.2816C34.1612 37.6098 33.9768 38.0549 33.9768 38.519C33.9768 38.9832 34.1612 39.4283 34.4894 39.7565C34.8176 40.0847 35.2627 40.269 35.7268 40.269H38.6578C38.9927 40.2684 39.3241 40.2003 39.6321 40.0687C39.9401 39.937 40.2184 39.7447 40.4503 39.503L41.4293 41.2465C41.4599 41.2989 41.4763 41.3584 41.4768 41.419C41.4768 41.465 41.4678 41.5105 41.4502 41.553C41.4326 41.5954 41.4068 41.634 41.3743 41.6665C41.3418 41.699 41.3032 41.7248 41.2607 41.7424C41.2183 41.76 41.1728 41.769 41.1268 41.769H20.8268C20.7808 41.769 20.7353 41.76 20.6929 41.7424C20.6504 41.7248 20.6118 41.699 20.5793 41.6665C20.5468 41.634 20.521 41.5954 20.5034 41.553C20.4859 41.5105 20.4768 41.465 20.4768 41.419C20.4772 41.3593 20.493 41.3008 20.5228 41.249L21.5033 39.503C21.7352 39.7447 22.0135 39.937 22.3215 40.0687C22.6295 40.2003 22.9609 40.2684 23.2958 40.269H26.2268C26.6909 40.269 27.1361 40.0847 27.4642 39.7565C27.7924 39.4283 27.9768 38.9832 27.9768 38.519C27.9768 38.0549 27.7924 37.6098 27.4642 37.2816C27.1361 36.9534 26.6909 36.769 26.2268 36.769H24.2208C24.1133 36.7691 24.0086 36.7345 23.9224 36.6703C23.8361 36.6062 23.7728 36.516 23.7418 36.413L23.5678 35.832L24.0208 35.0275ZM19.4768 28.829C19.4697 28.1583 19.7289 27.5121 20.1976 27.0322C20.6662 26.5523 21.3061 26.2779 21.9768 26.269C22.3052 26.2688 22.6304 26.3344 22.933 26.4621C23.2355 26.5899 23.5094 26.777 23.7383 27.0125C24.213 27.4979 24.4782 28.1502 24.4768 28.829V29.709C24.4784 30.3871 24.2138 31.0387 23.7398 31.5235C23.5109 31.7596 23.2369 31.9473 22.934 32.0754C22.6312 32.2034 22.3056 32.2693 21.9768 32.269C21.8977 32.2675 21.8188 32.2616 21.7403 32.2515C21.3785 32.0165 20.9699 31.8629 20.5428 31.8015C20.2113 31.5629 19.9416 31.2485 19.7562 30.8845C19.5707 30.5205 19.475 30.1175 19.4768 29.709V28.829ZM17.6233 34.952C17.7057 34.3486 18.0035 33.7953 18.4617 33.3941C18.9199 32.9929 19.5078 32.7709 20.1168 32.769C20.5474 32.767 20.9671 32.9049 21.3126 33.162C21.658 33.4191 21.9106 33.7815 22.0323 34.1945L22.7823 36.7C22.8738 37.0101 23.0636 37.282 23.323 37.4748C23.5825 37.6676 23.8976 37.7709 24.2208 37.769H26.2268C26.4257 37.769 26.6165 37.8481 26.7571 37.9887C26.8978 38.1294 26.9768 38.3201 26.9768 38.519C26.9768 38.718 26.8978 38.9087 26.7571 39.0494C26.6165 39.19 26.4257 39.269 26.2268 39.269H23.2958C23.0022 39.2691 22.7151 39.183 22.4699 39.0214C22.2248 38.8599 22.0325 38.6299 21.9168 38.36L20.9363 36.072C20.9111 36.0108 20.8739 35.9551 20.827 35.9084C20.78 35.8616 20.7243 35.8246 20.6629 35.7996C20.6016 35.7745 20.5359 35.7619 20.4696 35.7625C20.4034 35.7631 20.3379 35.7768 20.277 35.8029C20.2161 35.8291 20.161 35.867 20.1149 35.9146C20.0688 35.9622 20.0326 36.0185 20.0084 36.0802C19.9843 36.1419 19.9726 36.2078 19.9741 36.274C19.9757 36.3402 19.9903 36.4055 20.0173 36.466L20.9023 38.5305L19.6493 40.762C19.5364 40.9626 19.477 41.1889 19.4768 41.419V43.769C19.4785 43.9398 19.5096 44.1089 19.5688 44.269H17.4768C17.3442 44.269 17.217 44.2164 17.1233 44.1226C17.0295 44.0288 16.9768 43.9017 16.9768 43.769C16.9768 40.34 17.6173 34.999 17.6233 34.952Z" fill="black"/>
<path d="M28.9768 25.269H31.8123L34.2218 27.0495C34.3826 27.1712 34.5742 27.2453 34.775 27.2636C34.9758 27.2819 35.1777 27.2436 35.3578 27.153C35.5453 27.0587 35.7026 26.9138 35.812 26.7347C35.9214 26.5556 35.9785 26.3494 35.9768 26.1395V25.269H36.9768C37.3746 25.269 37.7562 25.111 38.0375 24.8297C38.3188 24.5484 38.4768 24.1669 38.4768 23.769V18.769C38.4768 18.3712 38.3188 17.9897 38.0375 17.7084C37.7562 17.4271 37.3746 17.269 36.9768 17.269H32.4768V16.769C32.4768 16.3712 32.3188 15.9897 32.0375 15.7084C31.7562 15.4271 31.3746 15.269 30.9768 15.269H22.9768C22.579 15.269 22.1975 15.4271 21.9161 15.7084C21.6348 15.9897 21.4768 16.3712 21.4768 16.769V21.769C21.4768 22.1669 21.6348 22.5484 21.9161 22.8297C22.1975 23.111 22.579 23.269 22.9768 23.269H23.9768V24.1395C23.975 24.3496 24.0321 24.5559 24.1416 24.7351C24.2511 24.9143 24.4086 25.0593 24.5963 25.1535C24.7756 25.2442 24.9767 25.2828 25.1768 25.2652C25.377 25.2475 25.5682 25.1742 25.7288 25.0535L27.4768 23.7605V23.769C27.4768 24.1669 27.6348 24.5484 27.9161 24.8297C28.1975 25.111 28.579 25.269 28.9768 25.269ZM36.9768 18.269C37.1094 18.269 37.2366 18.3217 37.3304 18.4155C37.4241 18.5093 37.4768 18.6364 37.4768 18.769V23.769C37.4768 23.9017 37.4241 24.0288 37.3304 24.1226C37.2366 24.2164 37.1094 24.269 36.9768 24.269H35.4768C35.3442 24.269 35.217 24.3217 35.1233 24.4155C35.0295 24.5093 34.9768 24.6364 34.9768 24.769V26.139C34.9785 26.1633 34.9731 26.1874 34.9613 26.2086C34.9495 26.2299 34.9318 26.2472 34.9103 26.2585C34.8958 26.2666 34.8791 26.2698 34.8627 26.2678C34.8462 26.2657 34.8309 26.2584 34.8188 26.247L32.2738 24.367C32.1879 24.3032 32.0838 24.2689 31.9768 24.269H28.9768C28.8442 24.269 28.717 24.2164 28.6233 24.1226C28.5295 24.0288 28.4768 23.9017 28.4768 23.769V23.269H30.9768C31.1867 23.2685 31.3941 23.2238 31.5854 23.1376C31.7768 23.0514 31.9478 22.9258 32.0873 22.769H34.4768C34.6094 22.769 34.7366 22.7164 34.8304 22.6226C34.9241 22.5288 34.9768 22.4017 34.9768 22.269C34.9768 22.1364 34.9241 22.0093 34.8304 21.9155C34.7366 21.8217 34.6094 21.769 34.4768 21.769H32.4768V20.769H35.4768C35.6094 20.769 35.7366 20.7164 35.8304 20.6226C35.9241 20.5288 35.9768 20.4017 35.9768 20.269C35.9768 20.1364 35.9241 20.0093 35.8304 19.9155C35.7366 19.8217 35.6094 19.769 35.4768 19.769H32.4768V18.269H36.9768ZM25.1318 24.25C25.1199 24.2606 25.1051 24.2671 25.0893 24.2688C25.0736 24.2705 25.0577 24.2673 25.0438 24.2595C25.0223 24.2482 25.0045 24.2309 24.9926 24.2097C24.9808 24.1885 24.9753 24.1643 24.9768 24.14V22.769C24.9768 22.6364 24.9241 22.5093 24.8304 22.4155C24.7366 22.3217 24.6094 22.269 24.4768 22.269H22.9768C22.8442 22.269 22.717 22.2164 22.6233 22.1226C22.5295 22.0288 22.4768 21.9017 22.4768 21.769V16.769C22.4768 16.6364 22.5295 16.5093 22.6233 16.4155C22.717 16.3217 22.8442 16.269 22.9768 16.269H30.9768C31.1094 16.269 31.2366 16.3217 31.3304 16.4155C31.4241 16.5093 31.4768 16.6364 31.4768 16.769V21.769C31.4768 21.9017 31.4241 22.0288 31.3304 22.1226C31.2366 22.2164 31.1094 22.269 30.9768 22.269H27.9768C27.8696 22.2697 27.7655 22.3047 27.6798 22.369L25.1318 24.25Z" fill="black"/>
<path d="M24.4768 18.769H29.4768C29.6094 18.769 29.7366 18.7164 29.8304 18.6226C29.9241 18.5288 29.9768 18.4017 29.9768 18.269C29.9768 18.1364 29.9241 18.0093 29.8304 17.9155C29.7366 17.8217 29.6094 17.769 29.4768 17.769H24.4768C24.3442 17.769 24.217 17.8217 24.1233 17.9155C24.0295 18.0093 23.9768 18.1364 23.9768 18.269C23.9768 18.4017 24.0295 18.5288 24.1233 18.6226C24.217 18.7164 24.3442 18.769 24.4768 18.769Z" fill="black"/>
<path d="M28.9768 20.269C28.9768 20.1364 28.9241 20.0093 28.8304 19.9155C28.7366 19.8217 28.6094 19.769 28.4768 19.769H24.4768C24.3442 19.769 24.217 19.8217 24.1233 19.9155C24.0295 20.0093 23.9768 20.1364 23.9768 20.269C23.9768 20.4017 24.0295 20.5288 24.1233 20.6226C24.217 20.7164 24.3442 20.769 24.4768 20.769H28.4768C28.6094 20.769 28.7366 20.7164 28.8304 20.6226C28.9241 20.5288 28.9768 20.4017 28.9768 20.269Z" fill="black"/>
</g>
<defs>
<clipPath id="clip0_243_261">
<rect width="30" height="30" fill="white" transform="translate(15.9768 15.269)"/>
</clipPath>
</defs>
</svg>
