<svg width="34" height="34" viewBox="0 0 34 34" fill="none" xmlns="http://www.w3.org/2000/svg">
<rect x="0.796631" y="0.513672" width="33" height="33" rx="16.5" fill="#FF4800"/>
<g clip-path="url(#clip0_319_481)">
<path d="M22.0894 16.67L14.8755 9.45624C14.7087 9.28926 14.486 9.19727 14.2485 9.19727C14.011 9.19727 13.7883 9.28926 13.6214 9.45624L13.0902 9.98736C12.7445 10.3334 12.7445 10.8959 13.0902 11.2415L19.1478 17.2992L13.0834 23.3636C12.9166 23.5305 12.8245 23.7531 12.8245 23.9905C12.8245 24.2281 12.9166 24.4507 13.0834 24.6178L13.6147 25.1488C13.7817 25.3158 14.0043 25.4078 14.2418 25.4078C14.4792 25.4078 14.702 25.3158 14.8688 25.1488L22.0894 17.9285C22.2567 17.761 22.3485 17.5373 22.348 17.2996C22.3485 17.0609 22.2567 16.8374 22.0894 16.67Z" fill="white"/>
</g>
<defs>
<clipPath id="clip0_319_481">
<rect width="16.2105" height="16.2105" fill="white" transform="translate(9.48096 9.19824)"/>
</clipPath>
</defs>
</svg>
