<svg width="34" height="34" viewBox="0 0 34 34" fill="none" xmlns="http://www.w3.org/2000/svg">
<rect width="33" height="33" rx="16.5" transform="matrix(-1 0 0 1 33.5212 0.513672)" fill="#FF4800"/>
<g clip-path="url(#clip0_319_487)">
<path d="M12.2286 16.67L19.4425 9.45624C19.6093 9.28926 19.832 9.19727 20.0695 9.19727C20.307 9.19727 20.5297 9.28926 20.6966 9.45624L21.2278 9.98736C21.5735 10.3334 21.5735 10.8959 21.2278 11.2415L15.1702 17.2992L21.2346 23.3636C21.4014 23.5305 21.4935 23.7531 21.4935 23.9905C21.4935 24.2281 21.4014 24.4507 21.2346 24.6178L20.7033 25.1488C20.5363 25.3158 20.3137 25.4078 20.0762 25.4078C19.8388 25.4078 19.616 25.3158 19.4492 25.1488L12.2286 17.9285C12.0613 17.761 11.9695 17.5373 11.97 17.2996C11.9695 17.0609 12.0613 16.8374 12.2286 16.67Z" fill="white"/>
</g>
<defs>
<clipPath id="clip0_319_487">
<rect width="16.2105" height="16.2105" fill="white" transform="matrix(-1 0 0 1 24.837 9.19824)"/>
</clipPath>
</defs>
</svg>
