<svg width="34" height="34" viewBox="0 0 34 34" fill="none" xmlns="http://www.w3.org/2000/svg">
<rect width="33" height="33" rx="16.5" transform="matrix(-1 0 0 1 33.5212 0.182617)" fill="black"/>
<g clip-path="url(#clip0_307_204)">
<path d="M12.2286 16.3389L19.4425 9.12518C19.6093 8.9582 19.832 8.86621 20.0695 8.86621C20.307 8.86621 20.5297 8.9582 20.6966 9.12518L21.2278 9.6563C21.5735 10.0024 21.5735 10.5649 21.2278 10.9104L15.1702 16.9681L21.2346 23.0325C21.4014 23.1995 21.4935 23.4221 21.4935 23.6594C21.4935 23.8971 21.4014 24.1197 21.2346 24.2868L20.7033 24.8178C20.5363 24.9847 20.3137 25.0767 20.0762 25.0767C19.8388 25.0767 19.616 24.9847 19.4492 24.8178L12.2286 17.5974C12.0613 17.4299 11.9695 17.2063 11.97 16.9685C11.9695 16.7298 12.0613 16.5063 12.2286 16.3389Z" fill="white"/>
</g>
<defs>
<clipPath id="clip0_307_204">
<rect width="16.2105" height="16.2105" fill="white" transform="matrix(-1 0 0 1 24.837 8.86719)"/>
</clipPath>
</defs>
</svg>
