<svg width="51" height="50" viewBox="0 0 51 50" fill="none" xmlns="http://www.w3.org/2000/svg">
<g clip-path="url(#clip0_316_405)">
<path d="M49.9292 42.3458H48.6333V16.0327C48.6333 14.1054 47.0649 12.5376 45.1372 12.5376H43.4168C43.6049 12.144 43.7086 11.7075 43.7086 11.2539C43.7086 10.1494 43.1024 9.14196 42.1266 8.62467L32.5494 3.55143C32.192 3.36198 31.7486 3.4983 31.5594 3.85582C31.37 4.21325 31.5063 4.65651 31.8638 4.84586L41.4407 9.91901C41.9436 10.1855 42.2437 10.6845 42.2437 11.2539C42.2437 11.8232 41.9436 12.3221 41.4409 12.5885L32.1312 17.5204L26.2124 10.771C25.9457 10.4668 25.4829 10.4365 25.1788 10.7032C24.8747 10.9699 24.8443 11.4327 25.111 11.7368L30.8009 18.2252L27.2782 20.0913C26.266 20.6267 25.0575 20.6267 24.0456 20.0915L9.88252 12.5887C9.37978 12.3222 9.07949 11.8232 9.07949 11.254C9.07949 10.6847 9.37969 10.1857 9.88232 9.9192L24.0451 2.41647C25.0573 1.88092 26.2658 1.88092 27.2776 2.41627L29.305 3.49049C29.6624 3.67994 30.1058 3.54371 30.2951 3.18629C30.4845 2.82887 30.3482 2.38551 29.9909 2.19616L27.9632 1.12174C26.522 0.359143 24.8011 0.359143 23.3598 1.12184L9.19648 8.62487C8.2208 9.14205 7.61475 10.1495 7.61475 11.254C7.61475 11.7076 7.71846 12.144 7.90654 12.5377H6.18604C4.2583 12.5377 2.68994 14.1055 2.68994 16.0328V42.3459H1.39404C0.989551 42.3459 0.661621 42.6738 0.661621 43.0783V44.7016C0.661621 47.3209 2.79248 49.4518 5.41172 49.4518H45.9114C48.5307 49.4518 50.6616 47.321 50.6616 44.7016V43.0783C50.6616 42.6737 50.3337 42.3458 49.9292 42.3458ZM31.962 29.6391L32.917 31.2932C33.1144 31.6351 32.9827 31.937 32.917 32.0508C32.8513 32.1647 32.6557 32.4297 32.2608 32.4297H31.6631C31.2683 32.4297 31.0728 32.1647 31.0069 32.0508C30.9411 31.9369 30.8096 31.6351 31.0069 31.2932L31.962 29.6391ZM32.6944 18.8798L35.7251 17.2743V20.1828C35.7251 22.2716 34.5446 24.1443 32.6944 25.0336V18.8798ZM25.6615 21.958C26.4521 21.958 27.2428 21.7673 27.9635 21.386L31.2296 19.6558V25.6003C27.2278 26.9258 22.8004 26.777 18.8944 25.1536C16.892 24.3214 15.5981 22.3702 15.5981 20.1829V17.2742L23.3602 21.3861C24.0807 21.7674 24.871 21.958 25.6615 21.958ZM4.15479 16.0327C4.15479 14.9131 5.06602 14.0024 6.18604 14.0024H9.42207L13.1089 15.9555H6.84033C6.43584 15.9555 6.10791 16.2835 6.10791 16.688V39.6606C6.10791 40.0651 6.43584 40.393 6.84033 40.393H10.7065C11.111 40.393 11.439 40.0651 11.439 39.6606C11.439 39.2561 11.111 38.9282 10.7065 38.9282H7.57275V17.4204H14.1333V20.1828C14.1333 22.9639 15.7814 25.446 18.3323 26.5062C20.6612 27.4742 23.1614 27.9582 25.6617 27.9582C27.542 27.9582 29.4222 27.6842 31.2297 27.1368V27.978L29.7385 30.5608C29.3367 31.2566 29.3367 32.0875 29.7385 32.7833C30.1402 33.4791 30.8597 33.8945 31.6632 33.8945H32.2609C33.0645 33.8945 33.7839 33.4791 34.1856 32.7833C34.5874 32.0875 34.5874 31.2566 34.1856 30.5608L32.6944 27.978V26.6251C32.7935 26.5859 32.8926 26.5471 32.991 26.5062C35.5418 25.446 37.1899 22.9639 37.1899 20.1828V17.4204H43.7505V38.9282H13.6362C13.2317 38.9282 12.9038 39.2561 12.9038 39.6606C12.9038 40.0651 13.2317 40.393 13.6362 40.393H44.4829C44.8874 40.393 45.2153 40.0651 45.2153 39.6606V16.688C45.2153 16.2835 44.8874 15.9555 44.4829 15.9555H38.2143L41.9011 14.0024H45.1371C46.2571 14.0024 47.1684 14.9131 47.1684 16.0327V42.3458H4.15479V16.0327ZM30.1909 43.811C29.9203 44.5986 29.172 45.1663 28.2938 45.1663H23.0296C22.1513 45.1663 21.403 44.5986 21.1323 43.811H30.1909ZM49.1968 44.7015C49.1968 46.5131 47.7229 47.9869 45.9114 47.9869H5.41172C3.6002 47.9869 2.12646 46.5131 2.12646 44.7015V43.8106H3.41484C3.41738 43.8106 3.41982 43.811 3.42236 43.811H19.6213C19.9266 45.4147 21.3383 46.6311 23.0296 46.6311H28.2938C29.985 46.6311 31.3967 45.4146 31.702 43.811H47.9009C47.9034 43.811 47.9059 43.8106 47.9084 43.8106H49.1968V44.7015Z" fill="black"/>
<path d="M25.8831 36.2422C25.8831 35.8377 25.5552 35.5098 25.1507 35.5098H10.4881C10.0836 35.5098 9.75568 35.8377 9.75568 36.2422C9.75568 36.6467 10.0836 36.9746 10.4881 36.9746H25.1508C25.5552 36.9746 25.8831 36.6467 25.8831 36.2422Z" fill="#FF4800"/>
<path d="M10.4881 33.8945H20.2918C20.6963 33.8945 21.0242 33.5666 21.0242 33.1621C21.0242 32.7576 20.6963 32.4297 20.2918 32.4297H10.4881C10.0836 32.4297 9.75568 32.7576 9.75568 33.1621C9.75568 33.5666 10.0835 33.8945 10.4881 33.8945Z" fill="#FF4800"/>
</g>
<defs>
<clipPath id="clip0_316_405">
<rect width="50" height="50" fill="white" transform="translate(0.661621)"/>
</clipPath>
</defs>
</svg>
