<svg width="51" height="50" viewBox="0 0 51 50" fill="none" xmlns="http://www.w3.org/2000/svg">
<path d="M18.6304 41.4062V48.4375C18.6304 48.8672 18.9819 49.2188 19.4116 49.2188H31.9116C32.3413 49.2188 32.6929 48.8672 32.6929 48.4375V41.4062C32.6929 38.6953 30.7085 36.4453 28.1147 36.0156C29.4507 35.1875 30.3491 33.7109 30.3491 32.0312C30.3491 29.4453 28.2476 27.3438 25.6616 27.3438C23.0757 27.3438 20.9741 29.4453 20.9741 32.0312C20.9741 33.7188 21.8726 35.1875 23.2085 36.0156C20.6147 36.4453 18.6304 38.6953 18.6304 41.4062ZM22.5366 32.0312C22.5366 30.3047 23.9351 28.9062 25.6616 28.9062C27.3882 28.9062 28.7866 30.3047 28.7866 32.0312C28.7866 33.7578 27.3882 35.1562 25.6616 35.1562C23.9351 35.1562 22.5366 33.7578 22.5366 32.0312ZM24.0991 37.5H27.2241C29.3804 37.5 31.1304 39.25 31.1304 41.4062V47.6562H20.1929V41.4062C20.1929 39.25 21.9429 37.5 24.0991 37.5Z" fill="black"/>
<path d="M35.0366 41.4062V47.6562C35.0366 48.0859 35.3882 48.4375 35.8179 48.4375H46.7554C47.1851 48.4375 47.5366 48.0859 47.5366 47.6562V41.4062C47.5366 39.0781 45.8257 37.1406 43.5991 36.7813C44.6772 36.0391 45.3882 34.8047 45.3882 33.3984C45.3882 31.1328 43.5444 29.2969 41.2866 29.2969C39.0288 29.2969 37.1851 31.1328 37.1851 33.3984C37.1851 34.8047 37.896 36.0469 38.9741 36.7813C36.7476 37.1406 35.0366 39.0703 35.0366 41.4062ZM38.7476 33.3984C38.7476 32 39.8882 30.8594 41.2866 30.8594C42.6851 30.8594 43.8257 32 43.8257 33.3984C43.8257 34.7969 42.6851 35.9375 41.2866 35.9375C39.8882 35.9375 38.7476 34.7969 38.7476 33.3984ZM36.5991 41.4062C36.5991 39.6797 37.9976 38.2812 39.7241 38.2812H42.8491C44.5757 38.2812 45.9741 39.6797 45.9741 41.4062V46.875H36.5991V41.4062Z" fill="black"/>
<path d="M35.8179 17.9688V2.34375C35.8179 1.48437 35.1147 0.78125 34.2554 0.78125H17.0679C16.2085 0.78125 15.5054 1.48437 15.5054 2.34375V17.9688C15.5054 18.8281 16.2085 19.5312 17.0679 19.5312H23.5366L24.9194 23.6875C25.0288 24.0078 25.3257 24.2188 25.6616 24.2188C25.9976 24.2188 26.2944 24 26.4038 23.6875L27.7866 19.5312H34.2554C35.1147 19.5312 35.8179 18.8281 35.8179 17.9688ZM27.2241 17.9688C26.8882 17.9688 26.5913 18.1875 26.4819 18.5L25.6616 20.9609L24.8413 18.5C24.7319 18.1797 24.4351 17.9688 24.0991 17.9688H17.0679V2.34375H34.2554V17.9688H27.2241Z" fill="black"/>
<path d="M48.3179 6.25H38.1616V7.8125H48.3179V21.875H42.6226C42.3101 21.875 42.0288 22.0625 41.9038 22.3516L41.2866 23.7969L40.6694 22.3516C40.5444 22.0625 40.2632 21.875 39.9507 21.875H34.2554V23.4375H39.4351L40.5679 26.0859C40.6929 26.375 40.9741 26.5625 41.2866 26.5625C41.5991 26.5625 41.8804 26.375 42.0054 26.0859L43.1382 23.4375H48.3179C49.1772 23.4375 49.8804 22.7344 49.8804 21.875V7.8125C49.8804 6.95312 49.1772 6.25 48.3179 6.25Z" fill="black"/>
<path d="M3.78662 41.4062V47.6562C3.78662 48.0859 4.13818 48.4375 4.56787 48.4375H15.5054C15.9351 48.4375 16.2866 48.0859 16.2866 47.6562V41.4062C16.2866 39.0781 14.5757 37.1406 12.3491 36.7813C13.4272 36.0391 14.1382 34.8047 14.1382 33.3984C14.1382 31.1328 12.2944 29.2969 10.0366 29.2969C7.77881 29.2969 5.93506 31.1328 5.93506 33.3984C5.93506 34.8047 6.646 36.0469 7.72412 36.7813C5.49756 37.1406 3.78662 39.0703 3.78662 41.4062ZM7.49756 33.3984C7.49756 32 8.63818 30.8594 10.0366 30.8594C11.4351 30.8594 12.5757 32 12.5757 33.3984C12.5757 34.7969 11.4351 35.9375 10.0366 35.9375C8.63818 35.9375 7.49756 34.7969 7.49756 33.3984ZM5.34912 41.4062C5.34912 39.6797 6.74756 38.2812 8.47412 38.2812H11.5991C13.3257 38.2812 14.7241 39.6797 14.7241 41.4062V46.875H5.34912V41.4062Z" fill="black"/>
<path d="M3.00537 23.4375H8.18506L9.31787 26.0859C9.44287 26.375 9.72412 26.5625 10.0366 26.5625C10.3491 26.5625 10.6304 26.375 10.7554 26.0859L11.8882 23.4375H17.0679V21.875H11.3726C11.0601 21.875 10.7788 22.0625 10.6538 22.3516L10.0366 23.7969L9.41943 22.3516C9.29443 22.0625 9.01318 21.875 8.70068 21.875H3.00537V7.8125H13.1616V6.25H3.00537C2.146 6.25 1.44287 6.95312 1.44287 7.8125V21.875C1.44287 22.7344 2.146 23.4375 3.00537 23.4375Z" fill="black"/>
<path d="M29.9116 8.59422H29.1069L29.521 6.94579C29.7554 6.00829 29.2397 5.06297 28.3569 4.78172C27.4585 4.50047 26.4976 4.96922 26.1616 5.84422L25.3882 7.91454C25.2397 8.32079 24.8413 8.59422 24.4116 8.59422H24.0991C24.0991 8.16454 23.7476 7.82079 23.3179 7.82079H20.1929C19.7632 7.82079 19.4116 8.17235 19.4116 8.60204V14.852C19.4116 15.2817 19.7632 15.6333 20.1929 15.6333H23.3179C23.7007 15.6333 24.0054 15.352 24.0679 14.9927L24.8335 15.5005C24.9585 15.5864 25.1147 15.6333 25.2632 15.6333H29.5679C30.5835 15.6333 31.4429 14.8677 31.5522 13.852L31.8882 10.8052C31.9507 10.2427 31.771 9.67235 31.3882 9.25047C31.0054 8.8286 30.4663 8.58641 29.896 8.58641L29.9116 8.59422ZM22.5366 14.0708H20.9741V9.38329H22.5366V14.0708ZM30.0054 13.6802C29.9819 13.8989 29.7944 14.0708 29.5757 14.0708H25.5054L24.5288 13.4223C24.4038 13.3364 24.2476 13.2895 24.0991 13.2895V10.1567H24.4038C25.4819 10.1567 26.4663 9.47704 26.8491 8.46141L27.6226 6.3911C27.6538 6.29735 27.7632 6.22704 27.8882 6.2661C27.9819 6.29735 28.0366 6.43797 28.0054 6.55516L27.3491 9.18016C27.2866 9.41454 27.3491 9.66454 27.4897 9.85204C27.6304 10.0395 27.8647 10.1489 28.1069 10.1489H29.9116C30.0835 10.1489 30.1851 10.2427 30.2397 10.2973C30.2944 10.352 30.3647 10.4692 30.3491 10.6333L30.0132 13.6802H30.0054Z" fill="#FF4800"/>
<path d="M40.5991 17.5781L41.935 18.5937C42.0757 18.7031 42.2397 18.75 42.4038 18.75C42.5678 18.75 42.7397 18.6953 42.8725 18.5937L44.2085 17.5781C45.0522 16.9375 45.7632 16.1406 46.3257 15.2031C46.9819 14.1172 46.8569 12.7031 46.0132 11.7734C45.5288 11.2344 44.8725 10.9375 44.1694 10.9375C43.4975 10.9375 42.8725 11.2109 42.396 11.7031C41.9194 11.2109 41.2866 10.9375 40.6225 10.9375C39.9194 10.9375 39.2632 11.2344 38.7788 11.7734C37.9428 12.7031 37.81 14.1172 38.4663 15.2031C39.0288 16.1406 39.7397 16.9375 40.5835 17.5781H40.5991ZM39.9507 12.8203C40.1382 12.6094 40.3803 12.5 40.6303 12.5C40.8803 12.5 41.1303 12.6172 41.3178 12.8203L41.8335 13.3906C42.1303 13.7187 42.7007 13.7187 42.9897 13.3906L43.5053 12.8203C43.8803 12.4062 44.4975 12.4062 44.8725 12.8203C45.2397 13.2344 45.3022 13.9063 45.0053 14.3984C44.5444 15.1641 43.9663 15.8125 43.2788 16.3359L42.4116 16.9922L41.5444 16.3359C40.8569 15.8203 40.2788 15.1641 39.8178 14.3984C39.521 13.9141 39.5835 13.2344 39.9507 12.8203Z" fill="#FF4800"/>
<path d="M5.73975 11.3281H7.30225V12.8906H5.73975V11.3281Z" fill="#FF4800"/>
<path d="M9.646 11.3281H11.2085V12.8906H9.646V11.3281Z" fill="#FF4800"/>
<path d="M8.47412 18.3594C10.6304 18.3594 12.3804 16.6094 12.3804 14.4531H10.8179C10.8179 15.7422 9.76318 16.7969 8.47412 16.7969C7.18506 16.7969 6.13037 15.7422 6.13037 14.4531H4.56787C4.56787 16.6094 6.31787 18.3594 8.47412 18.3594Z" fill="#FF4800"/>
</svg>
