<svg width="51" height="50" viewBox="0 0 51 50" fill="none" xmlns="http://www.w3.org/2000/svg">
<path d="M10.8452 5.49609C8.26006 5.49609 6.15771 7.59844 6.15771 10.1836C6.15771 12.7688 8.26006 14.8711 10.8452 14.8711C13.4304 14.8711 15.5327 12.7688 15.5327 10.1836C15.5327 7.59844 13.4304 5.49609 10.8452 5.49609ZM10.8452 13.3086C9.12178 13.3086 7.72021 11.907 7.72021 10.1836C7.72021 8.46016 9.12178 7.05859 10.8452 7.05859C12.5687 7.05859 13.9702 8.46016 13.9702 10.1836C13.9702 11.907 12.5687 13.3086 10.8452 13.3086Z" fill="#FF4800"/>
<path d="M45.7452 38.052L44.6405 36.9473L38.9428 42.6449L37.9327 41.6348L36.828 42.7395L38.9428 44.8543L45.7452 38.052Z" fill="#FF4800"/>
<path d="M28.0054 9.375H29.5679V10.9375H28.0054V9.375Z" fill="black"/>
<path d="M37.3804 9.375H38.9429V10.9375H37.3804V9.375Z" fill="black"/>
<path d="M34.2554 9.375H35.8179V10.9375H34.2554V9.375Z" fill="black"/>
<path d="M31.1304 9.375H32.6929V10.9375H31.1304V9.375Z" fill="black"/>
<path d="M19.4116 28.9063H31.9116C33.2038 28.9063 34.2554 27.8547 34.2554 26.5625V25.7813H44.4116C47.4265 25.7813 49.8804 23.3281 49.8804 20.3125V14.8438C49.8804 11.8281 47.4265 9.375 44.4116 9.375H42.0679V8.59375C42.0679 7.30156 41.0163 6.25 39.7241 6.25H27.2241C25.9319 6.25 24.8804 7.30156 24.8804 8.59375V9.375H20.2202V8.025L18.1694 7.46484C18.1022 7.28516 18.0272 7.10625 17.946 6.92969L19.0015 5.08125L15.9483 2.02812L14.1007 3.08281C13.9233 3.00156 13.7452 2.92656 13.5655 2.85938L13.0046 0.808594H8.68662L8.12568 2.85938C7.946 2.92656 7.76787 3.00078 7.59131 3.08281L5.74287 2.02812L2.68975 5.08125L3.74443 6.92969C3.66318 7.10625 3.58818 7.28516 3.521 7.46484L1.47021 8.025V12.3422L3.521 12.9031C3.58818 13.0828 3.66318 13.2617 3.74443 13.4383L2.68896 15.2867L5.74209 18.3391L7.59053 17.2844C7.76709 17.3656 7.94522 17.4406 8.1249 17.5078L8.68584 19.5586H13.0038L13.5647 17.5078C13.7437 17.4406 13.9226 17.3656 14.0999 17.2844L15.9476 18.3383L19.0007 15.2859L17.9452 13.4375C18.0265 13.2609 18.1015 13.082 18.1687 12.9023L20.2194 12.3414V10.9375H24.8804V11.7188C24.8804 13.0109 25.9319 14.0625 27.2241 14.0625H39.7241C41.0163 14.0625 42.0679 13.0109 42.0679 11.7188V10.9375H44.4116C46.5655 10.9375 48.3179 12.6898 48.3179 14.8438V20.3125C48.3179 22.4664 46.5655 24.2188 44.4116 24.2188H34.2554V23.4375C34.2554 22.1453 33.2038 21.0938 31.9116 21.0938H19.4116C18.1194 21.0938 17.0679 22.1453 17.0679 23.4375V24.2188H6.91162C3.89678 24.2188 1.44287 26.6727 1.44287 29.6875V35.9375C1.44287 38.9523 3.89678 41.4063 6.91162 41.4063H9.25537V42.1875C9.25537 43.4797 10.3069 44.5313 11.5991 44.5313H24.0991C25.3913 44.5313 26.4429 43.4797 26.4429 42.1875V41.4063H32.7327C33.1288 45.7797 36.8116 49.2188 41.2866 49.2188C46.0249 49.2188 49.8804 45.3633 49.8804 40.625C49.8804 35.8867 46.0249 32.0313 41.2866 32.0313C36.8116 32.0313 33.1288 35.4703 32.7327 39.8438H26.4429V39.0625C26.4429 37.7703 25.3913 36.7188 24.0991 36.7188H11.5991C10.3069 36.7188 9.25537 37.7703 9.25537 39.0625V39.8438H6.91162C4.75771 39.8438 3.00537 38.0914 3.00537 35.9375V29.6875C3.00537 27.5336 4.75771 25.7813 6.91162 25.7813H17.0679V26.5625C17.0679 27.8547 18.1194 28.9063 19.4116 28.9063ZM18.6577 11.15L16.9444 11.6187L16.8187 12.0289C16.7062 12.3906 16.5562 12.7508 16.3718 13.0992L16.1702 13.4789L17.053 15.025L15.6874 16.3914L14.1405 15.5094L13.7616 15.7102C13.414 15.8945 13.0538 16.0445 12.6913 16.1563L12.2819 16.2828L11.8124 17.9961H9.88037L9.41084 16.2828L9.00146 16.1563C8.64053 16.0445 8.28037 15.8953 7.93115 15.7102L7.55147 15.5094L6.00537 16.3914L4.63818 15.025L5.521 13.4789L5.31943 13.0992C5.13506 12.7508 4.98428 12.3906 4.87256 12.0289L4.74678 11.6187L3.0335 11.15V9.21719L4.74678 8.74922L4.87334 8.33906C4.98506 7.97734 5.13506 7.61719 5.31943 7.26953L5.521 6.88906L4.63818 5.34297L6.00381 3.97656L7.5499 4.85859L7.92959 4.65781C8.28037 4.47266 8.64053 4.32188 8.9999 4.21094L9.40928 4.08438L9.87881 2.37109H11.8108L12.2804 4.08438L12.6897 4.21094C13.0507 4.32266 13.4108 4.47266 13.7601 4.65781L14.139 4.85859L15.6858 3.97656L17.0515 5.34297L16.1687 6.88906L16.3702 7.26875C16.5546 7.61641 16.7054 7.97656 16.8163 8.33828L16.9429 8.74844L18.6562 9.21641V11.15H18.6577ZM40.5054 11.7188C40.5054 12.1492 40.1554 12.5 39.7241 12.5H27.2241C26.7929 12.5 26.4429 12.1492 26.4429 11.7188V8.59375C26.4429 8.16328 26.7929 7.8125 27.2241 7.8125H39.7241C40.1554 7.8125 40.5054 8.16328 40.5054 8.59375V11.7188ZM41.2866 33.5938C45.164 33.5938 48.3179 36.7477 48.3179 40.625C48.3179 44.5023 45.164 47.6563 41.2866 47.6563C37.4093 47.6563 34.2554 44.5023 34.2554 40.625C34.2554 36.7477 37.4093 33.5938 41.2866 33.5938ZM10.8179 39.0625C10.8179 38.6313 11.1679 38.2813 11.5991 38.2813H24.0991C24.5304 38.2813 24.8804 38.6313 24.8804 39.0625V42.1875C24.8804 42.6188 24.5304 42.9688 24.0991 42.9688H11.5991C11.1679 42.9688 10.8179 42.6188 10.8179 42.1875V39.0625ZM18.6304 23.4375C18.6304 23.007 18.9804 22.6563 19.4116 22.6563H31.9116C32.3429 22.6563 32.6929 23.007 32.6929 23.4375V26.5625C32.6929 26.9938 32.3429 27.3438 31.9116 27.3438H19.4116C18.9804 27.3438 18.6304 26.9938 18.6304 26.5625V23.4375Z" fill="black"/>
<path d="M26.4429 24.2188H28.0054V25.7812H26.4429V24.2188Z" fill="black"/>
<path d="M23.3179 24.2188H24.8804V25.7812H23.3179V24.2188Z" fill="black"/>
<path d="M20.1929 24.2188H21.7554V25.7812H20.1929V24.2188Z" fill="black"/>
<path d="M29.5679 24.2188H31.1304V25.7812H29.5679V24.2188Z" fill="black"/>
<path d="M15.5054 39.8438H17.0679V41.4062H15.5054V39.8438Z" fill="black"/>
<path d="M21.7554 39.8438H23.3179V41.4062H21.7554V39.8438Z" fill="black"/>
<path d="M18.6304 39.8438H20.1929V41.4062H18.6304V39.8438Z" fill="black"/>
<path d="M12.3804 39.8438H13.9429V41.4062H12.3804V39.8438Z" fill="black"/>
</svg>
