<svg width="51" height="50" viewBox="0 0 51 50" fill="none" xmlns="http://www.w3.org/2000/svg">
<g clip-path="url(#clip0_316_422)">
<path d="M5.83545 4.7373H5.84561C6.2501 4.7373 6.57803 4.40947 6.57803 4.00488C6.57803 3.60029 6.2501 3.27246 5.84561 3.27246H5.83545C5.43096 3.27246 5.10303 3.60029 5.10303 4.00488C5.10303 4.40947 5.43096 4.7373 5.83545 4.7373Z" fill="#FF4800"/>
<path d="M8.38397 4.7373H8.39413C8.79862 4.7373 9.12655 4.40947 9.12655 4.00488C9.12655 3.60029 8.79862 3.27246 8.39413 3.27246H8.38397C7.97948 3.27246 7.65155 3.60029 7.65155 4.00488C7.65155 4.40947 7.97948 4.7373 8.38397 4.7373Z" fill="#FF4800"/>
<path d="M10.9325 4.7373H10.9427C11.3471 4.7373 11.6751 4.40947 11.6751 4.00488C11.6751 3.60029 11.3471 3.27246 10.9427 3.27246H10.9325C10.528 3.27246 10.2001 3.60029 10.2001 4.00488C10.2001 4.40947 10.528 4.7373 10.9325 4.7373Z" fill="#FF4800"/>
<path d="M48.4644 0.195312H2.85889C1.64727 0.195312 0.661621 1.18096 0.661621 2.39258V36.3186C0.661621 37.5301 1.64727 38.5158 2.85889 38.5158H7.1083C7.51279 38.5158 7.84072 38.188 7.84072 37.7834C7.84072 37.3788 7.51279 37.051 7.1083 37.051H2.85889C2.45498 37.051 2.12646 36.7225 2.12646 36.3186V7.81553H36.4838C36.8884 7.81553 37.2162 7.4877 37.2162 7.08311C37.2162 6.67852 36.8884 6.35068 36.4838 6.35068H16.1811V1.66016H48.4644C48.8683 1.66016 49.1968 1.98867 49.1968 2.39258V6.35068H40.0997C39.6951 6.35068 39.3673 6.67852 39.3673 7.08311C39.3673 7.4877 39.6951 7.81553 40.0997 7.81553H49.1968V36.3186C49.1968 36.7225 48.8683 37.051 48.4644 37.051H43.0609C43.2985 36.347 43.4741 35.6197 43.5831 34.8771C43.6418 34.4769 43.365 34.1049 42.9647 34.0461C42.5651 33.9877 42.1926 34.264 42.1337 34.6645C41.3423 40.0579 36.6279 44.1251 31.1678 44.1251C25.0557 44.1251 20.083 39.1525 20.083 33.0404C20.083 26.9282 25.0556 21.9557 31.1677 21.9557C36.6432 21.9557 41.2457 25.8732 42.1113 31.2709C42.1754 31.6703 42.5508 31.9421 42.9505 31.8781C43.3499 31.8141 43.6218 31.4384 43.5577 31.039C43.0905 28.1259 41.595 25.4565 39.3469 23.5226C37.0742 21.5675 34.1693 20.4908 31.1677 20.4908C25.7494 20.4908 21.1225 23.9426 19.3694 28.7624H6.71855C6.31406 28.7624 5.98613 29.0902 5.98613 29.4948C5.98613 29.8994 6.31406 30.2272 6.71855 30.2272H18.9363C18.8322 30.6802 18.7534 31.1427 18.6999 31.6127H6.71855C6.31406 31.6127 5.98613 31.9405 5.98613 32.3451C5.98613 32.7497 6.31406 33.0775 6.71855 33.0775H18.6187C18.6229 34.466 18.8532 35.8022 19.2754 37.051H10.7241C10.3196 37.051 9.9917 37.3788 9.9917 37.7834C9.9917 38.188 10.3196 38.5158 10.7241 38.5158H19.8772C21.9145 42.6997 26.2098 45.5899 31.1678 45.5899C33.7026 45.5899 36.1641 44.8233 38.2372 43.4091L39.6909 44.8628C39.1375 45.4844 39.1569 46.4397 39.7528 47.0357L40.877 48.1599C41.1859 48.4688 41.5916 48.6231 41.9976 48.6231C42.3745 48.6231 42.7505 48.4882 43.0499 48.2217L44.4202 49.5911C44.5632 49.7341 44.7506 49.8055 44.938 49.8055C45.1255 49.8055 45.313 49.734 45.4561 49.5908C45.7421 49.3047 45.7419 48.8409 45.4558 48.5551L44.0891 47.1892L45.3163 45.9619L46.6827 47.3283C46.8258 47.4713 47.0133 47.5428 47.2007 47.5428C47.3881 47.5428 47.5756 47.4713 47.7187 47.3283C48.0047 47.0422 48.0047 46.5785 47.7187 46.2925L46.3433 44.9171C46.5614 44.6394 46.6809 44.2996 46.6809 43.941C46.6809 43.5176 46.516 43.1196 46.2167 42.8204L45.0925 41.6961C44.5205 41.1243 43.6172 41.0829 42.9958 41.5695L41.5359 40.1098C41.883 39.6013 42.1921 39.0686 42.4605 38.5157H48.4645C49.676 38.5157 50.6617 37.53 50.6617 36.3185V2.39258C50.6616 1.18096 49.6759 0.195312 48.4644 0.195312ZM14.7162 6.35068H2.12646V2.39258C2.12646 1.98867 2.45498 1.66016 2.85889 1.66016H14.7162V6.35068ZM43.9718 42.6969C44.0024 42.6969 44.0332 42.7085 44.0565 42.7318L45.1808 43.8562C45.2098 43.8852 45.2158 43.9183 45.2158 43.9409C45.2158 43.9635 45.2097 43.9967 45.1807 44.0257L42.0825 47.1239C42.0357 47.1707 41.9597 47.1707 41.9128 47.1239L40.7887 45.9999C40.7419 45.9531 40.7419 45.8769 40.7887 45.8302L43.8868 42.7319C43.9103 42.7087 43.941 42.6969 43.9718 42.6969ZM41.9509 42.5963L40.7235 43.8237L39.4065 42.5068C39.4067 42.5066 39.407 42.5064 39.4072 42.5063C39.846 42.1239 40.2552 41.7135 40.6334 41.2789L41.9509 42.5963Z" fill="black"/>
<path d="M31.0972 23.9727C28.6752 23.9727 26.3981 24.9158 24.6855 26.6284C22.9729 28.341 22.0298 30.6181 22.0298 33.04C22.0298 38.0397 26.0974 42.1074 31.0972 42.1074C36.097 42.1074 40.1646 38.0398 40.1646 33.0399C40.1646 28.0402 36.097 23.9727 31.0972 23.9727ZM31.0972 40.6426C27.5004 40.6426 24.4813 38.1312 23.6957 34.7704H29.2923C29.6969 34.7704 30.0247 34.4426 30.0247 34.038C30.0247 33.6334 29.6969 33.3056 29.2923 33.3056H23.5015C23.4984 33.2173 23.4947 33.1291 23.4947 33.04C23.4947 32.443 23.5649 31.8569 23.6979 31.2897H29.0921C29.4967 31.2897 29.8245 30.9619 29.8245 30.5573C29.8245 30.1527 29.4967 29.8249 29.0921 29.8249H24.2044C24.5748 29.032 25.0842 28.3014 25.7214 27.6642C27.1573 26.2282 29.0664 25.4374 31.0972 25.4374C35.2893 25.4374 38.6998 28.8479 38.6998 33.0399C38.6998 37.232 35.2893 40.6426 31.0972 40.6426Z" fill="black"/>
<path d="M5.56641 15.2894C5.16191 15.2894 4.83398 15.6172 4.83398 16.0218V16.6498C4.83398 18.2749 6.15605 19.597 7.78115 19.597C9.40625 19.597 10.7283 18.2749 10.7283 16.6498V11.3555C10.7283 10.9509 10.4004 10.623 9.9959 10.623H6.75645C6.35195 10.623 6.02402 10.9509 6.02402 11.3555C6.02402 11.7601 6.35195 12.0879 6.75645 12.0879H9.26348V16.6498C9.26348 17.4671 8.59854 18.1321 7.78115 18.1321C6.96377 18.1321 6.29883 17.4671 6.29883 16.6498V16.0218C6.29883 15.6173 5.9709 15.2894 5.56641 15.2894Z" fill="#FF4800"/>
<path d="M17.8333 16.6498V13.5702C17.8333 11.9451 16.5113 10.623 14.8862 10.623C13.2612 10.623 11.9391 11.9451 11.9391 13.5702V16.6498C11.9391 18.2749 13.2612 19.597 14.8862 19.597C16.5113 19.597 17.8333 18.2748 17.8333 16.6498ZM13.4039 16.6498V13.5702C13.4039 12.7529 14.0689 12.0879 14.8862 12.0879C15.7035 12.0879 16.3685 12.7529 16.3685 13.5702V16.6498C16.3685 17.4671 15.7035 18.1321 14.8862 18.1321C14.0689 18.1321 13.4039 17.4671 13.4039 16.6498Z" fill="#FF4800"/>
<path d="M19.1207 18.8645C19.1207 19.2691 19.4487 19.597 19.8531 19.597H22.5421C23.9057 19.597 25.015 18.4877 25.015 17.1241V16.5769C25.015 15.7497 24.6064 15.0167 23.9808 14.5675C24.2865 14.156 24.4677 13.6468 24.4677 13.0959C24.4677 11.7323 23.3584 10.623 21.9948 10.623H19.8531C19.4487 10.623 19.1207 10.9509 19.1207 11.3555V18.8645ZM23.5501 17.124C23.5501 17.6798 23.098 18.132 22.5421 18.132H20.5856V15.5687H22.5421C23.098 15.5687 23.5501 16.021 23.5501 16.5768V17.124ZM21.9948 12.0879C22.5506 12.0879 23.0029 12.5401 23.0029 13.0959C23.0029 13.6517 22.5507 14.1039 21.9948 14.1039H20.5856V12.0878L21.9948 12.0879Z" fill="#FF4800"/>
<path d="M41.628 11.2328C40.8161 12.0447 40.8161 13.3658 41.6281 14.1777C42.0339 14.5836 42.5671 14.7865 43.1004 14.7865C43.394 14.7865 43.6866 14.7226 43.959 14.5997L44.8239 15.4645C44.9669 15.6075 45.1544 15.679 45.3418 15.679C45.5292 15.679 45.7167 15.6075 45.8598 15.4645C46.1458 15.1784 46.1458 14.7147 45.8598 14.4287L44.995 13.564C45.3415 12.797 45.2024 11.8624 44.573 11.233C43.761 10.4212 42.44 10.4211 41.628 11.2328ZM42.6639 13.1419C42.4231 12.9012 42.4231 12.5094 42.6639 12.2687C42.7842 12.1483 42.9424 12.0881 43.1005 12.0881C43.2586 12.0881 43.4167 12.1482 43.5371 12.2686C43.7779 12.5095 43.7779 12.9013 43.5372 13.1419C43.2962 13.3826 42.9045 13.3826 42.6639 13.1419Z" fill="#FF4800"/>
<path d="M28.2791 17.4199C28.2791 17.8245 28.6069 18.1523 29.0115 18.1523H45.7568C46.1614 18.1523 46.4893 17.8245 46.4893 17.4199C46.4893 17.0153 46.1614 16.6875 45.7568 16.6875H29.0115C28.6069 16.6875 28.2791 17.0154 28.2791 17.4199Z" fill="black"/>
<path d="M5.98615 26.6445C5.98615 27.0491 6.31407 27.377 6.71857 27.377H13.9456C14.3501 27.377 14.678 27.0491 14.678 26.6445C14.678 26.2399 14.3501 25.9121 13.9456 25.9121H6.71857C6.31407 25.9121 5.98615 26.24 5.98615 26.6445Z" fill="black"/>
<path d="M45.7518 19.9141C45.3472 19.9141 45.0193 20.2419 45.0193 20.6465C45.0193 21.0511 45.3472 21.3789 45.7518 21.3789H45.7619C46.1665 21.3789 46.4943 21.0511 46.4943 20.6465C46.4943 20.2419 46.1665 19.9141 45.7619 19.9141H45.7518Z" fill="#FF4800"/>
</g>
<defs>
<clipPath id="clip0_316_422">
<rect width="50" height="50" fill="white" transform="translate(0.661621)"/>
</clipPath>
</defs>
</svg>
