<svg width="56" height="58" viewBox="0 0 56 58" fill="none" xmlns="http://www.w3.org/2000/svg">
<path d="M50.2123 23.0484L55.3592 24.0631V27.6485H45.4934C45.1834 18.2674 37.4551 10.7312 27.9999 10.7312C18.5448 10.7312 10.8166 18.2674 10.5064 27.6485H0.640625V24.0631L5.7875 23.0484C5.97981 23.0105 6.14035 22.8791 6.21535 22.6981L8.68309 16.7488C8.75832 16.5676 8.73781 16.3607 8.62848 16.1979L5.70465 11.8379L11.6035 5.93902L15.9636 8.86285C16.1267 8.97219 16.3336 8.99258 16.5145 8.91746L22.4638 6.44961C22.6447 6.37449 22.7762 6.21395 22.814 6.02176L23.8289 0.875H32.1712L33.1859 6.02176C33.2238 6.21406 33.3553 6.37461 33.5362 6.44961L39.4855 8.91746C39.6664 8.99258 39.8734 8.97219 40.0364 8.86285L44.3964 5.93891L50.2953 11.8379L47.3715 16.1979C47.2622 16.3609 47.2418 16.5676 47.3169 16.7488L49.7846 22.6981C49.8597 22.8791 50.0203 23.0105 50.2125 23.0484H50.2123ZM27.9998 15.9854C21.442 15.9854 16.0714 21.1651 15.765 27.6484H17.988V25.7134C17.988 25.3897 18.2503 25.1274 18.5739 25.1274C18.8976 25.1274 19.1599 25.3897 19.1599 25.7134V27.6484H21.13V25.7134C21.13 25.3897 21.3923 25.1274 21.716 25.1274C22.0397 25.1274 22.3019 25.3897 22.3019 25.7134V27.6484H24.2721V24.0705L22.3026 22.1009C22.1927 21.991 22.1309 21.8421 22.1309 21.6867V19.2889C22.1309 18.9652 22.3932 18.703 22.7169 18.703C23.0405 18.703 23.3028 18.9652 23.3028 19.2889V21.444L25.2723 23.4136C25.3822 23.5235 25.4439 23.6724 25.4439 23.8278V27.6485H27.4141V22.3739C27.4141 22.2185 27.4759 22.0694 27.5858 21.9596L29.7269 19.8185C29.9555 19.5896 30.3268 19.5896 30.5554 19.8185C30.7843 20.0472 30.7843 20.4182 30.5554 20.647L28.5859 22.6166V27.6484H30.556V23.8277C30.556 23.6723 30.6178 23.5232 30.7277 23.4134L32.6973 21.4439V19.2888C32.6973 18.9651 32.9595 18.7029 33.2832 18.7029C33.6069 18.7029 33.8691 18.9651 33.8691 19.2888V21.6866C33.8691 21.842 33.8074 21.991 33.6975 22.1008L31.7279 24.0704V27.6482H33.698V25.7132C33.698 25.3896 33.9603 25.1273 34.284 25.1273C34.6077 25.1273 34.8699 25.3896 34.8699 25.7132V27.6482H36.8401V25.7132C36.8401 25.3896 37.1023 25.1273 37.426 25.1273C37.7497 25.1273 38.012 25.3896 38.012 25.7132V27.6482H40.2351C39.9287 21.165 34.558 15.9853 28 15.9853L27.9998 15.9854ZM16.4281 34.5791V30.2175C16.4281 29.8919 16.1657 29.6295 15.8435 29.6295C15.6807 29.6295 15.5312 29.696 15.4249 29.8055L11.4386 33.7918H4.81344C4.57461 33.136 3.94777 32.6657 3.20727 32.6657C2.26391 32.6657 1.49656 33.4331 1.49656 34.3764C1.49656 35.3198 2.26391 36.0906 3.20727 36.0906C3.94707 36.0906 4.57356 35.6211 4.81273 34.9645H11.6813C11.8307 34.9645 11.9837 34.908 12.0965 34.7918L15.2589 31.6293V34.3366L8.89098 40.7013H7.3107C7.07129 40.0457 6.44504 39.5785 5.70535 39.5785C4.76188 39.5785 3.99453 40.3426 3.99453 41.2892C3.99453 42.2359 4.76188 42.9999 5.70535 42.9999C6.44574 42.9999 7.07258 42.5297 7.31141 41.8739H9.13356C9.29633 41.8739 9.44586 41.8074 9.55215 41.6979L16.2589 34.9911C16.3719 34.8781 16.4282 34.7286 16.4282 34.5792L16.4281 34.5791ZM21.7166 29.6295C21.391 29.6295 21.1285 29.892 21.1285 30.2175V39.5054L19.1055 41.6247C18.9958 41.741 18.9427 41.8838 18.9427 42.03V49.7369C18.2747 49.9767 17.7966 50.6132 17.7966 51.3644C17.7966 52.3211 18.5707 53.0952 19.5274 53.0952C20.4841 53.0952 21.2614 52.3211 21.2614 51.3644C21.2614 50.6144 20.7828 49.9786 20.1154 49.738V42.2625L22.1086 40.1697C22.2282 40.0634 22.3012 39.9073 22.3012 39.7379V30.2175C22.3012 29.8919 22.0388 29.6295 21.7166 29.6295ZM31.1407 29.6295C30.8184 29.6295 30.556 29.892 30.556 30.2175V39.4954L28.5397 41.5118C28.4267 41.6247 28.367 41.7743 28.367 41.9237V52.8601C28.2464 52.8418 28.1239 52.8294 27.9983 52.8294C27.8738 52.8294 27.7524 52.8417 27.6329 52.8597V41.9237C27.6329 41.7743 27.5731 41.6247 27.4602 41.5118L25.4438 39.4954V30.2175C25.4438 29.8919 25.1814 29.6295 24.8592 29.6295C24.5336 29.6295 24.2713 29.892 24.2713 30.2175V39.7379C24.2713 39.9007 24.3377 40.0468 24.4473 40.1531L26.4603 42.1661V53.3775C25.9114 53.8251 25.5601 54.5067 25.5601 55.2709C25.5601 56.6162 26.653 57.7091 27.9983 57.7091C29.3436 57.7091 30.4398 56.6162 30.4398 55.2709C30.4398 54.5069 30.0887 53.8256 29.5395 53.3779V42.1661L31.5526 40.1531C31.6623 40.0468 31.7286 39.9005 31.7286 39.7379V30.2175C31.7286 29.8919 31.4662 29.6295 31.1407 29.6295ZM27.9982 38.8643C28.3237 38.8643 28.5861 38.6019 28.5861 38.2763V30.2175C28.5861 29.8919 28.3237 29.6295 27.9982 29.6295C27.6759 29.6295 27.4135 29.892 27.4135 30.2175V38.2763C27.4135 38.6019 27.6759 38.8643 27.9982 38.8643ZM43.9132 45.8716V41.9768C43.9264 41.8073 43.8699 41.638 43.7437 41.5116L38.0102 35.7781V30.2173C38.0102 29.8918 37.7478 29.6294 37.4256 29.6294C37.1033 29.6294 36.8409 29.8919 36.8409 30.2173V36.0206C36.8409 36.1834 36.9072 36.3329 37.0136 36.4392L42.7471 42.1693V45.8707C42.0895 46.1094 41.6177 46.7386 41.6177 47.4775C41.6177 48.4243 42.385 49.1882 43.3285 49.1882C44.272 49.1882 45.0393 48.4242 45.0393 47.4775C45.0393 46.7393 44.5705 46.1105 43.9133 45.8714L43.9132 45.8716ZM37.0535 49.7356V42.0598C37.0634 41.9038 37.0102 41.7475 36.894 41.6247L34.871 39.5054V30.2175C34.871 29.8919 34.6086 29.6295 34.2829 29.6295C33.9607 29.6295 33.6983 29.892 33.6983 30.2175V39.7379C33.6983 39.9073 33.7714 40.0634 33.8909 40.1697L35.8873 42.2625V49.7367C35.2182 49.9763 34.738 50.613 34.738 51.3643C34.738 52.321 35.5153 53.095 36.472 53.095C37.4287 53.095 38.2026 52.321 38.2026 51.3643C38.2026 50.612 37.7231 49.9743 37.0532 49.7356H37.0535ZM13.2557 45.8721V42.1661L18.986 36.4393C19.0923 36.333 19.1587 36.1835 19.1587 36.0207V30.2175C19.1587 29.8919 18.8963 29.6295 18.5741 29.6295C18.2518 29.6295 17.9894 29.892 17.9894 30.2175V35.7782L12.2559 41.5118C12.1429 41.6247 12.0832 41.7743 12.0832 41.9237V45.8729C11.4277 46.113 10.9604 46.7408 10.9604 47.4779C10.9604 48.4247 11.7245 49.1886 12.6712 49.1886C13.618 49.1886 14.382 48.4245 14.382 47.4779C14.382 46.7401 13.9118 46.1118 13.2559 45.8722L13.2557 45.8721ZM52.7925 32.6656C52.052 32.6656 51.4231 33.1359 51.1835 33.7917H44.5609L40.5746 29.8054C40.4683 29.6957 40.3188 29.6294 40.156 29.6294C39.8338 29.6294 39.5714 29.8919 39.5714 30.2173V34.5789C39.5714 34.7284 39.6277 34.8779 39.7407 34.9909L46.4475 41.6976C46.5538 41.8073 46.7033 41.8736 46.8661 41.8736H48.6882C48.927 42.5294 49.5538 42.9997 50.2943 42.9997C51.2377 42.9997 52.0051 42.2323 52.0051 41.289C52.0051 40.3456 51.2377 39.5783 50.2943 39.5783C49.5546 39.5783 48.9283 40.0456 48.6889 40.7011H47.1086L40.7407 34.3364V31.6291L43.9031 34.7915C44.0161 34.9078 44.1689 34.9643 44.3183 34.9643H51.1839C51.4241 35.6209 52.0525 36.0903 52.7923 36.0903C53.7357 36.0903 54.5031 35.323 54.5031 34.3762C54.5031 33.4295 53.7357 32.6655 52.7923 32.6655L52.7925 32.6656Z" fill="white"/>
</svg>
