<svg width="75" height="75" viewBox="0 0 75 75" fill="none" xmlns="http://www.w3.org/2000/svg">
<path d="M35.7649 28.3876V6.53544C35.7649 5.23276 36.8209 4.17676 38.1236 4.17676H69.2572C70.5598 4.17676 71.6158 5.23276 71.6158 6.53544V28.3876C71.6158 29.6903 70.5598 30.7463 69.2572 30.7463H38.1237C36.8209 30.7463 35.7649 29.6903 35.7649 28.3876Z" fill="#46738C"/>
<path d="M37.5867 22.8458C37.2401 22.8458 36.897 22.6929 36.6659 22.3996C36.2654 21.8914 36.3524 21.1548 36.8605 20.7541L46.464 13.1818C46.9723 12.7812 47.709 12.8683 48.1095 13.3765C48.51 13.8846 48.423 14.6213 47.9148 15.0219L38.3113 22.5943C38.0961 22.7635 37.8405 22.8458 37.5867 22.8458Z" fill="#FF8C46"/>
<path d="M18.7924 10.6532C21.6108 10.6532 23.8956 8.36842 23.8956 5.54999C23.8956 2.73156 21.6108 0.446777 18.7924 0.446777C15.974 0.446777 13.6892 2.73156 13.6892 5.54999C13.6892 8.36842 15.974 10.6532 18.7924 10.6532Z" fill="#FFB69E"/>
<path d="M22.3303 62.7579C20.69 62.7579 19.3604 61.4281 19.3604 59.7879V36.0486C19.3604 34.4083 20.6901 33.0786 22.3303 33.0786C23.9705 33.0786 25.3003 34.4084 25.3003 36.0486V59.7879C25.3004 61.4281 23.9706 62.7579 22.3303 62.7579Z" fill="#343E6B"/>
<path d="M15.1609 62.7579C13.5206 62.7579 12.1909 61.4281 12.1909 59.7879V36.0486C12.1909 34.4083 13.5207 33.0786 15.1609 33.0786C16.8011 33.0786 18.1308 34.4084 18.1308 36.0486V59.7879C18.131 61.4281 16.8012 62.7579 15.1609 62.7579Z" fill="#414B82"/>
<path d="M39.6436 20.3776C38.9263 19.2223 37.4084 18.8672 36.253 19.5844L31.2659 22.6808V18.0766C31.25 14.8798 28.6128 12.2788 25.4158 12.2788H25.3247C23.7506 12.2788 13.7303 12.2788 12.1018 12.2788C8.83818 12.2788 6.16968 14.8931 6.15356 18.1064C6.15356 18.1105 6.15356 18.1147 6.15356 18.1188V36.3016C6.15356 37.6685 7.26172 38.7766 8.62856 38.7766C9.9954 38.7766 11.1036 37.6685 11.1036 36.3016V18.1272C11.1088 17.6565 11.5833 17.2289 12.1018 17.2289H12.1909V36.0483H25.3005C25.3005 34.2938 25.3005 19.1766 25.3005 17.2038C25.3137 17.2038 25.4291 17.2038 25.4159 17.2038C25.911 17.2038 26.3612 17.6066 26.3637 18.1017V27.1068C26.3734 29.035 28.4956 30.1979 30.1248 29.1864L38.851 23.7686C40.0059 23.051 40.3608 21.5329 39.6436 20.3776Z" fill="#252D5C"/>
<path d="M39.6438 20.3776C38.9264 19.2223 37.4086 18.8672 36.2531 19.5844L31.266 22.6808V18.0766C31.2501 14.8798 28.6129 12.2788 25.4159 12.2788C24.5705 12.2788 19.5579 12.2788 18.7449 12.2788V36.048H25.3005C25.3005 34.2935 25.3005 19.1763 25.3005 17.2035C25.3137 17.2035 25.4291 17.2035 25.4159 17.2035C25.911 17.2035 26.3612 17.6063 26.3637 18.1014V27.1065C26.3733 29.0347 28.4956 30.1976 30.1248 29.1861L38.851 23.7683C40.006 23.051 40.3609 21.5329 39.6438 20.3776Z" fill="#1B224A"/>
<path d="M39.6436 20.3777C38.9263 19.2224 37.4084 18.8673 36.2529 19.5845L38.8505 23.7684C40.0059 23.0511 40.3608 21.533 39.6436 20.3777Z" fill="#FFB69E"/>
<path d="M35.3793 20.1186L37.9529 24.3174L38.8479 23.7688L36.2742 19.5701L35.3793 20.1186Z" fill="white"/>
<path d="M6.15283 35.0254V36.302C6.15283 37.6688 7.26098 38.777 8.62783 38.777C9.99467 38.777 11.1028 37.6688 11.1028 36.302V35.0254H6.15283Z" fill="white"/>
<path d="M6.15283 36.2383V36.302C6.15283 37.6688 7.26098 38.777 8.62783 38.777C9.99467 38.777 11.1028 37.6688 11.1028 36.302V36.2383H6.15283Z" fill="#FFB69E"/>
<path d="M14.9685 12.2788L18.7449 22.1893L22.5223 12.2788H14.9685Z" fill="white"/>
<path d="M20.3873 15.6528L19.5484 14.127L20.2715 12.8121C20.403 12.5729 20.2297 12.2793 19.9564 12.2793H17.5325C17.2595 12.2793 17.0857 12.5726 17.2174 12.8121L17.943 14.1314L17.1064 15.6531C16.9905 15.8639 16.9529 16.1085 17 16.3444L17.5161 18.9641L18.7448 22.1898L19.9747 18.9637L20.4937 16.3447C20.541 16.1085 20.5032 15.8636 20.3873 15.6528Z" fill="#FF3C3C"/>
<path d="M23.8424 19.894H20.573V20.9023H23.8424V19.894Z" fill="#252D5C"/>
<path d="M62.8587 53.2672C65.6087 53.2672 67.838 51.0379 67.838 48.2879C67.838 45.5379 65.6087 43.3086 62.8587 43.3086C60.1087 43.3086 57.8794 45.5379 57.8794 48.2879C57.8794 51.0379 60.1087 53.2672 62.8587 53.2672Z" fill="#80391B"/>
<path d="M69.2867 54.855C67.8235 54.855 57.8517 54.855 56.3888 54.855C53.2695 54.855 50.691 57.3927 50.6753 60.5119V66.0834H55.4804V60.5359C55.4828 60.0528 55.9057 59.6598 56.3888 59.6598H56.4361V66.0833H69.1617V59.6598H69.2868C69.7699 59.6598 70.1927 60.0528 70.1952 60.5359V66.0834H75.0002V60.5119C74.9845 57.3928 72.4062 54.855 69.2867 54.855Z" fill="#80391B"/>
<path d="M69.2865 54.8545H65.3482C63.8145 56.0705 61.8012 56.0231 60.4027 54.8545H56.3888C53.2695 54.8545 50.691 57.3922 50.6753 60.5114V64.0084H55.4804V60.5356C55.4828 60.0525 55.9057 59.6595 56.3888 59.6595H56.4361V66.0829H69.1617V59.6595H69.2868C69.7699 59.6595 70.1927 60.0525 70.1952 60.5356V64.0084H75.0003V60.5114C74.9843 57.3923 72.4061 54.8545 69.2865 54.8545Z" fill="#55C7A6"/>
<path d="M37.5235 53.2672C40.2735 53.2672 42.5028 51.0379 42.5028 48.2879C42.5028 45.5379 40.2735 43.3086 37.5235 43.3086C34.7735 43.3086 32.5442 45.5379 32.5442 48.2879C32.5442 51.0379 34.7735 53.2672 37.5235 53.2672Z" fill="#FFB69E"/>
<path d="M43.9512 54.855C42.488 54.855 32.5162 54.855 31.0533 54.855C27.9341 54.855 25.3555 57.3927 25.3398 60.5119V66.0834H30.145V60.5359C30.1473 60.0528 30.5702 59.6598 31.0533 59.6598H31.1006V66.0833H43.8263V59.6598H43.9514C44.4345 59.6598 44.8572 60.0528 44.8597 60.5359V66.0834H49.6648V60.5119C49.6492 57.3928 47.0706 54.855 43.9512 54.855Z" fill="#FFB69E"/>
<path d="M43.9511 54.8545H39.8163C38.2826 56.0705 36.2693 56.0231 34.8708 54.8545H31.0533C27.9341 54.8545 25.3555 57.3922 25.3398 60.5114V64.0084H30.145V60.5356C30.1473 60.0525 30.5702 59.6595 31.0533 59.6595H31.1006V66.0829H43.8263V59.6595H43.9514C44.4345 59.6595 44.8572 60.0525 44.8597 60.5356V64.0084H49.6648V60.5114C49.649 57.3923 47.0705 54.8545 43.9511 54.8545Z" fill="#252D5C"/>
<path d="M12.1822 53.1881C14.9322 53.1881 17.1615 50.9588 17.1615 48.2088C17.1615 45.4588 14.9322 43.2295 12.1822 43.2295C9.43218 43.2295 7.20288 45.4588 7.20288 48.2088C7.20288 50.9588 9.43218 53.1881 12.1822 53.1881Z" fill="#FFB69E"/>
<path d="M18.6116 54.7754C17.1484 54.7754 7.17665 54.7754 5.71371 54.7754C2.59448 54.7754 0.0159179 57.3131 0.000244141 60.4323V66.004H4.80536V60.4565C4.80771 59.9734 5.23061 59.5804 5.71371 59.5804H5.76102V66.0038H18.4865V59.5802H18.6116C19.0947 59.5802 19.5175 59.9732 19.52 60.4563V66.0038H24.3251V60.4322C24.3094 57.3131 21.7309 54.7754 18.6116 54.7754Z" fill="#FFB69E"/>
<path d="M18.6116 54.7754H14.4767C12.943 55.9914 10.9297 55.944 9.53123 54.7754H5.71371C2.59448 54.7754 0.0159179 57.3131 0.000244141 60.4323V63.9293H4.80536V60.4565C4.80771 59.9734 5.23061 59.5804 5.71371 59.5804H5.76102V66.0038H18.4865V59.5802H18.6116C19.0947 59.5802 19.5175 59.9732 19.52 60.4563V63.9292H24.3251V60.4322C24.3094 57.3131 21.7309 54.7754 18.6116 54.7754Z" fill="#78BEFF"/>
<path d="M51.6014 62.1905C54.3513 62.1905 56.5806 59.9612 56.5806 57.2112C56.5806 54.4612 54.3513 52.2319 51.6014 52.2319C48.8514 52.2319 46.6221 54.4612 46.6221 57.2112C46.6221 59.9612 48.8514 62.1905 51.6014 62.1905Z" fill="#FFB69E"/>
<path d="M58.0303 63.7773C56.5671 63.7773 46.5953 63.7773 45.1324 63.7773C42.0132 63.7773 39.4346 66.315 39.4189 69.4343V75.0058H44.2241V69.4583C44.2264 68.9752 44.6493 68.5822 45.1324 68.5822H45.1797V75.0056H57.9054V68.5822H58.0305C58.5136 68.5822 58.9363 68.9752 58.9388 69.4583V75.0058H63.7439V69.4343C63.728 66.3149 61.1496 63.7773 58.0303 63.7773Z" fill="#FFB69E"/>
<path d="M58.0304 63.7778H54.0921C52.5584 64.9938 50.5451 64.9465 49.1466 63.7778H45.1327C42.0134 63.7778 39.4349 66.3155 39.4192 69.4348V72.9318H44.2243V69.4589C44.2267 68.9758 44.6495 68.5828 45.1327 68.5828H45.18V75.0063H57.9055V68.5828H58.0306C58.5137 68.5828 58.9364 68.9758 58.9389 69.4589V72.9318H63.744V69.4348C63.7281 66.3154 61.1497 63.7778 58.0304 63.7778Z" fill="#78BEFF"/>
<path d="M26.2659 62.1905C29.0159 62.1905 31.2452 59.9612 31.2452 57.2112C31.2452 54.4612 29.0159 52.2319 26.2659 52.2319C23.5159 52.2319 21.2866 54.4612 21.2866 57.2112C21.2866 59.9612 23.5159 62.1905 26.2659 62.1905Z" fill="#BA6746"/>
<path d="M32.6949 63.7773C31.2317 63.7773 21.2599 63.7773 19.797 63.7773C16.6777 63.7773 14.0992 66.315 14.0835 69.4343V75.0058H18.8886V69.4583C18.891 68.9752 19.3139 68.5822 19.797 68.5822H19.8443V75.0056H32.5699V68.5822H32.695C33.1781 68.5822 33.6009 68.9752 33.6034 69.4583V75.0058H38.4084V69.4343C38.3925 66.3149 35.8143 63.7773 32.6949 63.7773Z" fill="#BA6746"/>
<path d="M32.6949 63.7778H28.5601C27.0264 64.9938 25.0131 64.9465 23.6146 63.7778H19.797C16.6777 63.7778 14.0992 66.3155 14.0835 69.4348V72.9318H18.8886V69.4589C18.891 68.9758 19.3139 68.5828 19.797 68.5828H19.8443V75.0063H32.5699V68.5828H32.695C33.1781 68.5828 33.6009 68.9758 33.6034 69.4589V72.9318H38.4085V69.4348C38.3925 66.3154 35.8143 63.7778 32.6949 63.7778Z" fill="#FF3C3C"/>
</svg>
