<svg width="75" height="71" viewBox="0 0 75 71" fill="none" xmlns="http://www.w3.org/2000/svg">
<path d="M3.30225 10.127H73.9067V59.7719H3.30225V10.127Z" fill="#ECF4FF"/>
<path d="M37.5012 10.127H73.9067V59.7719H37.5012V10.127Z" fill="#D5E7FD"/>
<path d="M52.9462 59.772V68.5968C52.9462 69.8115 50.6496 69.684 49.2316 69.684L24.8031 69.6591C23.3851 69.6591 22.0566 69.8115 22.0566 68.5968V59.772C22.0566 58.5574 23.2045 57.5742 24.6225 57.5742H50.3803C51.7983 57.5742 52.9462 58.5574 52.9462 59.772Z" fill="#3F558F"/>
<path d="M52.9461 59.772V68.5968C52.9461 69.8115 51.7559 69.9334 50.3379 69.9334L37.5012 70.1827V57.5742H50.3802C51.7982 57.5742 52.9461 58.5574 52.9461 59.772Z" fill="#1C3470"/>
<path d="M61.7633 68.5967C61.7633 69.8113 60.7787 70.7945 59.5655 70.7945H15.437C14.2239 70.7945 13.2393 69.8113 13.2393 68.5967C13.2393 67.3835 14.2239 66.3989 15.437 66.3989H37.5013L54.5068 67.9132C55.72 67.9132 61.7633 67.3835 61.7633 68.5967Z" fill="#5A729E"/>
<path d="M61.7633 68.5967C61.7633 69.8113 60.7787 70.7945 59.5655 70.7945H37.5012V66.3989H59.5655C60.7787 66.3989 61.7633 67.3835 61.7633 68.5967Z" fill="#3F558F"/>
<path d="M75.0012 10.127V59.7719C75.0012 60.9851 74.0166 61.9697 72.8034 61.9697H2.199C0.985827 61.9697 0.0012207 60.9851 0.0012207 59.7719V10.127C0.0012207 8.91234 0.985827 7.9292 2.199 7.9292H15.437C16.6501 7.9292 17.6347 8.91234 17.6347 10.127C17.6347 11.3402 16.6501 12.3248 15.437 12.3248H4.39678V57.5741H70.6057V12.3248H60.6688C59.4556 12.3248 58.471 11.3402 58.471 10.127C58.471 8.91234 59.4556 7.9292 60.6688 7.9292H72.8034C74.0166 7.9292 75.0012 8.91234 75.0012 10.127Z" fill="#5A729E"/>
<path d="M75.0012 10.127V59.7719C75.0012 60.9851 74.0166 61.9697 72.8034 61.9697H37.5012V57.5741H70.6057V12.3248H60.6688C59.4556 12.3248 58.471 11.3402 58.471 10.127C58.471 8.91234 59.4556 7.9292 60.6688 7.9292H72.8034C74.0166 7.9292 75.0012 8.91234 75.0012 10.127Z" fill="#3F558F"/>
<path d="M54.0402 13.0689V23.3648C54.0402 24.2747 53.4805 25.0893 52.6307 25.4161L37.5012 31.079C36.917 31.079 37.1396 31.0831 22.3702 25.4161C21.5219 25.0893 20.9622 24.2747 20.9622 23.3648V12.8301C20.9622 11.6169 21.9468 10.6323 23.1599 10.6323C24.3731 10.6323 25.3577 11.6169 25.3577 12.8301C25.3577 12.8616 24.2726 12.8401 49.6461 13.0513C49.6549 11.8455 50.6351 10.8712 51.8424 10.8712C53.0556 10.8712 54.0402 11.8558 54.0402 13.0689Z" fill="#5A729E"/>
<path d="M54.0403 13.0689V23.3647C54.0403 24.2746 53.4806 25.0893 52.6307 25.416C37.9159 31.0831 38.0804 31.079 37.5012 31.079V12.9502L49.6462 13.0513C49.6549 11.8454 50.6352 10.8711 51.8425 10.8711C53.0556 10.8711 54.0403 11.8557 54.0403 13.0689Z" fill="#3F558F"/>
<path d="M62.8665 10.1268V25.5714C62.8665 26.786 61.8819 27.7692 60.6687 27.7692C59.4555 27.7692 58.4709 26.786 58.4709 25.5714L59.3949 11.5501L37.5012 20.0476C36.9648 20.0476 37.1863 20.0497 14.7116 12.2015C12.7534 11.5152 12.7533 8.73857 14.7116 8.05213C37.1583 0.199315 36.9645 0.206055 37.5012 0.206055L58.9708 8.93139C59.869 9.23029 62.8665 9.18033 62.8665 10.1268Z" fill="#3F558F"/>
<path d="M62.8665 10.1268V25.5714C62.8665 26.786 61.8819 27.7692 60.6688 27.7692C59.4556 27.7692 58.471 26.786 58.471 25.5714V13.1759C37.9532 20.0544 38.0164 20.0476 37.5012 20.0476V0.206055C38.0121 0.206055 37.7732 0.206055 61.3633 8.04188C62.2614 8.34078 62.8665 9.18033 62.8665 10.1268Z" fill="#1C3470"/>
<path d="M19.85 37.7158H11.0244C9.81068 37.7158 8.82666 38.6998 8.82666 39.9136V48.7392C8.82666 49.9529 9.81068 50.9369 11.0244 50.9369H19.85C21.0638 50.9369 22.0478 49.9529 22.0478 48.7392V39.9136C22.0478 38.6998 21.0638 37.7158 19.85 37.7158Z" fill="#FC6284"/>
<path d="M66.1763 39.9141C66.1763 41.1273 65.1917 42.1119 63.9785 42.1119H28.6748C27.4617 42.1119 26.4771 41.1273 26.4771 39.9141C26.4771 38.6994 27.4617 37.7163 28.6748 37.7163H63.9785C65.1917 37.7163 66.1763 38.6994 66.1763 39.9141Z" fill="#01C1F0"/>
<path d="M66.1763 48.7388C66.1763 49.9534 65.1917 50.9366 63.9785 50.9366H28.6748C27.4617 50.9366 26.4771 49.9534 26.4771 48.7388C26.4771 47.5256 27.4617 46.541 28.6748 46.541H63.9785C65.1917 46.541 66.1763 47.5256 66.1763 48.7388Z" fill="#01C1F0"/>
<path d="M66.1764 48.7388C66.1764 49.9534 65.1918 50.9366 63.9786 50.9366H37.5012V46.541H63.9786C65.1918 46.541 66.1764 47.5256 66.1764 48.7388Z" fill="#00ADE9"/>
<path d="M63.9786 42.1119H37.5012V37.7163H63.9786C65.1918 37.7163 66.1764 38.6994 66.1764 39.9141C66.1764 41.1273 65.1918 42.1119 63.9786 42.1119Z" fill="#00ADE9"/>
</svg>
