<svg width="75" height="69" viewBox="0 0 75 69" fill="none" xmlns="http://www.w3.org/2000/svg">
<path fill-rule="evenodd" clip-rule="evenodd" d="M5.25684 5.26855H69.7458V47.9436H5.25684V5.26855Z" fill="#E8F0FE"/>
<path fill-rule="evenodd" clip-rule="evenodd" d="M5.25684 5.26855H69.7457V7.95772H9.02163V47.9437H5.25684V5.26855Z" fill="#B4C2D9"/>
<path fill-rule="evenodd" clip-rule="evenodd" d="M2.63105 5.2686H72.3714C73.8154 5.2686 75.0012 4.08706 75.0012 2.63877C75.0012 1.19473 73.8154 0.0131836 72.3714 0.0131836H2.63105C1.18276 0.0131836 0.0012207 1.19473 0.0012207 2.63877C0.0012207 4.08706 1.18276 5.2686 2.63105 5.2686Z" fill="#8170F4"/>
<path fill-rule="evenodd" clip-rule="evenodd" d="M12.113 47.9437H39.6568V42.2479C39.6568 36.6747 35.0916 32.1138 29.5185 32.1138H22.2514C16.674 32.1138 12.113 36.6747 12.113 42.2479V47.9437Z" fill="#FFB74D"/>
<path fill-rule="evenodd" clip-rule="evenodd" d="M21.8701 26.6421H29.8995V33.1681H21.8701V26.6421Z" fill="#FFE0CC"/>
<path fill-rule="evenodd" clip-rule="evenodd" d="M21.8701 26.6421H29.8995V30.3858C29.4252 30.6357 28.9255 30.8431 28.4089 31.0084C27.5449 31.2793 26.6514 31.4233 25.7451 31.4233C24.8388 31.4233 23.941 31.2793 23.0771 31.0084C22.6622 30.8771 22.2598 30.7161 21.8703 30.5298L21.8701 26.6421Z" fill="#FFC5A6"/>
<path fill-rule="evenodd" clip-rule="evenodd" d="M19.1514 32.6303L21.1248 36.1198C21.2307 36.3019 21.3916 36.4163 21.5949 36.4544C21.8024 36.4882 21.993 36.4374 22.1539 36.3061L25.8848 33.1682L20.4091 30.1699L19.1514 32.6303Z" fill="#F1F2F2"/>
<path fill-rule="evenodd" clip-rule="evenodd" d="M32.6142 32.6303L30.6408 36.1198C30.5391 36.3019 30.3783 36.4163 30.1707 36.4544C29.9674 36.4882 29.7726 36.4374 29.616 36.3061L25.885 33.1682L31.3565 30.1699L32.6142 32.6303Z" fill="#F1F2F2"/>
<path fill-rule="evenodd" clip-rule="evenodd" d="M29.9334 4.17588C35.0959 4.17588 38.1577 8.34307 38.1577 14.8266C38.1577 21.3102 33.9736 26.5657 28.8112 26.5657C27.8456 26.5657 26.9097 26.3794 26.0332 26.0363C25.1311 26.3794 24.174 26.5657 23.183 26.5657C17.7411 26.5657 13.3284 21.0223 13.3284 14.1913C13.3284 13.8271 13.3412 13.4671 13.3665 13.1157C11.7657 13.1792 10.4868 12.6922 9.72021 11.3456C14.2473 8.18633 18.2916 2.63867 23.2804 2.63867C25.1988 2.63867 26.9775 3.22739 28.4724 4.28179C28.9595 4.20986 29.4465 4.17588 29.9334 4.17588Z" fill="#2D4456"/>
<path fill-rule="evenodd" clip-rule="evenodd" d="M29.3152 12.4046C30.7975 14.4585 32.8641 16.2075 35.0451 17.2874C35.0789 17.6728 35.0917 18.0582 35.0917 18.452C35.0917 24.9356 30.9076 30.1911 25.7452 30.1911C20.5828 30.1911 16.3945 24.9355 16.3945 18.452C16.3945 17.6473 16.4624 16.8597 16.5851 16.0974C20.0027 16.1609 23.92 14.5347 26.5752 12.1208C26.9774 11.7523 27.4645 11.5914 28.0066 11.6507C28.5486 11.7059 28.9932 11.9642 29.3152 12.4046Z" fill="#FFE0CC"/>
<path d="M25.885 27.8553C24.8432 27.8553 23.8268 27.3216 23.0229 26.3526C22.7592 26.0349 22.8031 25.5637 23.1209 25.3001C23.4384 25.0365 23.91 25.0806 24.1733 25.3981C24.5375 25.837 25.1302 26.3604 25.885 26.3604C26.6354 26.3604 27.2308 25.8361 27.5981 25.3964C27.8627 25.0795 28.3338 25.0372 28.6509 25.3018C28.9678 25.5665 29.0101 26.0377 28.7454 26.3547C27.9255 27.3364 26.9365 27.8553 25.885 27.8553Z" fill="#945619"/>
<path d="M22.4566 19.7986V20.04C22.4566 20.4528 22.1219 20.7874 21.7093 20.7874C21.2965 20.7874 20.9619 20.4528 20.9619 20.04V19.7986C20.9619 19.3858 21.2966 19.0513 21.7093 19.0513C22.1219 19.0513 22.4566 19.3858 22.4566 19.7986ZM30.0605 19.0513C29.6477 19.0513 29.3131 19.3858 29.3131 19.7986V20.04C29.3131 20.4528 29.6479 20.7874 30.0605 20.7874C30.4731 20.7874 30.8079 20.4528 30.8079 20.04V19.7986C30.8079 19.3858 30.4731 19.0513 30.0605 19.0513Z" fill="#945619"/>
<path d="M34.935 17.2686H32.7878H27.3291C26.9163 17.2686 26.5817 17.6031 26.5817 18.0159V18.378H25.1882V18.0159C25.1882 17.6031 24.8535 17.2686 24.4409 17.2686H18.9779H16.4031C15.9903 17.2686 15.6558 17.6031 15.6558 18.0159C15.6558 18.4287 15.9905 18.7633 16.4031 18.7633H18.2305V19.9173C18.2305 21.3802 19.4207 22.5704 20.8836 22.5704H22.5353C23.9982 22.5704 25.1884 21.3802 25.1884 19.9173V19.8728H26.5819V19.9173C26.5819 21.3802 27.7702 22.5704 29.2308 22.5704H30.8865C32.3471 22.5704 33.5354 21.3802 33.5354 19.9173V18.7633H34.935C35.3478 18.7633 35.6824 18.4287 35.6824 18.0159C35.6824 17.6031 35.3477 17.2686 34.935 17.2686ZM23.6934 19.9174C23.6934 20.5561 23.1736 21.0757 22.5351 21.0757H20.8835C20.245 21.0757 19.7252 20.5561 19.7252 19.9174V18.7634H23.6934V19.9174ZM32.0403 19.9174C32.0403 20.5561 31.5225 21.0757 30.8863 21.0757H29.2306C28.5944 21.0757 28.0766 20.5561 28.0766 19.9174V18.7634H32.0405L32.0403 19.9174Z" fill="#1E3445"/>
<path d="M31.1786 42.4681C31.5893 42.4809 31.9111 42.8238 31.8985 43.2347C31.8858 43.6454 31.5429 43.9672 31.132 43.9546L19.0921 43.5396C18.6899 43.5269 18.3722 43.1923 18.3722 42.7943H18.3679V40.5329C18.3679 40.1222 18.7025 39.7876 19.1175 39.7876C19.5282 39.7876 19.8628 40.1222 19.8628 40.5329V42.0744L31.1786 42.4681Z" fill="#D49A44"/>
<path fill-rule="evenodd" clip-rule="evenodd" d="M45.4712 11.9175H73.3538C74.2601 11.9175 75.0012 12.6585 75.0012 13.5648V30.9449C75.0012 31.8512 74.2601 32.588 73.3538 32.588C64.0625 32.588 54.7668 32.588 45.4712 32.588C44.5649 32.588 43.8281 31.8512 43.8281 30.9449V13.5606C43.8281 12.6587 44.5649 11.9175 45.4712 11.9175Z" fill="#685BC6"/>
<path d="M50.3647 16.9271C50.3647 16.5143 50.6995 16.1797 51.1121 16.1797H67.7129C68.1257 16.1797 68.4603 16.5143 68.4603 16.9271C68.4603 17.3398 68.1255 17.6744 67.7129 17.6744H51.1121C50.6995 17.6746 50.3647 17.3398 50.3647 16.9271ZM67.713 21.5072H51.1121C50.6993 21.5072 50.3647 21.8417 50.3647 22.2545C50.3647 22.6673 50.6995 23.0019 51.1121 23.0019H67.7129C68.1257 23.0019 68.4603 22.6673 68.4603 22.2545C68.4604 21.8417 68.1257 21.5072 67.713 21.5072ZM67.713 26.8347H51.1121C50.6993 26.8347 50.3647 27.1692 50.3647 27.582C50.3647 27.9948 50.6995 28.3294 51.1121 28.3294H67.7129C68.1257 28.3294 68.4603 27.9948 68.4603 27.582C68.4604 27.1692 68.1257 26.8347 67.713 26.8347Z" fill="#E8F0FE"/>
<path fill-rule="evenodd" clip-rule="evenodd" d="M2.63105 53.195H72.3714C73.8154 53.195 75.0012 52.0135 75.0012 50.5694C75.0012 49.1254 73.8154 47.9438 72.3714 47.9438H2.63105C1.18276 47.9438 0.0012207 49.1252 0.0012207 50.5694C0.0012207 52.0135 1.18276 53.195 2.63105 53.195Z" fill="#8170F4"/>
<path fill-rule="evenodd" clip-rule="evenodd" d="M10.9188 12.5992C13.7393 10.4437 16.7419 7.31401 19.7952 5.26851C21.6247 4.04038 23.4753 3.20615 25.3175 3.20615C25.7791 3.20615 26.2366 3.23574 26.6854 3.30356C25.6266 2.87158 24.4833 2.63867 23.2805 2.63867C21.0444 2.63867 18.9991 3.75239 17.0129 5.26851C14.5694 7.13179 12.219 9.60078 9.72046 11.3456C10.0379 11.9047 10.4403 12.3112 10.9188 12.5992Z" fill="#1E3445"/>
<path fill-rule="evenodd" clip-rule="evenodd" d="M45.4712 11.9175H73.3538C74.2601 11.9175 75.0012 12.6585 75.0012 13.5648V13.802H47.3515C46.4495 13.802 45.7084 14.5388 45.7084 15.4451V32.588H45.4712C44.5649 32.588 43.8281 31.8512 43.8281 30.9449V13.5606C43.8281 12.6587 44.5649 11.9175 45.4712 11.9175Z" fill="#584CB5"/>
<path d="M29.7595 44.977C29.5937 44.977 29.4267 44.922 29.2879 44.8091C28.9679 44.5484 28.9197 44.0776 29.1803 43.7575L45.6667 23.5104C45.9274 23.1903 46.3979 23.142 46.7183 23.4028C47.0383 23.6635 47.0865 24.1343 46.8259 24.4544L30.3396 44.7014C30.1918 44.8829 29.9766 44.977 29.7595 44.977Z" fill="#2D4456"/>
<path fill-rule="evenodd" clip-rule="evenodd" d="M32.7453 47.9437C33.5627 47.4143 34.1132 46.4699 34.1132 45.4281C34.1132 43.8018 32.7792 42.5272 31.153 42.4679L26.7361 42.3154V47.9437H32.7453Z" fill="#FFE0CC"/>
<path fill-rule="evenodd" clip-rule="evenodd" d="M23.8395 55.7399L27.8161 58.0352C29.1924 58.8271 29.9801 60.1907 29.9801 61.7831V65.6242H11.4565V61.7831C11.4565 60.1908 12.2442 58.8272 13.6206 58.0352L17.5972 55.7399V51.3145H23.8395V55.7399Z" fill="#007AFF"/>
<path fill-rule="evenodd" clip-rule="evenodd" d="M12.8922 65.6242H11.4565V61.7831C11.4565 60.1908 12.2442 58.8272 13.6206 58.0352L17.5972 55.7399V51.3145H19.0286V52.2335V53.1949V56.6591L15.052 58.9543C13.6756 59.7462 12.8922 61.1099 12.8922 62.7023V65.6242Z" fill="#036BDB"/>
<path fill-rule="evenodd" clip-rule="evenodd" d="M20.5743 55.5704C23.8139 55.5704 26.4522 52.9321 26.4522 49.6924C26.4522 46.457 23.8139 43.8145 20.5743 43.8145C17.3389 43.8145 14.6963 46.457 14.6963 49.6924C14.6961 52.9321 17.3387 55.5704 20.5743 55.5704Z" fill="#FFE0CC"/>
<path fill-rule="evenodd" clip-rule="evenodd" d="M20.5744 43.8145C20.9174 43.8145 21.2563 43.844 21.5866 43.9034C18.4697 44.2252 16.0347 46.8593 16.0347 50.0608C16.0347 52.3138 17.2375 54.283 19.0288 55.3671C16.5345 54.6852 14.6965 52.4069 14.6965 49.6923C14.6962 46.4485 17.3305 43.8145 20.5744 43.8145Z" fill="#FFC5A6"/>
<path fill-rule="evenodd" clip-rule="evenodd" d="M57.4052 55.7399L61.3818 58.0352C62.7582 58.8271 63.5459 60.1907 63.5459 61.7831V65.6242H45.0225V61.7831C45.0225 60.1908 45.8101 58.8272 47.1865 58.0352L51.1631 55.7399V51.3145H57.4054V55.7399H57.4052Z" fill="#FD465F"/>
<path fill-rule="evenodd" clip-rule="evenodd" d="M46.4579 65.6242H45.0222V61.7831C45.0222 60.1908 45.8099 58.8272 47.1862 58.0352L51.1628 55.7399V51.3145H52.5943V52.2335V53.1949V56.6591L48.6177 58.9543C47.2456 59.7462 46.4579 61.1099 46.4579 62.7023V65.6242Z" fill="#BD0D1C"/>
<path fill-rule="evenodd" clip-rule="evenodd" d="M54.1399 55.5704C57.3796 55.5704 60.0179 52.9321 60.0179 49.6924C60.0179 46.457 57.3796 43.8145 54.1399 43.8145C50.9045 43.8145 48.262 46.457 48.262 49.6924C48.262 52.9321 50.9045 55.5704 54.1399 55.5704Z" fill="#FFE0CC"/>
<path fill-rule="evenodd" clip-rule="evenodd" d="M54.14 43.8145C54.4874 43.8145 54.8219 43.844 55.1522 43.9034C52.0353 44.2252 49.6046 46.8593 49.6046 50.0608C49.6046 52.3138 50.8031 54.283 52.5945 55.3671C50.1001 54.6852 48.2622 52.4069 48.2622 49.6923C48.2621 46.4485 50.8961 43.8145 54.14 43.8145Z" fill="#FFC5A6"/>
<path fill-rule="evenodd" clip-rule="evenodd" d="M40.6224 59.0983L44.599 61.3936C45.9754 62.1897 46.763 63.5533 46.763 65.1415V68.9867H28.2395V65.1415C28.2395 63.5535 29.0271 62.1898 30.4035 61.3936L34.3801 59.0983V54.6729H40.6224V59.0983Z" fill="#ECBA6E"/>
<path fill-rule="evenodd" clip-rule="evenodd" d="M29.6752 68.9867H28.2395V65.1415C28.2395 63.5535 29.0271 62.1898 30.4035 61.3936L34.3801 59.0983V54.6729H35.8116V55.5919V56.5575V60.0175L31.835 62.3127C30.4628 63.1089 29.6752 64.4725 29.6752 66.0607V68.9867Z" fill="#D49A44"/>
<path fill-rule="evenodd" clip-rule="evenodd" d="M37.3572 58.9332C40.5969 58.9332 43.2352 56.2906 43.2352 53.0552C43.2352 49.8156 40.5969 47.1772 37.3572 47.1772C34.1218 47.1772 31.4792 49.8156 31.4792 53.0552C31.4792 56.2906 34.1218 58.9332 37.3572 58.9332Z" fill="#FFE0CC"/>
<path fill-rule="evenodd" clip-rule="evenodd" d="M37.3571 47.1772C37.7044 47.1772 38.039 47.2068 38.3693 47.2619C35.2524 47.5837 32.8174 50.2178 32.8174 53.4236C32.8174 55.6723 34.0202 57.6417 35.8115 58.7258C33.3172 58.0481 31.4792 55.7656 31.4792 53.0552C31.4791 49.8071 34.1132 47.1772 37.3571 47.1772Z" fill="#FFC5A6"/>
</svg>
