<svg width="62" height="62" viewBox="0 0 62 62" fill="none" xmlns="http://www.w3.org/2000/svg">
<path d="M40.3898 11.9715C37.1542 9.31484 33.014 7.71875 28.5011 7.71875C18.1452 7.71875 9.7511 16.1129 9.7511 26.4688C9.7511 36.8246 18.1452 45.2188 28.5011 45.2188C38.857 45.2188 47.2511 36.8246 47.2511 26.4688C47.2511 24.2867 46.8597 22.2008 46.1741 20.2531C43.1542 18.5375 40.9757 15.5223 40.3898 11.9715Z" fill="#FAB400"/>
<path d="M0.376099 45.2188H7.40735V61.625H0.376099V45.2188Z" fill="#64C8F0"/>
<path d="M0.376099 45.2188H2.71985V61.625H0.376099V45.2188Z" fill="#46AAD2"/>
<path d="M50.6214 52.4152L33.6234 54.5398C33.3339 54.5762 33.0421 54.5938 32.7503 54.5938H26.1573C24.8624 54.5938 23.8136 53.5449 23.8136 52.25L33.648 50.2836C34.7437 50.0645 35.5323 49.1023 35.5323 47.9844V47.5625H7.40735V56.9375L26.1152 61.0941C27.6796 61.4422 29.3074 61.3824 30.8425 60.9219L51.1031 54.8434C51.5988 54.6957 51.9386 54.2398 51.9386 53.7219V53.5777C51.9386 52.8723 51.321 52.3273 50.6214 52.4152Z" fill="#F0C8A0"/>
<path d="M14.4386 26.4688C14.4386 16.9086 21.5988 9.03594 30.8448 7.88047C30.0749 7.78437 29.2968 7.71875 28.5011 7.71875C18.1452 7.71875 9.7511 16.1129 9.7511 26.4688C9.7511 36.8246 18.1452 45.2188 28.5011 45.2188C29.2968 45.2188 30.0749 45.1531 30.8448 45.057C21.5988 43.9016 14.4386 36.0289 14.4386 26.4688Z" fill="#DC9600"/>
<path d="M28.5011 38.1875C34.9732 38.1875 40.2198 32.9408 40.2198 26.4688C40.2198 19.9967 34.9732 14.75 28.5011 14.75C22.029 14.75 16.7823 19.9967 16.7823 26.4688C16.7823 32.9408 22.029 38.1875 28.5011 38.1875Z" fill="#BE7800"/>
<path d="M32.2511 22.4504V19.7727H29.7515V17.0938H27.2507V19.7727H24.7511V27.8082H29.7515V30.4871H24.7511V33.1648H27.2507V35.8438H29.7515V33.1648H32.2511V25.1293H27.2507V22.4504H32.2511Z" fill="#FAB400"/>
<path d="M51.9386 19.4375C57.1163 19.4375 61.3136 15.2402 61.3136 10.0625C61.3136 4.88483 57.1163 0.6875 51.9386 0.6875C46.7609 0.6875 42.5636 4.88483 42.5636 10.0625C42.5636 15.2402 46.7609 19.4375 51.9386 19.4375Z" fill="#3CC8B4"/>
<path d="M44.9073 10.0625C44.9073 5.28242 48.4874 1.34609 53.1105 0.768359C52.7261 0.720312 52.3359 0.6875 51.9386 0.6875C46.7613 0.6875 42.5636 4.88516 42.5636 10.0625C42.5636 15.2398 46.7613 19.4375 51.9386 19.4375C52.3359 19.4375 52.7261 19.4047 53.1105 19.3566C48.4874 18.7789 44.9073 14.8426 44.9073 10.0625Z" fill="#1EAA96"/>
<path d="M57.798 7.71875L50.7667 14.75L46.0792 10.0625L48.423 7.71875L50.7667 10.0625L55.4542 5.375L57.798 7.71875Z" fill="#F0F0F0"/>
</svg>
