<svg width="51" height="68" viewBox="0 0 51 68" fill="none" xmlns="http://www.w3.org/2000/svg">
<path d="M12.5653 15.2041V7.13281C12.5653 5.26801 13.3061 3.47958 14.6247 2.16097C15.9433 0.842353 17.7318 0.101563 19.5966 0.101562H31.4055C33.2703 0.101563 35.0588 0.842353 36.3774 2.16097C37.696 3.47958 38.4368 5.26801 38.4368 7.13281V15.2041H12.5653Z" fill="#455DA0"/>
<path d="M45.423 66.8986V42.6168C45.4229 41.2195 44.9236 39.8682 44.0149 38.8067C43.1063 37.7452 41.8483 37.0433 40.4677 36.8277L29.9378 35.183V30.2354H21.0644V35.183L10.5345 36.8277C9.15394 37.0433 7.89588 37.7452 6.98725 38.8067C6.07863 39.8682 5.57926 41.2195 5.57922 42.6168V66.8986H45.423Z" fill="#FFD92E"/>
<path d="M14.3682 15.2041H12.5653C11.9437 15.2041 11.3476 15.451 10.908 15.8906C10.4685 16.3301 10.2216 16.9263 10.2216 17.5479V18.4268C10.2214 19.0479 10.4186 19.6531 10.7848 20.1548C11.151 20.6566 11.6672 21.029 12.2589 21.2182L14.9647 22.0865H36.0403L38.7432 21.2182C39.3342 21.0286 39.8497 20.6564 40.2154 20.155C40.5811 19.6536 40.7782 19.0491 40.7782 18.4285V17.5496C40.7782 16.928 40.5313 16.3319 40.0917 15.8923C39.6522 15.4528 39.056 15.2059 38.4344 15.2059H14.3682V15.2041Z" fill="#F9BBAF"/>
<path d="M14.3683 15.2039V17.9684C14.3683 20.4101 14.9813 22.8128 16.1513 24.956C17.3212 27.0992 19.0106 28.9144 21.0644 30.235C22.3877 31.0859 23.9278 31.5383 25.5011 31.5383C27.0744 31.5383 28.6145 31.0859 29.9378 30.235C31.9916 28.9144 33.681 27.0992 34.8509 24.956C36.0209 22.8128 36.6339 20.4101 36.6339 17.9684V15.2039L32.3689 9.50977C30.1417 10.5662 27.8475 11.475 25.5011 12.2303C23.1547 11.4757 20.8604 10.5675 18.6333 9.51152L14.3683 15.2039Z" fill="#FFD3C2"/>
<path d="M48.3527 25.4512H2.64954C1.67872 25.4512 0.891724 26.2382 0.891724 27.209V59.0963C0.891724 60.0671 1.67872 60.8541 2.64954 60.8541H48.3527C49.3235 60.8541 50.1105 60.0671 50.1105 59.0963V27.209C50.1105 26.2382 49.3235 25.4512 48.3527 25.4512Z" fill="#808CFF"/>
<path d="M20.3202 51.2388H30.6819V66.8985H20.3202V51.2388Z" fill="#6D74F2"/>
<path d="M25.5011 41.8608C27.4427 41.8608 29.0167 40.2868 29.0167 38.3452C29.0167 36.4036 27.4427 34.8296 25.5011 34.8296C23.5595 34.8296 21.9855 36.4036 21.9855 38.3452C21.9855 40.2868 23.5595 41.8608 25.5011 41.8608Z" fill="#E9F4FF"/>
<path d="M35.8358 67.9238H15.1669C14.8949 67.9238 14.6341 67.8158 14.4418 67.6235C14.2495 67.4312 14.1415 67.1704 14.1415 66.8984C14.1415 66.6265 14.2495 66.3657 14.4418 66.1734C14.6341 65.9811 14.8949 65.873 15.1669 65.873H35.8358C36.1078 65.873 36.3686 65.9811 36.5609 66.1734C36.7532 66.3657 36.8612 66.6265 36.8612 66.8984C36.8612 67.1704 36.7532 67.4312 36.5609 67.6235C36.3686 67.8158 36.1078 67.9238 35.8358 67.9238Z" fill="#808CFF"/>
</svg>
