<svg width="81" height="81" viewBox="0 0 81 81" fill="none" xmlns="http://www.w3.org/2000/svg">
<rect x="0.955078" y="0.429688" width="80" height="80" rx="15" fill="white"/>
<path d="M57.0232 31.1787C59.4816 31.1787 61.4746 29.1858 61.4746 26.7273C61.4746 24.2689 59.4816 22.2759 57.0232 22.2759C54.5647 22.2759 52.5718 24.2689 52.5718 26.7273C52.5718 29.1858 54.5647 31.1787 57.0232 31.1787Z" fill="black"/>
<path d="M31.649 20.842C31.649 23.6226 29.3921 25.8795 26.6115 25.8795C23.831 25.8795 21.5741 23.6226 21.5741 20.842C21.5741 20.6051 21.5866 20.3807 21.624 20.1438C21.624 20.1438 25.9756 17.1637 30.3023 17.4131C31.1377 18.3108 31.649 19.5203 31.649 20.842Z" fill="url(#paint0_linear_375_1065)"/>
<path d="M12.7461 69.2588H7.59647L15.6763 33.9469C16.2998 31.2411 18.6938 29.3334 21.4743 29.3334H26.624L18.5442 64.6453C17.9207 67.351 15.5267 69.2588 12.7461 69.2588Z" fill="black"/>
<path d="M40.1403 58.7849H42.8335C44.2301 58.7849 45.2276 57.4382 44.8161 56.104L37.8086 33.5104C37.0355 31.0166 34.7288 29.3209 32.1352 29.3209H26.6364L34.4794 54.5953C35.2525 57.0891 37.5592 58.7849 40.1527 58.7849H40.1403Z" fill="url(#paint1_linear_375_1065)"/>
<path d="M44.5543 58.7848H40.0655L46.8735 37.7872C47.6715 35.3308 49.9533 33.6725 52.5344 33.6725H57.0232L50.2152 54.6701C49.4172 57.1265 47.1354 58.7848 44.5543 58.7848Z" fill="black"/>
<path d="M69.9035 69.2588H73.9684L66.8861 38.2985C66.2626 35.5927 63.8686 33.685 61.088 33.685H57.0232L64.1055 64.6453C64.7289 67.351 67.123 69.2588 69.9035 69.2588Z" fill="url(#paint2_linear_375_1065)"/>
<path d="M29.1302 13.9592L30.0155 16.7273C26.8858 16.8146 24.018 17.7248 21.412 19.4705L20.5267 16.7024L17.3097 16.5777L23.6689 11.7023L31.6864 12.0016L29.1302 13.9592Z" fill="black"/>
<path d="M18.4195 16.6276L19.0928 18.7597L19.4419 18.6475L18.8434 16.7772L23.6564 13.3856C23.7686 13.448 23.8933 13.4605 24.018 13.4231C24.2674 13.3482 24.4045 13.0864 24.3172 12.837C24.2424 12.5876 23.9806 12.4505 23.7312 12.5378C23.4943 12.6126 23.3571 12.862 23.4195 13.1113L18.407 16.64L18.4195 16.6276Z" fill="#E2E2E2"/>
<path d="M19.205 18.8096C19.3909 18.8096 19.5416 18.6588 19.5416 18.4729C19.5416 18.287 19.3909 18.1362 19.205 18.1362C19.019 18.1362 18.8683 18.287 18.8683 18.4729C18.8683 18.6588 19.019 18.8096 19.205 18.8096Z" fill="black"/>
<path d="M19.5915 18.8969C19.5541 18.7722 19.4169 18.7098 19.2922 18.7472C19.1676 18.7846 19.1052 18.9218 19.1426 19.0465L19.3671 20.7048L20.377 20.3807L19.5915 18.9093V18.8969Z" fill="black"/>
<defs>
<linearGradient id="paint0_linear_375_1065" x1="21.5741" y1="21.6276" x2="31.649" y2="21.6276" gradientUnits="userSpaceOnUse">
<stop stop-color="#FF4800"/>
<stop offset="1" stop-color="#FF6E00"/>
</linearGradient>
<linearGradient id="paint1_linear_375_1065" x1="26.624" y1="44.0591" x2="44.9034" y2="44.0591" gradientUnits="userSpaceOnUse">
<stop stop-color="#FF4800"/>
<stop offset="1" stop-color="#FF6E00"/>
</linearGradient>
<linearGradient id="paint2_linear_375_1065" x1="57.0232" y1="51.4781" x2="73.9684" y2="51.4781" gradientUnits="userSpaceOnUse">
<stop stop-color="#FF4800"/>
<stop offset="1" stop-color="#FF6E00"/>
</linearGradient>
</defs>
</svg>
