<svg width="81" height="81" viewBox="0 0 81 81" fill="none" xmlns="http://www.w3.org/2000/svg">
<rect x="0.955078" y="0.429688" width="80" height="80" rx="15" fill="white"/>
<path d="M57.1883 31.1279C59.6459 31.1279 61.6381 29.1363 61.6381 26.6795C61.6381 24.2227 59.6459 22.2311 57.1883 22.2311C54.7308 22.2311 52.7385 24.2227 52.7385 26.6795C52.7385 29.1363 54.7308 31.1279 57.1883 31.1279Z" fill="black"/>
<mask id="mask0_375_1065" style="mask-type:luminance" maskUnits="userSpaceOnUse" x="21" y="17" width="11" height="9">
<path d="M31.8221 20.7901C31.8221 23.5728 29.5658 25.8236 26.7871 25.8236C24.0084 25.8236 21.7497 23.5728 21.7497 20.7901C21.7497 20.5532 21.7666 20.3235 21.798 20.0963C21.798 20.0963 26.1462 17.1202 30.4727 17.3619C31.3119 18.2613 31.8221 19.4653 31.8221 20.7901Z" fill="white"/>
</mask>
<g mask="url(#mask0_375_1065)">
<path d="M22.0157 17.1178H21.7497V25.8212H22.0157V17.1178Z" fill="#FF4800"/>
<path d="M22.2793 17.1178H22.0133V25.8212H22.2793V17.1178Z" fill="#FF4900"/>
<path d="M22.5453 17.1178H22.2793V25.8212H22.5453V17.1178Z" fill="#FF4A00"/>
<path d="M22.8113 17.1178H22.5453V25.8212H22.8113V17.1178Z" fill="#FF4B00"/>
<path d="M23.0749 17.1178H22.8089V25.8212H23.0749V17.1178Z" fill="#FF4C00"/>
<path d="M23.341 17.1178H23.075V25.8212H23.341V17.1178Z" fill="#FF4D00"/>
<path d="M23.607 17.1178H23.341V25.8212H23.607V17.1178Z" fill="#FF4E00"/>
<path d="M23.8706 17.1178H23.6046V25.8212H23.8706V17.1178Z" fill="#FF4F00"/>
<path d="M24.1366 17.1178H23.8706V25.8212H24.1366V17.1178Z" fill="#FF5000"/>
<path d="M24.4002 17.1178H24.1342V25.8212H24.4002V17.1178Z" fill="#FF5100"/>
<path d="M24.6662 17.1178H24.4002V25.8212H24.6662V17.1178Z" fill="#FF5200"/>
<path d="M24.9322 17.1178H24.6662V25.8212H24.9322V17.1178Z" fill="#FF5300"/>
<path d="M25.1958 17.1178H24.9298V25.8212H25.1958V17.1178Z" fill="#FF5400"/>
<path d="M25.4619 17.1178H25.1959V25.8212H25.4619V17.1178Z" fill="#FF5500"/>
<path d="M25.7255 17.1178H25.4594V25.8212H25.7255V17.1178Z" fill="#FF5600"/>
<path d="M25.9915 17.1178H25.7255V25.8212H25.9915V17.1178Z" fill="#FF5700"/>
<path d="M26.2575 17.1178H25.9915V25.8212H26.2575V17.1178Z" fill="#FF5800"/>
<path d="M26.5211 17.1178H26.2551V25.8212H26.5211V17.1178Z" fill="#FF5900"/>
<path d="M26.7871 17.1178H26.5211V25.8212H26.7871V17.1178Z" fill="#FF5A00"/>
<path d="M27.0508 17.1178H26.7847V25.8212H27.0508V17.1178Z" fill="#FF5C00"/>
<path d="M27.3167 17.1178H27.0507V25.8212H27.3167V17.1178Z" fill="#FF5D00"/>
<path d="M27.5828 17.1178H27.3168V25.8212H27.5828V17.1178Z" fill="#FF5E00"/>
<path d="M27.8463 17.1178H27.5803V25.8212H27.8463V17.1178Z" fill="#FF5F00"/>
<path d="M28.1124 17.1178H27.8464V25.8212H28.1124V17.1178Z" fill="#FF6000"/>
<path d="M28.3784 17.1178H28.1124V25.8212H28.3784V17.1178Z" fill="#FF6100"/>
<path d="M28.642 17.1178H28.376V25.8212H28.642V17.1178Z" fill="#FF6200"/>
<path d="M28.908 17.1178H28.642V25.8212H28.908V17.1178Z" fill="#FF6300"/>
<path d="M29.1716 17.1178H28.9056V25.8212H29.1716V17.1178Z" fill="#FF6400"/>
<path d="M29.4377 17.1178H29.1716V25.8212H29.4377V17.1178Z" fill="#FF6500"/>
<path d="M29.7037 17.1178H29.4377V25.8212H29.7037V17.1178Z" fill="#FF6600"/>
<path d="M29.9673 17.1178H29.7012V25.8212H29.9673V17.1178Z" fill="#FF6700"/>
<path d="M30.2333 17.1178H29.9673V25.8212H30.2333V17.1178Z" fill="#FF6800"/>
<path d="M30.4969 17.1178H30.2309V25.8212H30.4969V17.1178Z" fill="#FF6900"/>
<path d="M30.7629 17.1178H30.4969V25.8212H30.7629V17.1178Z" fill="#FF6A00"/>
<path d="M31.0289 17.1178H30.7629V25.8212H31.0289V17.1178Z" fill="#FF6B00"/>
<path d="M31.2925 17.1178H31.0265V25.8212H31.2925V17.1178Z" fill="#FF6C00"/>
<path d="M31.5585 17.1178H31.2925V25.8212H31.5585V17.1178Z" fill="#FF6D00"/>
<path d="M31.8222 17.1178H31.5562V25.8212H31.8222V17.1178Z" fill="#FF6E00"/>
</g>
<path d="M12.913 69.2006H7.76913L15.8489 33.9057C16.468 31.2028 18.8718 29.2881 21.6457 29.2881H26.7895L18.7098 64.5829C18.0907 67.2858 15.6868 69.2006 12.913 69.2006Z" fill="black"/>
<mask id="mask1_375_1065" style="mask-type:luminance" maskUnits="userSpaceOnUse" x="26" y="29" width="20" height="30">
<path d="M40.3082 58.7298H43.0022C44.3976 58.7298 45.3916 57.3784 44.978 56.0487L37.9696 33.4681C37.1981 30.9804 34.8959 29.2856 32.2913 29.2856H26.7895L34.6298 54.5474C35.4013 57.0351 37.7036 58.7298 40.3082 58.7298Z" fill="white"/>
</mask>
<g mask="url(#mask1_375_1065)">
<path d="M27.2708 29.2856H26.7895V58.7298H27.2708V29.2856Z" fill="#FF4800"/>
<path d="M27.752 29.2856H27.2708V58.7298H27.752V29.2856Z" fill="#FF4900"/>
<path d="M28.2333 29.2856H27.752V58.7298H28.2333V29.2856Z" fill="#FF4A00"/>
<path d="M28.7146 29.2856H28.2333V58.7298H28.7146V29.2856Z" fill="#FF4B00"/>
<path d="M29.1958 29.2856H28.7145V58.7298H29.1958V29.2856Z" fill="#FF4C00"/>
<path d="M29.6771 29.2856H29.1958V58.7298H29.6771V29.2856Z" fill="#FF4D00"/>
<path d="M30.1583 29.2856H29.677V58.7298H30.1583V29.2856Z" fill="#FF4E00"/>
<path d="M30.6395 29.2856H30.1583V58.7298H30.6395V29.2856Z" fill="#FF4F00"/>
<path d="M31.1208 29.2856H30.6395V58.7298H31.1208V29.2856Z" fill="#FF5000"/>
<path d="M31.6021 29.2856H31.1208V58.7298H31.6021V29.2856Z" fill="#FF5100"/>
<path d="M32.0833 29.2856H31.6021V58.7298H32.0833V29.2856Z" fill="#FF5200"/>
<path d="M32.5646 29.2856H32.0833V58.7298H32.5646V29.2856Z" fill="#FF5300"/>
<path d="M33.0458 29.2856H32.5646V58.7298H33.0458V29.2856Z" fill="#FF5400"/>
<path d="M33.5271 29.2856H33.0458V58.7298H33.5271V29.2856Z" fill="#FF5500"/>
<path d="M34.0084 29.2856H33.5271V58.7298H34.0084V29.2856Z" fill="#FF5600"/>
<path d="M34.4896 29.2856H34.0083V58.7298H34.4896V29.2856Z" fill="#FF5700"/>
<path d="M34.9708 29.2856H34.4896V58.7298H34.9708V29.2856Z" fill="#FF5800"/>
<path d="M35.4496 29.2856H34.9684V58.7298H35.4496V29.2856Z" fill="#FF5900"/>
<path d="M35.9309 29.2856H35.4497V58.7298H35.9309V29.2856Z" fill="#FF5A00"/>
<path d="M36.4122 29.2856H35.9309V58.7298H36.4122V29.2856Z" fill="#FF5C00"/>
<path d="M36.8935 29.2856H36.4122V58.7298H36.8935V29.2856Z" fill="#FF5D00"/>
<path d="M37.3747 29.2856H36.8934V58.7298H37.3747V29.2856Z" fill="#FF5E00"/>
<path d="M37.856 29.2856H37.3747V58.7298H37.856V29.2856Z" fill="#FF5F00"/>
<path d="M38.3372 29.2856H37.856V58.7298H38.3372V29.2856Z" fill="#FF6000"/>
<path d="M38.8184 29.2856H38.3372V58.7298H38.8184V29.2856Z" fill="#FF6100"/>
<path d="M39.2997 29.2856H38.8185V58.7298H39.2997V29.2856Z" fill="#FF6200"/>
<path d="M39.7809 29.2856H39.2997V58.7298H39.7809V29.2856Z" fill="#FF6300"/>
<path d="M40.2622 29.2856H39.7809V58.7298H40.2622V29.2856Z" fill="#FF6400"/>
<path d="M40.7434 29.2856H40.2622V58.7298H40.7434V29.2856Z" fill="#FF6500"/>
<path d="M41.2248 29.2856H40.7435V58.7298H41.2248V29.2856Z" fill="#FF6600"/>
<path d="M41.706 29.2856H41.2247V58.7298H41.706V29.2856Z" fill="#FF6700"/>
<path d="M42.1872 29.2856H41.706V58.7298H42.1872V29.2856Z" fill="#FF6800"/>
<path d="M42.6685 29.2856H42.1872V58.7298H42.6685V29.2856Z" fill="#FF6900"/>
<path d="M43.1497 29.2856H42.6685V58.7298H43.1497V29.2856Z" fill="#FF6A00"/>
<path d="M43.631 29.2856H43.1497V58.7298H43.631V29.2856Z" fill="#FF6B00"/>
<path d="M44.1122 29.2856H43.631V58.7298H44.1122V29.2856Z" fill="#FF6C00"/>
<path d="M44.5935 29.2856H44.1122V58.7298H44.5935V29.2856Z" fill="#FF6D00"/>
<path d="M45.0747 29.2856H44.5935V58.7298H45.0747V29.2856Z" fill="#FF6E00"/>
<path d="M45.3916 29.2856H45.0723V58.7298H45.3916V29.2856Z" fill="#FF6E00"/>
</g>
<path d="M44.7217 58.7298H40.2356L47.0457 37.7376C47.8413 35.2862 50.1243 33.6277 52.7022 33.6277H57.1883L50.3782 54.6199C49.5826 57.0714 47.2996 58.7298 44.7217 58.7298Z" fill="black"/>
<mask id="mask2_375_1065" style="mask-type:luminance" maskUnits="userSpaceOnUse" x="57" y="33" width="18" height="37">
<path d="M70.0709 69.2006H74.141L67.0552 38.2478C66.4361 35.5449 64.0323 33.6302 61.2584 33.6302H57.1883L64.2741 64.583C64.8932 67.2859 67.2971 69.2006 70.0709 69.2006Z" fill="white"/>
</mask>
<g mask="url(#mask2_375_1065)">
<path d="M57.6333 33.6302H57.1883V69.2006H57.6333V33.6302Z" fill="#FF4800"/>
<path d="M58.0782 33.6302H57.6333V69.2006H58.0782V33.6302Z" fill="#FF4900"/>
<path d="M58.5256 33.6302H58.0807V69.2006H58.5256V33.6302Z" fill="#FF4A00"/>
<path d="M58.9707 33.6302H58.5257V69.2006H58.9707V33.6302Z" fill="#FF4B00"/>
<path d="M59.4181 33.6302H58.9731V69.2006H59.4181V33.6302Z" fill="#FF4C00"/>
<path d="M59.863 33.6302H59.418V69.2006H59.863V33.6302Z" fill="#FF4D00"/>
<path d="M60.3104 33.6302H59.8654V69.2006H60.3104V33.6302Z" fill="#FF4E00"/>
<path d="M60.7554 33.6302H60.3104V69.2006H60.7554V33.6302Z" fill="#FF4F00"/>
<path d="M61.2028 33.6302H60.7578V69.2006H61.2028V33.6302Z" fill="#FF5000"/>
<path d="M61.6478 33.6302H61.2028V69.2006H61.6478V33.6302Z" fill="#FF5100"/>
<path d="M62.0952 33.6302H61.6502V69.2006H62.0952V33.6302Z" fill="#FF5200"/>
<path d="M62.5401 33.6302H62.0952V69.2006H62.5401V33.6302Z" fill="#FF5300"/>
<path d="M62.9851 33.6302H62.5401V69.2006H62.9851V33.6302Z" fill="#FF5400"/>
<path d="M63.4325 33.6302H62.9875V69.2006H63.4325V33.6302Z" fill="#FF5500"/>
<path d="M63.8775 33.6302H63.4325V69.2006H63.8775V33.6302Z" fill="#FF5600"/>
<path d="M64.3249 33.6302H63.8799V69.2006H64.3249V33.6302Z" fill="#FF5700"/>
<path d="M64.7698 33.6302H64.3249V69.2006H64.7698V33.6302Z" fill="#FF5800"/>
<path d="M65.2173 33.6302H64.7723V69.2006H65.2173V33.6302Z" fill="#FF5900"/>
<path d="M65.6623 33.6302H65.2173V69.2006H65.6623V33.6302Z" fill="#FF5A00"/>
<path d="M66.1097 33.6302H65.6647V69.2006H66.1097V33.6302Z" fill="#FF5C00"/>
<path d="M66.5546 33.6302H66.1096V69.2006H66.5546V33.6302Z" fill="#FF5D00"/>
<path d="M67.002 33.6302H66.557V69.2006H67.002V33.6302Z" fill="#FF5E00"/>
<path d="M67.447 33.6302H67.002V69.2006H67.447V33.6302Z" fill="#FF5F00"/>
<path d="M67.892 33.6302H67.447V69.2006H67.892V33.6302Z" fill="#FF6000"/>
<path d="M68.3394 33.6302H67.8944V69.2006H68.3394V33.6302Z" fill="#FF6100"/>
<path d="M68.7844 33.6302H68.3394V69.2006H68.7844V33.6302Z" fill="#FF6200"/>
<path d="M69.2318 33.6302H68.7868V69.2006H69.2318V33.6302Z" fill="#FF6300"/>
<path d="M69.6768 33.6302H69.2318V69.2006H69.6768V33.6302Z" fill="#FF6400"/>
<path d="M70.1241 33.6302H69.6792V69.2006H70.1241V33.6302Z" fill="#FF6500"/>
<path d="M70.5691 33.6302H70.1241V69.2006H70.5691V33.6302Z" fill="#FF6600"/>
<path d="M71.0165 33.6302H70.5715V69.2006H71.0165V33.6302Z" fill="#FF6700"/>
<path d="M71.4615 33.6302H71.0165V69.2006H71.4615V33.6302Z" fill="#FF6800"/>
<path d="M71.9089 33.6302H71.4639V69.2006H71.9089V33.6302Z" fill="#FF6900"/>
<path d="M72.3539 33.6302H71.9089V69.2006H72.3539V33.6302Z" fill="#FF6A00"/>
<path d="M72.8013 33.6302H72.3563V69.2006H72.8013V33.6302Z" fill="#FF6B00"/>
<path d="M73.2462 33.6302H72.8012V69.2006H73.2462V33.6302Z" fill="#FF6C00"/>
<path d="M73.6912 33.6302H73.2462V69.2006H73.6912V33.6302Z" fill="#FF6D00"/>
<path d="M74.1386 33.6302H73.6936V69.2006H74.1386V33.6302Z" fill="#FF6E00"/>
</g>
<path d="M29.2998 13.9217L30.1801 16.685C27.0531 16.7721 24.1849 17.6884 21.5779 19.4218L20.6977 16.6585L17.4788 16.5352L23.8439 11.6588L31.8584 11.961L29.2998 13.9217Z" fill="black"/>
<path d="M18.5961 16.5835L19.2733 18.7134L19.6239 18.6022L19.0266 16.7286L23.8367 13.3439C23.9431 13.4019 24.0737 13.4164 24.1995 13.3753C24.4462 13.2979 24.5816 13.0344 24.5018 12.7902C24.4244 12.5437 24.1608 12.4083 23.9165 12.488C23.6771 12.563 23.5393 12.8168 23.607 13.0586L18.5937 16.5859L18.5961 16.5835Z" fill="#E2E2E2"/>
<path d="M19.3821 18.7521C19.565 18.7521 19.7134 18.6038 19.7134 18.4209C19.7134 18.2379 19.565 18.0897 19.3821 18.0897C19.1991 18.0897 19.0508 18.2379 19.0508 18.4209C19.0508 18.6038 19.1991 18.7521 19.3821 18.7521Z" fill="black"/>
<path d="M19.769 18.8512C19.7303 18.7279 19.5973 18.6602 19.474 18.6989C19.3507 18.7375 19.2829 18.8705 19.3216 18.9938L19.5465 20.6475L20.5574 20.3259L19.769 18.8512Z" fill="black"/>
</svg>
