<svg width="290" height="63" viewBox="0 0 290 63" fill="none" xmlns="http://www.w3.org/2000/svg">
<g clip-path="url(#clip0_386_239)">
<path d="M39.64 15.62C41.6117 15.62 43.21 14.0216 43.21 12.05C43.21 10.0783 41.6117 8.47998 39.64 8.47998C37.6684 8.47998 36.07 10.0783 36.07 12.05C36.07 14.0216 37.6684 15.62 39.64 15.62Z" fill="white"/>
<path d="M178.66 42.06C177.32 42.58 175.88 42.83 174.34 42.83C172.72 42.83 171.21 42.55 169.82 42C168.43 41.45 167.22 40.66 166.19 39.65C165.16 38.63 164.36 37.45 163.78 36.1C163.2 34.75 162.91 33.26 162.91 31.64C162.91 30.02 163.2 28.53 163.78 27.18C164.36 25.83 165.16 24.65 166.19 23.63C167.22 22.61 168.43 21.83 169.82 21.28C171.21 20.73 172.71 20.45 174.34 20.45C175.97 20.45 177.32 20.7 178.66 21.2C180 21.7 181.22 22.52 182.33 23.65L184.14 21.84C182.96 20.53 181.5 19.54 179.78 18.89C178.06 18.23 176.22 17.91 174.26 17.91C172.3 17.91 170.35 18.25 168.63 18.93C166.91 19.61 165.41 20.57 164.13 21.8C162.86 23.04 161.87 24.49 161.16 26.16C160.45 27.83 160.1 29.66 160.1 31.64C160.1 33.62 160.45 35.45 161.16 37.12C161.87 38.79 162.85 40.25 164.11 41.48C165.37 42.71 166.86 43.67 168.59 44.35C170.31 45.03 172.19 45.37 174.22 45.37C176.25 45.37 178.05 45.04 179.78 44.37C181.5 43.7 182.96 42.71 184.14 41.4L182.33 39.59C181.22 40.72 180 41.55 178.66 42.06Z" fill="white"/>
<path d="M212.26 26.16C211.55 24.49 210.56 23.03 209.29 21.8C208.02 20.57 206.52 19.61 204.79 18.93C203.07 18.25 201.19 17.91 199.16 17.91C197.13 17.91 195.21 18.25 193.49 18.93C191.77 19.61 190.27 20.58 189 21.82C187.73 23.07 186.74 24.52 186.03 26.18C185.32 27.84 184.97 29.66 184.97 31.64C184.97 33.62 185.32 35.44 186.03 37.1C186.74 38.76 187.73 40.21 189 41.46C190.27 42.71 191.78 43.67 193.51 44.35C195.25 45.03 197.13 45.37 199.16 45.37C201.19 45.37 203.07 45.03 204.79 44.35C206.51 43.67 208.01 42.71 209.29 41.48C210.56 40.24 211.55 38.79 212.26 37.12C212.97 35.45 213.32 33.62 213.32 31.64C213.32 29.66 212.97 27.83 212.26 26.16ZM209.62 36.1C209.05 37.45 208.26 38.63 207.25 39.65C206.23 40.67 205.04 41.45 203.66 42C202.28 42.55 200.78 42.83 199.16 42.83C197.54 42.83 196.04 42.55 194.65 42C193.26 41.45 192.06 40.66 191.04 39.65C190.02 38.63 189.23 37.45 188.65 36.08C188.07 34.72 187.78 33.24 187.78 31.64C187.78 30.04 188.07 28.53 188.65 27.18C189.23 25.83 190.03 24.65 191.04 23.63C192.06 22.61 193.26 21.83 194.65 21.28C196.04 20.73 197.54 20.45 199.16 20.45C200.78 20.45 202.28 20.73 203.66 21.28C205.04 21.83 206.23 22.62 207.25 23.63C208.27 24.65 209.06 25.83 209.62 27.18C210.18 28.53 210.47 30.02 210.47 31.64C210.47 33.26 210.19 34.75 209.62 36.1Z" fill="white"/>
<path d="M240.22 45.14H237.21L233.98 37.93L232.94 35.61L226.44 21.08L219.94 35.61L218.9 37.93L215.67 45.14H212.7L225.05 18.13H227.87L240.22 45.14Z" fill="white"/>
<path d="M258.16 42.06C256.82 42.58 255.38 42.83 253.84 42.83C252.22 42.83 250.71 42.55 249.32 42C247.93 41.45 246.72 40.66 245.69 39.65C244.66 38.63 243.86 37.45 243.28 36.1C242.7 34.75 242.41 33.26 242.41 31.64C242.41 30.02 242.7 28.53 243.28 27.18C243.86 25.83 244.66 24.65 245.69 23.63C246.72 22.61 247.93 21.83 249.32 21.28C250.71 20.73 252.21 20.45 253.84 20.45C255.47 20.45 256.82 20.7 258.16 21.2C259.5 21.7 260.72 22.52 261.83 23.65L263.64 21.84C262.46 20.53 261 19.54 259.28 18.89C257.56 18.23 255.72 17.91 253.76 17.91C251.8 17.91 249.85 18.25 248.13 18.93C246.41 19.61 244.91 20.57 243.63 21.8C242.36 23.04 241.37 24.49 240.66 26.16C239.95 27.83 239.6 29.66 239.6 31.64C239.6 33.62 239.95 35.45 240.66 37.12C241.37 38.79 242.35 40.25 243.61 41.48C244.87 42.71 246.36 43.67 248.09 44.35C249.81 45.03 251.69 45.37 253.72 45.37C255.75 45.37 257.55 45.04 259.28 44.37C261 43.7 262.46 42.71 263.64 41.4L261.83 39.59C260.72 40.72 259.5 41.55 258.16 42.06Z" fill="white"/>
<path d="M290 30.17V45.14H287.18V32.68H270.28V45.14H267.42V18.13H270.28V30.17H287.18H290Z" fill="white"/>
<path d="M79.81 34.04C79.22 33.09 78.45 32.33 77.5 31.75C76.55 31.17 75.51 30.71 74.36 30.37C73.22 30.03 72.07 29.72 70.93 29.46C69.79 29.2 68.74 28.93 67.79 28.67C66.84 28.41 66.08 28.06 65.5 27.62C64.92 27.19 64.63 26.61 64.63 25.9C64.63 25.3 64.8 24.76 65.14 24.3C65.48 23.84 66.05 23.46 66.84 23.18C67.63 22.89 68.64 22.75 69.88 22.75C71.12 22.75 72.38 22.93 73.67 23.28C74.96 23.64 76.25 24.18 77.54 24.92L79.51 20.07C78.22 19.26 76.73 18.64 75.05 18.24C73.37 17.83 71.66 17.63 69.92 17.63C67.32 17.63 65.15 18.02 63.43 18.8C61.71 19.58 60.42 20.61 59.56 21.92C58.7 23.22 58.28 24.66 58.28 26.24C58.28 27.71 58.58 28.92 59.17 29.87C59.76 30.82 60.53 31.58 61.48 32.16C62.43 32.74 63.47 33.21 64.62 33.58C65.76 33.95 66.91 34.26 68.05 34.51C69.2 34.76 70.24 35.02 71.19 35.3C72.14 35.58 72.9 35.93 73.48 36.37C74.06 36.8 74.35 37.39 74.35 38.13C74.35 38.71 74.17 39.22 73.8 39.67C73.43 40.12 72.86 40.47 72.08 40.72C71.3 40.97 70.28 41.09 69.02 41.09C67.36 41.09 65.72 40.82 64.11 40.28C62.49 39.74 61.09 39.05 59.91 38.21L57.74 43.02C58.98 43.97 60.61 44.74 62.63 45.33C64.66 45.92 66.77 46.22 68.98 46.22C71.61 46.22 73.79 45.83 75.51 45.04C77.23 44.25 78.53 43.21 79.4 41.92C80.27 40.63 80.7 39.21 80.7 37.66C80.7 36.21 80.4 35.02 79.81 34.07V34.04Z" fill="white"/>
<path d="M85.08 18.1V45.72H91.47V18.1H85.08Z" fill="white"/>
<path d="M94.91 18.1V23.31H103.75V45.72H110.14V23.31H118.98V18.1H94.91Z" fill="white"/>
<path d="M153.55 45.72C150.24 45.72 147.55 43.04 147.54 39.72L147.52 29.14L140.13 41.55C139.67 42.32 138.84 42.79 137.94 42.79C137.05 42.79 136.23 42.33 135.76 41.57L128.41 29.49V39.72C128.41 43.03 125.72 45.72 122.41 45.72V18.1H122.5C125.73 18.1 128.72 19.79 130.39 22.55L138.05 35.25L145.55 22.61C147.21 19.81 150.22 18.1 153.48 18.1L153.56 45.72H153.55Z" fill="white"/>
<path d="M58 59.24C58 57.32 58.95 56.1 60.86 56.1C62.43 56.1 63.23 56.85 63.47 58.2L62.43 58.42C62.22 57.53 61.76 57.08 60.85 57.08C59.6 57.08 59.12 57.91 59.12 59.25C59.12 60.5 59.64 61.28 60.89 61.28C62.14 61.28 62.49 60.62 62.51 59.94H60.86V59.03H63.55V62.12H62.52V60.81H62.42C62.16 61.6 61.58 62.22 60.47 62.22C59.01 62.22 57.99 61.23 57.99 59.26L58 59.24Z" fill="white"/>
<path d="M71.99 62.1H70.87V56.22H75.11V57.19H71.98V58.64H74.81V59.6H71.98V61.13H75.1V62.1H71.98H71.99Z" fill="white"/>
<path d="M81.8 57.25V56.22H86.54V57.25H84.73V62.1H83.61V57.25H81.8Z" fill="white"/>
<path d="M101.36 59.15C101.36 57.25 102.46 56.09 104.22 56.09C105.75 56.09 106.66 56.92 106.87 58.33L105.8 58.54C105.61 57.59 105.13 57.07 104.2 57.07C103 57.07 102.48 57.94 102.48 59.15C102.48 60.44 103.01 61.26 104.19 61.26C105.18 61.26 105.63 60.73 105.83 59.75L106.89 59.95C106.69 61.37 105.75 62.23 104.2 62.23C102.4 62.23 101.37 61.04 101.37 59.15H101.36Z" fill="white"/>
<path d="M113.74 59.14C113.74 57.3 114.85 56.09 116.68 56.09C118.51 56.09 119.62 57.3 119.62 59.14C119.62 60.98 118.56 62.23 116.68 62.23C114.8 62.23 113.74 61.01 113.74 59.14ZM118.5 59.14C118.5 57.9 117.93 57.07 116.68 57.07C115.43 57.07 114.85 57.91 114.85 59.14C114.85 60.37 115.41 61.26 116.67 61.26C117.93 61.26 118.5 60.43 118.5 59.14Z" fill="white"/>
<path d="M127.78 60.6L127.27 62.1H126.11L128.3 56.22H129.81L132 62.1H130.8L130.28 60.6H127.78ZM128.92 57.19C128.73 57.8 128.54 58.41 128.32 59.04L128.07 59.77H130L129.76 59.04C129.54 58.41 129.35 57.8 129.18 57.19H128.93H128.92Z" fill="white"/>
<path d="M138.26 59.15C138.26 57.25 139.36 56.09 141.12 56.09C142.65 56.09 143.56 56.92 143.77 58.33L142.7 58.54C142.51 57.59 142.03 57.07 141.1 57.07C139.9 57.07 139.38 57.94 139.38 59.15C139.38 60.44 139.91 61.26 141.09 61.26C142.08 61.26 142.53 60.73 142.73 59.75L143.79 59.95C143.59 61.37 142.65 62.23 141.1 62.23C139.3 62.23 138.27 61.04 138.27 59.15H138.26Z" fill="white"/>
<path d="M150.94 56.22H152.06V58.67H154.9V56.22H156.02V62.1H154.9V59.67H152.06V62.1H150.94V56.22Z" fill="white"/>
<path d="M164.59 62.1H163.47V56.22H167.71V57.19H164.58V58.64H167.41V59.6H164.58V61.13H167.7V62.1H164.58H164.59Z" fill="white"/>
<path d="M175.02 62.1V56.22H177.41C179.44 56.22 180.37 57.24 180.37 59.11C180.37 60.98 179.24 62.1 177.41 62.1H175.02ZM176.14 61.18H177.33C178.71 61.18 179.26 60.44 179.26 59.11C179.26 57.78 178.68 57.15 177.27 57.15H176.14V61.18Z" fill="white"/>
<path d="M195.31 59.24C195.31 57.32 196.26 56.1 198.17 56.1C199.74 56.1 200.54 56.85 200.78 58.2L199.74 58.42C199.53 57.53 199.07 57.08 198.16 57.08C196.91 57.08 196.43 57.91 196.43 59.25C196.43 60.5 196.95 61.28 198.2 61.28C199.45 61.28 199.8 60.62 199.82 59.94H198.17V59.03H200.86V62.12H199.83V60.81H199.73C199.47 61.6 198.89 62.22 197.78 62.22C196.32 62.22 195.3 61.23 195.3 59.26L195.31 59.24Z" fill="white"/>
<path d="M209.3 62.1H208.18V56.22H212.42V57.19H209.29V58.64H212.12V59.6H209.29V61.13H212.41V62.1H209.29H209.3Z" fill="white"/>
<path d="M219.11 57.25V56.22H223.85V57.25H222.04V62.1H220.92V57.25H219.11Z" fill="white"/>
<path d="M238.97 56.22H240.09V58.67H242.93V56.22H244.05V62.1H242.93V59.67H240.09V62.1H238.97V56.22Z" fill="white"/>
<path d="M252.63 62.1H251.51V56.22H252.63V62.1Z" fill="white"/>
<path d="M261.2 59.9V62.1H260.08V56.22H262.55C264.03 56.22 264.72 56.84 264.72 58C264.72 58.93 264.25 59.53 263.42 59.77L265.07 61.98V62.09H263.77L262.31 59.89H261.21L261.2 59.9ZM261.2 57.17V58.96H262.45C263.22 58.96 263.62 58.66 263.62 58.04C263.62 57.42 263.31 57.17 262.47 57.17H261.2Z" fill="white"/>
<path d="M273.22 62.1H272.1V56.22H276.34V57.19H273.21V58.64H276.04V59.6H273.21V61.13H276.33V62.1H273.21H273.22Z" fill="white"/>
<path d="M283.66 62.1V56.22H286.05C288.08 56.22 289.01 57.24 289.01 59.11C289.01 60.98 287.88 62.1 286.05 62.1H283.66ZM284.78 61.18H285.97C287.35 61.18 287.9 60.44 287.9 59.11C287.9 57.78 287.32 57.15 285.91 57.15H284.78V61.18Z" fill="white"/>
<path d="M19.29 7.33C19.29 9.56 17.48 11.37 15.25 11.37C13.02 11.37 11.21 9.56 11.21 7.33C11.21 7.14 11.22 6.96 11.25 6.77C11.25 6.77 14.74 4.38 18.21 4.58C18.88 5.3 19.29 6.27 19.29 7.33Z" fill="url(#paint0_linear_386_239)"/>
<path d="M4.13 46.16H0L6.48 17.84C6.98 15.67 8.9 14.14 11.13 14.14H15.26L8.78 42.46C8.28 44.63 6.36 46.16 4.13 46.16Z" fill="white"/>
<path d="M26.1 37.76H28.26C29.38 37.76 30.18 36.68 29.85 35.61L24.23 17.49C23.61 15.49 21.76 14.13 19.68 14.13H15.27L21.56 34.4C22.18 36.4 24.03 37.76 26.11 37.76H26.1Z" fill="url(#paint1_linear_386_239)"/>
<path d="M29.64 37.76H26.04L31.5 20.92C32.14 18.95 33.97 17.62 36.04 17.62H39.64L34.18 34.46C33.54 36.43 31.71 37.76 29.64 37.76Z" fill="white"/>
<path d="M49.97 46.16H53.23L47.55 21.33C47.05 19.16 45.13 17.63 42.9 17.63H39.64L45.32 42.46C45.82 44.63 47.74 46.16 49.97 46.16Z" fill="url(#paint2_linear_386_239)"/>
<path d="M17.27 1.81L17.98 4.03C15.47 4.1 13.17 4.83 11.08 6.23L10.37 4.01L7.78999 3.91L12.89 0L19.32 0.24L17.27 1.81Z" fill="white"/>
<path d="M8.68 3.95L9.22 5.66L9.5 5.57L9.02 4.07L12.88 1.35C12.97 1.4 13.07 1.41 13.17 1.38C13.37 1.32 13.48 1.11 13.41 0.909997C13.35 0.709997 13.14 0.599997 12.94 0.669997C12.75 0.729997 12.64 0.929997 12.69 1.13L8.67 3.96L8.68 3.95Z" fill="#1F1F1F"/>
<path d="M9.30999 5.69997C9.45911 5.69997 9.57999 5.57909 9.57999 5.42997C9.57999 5.28086 9.45911 5.15997 9.30999 5.15997C9.16088 5.15997 9.03999 5.28086 9.03999 5.42997C9.03999 5.57909 9.16088 5.69997 9.30999 5.69997Z" fill="white"/>
<path d="M9.61999 5.77C9.58999 5.67 9.47999 5.62 9.37999 5.65C9.27999 5.68 9.22999 5.79 9.25999 5.89L9.43999 7.22L10.25 6.96L9.61999 5.78V5.77Z" fill="white"/>
<path d="M290 17.82V27.76H287.19V22.61L284.11 25.69L282.12 23.7L285.18 20.64H280.06V17.82H290Z" fill="url(#paint3_linear_386_239)"/>
</g>
<defs>
<linearGradient id="paint0_linear_386_239" x1="11.21" y1="7.96" x2="19.29" y2="7.96" gradientUnits="userSpaceOnUse">
<stop stop-color="#FF4800"/>
<stop offset="1" stop-color="#FF6E00"/>
</linearGradient>
<linearGradient id="paint1_linear_386_239" x1="15.26" y1="25.95" x2="29.92" y2="25.95" gradientUnits="userSpaceOnUse">
<stop stop-color="#FF4800"/>
<stop offset="1" stop-color="#FF6E00"/>
</linearGradient>
<linearGradient id="paint2_linear_386_239" x1="39.64" y1="31.9" x2="53.23" y2="31.9" gradientUnits="userSpaceOnUse">
<stop stop-color="#FF4800"/>
<stop offset="1" stop-color="#FF6E00"/>
</linearGradient>
<linearGradient id="paint3_linear_386_239" x1="279.78" y1="28.94" x2="290.62" y2="16.25" gradientUnits="userSpaceOnUse">
<stop stop-color="#FF4800"/>
<stop offset="1" stop-color="#FF6E00"/>
</linearGradient>
<clipPath id="clip0_386_239">
<rect width="290" height="62.23" fill="white"/>
</clipPath>
</defs>
</svg>
