<svg width="283" height="61" viewBox="0 0 283 61" fill="none" xmlns="http://www.w3.org/2000/svg">
<g clip-path="url(#clip0_366_253)">
<path d="M38.6791 15.2379C40.6026 15.2379 42.1618 13.6792 42.1618 11.7563C42.1618 9.83342 40.6026 8.27463 38.6791 8.27463C36.7556 8.27463 35.1964 9.83342 35.1964 11.7563C35.1964 13.6792 36.7556 15.2379 38.6791 15.2379Z" fill="black"/>
<path d="M174.352 41.0287C173.046 41.532 171.64 41.7818 170.133 41.7818C168.551 41.7818 167.082 41.5131 165.727 40.9719C164.371 40.4327 163.19 39.6682 162.187 38.6748C161.182 37.6833 160.397 36.529 159.833 35.2121C159.267 33.8932 158.987 32.4457 158.987 30.8638C158.987 29.2819 159.269 27.8325 159.833 26.5155C160.397 25.1966 161.182 24.0424 162.187 23.0509C163.19 22.0593 164.371 21.293 165.727 20.7537C167.082 20.2125 168.551 19.9438 170.133 19.9438C171.716 19.9438 173.046 20.1879 174.352 20.678C175.656 21.1681 176.849 21.9647 177.93 23.0698L179.699 21.2987C178.545 20.0195 177.127 19.0583 175.444 18.4187C173.762 17.7792 171.965 17.4575 170.057 17.4575C168.15 17.4575 166.242 17.7905 164.559 18.4566C162.876 19.1207 161.415 20.0574 160.171 21.2608C158.93 22.4662 157.963 23.8834 157.272 25.5164C156.581 27.1494 156.236 28.9299 156.236 30.8638C156.236 32.7976 156.581 34.5782 157.272 36.2093C157.963 37.8422 158.922 39.2595 160.154 40.4648C161.383 41.6683 162.84 42.6049 164.521 43.2691C166.204 43.9351 168.038 44.2682 170.02 44.2682C172.001 44.2682 173.762 43.9408 175.444 43.288C177.127 42.6371 178.545 41.6683 179.699 40.3891L177.93 38.6199C176.849 39.725 175.656 40.5273 174.352 41.0287Z" fill="black"/>
<path d="M207.133 25.5183C206.442 23.8853 205.475 22.4681 204.232 21.2627C202.99 20.0593 201.527 19.1226 199.844 18.4585C198.161 17.7943 196.329 17.4594 194.346 17.4594C192.362 17.4594 190.492 17.7924 188.809 18.4585C187.127 19.1226 185.665 20.065 184.424 21.2816C183.18 22.5002 182.213 23.9175 181.522 25.5372C180.831 27.1569 180.487 28.9318 180.487 30.8657C180.487 32.7995 180.831 34.5725 181.522 36.1922C182.213 37.812 183.18 39.2311 184.424 40.4478C185.665 41.6645 187.134 42.6068 188.828 43.271C190.524 43.937 192.364 44.2701 194.346 44.2701C196.327 44.2701 198.161 43.937 199.844 43.271C201.527 42.6068 202.99 41.6702 204.232 40.4667C205.475 39.2614 206.442 37.8441 207.133 36.2112C207.822 34.5801 208.169 32.7976 208.169 30.8657C208.169 28.9337 207.822 27.1513 207.133 25.5183ZM204.553 35.214C204.001 36.5309 203.228 37.6852 202.237 38.6767C201.245 39.6682 200.077 40.4346 198.733 40.9738C197.391 41.515 195.928 41.7837 194.346 41.7837C192.763 41.7837 191.296 41.515 189.941 40.9738C188.584 40.4346 187.41 39.6701 186.419 38.6767C185.427 37.6852 184.649 36.5253 184.083 35.195C183.519 33.8648 183.237 32.4211 183.237 30.8657C183.237 29.3103 183.519 27.8344 184.083 26.5174C184.649 25.1985 185.425 24.0443 186.419 23.0527C187.41 22.0612 188.584 21.2949 189.941 20.7556C191.296 20.2144 192.765 19.9457 194.346 19.9457C195.926 19.9457 197.391 20.2144 198.733 20.7556C200.075 21.2949 201.243 22.0593 202.237 23.0527C203.228 24.0443 204.001 25.1985 204.553 26.5174C205.104 27.8344 205.381 29.2838 205.381 30.8657C205.381 32.4476 205.104 33.8951 204.553 35.214Z" fill="black"/>
<path d="M234.42 44.0411H231.48L228.329 37.0002L227.318 34.7409L220.973 20.5683L214.631 34.7409L213.618 37.0002L210.466 44.0411H207.567L219.618 17.6865H222.366L234.42 44.0411Z" fill="black"/>
<path d="M251.93 41.0287C250.624 41.532 249.219 41.7818 247.713 41.7818C246.13 41.7818 244.662 41.5131 243.306 40.9719C241.951 40.4327 240.77 39.6682 239.765 38.6748C238.76 37.6833 237.976 36.529 237.41 35.2121C236.846 33.8932 236.564 32.4457 236.564 30.8638C236.564 29.2819 236.846 27.8325 237.41 26.5155C237.976 25.1966 238.76 24.0424 239.765 23.0509C240.77 22.0593 241.949 21.293 243.306 20.7537C244.662 20.2125 246.13 19.9438 247.713 19.9438C249.295 19.9438 250.624 20.1879 251.93 20.678C253.236 21.1681 254.428 21.9647 255.509 23.0698L257.279 21.2987C256.122 20.0195 254.705 19.0583 253.022 18.4187C251.339 17.7792 249.545 17.4575 247.637 17.4575C245.729 17.4575 243.821 17.7905 242.139 18.4566C240.456 19.1207 238.995 20.0574 237.751 21.2608C236.507 22.4662 235.542 23.8834 234.851 25.5164C234.16 27.1494 233.814 28.9299 233.814 30.8638C233.814 32.7976 234.16 34.5782 234.851 36.2093C235.54 37.8422 236.502 39.2595 237.732 40.4648C238.962 41.6683 240.418 42.6049 242.101 43.2691C243.783 43.9351 245.616 44.2682 247.599 44.2682C249.583 44.2682 251.339 43.9408 253.022 43.288C254.705 42.6371 256.122 41.6683 257.279 40.3891L255.509 38.6199C254.428 39.725 253.236 40.5273 251.93 41.0287Z" fill="black"/>
<path d="M283 29.4333V44.0411H280.252V31.8818H263.756V44.0411H260.97V17.6865H263.756V29.4333H280.252H283Z" fill="black"/>
<path d="M77.8863 33.2101C77.309 32.2867 76.5575 31.5431 75.6339 30.9773C74.7102 30.4134 73.69 29.965 72.5713 29.6301C71.4546 29.297 70.3378 29 69.2211 28.7445C68.1044 28.4872 67.0841 28.2317 66.1605 27.9744C65.2368 27.7171 64.491 27.3765 63.9251 26.9526C63.361 26.5306 63.079 25.9724 63.079 25.278C63.079 24.6876 63.2475 24.1692 63.5806 23.7188C63.9137 23.2704 64.4645 22.9033 65.2368 22.6213C66.0071 22.3394 66.9952 22.1994 68.2009 22.1994C69.4066 22.1994 70.6388 22.3735 71.8975 22.7178C73.1562 23.0641 74.413 23.5977 75.6717 24.3168L77.5967 19.5806C76.338 18.7858 74.8881 18.1898 73.2452 17.7905C71.6003 17.3932 69.9328 17.1926 68.2387 17.1926C65.6986 17.1926 63.5863 17.571 61.9055 18.3298C60.2228 19.0867 58.966 20.1009 58.1313 21.3706C57.2965 22.6422 56.8782 24.0462 56.8782 25.5864C56.8782 27.0226 57.1659 28.2033 57.7432 29.1267C58.3224 30.0501 59.072 30.7957 59.9976 31.3596C60.9212 31.9253 61.9414 32.387 63.0582 32.7446C64.1749 33.1042 65.2917 33.4069 66.4084 33.6491C67.5271 33.8932 68.5473 34.1506 69.4709 34.4192C70.3946 34.6879 71.1385 35.0342 71.7044 35.4581C72.2685 35.8819 72.5505 36.4534 72.5505 37.1724C72.5505 37.7363 72.3707 38.2377 72.0111 38.6729C71.6533 39.11 71.0931 39.4487 70.336 39.6928C69.5788 39.9369 68.5832 40.058 67.3529 40.058C65.7346 40.058 64.1371 39.795 62.5585 39.269C60.978 38.7448 59.6133 38.0693 58.4568 37.2481L56.3388 41.9446C57.5464 42.8698 59.1382 43.6211 61.1143 44.1982C63.0904 44.7753 65.1573 45.0629 67.3132 45.0629C69.8798 45.0629 72.0054 44.6788 73.6881 43.9087C75.3689 43.1385 76.6333 42.1243 77.4812 40.8679C78.3273 39.6096 78.7532 38.2245 78.7532 36.7107C78.7532 35.2991 78.4636 34.1316 77.8863 33.2063V33.2101Z" fill="black"/>
<path d="M83.0271 17.6581V44.6069H89.2657V17.6581H83.0271Z" fill="black"/>
<path d="M92.6159 17.6581V22.7405H101.243V44.6069H107.482V22.7405H116.109V17.6581H92.6178H92.6159Z" fill="black"/>
<path d="M149.841 44.6069C146.606 44.6069 143.982 41.99 143.975 38.7562L143.952 28.4323L136.739 40.5443C136.29 41.2974 135.478 41.7572 134.602 41.7572C133.733 41.7572 132.929 41.305 132.478 40.5632L125.31 28.7786V38.7543C125.31 41.9862 122.689 44.605 119.458 44.605V17.66H119.541C122.692 17.66 125.613 19.3081 127.241 22.0064L134.715 34.3928L142.031 22.0631C143.651 19.3327 146.591 17.66 149.765 17.66L149.842 44.6088L149.841 44.6069Z" fill="black"/>
<path d="M56.5981 57.7937C56.5981 55.9204 57.5256 54.734 59.39 54.734C60.9193 54.734 61.7048 55.47 61.9339 56.7795L60.9193 56.9895C60.7187 56.1191 60.2682 55.6801 59.3805 55.6801C58.1559 55.6801 57.6883 56.4918 57.6883 57.7937C57.6883 59.0179 58.1956 59.7729 59.4184 59.7729C60.6411 59.7729 60.978 59.1315 60.9969 58.4635H59.39V57.5742H62.019V60.5847H61.0159V59.3037H60.9212C60.6638 60.0776 60.0998 60.6793 59.019 60.6793C57.5937 60.6793 56.6 59.7143 56.6 57.7918L56.5981 57.7937ZM61.0064 58.4824V58.4635H60.9969L61.0064 58.4824Z" fill="black"/>
<path d="M70.2546 60.5847H69.1643V54.8494H73.3057V55.7955H70.2546V57.2109H73.018V58.1475H70.2546V59.6386H73.2963V60.5847H70.2546Z" fill="black"/>
<path d="M79.8264 55.8523V54.8494H84.4542V55.8523H82.6845V60.5847H81.5942V55.8523H79.8245H79.8264Z" fill="black"/>
<path d="M98.9132 57.7085C98.9132 55.8542 99.9846 54.7264 101.705 54.7264C103.197 54.7264 104.086 55.5382 104.287 56.9157L103.244 57.1163C103.062 56.1891 102.593 55.682 101.684 55.682C100.518 55.682 100.002 56.5335 100.002 57.7085C100.002 58.9706 100.518 59.7635 101.675 59.7635C102.64 59.7635 103.081 59.2469 103.272 58.2913L104.306 58.4824C104.115 59.8694 103.197 60.7096 101.677 60.7096C99.9164 60.7096 98.9132 59.5534 98.9132 57.7085Z" fill="black"/>
<path d="M110.993 57.6972C110.993 55.8996 112.074 54.7245 113.862 54.7245C115.651 54.7245 116.732 55.8996 116.732 57.6972C116.732 59.4948 115.698 60.7096 113.862 60.7096C112.026 60.7096 110.993 59.5137 110.993 57.6972ZM115.64 57.6972C115.64 56.4824 115.085 55.6801 113.861 55.6801C112.636 55.6801 112.072 56.5013 112.072 57.6972C112.072 58.8931 112.617 59.7616 113.851 59.7616C115.085 59.7616 115.64 58.9498 115.64 57.6972Z" fill="black"/>
<path d="M124.695 59.122L124.197 60.5847H123.069L125.202 54.8494H126.675L128.808 60.5847H127.642L127.135 59.122H124.697H124.695ZM125.804 55.7955C125.622 56.3878 125.431 56.9914 125.221 57.6026L124.973 58.3102H126.856L126.618 57.6026C126.408 56.9914 126.217 56.3878 126.054 55.7955H125.806H125.804Z" fill="black"/>
<path d="M134.918 57.7085C134.918 55.8542 135.989 54.7264 137.71 54.7264C139.201 54.7264 140.091 55.5382 140.291 56.9157L139.249 57.1163C139.067 56.1891 138.597 55.682 137.689 55.682C136.523 55.682 136.006 56.5335 136.006 57.7085C136.006 58.9706 136.523 59.7635 137.679 59.7635C138.645 59.7635 139.086 59.2469 139.277 58.2913L140.31 58.4824C140.119 59.8694 139.201 60.7096 137.681 60.7096C135.921 60.7096 134.918 59.5534 134.918 57.7085Z" fill="black"/>
<path d="M147.293 54.8494H148.383V57.2393H151.156V54.8494H152.246V60.5847H151.156V58.2137H148.383V60.5847H147.293V54.8494Z" fill="black"/>
<path d="M160.614 60.5847H159.524V54.8494H163.665V55.7955H160.614V57.2109H163.378V58.1475H160.614V59.6386H163.656V60.5847H160.614Z" fill="black"/>
<path d="M170.799 60.5847V54.8494H173.133C175.113 54.8494 176.022 55.8428 176.022 57.6688C176.022 59.4948 174.922 60.5847 173.133 60.5847H170.799ZM171.89 59.6859H173.046C174.394 59.6859 174.929 58.9593 174.929 57.6688C174.929 56.3783 174.365 55.7577 172.987 55.7577H171.888V59.6859H171.89Z" fill="black"/>
<path d="M190.594 57.7937C190.594 55.9204 191.522 54.734 193.386 54.734C194.915 54.734 195.701 55.47 195.93 56.7795L194.915 56.9895C194.715 56.1191 194.264 55.6801 193.377 55.6801C192.152 55.6801 191.684 56.4918 191.684 57.7937C191.684 59.0179 192.192 59.7729 193.414 59.7729C194.637 59.7729 194.974 59.1315 194.993 58.4635H193.386V57.5742H196.015V60.5847H195.012V59.3037H194.917C194.66 60.0776 194.096 60.6793 193.015 60.6793C191.59 60.6793 190.596 59.7143 190.596 57.7918L190.594 57.7937ZM195.002 58.4824V58.4635H194.993L195.002 58.4824Z" fill="black"/>
<path d="M204.251 60.5847H203.16V54.8494H207.302V55.7955H204.251V57.2109H207.014V58.1475H204.251V59.6386H207.292V60.5847H204.251Z" fill="black"/>
<path d="M213.822 55.8523V54.8494H218.45V55.8523H216.681V60.5847H215.59V55.8523H213.821H213.822Z" fill="black"/>
<path d="M233.206 54.8494H234.297V57.2393H237.07V54.8494H238.16V60.5847H237.07V58.2137H234.297V60.5847H233.206V54.8494Z" fill="black"/>
<path d="M246.528 60.5847H245.438V54.8494H246.528V60.5847Z" fill="black"/>
<path d="M254.896 58.4351V60.5866H253.806V54.8513H256.215C257.659 54.8513 258.329 55.453 258.329 56.5921C258.329 57.5004 257.871 58.0832 257.057 58.3216L258.664 60.4825V60.5885H257.392L255.967 58.437H254.896V58.4351ZM254.896 55.7671V57.5174H256.121C256.876 57.5174 257.258 57.2203 257.258 56.6186C257.258 56.0169 256.951 55.7671 256.139 55.7671H254.896Z" fill="black"/>
<path d="M266.629 60.5847H265.539V54.8494H269.68V55.7955H266.629V57.2109H269.393V58.1475H266.629V59.6386H269.671V60.5847H266.629Z" fill="black"/>
<path d="M276.814 60.5847V54.8494H279.148C281.128 54.8494 282.037 55.8428 282.037 57.6688C282.037 59.4948 280.937 60.5847 279.148 60.5847H276.814ZM277.905 59.6859H279.061C280.409 59.6859 280.944 58.9593 280.944 57.6688C280.944 56.3783 280.38 55.7577 279.002 55.7577H277.903V59.6859H277.905Z" fill="black"/>
<mask id="mask0_366_253" style="mask-type:luminance" maskUnits="userSpaceOnUse" x="10" y="4" width="9" height="8">
<path d="M18.8257 7.14687C18.8257 9.3248 17.0597 11.0864 14.8849 11.0864C12.7101 11.0864 10.9422 9.3248 10.9422 7.14687C10.9422 6.96144 10.9554 6.78168 10.9801 6.60381C10.9801 6.60381 14.3833 4.2745 17.7695 4.46372C18.4263 5.16762 18.8257 6.10994 18.8257 7.14687Z" fill="white"/>
</mask>
<g mask="url(#mask0_366_253)">
<path d="M11.1504 4.27261H10.9422V11.0846H11.1504V4.27261Z" fill="#FF4800"/>
<path d="M11.3567 4.27261H11.1485V11.0846H11.3567V4.27261Z" fill="#FF4900"/>
<path d="M11.5649 4.27261H11.3567V11.0846H11.5649V4.27261Z" fill="#FF4A00"/>
<path d="M11.7731 4.27261H11.5649V11.0846H11.7731V4.27261Z" fill="#FF4B00"/>
<path d="M11.9794 4.27261H11.7712V11.0846H11.9794V4.27261Z" fill="#FF4C00"/>
<path d="M12.1877 4.27261H11.9794V11.0846H12.1877V4.27261Z" fill="#FF4D00"/>
<path d="M12.3959 4.27261H12.1877V11.0846H12.3959V4.27261Z" fill="#FF4E00"/>
<path d="M12.6022 4.27261H12.394V11.0846H12.6022V4.27261Z" fill="#FF4F00"/>
<path d="M12.8104 4.27261H12.6022V11.0846H12.8104V4.27261Z" fill="#FF5000"/>
<path d="M13.0167 4.27261H12.8085V11.0846H13.0167V4.27261Z" fill="#FF5100"/>
<path d="M13.2249 4.27261H13.0167V11.0846H13.2249V4.27261Z" fill="#FF5200"/>
<path d="M13.4331 4.27261H13.2249V11.0846H13.4331V4.27261Z" fill="#FF5300"/>
<path d="M13.6394 4.27261H13.4312V11.0846H13.6394V4.27261Z" fill="#FF5400"/>
<path d="M13.8476 4.27261H13.6394V11.0846H13.8476V4.27261Z" fill="#FF5500"/>
<path d="M14.0539 4.27261H13.8457V11.0846H14.0539V4.27261Z" fill="#FF5600"/>
<path d="M14.2621 4.27261H14.0539V11.0846H14.2621V4.27261Z" fill="#FF5700"/>
<path d="M14.4704 4.27261H14.2621V11.0846H14.4704V4.27261Z" fill="#FF5800"/>
<path d="M14.6767 4.27261H14.4685V11.0846H14.6767V4.27261Z" fill="#FF5900"/>
<path d="M14.8849 4.27261H14.6767V11.0846H14.8849V4.27261Z" fill="#FF5A00"/>
<path d="M15.0912 4.27261H14.883V11.0846H15.0912V4.27261Z" fill="#FF5C00"/>
<path d="M15.2994 4.27261H15.0912V11.0846H15.2994V4.27261Z" fill="#FF5D00"/>
<path d="M15.5076 4.27261H15.2994V11.0846H15.5076V4.27261Z" fill="#FF5E00"/>
<path d="M15.7139 4.27261H15.5057V11.0846H15.7139V4.27261Z" fill="#FF5F00"/>
<path d="M15.9221 4.27261H15.7139V11.0846H15.9221V4.27261Z" fill="#FF6000"/>
<path d="M16.1303 4.27261H15.9221V11.0846H16.1303V4.27261Z" fill="#FF6100"/>
<path d="M16.3366 4.27261H16.1284V11.0846H16.3366V4.27261Z" fill="#FF6200"/>
<path d="M16.5448 4.27261H16.3366V11.0846H16.5448V4.27261Z" fill="#FF6300"/>
<path d="M16.7512 4.27261H16.543V11.0846H16.7512V4.27261Z" fill="#FF6400"/>
<path d="M16.9594 4.27261H16.7512V11.0846H16.9594V4.27261Z" fill="#FF6500"/>
<path d="M17.1676 4.27261H16.9594V11.0846H17.1676V4.27261Z" fill="#FF6600"/>
<path d="M17.3739 4.27261H17.1657V11.0846H17.3739V4.27261Z" fill="#FF6700"/>
<path d="M17.5821 4.27261H17.3739V11.0846H17.5821V4.27261Z" fill="#FF6800"/>
<path d="M17.7884 4.27261H17.5802V11.0846H17.7884V4.27261Z" fill="#FF6900"/>
<path d="M17.9966 4.27261H17.7884V11.0846H17.9966V4.27261Z" fill="#FF6A00"/>
<path d="M18.2048 4.27261H17.9966V11.0846H18.2048V4.27261Z" fill="#FF6B00"/>
<path d="M18.4111 4.27261H18.2029V11.0846H18.4111V4.27261Z" fill="#FF6C00"/>
<path d="M18.6193 4.27261H18.4111V11.0846H18.6193V4.27261Z" fill="#FF6D00"/>
<path d="M18.8257 4.27261H18.6174V11.0846H18.8257V4.27261Z" fill="#FF6E00"/>
</g>
<path d="M4.02596 45.0364H0L6.3238 17.4121C6.80835 15.2966 8.68978 13.798 10.8608 13.798H14.8868L8.56297 41.4223C8.07841 43.5378 6.19698 45.0364 4.02596 45.0364Z" fill="black"/>
<mask id="mask1_366_253" style="mask-type:luminance" maskUnits="userSpaceOnUse" x="14" y="13" width="16" height="24">
<path d="M25.4674 36.8413H27.576C28.6681 36.8413 29.4461 35.7835 29.1224 34.7428L23.6371 17.0696C23.0333 15.1225 21.2314 13.7961 19.1929 13.7961H14.8868L21.0232 33.5678C21.627 35.5148 23.4289 36.8413 25.4674 36.8413Z" fill="white"/>
</mask>
<g mask="url(#mask1_366_253)">
<path d="M15.2634 13.7961H14.8868V36.8413H15.2634V13.7961Z" fill="#FF4800"/>
<path d="M15.6401 13.7961H15.2634V36.8413H15.6401V13.7961Z" fill="#FF4900"/>
<path d="M16.0168 13.7961H15.6401V36.8413H16.0168V13.7961Z" fill="#FF4A00"/>
<path d="M16.3934 13.7961H16.0168V36.8413H16.3934V13.7961Z" fill="#FF4B00"/>
<path d="M16.7701 13.7961H16.3934V36.8413H16.7701V13.7961Z" fill="#FF4C00"/>
<path d="M17.1467 13.7961H16.7701V36.8413H17.1467V13.7961Z" fill="#FF4D00"/>
<path d="M17.5234 13.7961H17.1468V36.8413H17.5234V13.7961Z" fill="#FF4E00"/>
<path d="M17.9001 13.7961H17.5234V36.8413H17.9001V13.7961Z" fill="#FF4F00"/>
<path d="M18.2767 13.7961H17.9001V36.8413H18.2767V13.7961Z" fill="#FF5000"/>
<path d="M18.6534 13.7961H18.2767V36.8413H18.6534V13.7961Z" fill="#FF5100"/>
<path d="M19.0301 13.7961H18.6534V36.8413H19.0301V13.7961Z" fill="#FF5200"/>
<path d="M19.4067 13.7961H19.0301V36.8413H19.4067V13.7961Z" fill="#FF5300"/>
<path d="M19.7834 13.7961H19.4067V36.8413H19.7834V13.7961Z" fill="#FF5400"/>
<path d="M20.1601 13.7961H19.7834V36.8413H20.1601V13.7961Z" fill="#FF5500"/>
<path d="M20.5367 13.7961H20.1601V36.8413H20.5367V13.7961Z" fill="#FF5600"/>
<path d="M20.9134 13.7961H20.5367V36.8413H20.9134V13.7961Z" fill="#FF5700"/>
<path d="M21.2901 13.7961H20.9134V36.8413H21.2901V13.7961Z" fill="#FF5800"/>
<path d="M21.6648 13.7961H21.2882V36.8413H21.6648V13.7961Z" fill="#FF5900"/>
<path d="M22.0415 13.7961H21.6648V36.8413H22.0415V13.7961Z" fill="#FF5A00"/>
<path d="M22.4182 13.7961H22.0415V36.8413H22.4182V13.7961Z" fill="#FF5C00"/>
<path d="M22.7948 13.7961H22.4182V36.8413H22.7948V13.7961Z" fill="#FF5D00"/>
<path d="M23.1715 13.7961H22.7948V36.8413H23.1715V13.7961Z" fill="#FF5E00"/>
<path d="M23.5482 13.7961H23.1715V36.8413H23.5482V13.7961Z" fill="#FF5F00"/>
<path d="M23.9248 13.7961H23.5482V36.8413H23.9248V13.7961Z" fill="#FF6000"/>
<path d="M24.3015 13.7961H23.9248V36.8413H24.3015V13.7961Z" fill="#FF6100"/>
<path d="M24.6781 13.7961H24.3015V36.8413H24.6781V13.7961Z" fill="#FF6200"/>
<path d="M25.0548 13.7961H24.6781V36.8413H25.0548V13.7961Z" fill="#FF6300"/>
<path d="M25.4315 13.7961H25.0548V36.8413H25.4315V13.7961Z" fill="#FF6400"/>
<path d="M25.8082 13.7961H25.4315V36.8413H25.8082V13.7961Z" fill="#FF6500"/>
<path d="M26.1848 13.7961H25.8082V36.8413H26.1848V13.7961Z" fill="#FF6600"/>
<path d="M26.5615 13.7961H26.1848V36.8413H26.5615V13.7961Z" fill="#FF6700"/>
<path d="M26.9381 13.7961H26.5615V36.8413H26.9381V13.7961Z" fill="#FF6800"/>
<path d="M27.3148 13.7961H26.9381V36.8413H27.3148V13.7961Z" fill="#FF6900"/>
<path d="M27.6915 13.7961H27.3148V36.8413H27.6915V13.7961Z" fill="#FF6A00"/>
<path d="M28.0681 13.7961H27.6915V36.8413H28.0681V13.7961Z" fill="#FF6B00"/>
<path d="M28.4448 13.7961H28.0681V36.8413H28.4448V13.7961Z" fill="#FF6C00"/>
<path d="M28.8215 13.7961H28.4448V36.8413H28.8215V13.7961Z" fill="#FF6D00"/>
<path d="M29.1981 13.7961H28.8215V36.8413H29.1981V13.7961Z" fill="#FF6E00"/>
<path d="M29.4461 13.7961H29.1962V36.8413H29.4461V13.7961Z" fill="#FF6E00"/>
</g>
<path d="M28.9218 36.8413H25.4107L30.7407 20.4112C31.3635 18.4925 33.1503 17.1945 35.168 17.1945H38.6791L33.349 33.6245C32.7263 35.5432 30.9395 36.8413 28.9218 36.8413Z" fill="black"/>
<mask id="mask2_366_253" style="mask-type:luminance" maskUnits="userSpaceOnUse" x="38" y="17" width="14" height="29">
<path d="M48.762 45.0364H51.9475L46.4017 20.8105C45.9171 18.695 44.0357 17.1964 41.8646 17.1964H38.6791L44.225 41.4223C44.7095 43.5378 46.5909 45.0364 48.762 45.0364Z" fill="white"/>
</mask>
<g mask="url(#mask2_366_253)">
<path d="M39.0274 17.1964H38.6791V45.0364H39.0274V17.1964Z" fill="#FF4800"/>
<path d="M39.3756 17.1964H39.0274V45.0364H39.3756V17.1964Z" fill="#FF4900"/>
<path d="M39.7258 17.1964H39.3775V45.0364H39.7258V17.1964Z" fill="#FF4A00"/>
<path d="M40.0741 17.1964H39.7258V45.0364H40.0741V17.1964Z" fill="#FF4B00"/>
<path d="M40.4242 17.1964H40.076V45.0364H40.4242V17.1964Z" fill="#FF4C00"/>
<path d="M40.7725 17.1964H40.4242V45.0364H40.7725V17.1964Z" fill="#FF4D00"/>
<path d="M41.1227 17.1964H40.7744V45.0364H41.1227V17.1964Z" fill="#FF4E00"/>
<path d="M41.471 17.1964H41.1227V45.0364H41.471V17.1964Z" fill="#FF4F00"/>
<path d="M41.8211 17.1964H41.4728V45.0364H41.8211V17.1964Z" fill="#FF5000"/>
<path d="M42.1694 17.1964H41.8211V45.0364H42.1694V17.1964Z" fill="#FF5100"/>
<path d="M42.5196 17.1964H42.1713V45.0364H42.5196V17.1964Z" fill="#FF5200"/>
<path d="M42.8678 17.1964H42.5196V45.0364H42.8678V17.1964Z" fill="#FF5300"/>
<path d="M43.2161 17.1964H42.8678V45.0364H43.2161V17.1964Z" fill="#FF5400"/>
<path d="M43.5663 17.1964H43.218V45.0364H43.5663V17.1964Z" fill="#FF5500"/>
<path d="M43.9145 17.1964H43.5663V45.0364H43.9145V17.1964Z" fill="#FF5600"/>
<path d="M44.2647 17.1964H43.9164V45.0364H44.2647V17.1964Z" fill="#FF5700"/>
<path d="M44.613 17.1964H44.2647V45.0364H44.613V17.1964Z" fill="#FF5800"/>
<path d="M44.9631 17.1964H44.6149V45.0364H44.9631V17.1964Z" fill="#FF5900"/>
<path d="M45.3114 17.1964H44.9632V45.0364H45.3114V17.1964Z" fill="#FF5A00"/>
<path d="M45.6616 17.1964H45.3133V45.0364H45.6616V17.1964Z" fill="#FF5C00"/>
<path d="M46.0098 17.1964H45.6616V45.0364H46.0098V17.1964Z" fill="#FF5D00"/>
<path d="M46.36 17.1964H46.0117V45.0364H46.36V17.1964Z" fill="#FF5E00"/>
<path d="M46.7083 17.1964H46.36V45.0364H46.7083V17.1964Z" fill="#FF5F00"/>
<path d="M47.0566 17.1964H46.7083V45.0364H47.0566V17.1964Z" fill="#FF6000"/>
<path d="M47.4067 17.1964H47.0585V45.0364H47.4067V17.1964Z" fill="#FF6100"/>
<path d="M47.755 17.1964H47.4067V45.0364H47.755V17.1964Z" fill="#FF6200"/>
<path d="M48.1052 17.1964H47.7569V45.0364H48.1052V17.1964Z" fill="#FF6300"/>
<path d="M48.4534 17.1964H48.1052V45.0364H48.4534V17.1964Z" fill="#FF6400"/>
<path d="M48.8036 17.1964H48.4553V45.0364H48.8036V17.1964Z" fill="#FF6500"/>
<path d="M49.1519 17.1964H48.8036V45.0364H49.1519V17.1964Z" fill="#FF6600"/>
<path d="M49.5021 17.1964H49.1538V45.0364H49.5021V17.1964Z" fill="#FF6700"/>
<path d="M49.8503 17.1964H49.502V45.0364H49.8503V17.1964Z" fill="#FF6800"/>
<path d="M50.2005 17.1964H49.8522V45.0364H50.2005V17.1964Z" fill="#FF6900"/>
<path d="M50.5488 17.1964H50.2005V45.0364H50.5488V17.1964Z" fill="#FF6A00"/>
<path d="M50.8989 17.1964H50.5506V45.0364H50.8989V17.1964Z" fill="#FF6B00"/>
<path d="M51.2472 17.1964H50.8989V45.0364H51.2472V17.1964Z" fill="#FF6C00"/>
<path d="M51.5955 17.1964H51.2472V45.0364H51.5955V17.1964Z" fill="#FF6D00"/>
<path d="M51.9456 17.1964H51.5974V45.0364H51.9456V17.1964Z" fill="#FF6E00"/>
</g>
<path d="M16.8515 1.77111L17.5404 3.9339C15.0931 4.00202 12.8482 4.71916 10.8078 6.07588L10.1188 3.91308L7.59953 3.81658L12.5813 0L18.854 0.236526L16.8515 1.77111Z" fill="black"/>
<path d="M8.474 3.85442L9.00398 5.52146L9.27843 5.43442L8.81092 3.96796L12.5757 1.31887C12.659 1.36428 12.7612 1.37563 12.8596 1.34346C13.0527 1.28291 13.1586 1.07666 13.0962 0.885551C13.0356 0.692546 12.8293 0.586582 12.6381 0.649025C12.4507 0.707683 12.3429 0.906365 12.3959 1.09559L8.47211 3.85632L8.474 3.85442Z" fill="#E2E2E2"/>
<path d="M9.08916 5.55173C9.23237 5.55173 9.34847 5.43567 9.34847 5.2925C9.34847 5.14933 9.23237 5.03326 9.08916 5.03326C8.94595 5.03326 8.82985 5.14933 8.82985 5.2925C8.82985 5.43567 8.94595 5.55173 9.08916 5.55173Z" fill="black"/>
<path d="M9.39201 5.62931C9.36172 5.53281 9.25762 5.47982 9.16109 5.5101C9.06455 5.54038 9.01156 5.64445 9.04184 5.74095L9.21787 7.03522L10.0091 6.78355L9.39201 5.62931Z" fill="black"/>
<mask id="mask3_366_253" style="mask-type:luminance" maskUnits="userSpaceOnUse" x="273" y="17" width="10" height="11">
<path d="M283 17.3856V27.0794H280.254V22.0556L277.248 25.0604L275.306 23.119L278.295 20.1312H273.303V17.3856H283Z" fill="white"/>
</mask>
<g mask="url(#mask3_366_253)">
<path d="M273.303 26.7766L273.657 27.0794H273.303V26.7766Z" fill="#FF4A00"/>
<path d="M273.303 26.2146L274.318 27.0794H273.657L273.303 26.7766V26.2146Z" fill="#FF4B00"/>
<path d="M273.303 25.6508L274.976 27.0794H274.318L273.303 26.2146V25.6508Z" fill="#FF4C00"/>
<path d="M273.303 25.0869L275.637 27.0794H274.976L273.303 25.6508V25.0869Z" fill="#FF4D00"/>
<path d="M273.303 24.5249L276.298 27.0794H275.637L273.303 25.0869V24.5249Z" fill="#FF4E00"/>
<path d="M273.303 23.961L276.956 27.0794H276.298L273.303 24.5249V23.961Z" fill="#FF4F00"/>
<path d="M273.303 23.3971L277.617 27.0794H276.956L273.303 23.961V23.3971Z" fill="#FF5000"/>
<path d="M273.303 22.8351L278.277 27.0794H277.617L273.303 23.3971V22.8351Z" fill="#FF5100"/>
<path d="M273.303 22.2713L278.936 27.0794H278.277L273.303 22.8351V22.2713Z" fill="#FF5200"/>
<path d="M273.303 21.7074L279.597 27.0794H278.936L273.303 22.2713V21.7074Z" fill="#FF5300"/>
<path d="M273.303 21.1454L280.257 27.0794H279.597L273.303 21.7074V21.1454Z" fill="#FF5400"/>
<path d="M273.303 20.5815L280.918 27.0794H280.257L273.303 21.1454V20.5815Z" fill="#FF5500"/>
<path d="M273.303 20.0176L281.577 27.0794H280.918L273.303 20.5815V20.0176Z" fill="#FF5600"/>
<path d="M273.303 19.4557L282.237 27.0794H281.577L273.303 20.0176V19.4557Z" fill="#FF5700"/>
<path d="M273.303 18.8918L282.898 27.0794H282.237L273.303 19.4557V18.8918Z" fill="#FF5800"/>
<path d="M273.303 18.3279L283 26.6044V27.0794H282.898L273.303 18.8918V18.3279Z" fill="#FF5900"/>
<path d="M273.303 17.7659L283 26.0406V26.6044L273.303 18.3279V17.7659Z" fill="#FF5A00"/>
<path d="M273.517 17.3856L283 25.4767V26.0405L273.303 17.7659V17.3856H273.517Z" fill="#FF5C00"/>
<path d="M274.178 17.3856L283 24.9147V25.4767L273.517 17.3856H274.178Z" fill="#FF5D00"/>
<path d="M274.838 17.3856L283 24.3508V24.9147L274.178 17.3856H274.838Z" fill="#FF5E00"/>
<path d="M275.499 17.3856L283 23.7869V24.3508L274.838 17.3856H275.499Z" fill="#FF5F00"/>
<path d="M276.158 17.3856L283 23.2249V23.7869L275.499 17.3856H276.158Z" fill="#FF6000"/>
<path d="M276.818 17.3856L283 22.6611V23.2249L276.158 17.3856H276.818Z" fill="#FF6100"/>
<path d="M277.479 17.3856L283 22.0972V22.6611L276.818 17.3856H277.479Z" fill="#FF6200"/>
<path d="M278.137 17.3856L283 21.5352V22.0972L277.479 17.3856H278.137Z" fill="#FF6300"/>
<path d="M278.798 17.3856L283 20.9713V21.5352L278.137 17.3856H278.798Z" fill="#FF6400"/>
<path d="M279.459 17.3856L283 20.4074V20.9713L278.798 17.3856H279.459Z" fill="#FF6500"/>
<path d="M280.117 17.3856L283 19.8455V20.4074L279.459 17.3856H280.117Z" fill="#FF6600"/>
<path d="M280.778 17.3856L283 19.2816V19.8455L280.117 17.3856H280.778Z" fill="#FF6700"/>
<path d="M281.438 17.3856L283 18.7196V19.2816L280.778 17.3856H281.438Z" fill="#FF6800"/>
<path d="M282.097 17.3856L283 18.1557V18.7196L281.438 17.3856H282.097Z" fill="#FF6900"/>
<path d="M282.758 17.3856L283 17.5918V18.1557L282.097 17.3856H282.758Z" fill="#FF6A00"/>
<path d="M283 17.5918L282.758 17.3856H283V17.5918Z" fill="#FF6B00"/>
</g>
</g>
<defs>
<clipPath id="clip0_366_253">
<rect width="283" height="60.7096" fill="white"/>
</clipPath>
</defs>
</svg>
