<svg width="71" height="71" viewBox="0 0 71 71" fill="none" xmlns="http://www.w3.org/2000/svg">
<path fill-rule="evenodd" clip-rule="evenodd" d="M24.0049 11.0076C23.057 10.2401 22.8721 11.0076 21.6592 11.0076C19.9695 11.0076 18.6011 9.62654 18.6011 7.9211C18.6011 6.26183 19.8971 4.91051 21.5252 4.83757C21.5708 3.17536 22.9203 1.84301 24.5806 1.84301C25.1081 1.84301 25.6062 1.97816 26.04 2.21595C26.5862 1.02948 27.7778 0.208008 29.1596 0.208008C30.2602 0.208008 31.2403 0.729625 31.8696 1.54301C32.4346 1.25389 33.072 1.09168 33.7467 1.09168C36.0389 1.09168 37.8999 2.96727 37.8999 5.2808C37.8999 6.47521 37.402 7.55624 36.6065 8.31845C37.434 9.92374 36.762 11.448 35.182 12.1912C33.3299 13.0614 33.9074 14.7146 34.2962 15.4652C34.3395 15.5471 34.3368 15.6455 34.289 15.7248C34.2412 15.804 34.1555 15.8524 34.063 15.8524C33.3453 15.8533 31.9874 15.8533 31.4134 15.8533C31.268 15.8532 31.1499 15.7359 31.1489 15.5905C31.1299 14.8939 30.8934 12.9951 28.9561 12.1454C26.0721 12.9264 24.7627 11.6209 24.0049 11.0076Z" fill="#F76C82"/>
<path fill-rule="evenodd" clip-rule="evenodd" d="M50.4188 43.1284C48.2472 43.1284 47.1567 45.7599 48.6926 47.2958C48.9754 47.5784 48.9754 48.0383 48.6926 48.3211L47.1333 49.8804C46.8505 50.1631 46.3907 50.1631 46.1081 49.8804C44.5722 48.3445 41.9407 49.4349 41.9407 51.6065C41.9407 52.0077 41.6163 52.3308 41.2164 52.3308H39.0108C38.611 52.3308 38.2866 52.0077 38.2866 51.6065C38.2866 49.4323 35.6564 48.3431 34.1192 49.8804C33.8366 50.1631 33.3779 50.1631 33.0953 49.8804L31.5347 48.3211C31.2519 48.0383 31.2519 47.5784 31.5347 47.2958C33.0706 45.7599 31.9814 43.1284 29.8085 43.1284C29.4086 43.1284 29.0842 42.804 29.0842 42.4042V40.1986C29.0842 39.7987 29.4086 39.4743 29.8085 39.4743C31.9814 39.4743 33.0706 36.8429 31.5347 35.307C31.2519 35.0243 31.2519 34.5657 31.5347 34.283L33.0953 32.7224C33.3779 32.4398 33.8366 32.4398 34.1192 32.7224C35.6551 34.2583 38.2866 33.1692 38.2866 30.9962C38.2866 30.5964 38.611 30.272 39.0108 30.272H41.2164C41.6163 30.272 41.9407 30.5964 41.9407 30.9962C41.9407 33.1692 44.5722 34.2583 46.1081 32.7224C46.3907 32.4398 46.8505 32.4398 47.1333 32.7224L48.6926 34.283C48.9754 34.5657 48.9754 35.0243 48.6926 35.307C47.1567 36.8429 48.2472 39.4743 50.4188 39.4743C50.82 39.4743 51.143 39.7987 51.143 40.1986V42.4042C51.143 42.804 50.82 43.1284 50.4188 43.1284Z" fill="#FDCD56"/>
<path fill-rule="evenodd" clip-rule="evenodd" d="M40.1144 46.6014C43.0324 46.6014 45.4139 44.2199 45.4139 41.3019C45.4139 38.3826 43.0324 36.0024 40.1144 36.0024C37.1951 36.0024 34.8149 38.3826 34.8149 41.3019C34.8149 44.2199 37.1951 46.6014 40.1144 46.6014Z" fill="#F4F6F8"/>
<path fill-rule="evenodd" clip-rule="evenodd" d="M23.1085 50.0937C21.0816 50.0937 20.0639 52.5497 21.4975 53.9832C21.7613 54.247 21.7613 54.6763 21.4975 54.9401L20.042 56.3954C19.7782 56.6592 19.3491 56.6592 19.0853 56.3954C17.6517 54.9619 15.1957 55.9797 15.1957 58.0064C15.1957 58.381 14.8929 58.6825 14.5197 58.6825H12.4611C12.0879 58.6825 11.7851 58.381 11.7851 58.0064C11.7851 55.9772 9.33026 54.9607 7.89555 56.3954C7.63173 56.6592 7.20379 56.6592 6.93997 56.3954L5.48335 54.9401C5.21952 54.6763 5.21952 54.247 5.48335 53.9832C6.91688 52.5497 5.90041 50.0937 3.87232 50.0937C3.49908 50.0937 3.19629 49.7909 3.19629 49.4176V47.3591C3.19629 46.9859 3.49908 46.6831 3.87232 46.6831C5.90041 46.6831 6.91688 44.227 5.48335 42.7936C5.21952 42.5297 5.21952 42.1017 5.48335 41.8379L6.93997 40.3813C7.20379 40.1175 7.63173 40.1175 7.89555 40.3813C9.32908 41.8148 11.7851 40.7984 11.7851 38.7703C11.7851 38.397 12.0879 38.0942 12.4611 38.0942H14.5197C14.8929 38.0942 15.1957 38.397 15.1957 38.7703C15.1957 40.7984 17.6517 41.8148 19.0853 40.3813C19.3491 40.1175 19.7782 40.1175 20.042 40.3813L21.4975 41.8379C21.7613 42.1017 21.7613 42.5297 21.4975 42.7936C20.0639 44.227 21.0816 46.6831 23.1085 46.6831C23.4829 46.6831 23.7845 46.9859 23.7845 47.3591V49.4176C23.7845 49.7909 23.4829 50.0937 23.1085 50.0937Z" fill="#FDCD56"/>
<path fill-rule="evenodd" clip-rule="evenodd" d="M13.4911 53.3351C16.2146 53.3351 18.4373 51.1124 18.4373 48.3889C18.4373 45.6642 16.2146 43.4429 13.4911 43.4429C10.7664 43.4429 8.54492 45.6642 8.54492 48.3889C8.54492 51.1124 10.7664 53.3351 13.4911 53.3351Z" fill="#F4F6F8"/>
<path fill-rule="evenodd" clip-rule="evenodd" d="M61.7764 40.5701L65.6311 38.9036C66.1526 38.6782 66.7591 38.9185 66.9845 39.4399C67.2099 39.9614 66.9696 40.5679 66.448 40.7933L60.0666 43.5523C59.9005 43.624 59.7258 43.6487 59.5577 43.632C59.4289 43.6195 59.3002 43.5823 59.1786 43.5183C58.9777 43.4127 58.8102 43.2404 58.7132 43.0158L55.9543 36.6343C55.7289 36.1129 55.9692 35.5064 56.4907 35.281C57.0121 35.0555 57.6186 35.296 57.8441 35.8174L59.7145 40.1439C62.3961 34.1552 62.1929 29.6517 60.8273 26.3542C58.6032 20.9836 53.3923 18.892 53.3923 18.892C52.8649 18.6808 52.6082 18.0812 52.8192 17.5537C53.0304 17.0262 53.6301 16.7695 54.1574 16.9807C54.1574 16.9807 60.1677 19.3808 62.7293 25.5665C64.2205 29.1671 64.5791 34.0788 61.7764 40.5701Z" fill="#A9B0BB"/>
<path fill-rule="evenodd" clip-rule="evenodd" d="M11.7653 17.5585C8.82497 19.0004 5.85408 20.3835 2.896 21.7844L7.0732 31.7932L13.2173 28.8019C14.1035 28.3689 15.0126 28.2922 15.9603 28.5661L22.4783 30.4538C24.5451 31.0506 27.1011 29.9517 29.0245 29.2091L41.2488 24.4889C44.4681 23.2442 45.2441 16.7825 37.6401 19.0158L28.917 21.5769C28.6635 20.6575 27.9438 19.8891 26.9603 19.6279L21.0517 18.0478C17.0232 15.1972 14.9742 15.986 11.7653 17.5585Z" fill="#EFC7A4"/>
<path fill-rule="evenodd" clip-rule="evenodd" d="M28.9247 23.0215L15.7119 19.4922C15.3175 20.9648 16.201 22.4938 17.6763 22.8857L25.5287 24.9857C27.0038 25.3776 28.5303 24.4941 28.9247 23.0215Z" fill="#D5A889"/>
<path d="M10.4975 33.197L7.36261 34.4981C6.68393 34.7798 5.90026 34.457 5.61599 33.7784C3.84879 29.532 2.07908 25.2857 0.311874 21.0394C0.0249621 20.3531 0.345109 19.5744 1.03408 19.2901L4.16629 17.9891C4.84511 17.7073 5.63129 18.0301 5.91305 18.7088C7.68276 22.9551 9.44996 27.2014 11.2172 31.4478C11.5039 32.1341 11.1838 32.9128 10.4975 33.197Z" fill="#E4E8EB"/>
<path fill-rule="evenodd" clip-rule="evenodd" d="M59.2347 53.7509C62.175 55.1928 65.1459 56.5757 68.104 57.9768L63.9268 67.9856L57.7826 64.9941C56.8965 64.5613 55.9874 64.4846 55.0397 64.7585L48.5216 66.646C46.4548 67.2428 43.8988 66.1441 41.9754 65.4013L29.7512 60.6812C26.5319 59.4365 25.7559 52.9749 33.3599 55.2081L42.0829 57.7693C42.3365 56.8499 43.0562 56.0815 44.0397 55.8203L49.9482 54.24C53.9768 51.3896 56.0257 52.1784 59.2347 53.7509Z" fill="#EFC7A4"/>
<path fill-rule="evenodd" clip-rule="evenodd" d="M42.0752 59.2137L55.288 55.6846C55.6824 57.1572 54.7989 58.6862 53.3236 59.078L45.4712 61.1781C43.9961 61.57 42.4696 60.6863 42.0752 59.2137Z" fill="#D5A889"/>
<path d="M60.5025 69.3888L63.6373 70.69C64.316 70.9716 65.0997 70.6489 65.384 69.9703C67.1512 65.7239 68.9209 61.4776 70.6881 57.2313C70.975 56.5448 70.6548 55.7663 69.9659 55.482L66.8337 54.181C66.1548 53.8992 65.3687 54.2219 65.0869 54.9006C63.3172 59.1469 61.55 63.3934 59.7828 67.6397C59.496 68.326 59.8162 69.1045 60.5025 69.3888Z" fill="#E4E8EB"/>
</svg>
