<svg width="71" height="71" viewBox="0 0 71 71" fill="none" xmlns="http://www.w3.org/2000/svg">
<path d="M9.71997 22.6094C9.13389 22.6094 8.5481 22.9998 8.5481 23.7812V24.9531C8.5481 26.516 10.8918 26.516 10.8918 24.9531V23.7812C10.8918 22.9998 10.3061 22.6094 9.71997 22.6094Z" fill="#3588CB"/>
<path d="M13.2356 17.9219C12.6495 17.9219 12.0637 18.3123 12.0637 19.0937V20.2656C12.0637 21.8285 14.4075 21.8285 14.4075 20.2656V19.0937C14.4075 18.3123 13.8217 17.9219 13.2356 17.9219Z" fill="#3588CB"/>
<path d="M6.20434 19.0938C5.61826 19.0938 5.03247 19.4842 5.03247 20.2656V21.4375C5.03247 23.0004 7.37622 23.0004 7.37622 21.4375V20.2656C7.37622 19.4842 6.79043 19.0938 6.20434 19.0938Z" fill="#3588CB"/>
<path d="M61.2825 22.6094C60.6964 22.6094 60.1106 22.9998 60.1106 23.7812V24.9531C60.1106 26.516 62.4543 26.516 62.4543 24.9531V23.7812C62.4543 22.9998 61.8686 22.6094 61.2825 22.6094Z" fill="#3588CB"/>
<path d="M64.7981 17.9219C64.212 17.9219 63.6262 18.3123 63.6262 19.0937V20.2656C63.6262 21.8285 65.97 21.8285 65.97 20.2656V19.0937C65.97 18.3123 65.3842 17.9219 64.7981 17.9219Z" fill="#3588CB"/>
<path d="M57.7668 19.0938C57.1808 19.0938 56.595 19.4842 56.595 20.2656V21.4375C56.595 23.0004 58.9387 23.0004 58.9387 21.4375V20.2656C58.9387 19.4842 58.3529 19.0938 57.7668 19.0938Z" fill="#3588CB"/>
<path d="M8.10635 44.2573C3.57169 45.9478 0.344971 50.3566 0.344971 55.5755V57.5874C0.344971 60.9304 2.98648 63.6207 6.26843 63.6207H17.859C21.141 63.6207 23.7825 60.9304 23.7825 57.5874V55.5755C23.7825 50.3582 20.5582 45.9489 16.0257 44.2573C14.8354 44.9943 13.4637 45.3857 12.0637 45.388C10.6653 45.3849 9.29529 44.9934 8.10635 44.2573Z" fill="#549AD4"/>
<path d="M21.013 47.8208C18.3479 56.4088 8.36969 59.4532 1.12085 60.5283C2.13311 62.3682 4.04208 63.6205 6.2684 63.6205H17.859C21.1409 63.6205 23.7824 60.9302 23.7824 57.5872V55.5753C23.7824 52.6128 22.7413 49.9126 21.013 47.8208Z" fill="#3588CB"/>
<path d="M19.095 39.0156C19.095 42.8989 15.947 46.0469 12.0637 46.0469C8.18047 46.0469 5.03247 42.8989 5.03247 39.0156C5.03247 35.1324 8.18047 31.9844 12.0637 31.9844C15.947 31.9844 19.095 35.1324 19.095 39.0156Z" fill="#FFD1B5"/>
<path d="M16.0257 44.2568C14.8354 44.9938 13.4637 45.3853 12.0637 45.3875C11.1156 45.3854 10.1848 45.1906 9.3103 44.8451C10.4701 45.6272 11.8368 46.0455 13.2356 46.0467C14.6624 46.044 16.0546 45.6074 17.2273 44.7947C16.8368 44.5964 16.4395 44.4113 16.0257 44.2568Z" fill="#3588CB"/>
<path d="M15.7213 33.021C16.3926 34.1206 16.7489 35.3834 16.7513 36.6717C16.7513 40.5549 13.6033 43.7029 9.72003 43.7029C8.42878 43.6997 7.16335 43.341 6.0625 42.6661C7.33621 44.7627 9.61059 46.0439 12.0638 46.0467C15.947 46.0467 19.095 42.8987 19.095 39.0154C19.0913 36.5661 17.8132 34.2951 15.7213 33.021Z" fill="#FFB98D"/>
<path d="M29.6418 40.1875H41.3564V42.5313H29.6418V40.1875Z" fill="#365B7A"/>
<path d="M64.7981 14.4063V10.8905H69.4856L61.2825 1.51562L53.0793 10.8905H57.7668V15.5782" fill="#549AD4"/>
<path d="M63.8963 4.50244C63.2581 10.0896 60.257 13.2684 57.7668 14.9806V15.578L64.7981 14.4062V10.8905H69.4856L63.8963 4.50244Z" fill="#3588CB"/>
<path d="M13.2356 14.4063V10.8905H17.9231L9.71995 1.51562L1.51685 10.8905H6.20433V15.5782" fill="#549AD4"/>
<path d="M54.9813 44.2573C50.4467 45.9478 47.22 50.3566 47.22 55.5755V57.5874C47.22 60.9304 49.8615 63.6207 53.1434 63.6207H64.734C68.016 63.6207 70.6575 60.9304 70.6575 57.5874V55.5755C70.6575 50.3582 67.4332 45.9489 62.9007 44.2573C61.7104 44.9943 60.3387 45.3857 58.9387 45.388C57.5403 45.3849 56.1703 44.9934 54.9813 44.2573Z" fill="#549AD4"/>
<path d="M67.888 47.8208C65.2229 56.4088 55.2447 59.4532 47.9958 60.5283C49.0081 62.3682 50.9171 63.6205 53.1434 63.6205H64.734C68.0159 63.6205 70.6574 60.9302 70.6574 57.5872V55.5753C70.6574 52.6128 69.6163 49.9126 67.888 47.8208Z" fill="#3588CB"/>
<path d="M51.1499 46.6006C48.7363 48.8021 47.22 51.9983 47.22 55.575V57.5869C47.22 60.93 49.8615 63.6202 53.1434 63.6202H55.4231V57.7609C55.4231 53.2405 53.9967 49.4837 51.1499 46.6006Z" fill="#3588CB"/>
<path d="M38.4419 67.4982L49.6975 70.5289C52.8328 71.1392 54.2512 69.4808 54.2512 67.1403V57.7613C54.2512 51.2306 51.2802 46.292 45.3382 43.2822C38.7802 43.2822 32.2223 43.2822 25.6643 43.2822C19.7223 46.292 16.7512 51.2306 16.7512 57.7613V67.1403C16.7512 69.4808 18.1697 71.1392 21.305 70.5289L32.393 67.5433" fill="#E4EFF8"/>
<path d="M23.8191 56.0586C23.356 58.8492 23.4534 60.3787 23.343 62.3757L41.6185 57.5403L41.3841 57.2523L30.4475 58.9883L23.8191 56.0586Z" fill="#C4DCF0"/>
<path d="M17.2205 69.1252C17.8613 70.301 19.1818 70.9417 21.306 70.5282L32.393 67.5436L38.4424 67.498L49.6965 70.5284C52.8318 71.1387 54.2512 69.4814 54.2512 67.1409V57.7614C54.2512 53.1733 52.778 49.3749 49.8453 46.4751C50.1921 59.8882 28.7619 68.0153 17.2205 69.1252Z" fill="#C4DCF0"/>
<path d="M32.3816 46.7429L35.0595 49.4209L32.5487 66.9944L33.0934 67.5392L38.4424 67.498L39.3785 67.7497L40.1338 66.9944L37.6253 49.4415L38.7285 48.4664L39.8889 49.6268L45.8765 43.5752C45.6969 43.4776 45.524 43.3762 45.3386 43.2822L36.7933 43.6919L32.3816 46.7429Z" fill="#C4DCF0"/>
<path d="M31.1588 60.2519C29.9676 59.0608 30.0253 53.9805 26.9977 53.9805C25.8067 53.9805 24.6155 55.043 24.6155 56.3627L24.6155 59.9361C24.6155 60.6516 24.7938 61.3239 25.109 61.9111L31.1588 60.2519Z" fill="#C4DCF0"/>
<path d="M30.3257 60.5171C29.1346 59.3259 29.1923 54.2456 26.1647 54.2456C24.9737 54.2456 23.7825 55.3081 23.7825 56.6279L23.7825 60.2013C23.7825 60.9167 23.9608 61.589 24.276 62.1762L30.3257 60.5171Z" fill="#FFD1B5"/>
<path d="M28.1724 55.3833C27.6947 58.9195 25.5018 60.3828 23.8662 61.0016C23.9468 61.418 24.0815 61.8148 24.2757 62.1765L30.3267 60.5177C29.4936 59.6847 29.2665 56.9527 28.1724 55.3833Z" fill="#FFB98D"/>
<path d="M41.2373 57.3133C42.3294 55.4217 42.4784 53.5601 44.9907 53.5601C46.2416 53.5601 47.4928 54.676 47.4928 56.0622L47.4928 59.8155C47.4927 62.2413 45.5398 64.1943 43.1139 64.1943L41.2373 57.3133Z" fill="#C4DCF0"/>
<path d="M41.3606 57.7612C42.4082 56.3862 42.5231 54.2456 44.8763 54.2456C46.0481 54.2456 47.2201 55.2909 47.2201 56.5894L47.22 60.105C47.22 62.3772 45.3907 64.2065 43.1184 64.2065L41.3606 57.7612Z" fill="#FFD1B5"/>
<path d="M46.737 55.2207C45.4386 56.9031 43.7969 58.4469 41.9282 59.8441L43.1184 64.2066C45.3907 64.2066 47.2199 62.3773 47.22 60.105V56.5894C47.22 56.0756 47.0315 55.6062 46.737 55.2207Z" fill="#FFB98D"/>
<path d="M23.7822 28.4687V23.7812C23.7822 17.2891 29.0089 12.0625 35.5012 12.0625C41.9935 12.0625 47.2201 17.2891 47.2201 23.7812V28.4687H23.7822Z" fill="#427096"/>
<path d="M27.2982 34.3281H26.1263C24.1846 34.3281 22.6106 32.7541 22.6106 30.8125C22.6106 28.8709 24.1846 27.2969 26.1263 27.2969H27.3011L27.2982 34.3281Z" fill="#FFD1B5"/>
<path d="M30.8135 37.8438H40.1885V42.5313L36.6439 46.0469H34.3134L30.8135 42.532V37.8438Z" fill="#FFBD8D"/>
<path d="M38.9457 37.8438C38.5555 41.1504 36.432 43.9118 33.4915 45.2206L34.3108 46.0446L34.3309 46.047C35.2751 46.047 36.6749 46.0468 37.0431 46.0468L40.1902 42.5313V37.8438H38.9457Z" fill="#FFA465"/>
<path d="M40.1885 22.6095V29.7162C40.1883 34.0627 37.2066 37.6844 33.1572 38.7136C33.9069 38.904 34.6898 39.0156 35.501 39.0156C40.695 39.0156 44.876 34.8679 44.876 29.7161V26.125C42.7551 26.125 40.7144 24.6236 40.1885 22.6095Z" fill="#FFB98D"/>
<path d="M30.804 18.8914C29.9625 19.7328 28.8463 19.9808 28.3109 19.4454C27.7754 18.9099 28.0235 17.7937 28.8649 16.9523C29.7063 16.1109 30.8225 15.8628 31.358 16.3983C31.8934 16.9337 31.6454 18.0499 30.804 18.8914Z" fill="#6A98BE"/>
<path d="M33.1572 12.2959C38.5183 13.3764 42.5322 18.0925 42.5322 23.7812V28.4687H47.2197V23.7812C47.2197 17.289 41.9933 12.0625 35.501 12.0625C34.6975 12.0625 33.9145 12.1431 33.1572 12.2959Z" fill="#365B7A"/>
<path d="M43.7041 34.3281H44.876C46.8177 34.3281 48.3917 32.7541 48.3917 30.8125C48.3917 28.8709 46.8177 27.2969 44.876 27.2969H43.7012L43.7041 34.3281Z" fill="#FFB98D"/>
<path d="M30.8137 37.8438V40.1143C32.1918 40.9025 33.7897 41.3594 35.5012 41.3594C37.2138 41.3594 38.8102 40.901 40.1887 40.112V37.8438H30.8137Z" fill="#FFA465"/>
<path d="M26.1269 29.6392C26.1269 29.6392 25.7199 32.4914 25.8638 34.3015C25.952 34.3059 26.037 34.3281 26.1269 34.3281H27.2988L27.3011 30.2265L26.1269 29.6392Z" fill="#FFB98D"/>
<path d="M26.126 30.8882L26.1252 26.1259C28.2461 26.1259 30.2861 24.6245 30.8121 22.6104C32.2767 23.3266 33.7508 23.7822 35.5003 23.7822C37.2499 23.7822 38.7241 23.3266 40.1887 22.6104C40.7146 24.6245 42.7546 26.1259 44.8755 26.1259L44.8748 30.8882C44.874 36.04 40.6944 40.1874 35.5004 40.1874C30.3063 40.1874 26.1267 36.04 26.126 30.8882Z" fill="#FFD1B5"/>
<path d="M40.1864 30.8881C40.1861 35.2345 37.2068 38.8563 33.1575 39.8854C33.9071 40.0759 34.69 40.1875 35.5012 40.1875C40.6953 40.1875 44.8739 36.0398 44.8739 30.888L44.8762 26.1259C42.7553 26.1259 40.7147 24.6245 40.1887 22.6104L40.1864 30.8881Z" fill="#FFB98D"/>
<path d="M32.7547 16.0853C32.4221 16.3015 32.041 16.3051 31.9034 16.0935C31.7658 15.8818 31.9239 15.535 32.2565 15.3189C32.5891 15.1027 32.9702 15.099 33.1078 15.3107C33.2453 15.5223 33.0873 15.8691 32.7547 16.0853Z" fill="#6A98BE"/>
<path d="M30.8122 22.6104C30.2863 24.6245 28.2456 26.126 26.1248 26.126V27.2978C28.2456 27.2978 30.2863 25.7964 30.8122 23.7822C32.2768 24.4984 33.7524 24.9541 35.502 24.9541C37.2516 24.9541 38.7249 24.4984 40.1895 23.7822C40.7155 25.7964 42.7562 27.2978 44.877 27.2978V26.126C42.7562 26.126 40.7155 24.6245 40.1895 22.6104C38.7249 23.3266 37.2516 23.7822 35.502 23.7822C33.7524 23.7822 32.2768 23.3266 30.8122 22.6104Z" fill="#FFB98D"/>
<path d="M12.3338 4.50244C11.6956 10.0896 8.69445 13.2684 6.20435 14.9806V15.578L13.2356 14.4062V10.8905H17.9231L12.3338 4.50244Z" fill="#3588CB"/>
<path d="M35.5012 0.34375C34.8184 0.357037 34.3293 0.861649 34.3293 1.51105V3.85481C34.3293 4.6358 34.9155 5.02796 35.5012 5.02898C36.087 5.02796 36.6731 4.63567 36.6731 3.85481V1.51105C36.6731 0.861649 36.184 0.356462 35.5012 0.34375Z" fill="#549AD4"/>
<path d="M28.3234 4.2025L29.9851 5.85501C31.1414 6.93027 32.716 5.31018 31.6468 4.2025L29.9851 2.54077C29.7645 2.314 29.4798 2.19973 29.1635 2.19975C28.1041 2.19092 27.5921 3.47705 28.3234 4.2025Z" fill="#549AD4"/>
<path d="M41.8389 2.20023C41.5224 2.20023 41.2378 2.31451 41.0172 2.54128L39.3555 4.20296C38.2864 5.31064 39.8609 6.93073 41.0172 5.85547L42.6789 4.20296C43.4102 3.47751 42.8982 2.19204 41.8389 2.20023Z" fill="#549AD4"/>
<path d="M39.0645 47.2314L35.5016 50.7301L31.9856 47.2141L34.3293 44.8706H36.6731L39.0645 47.2314Z" fill="#427096"/>
<path d="M34.3293 44.8706L31.9856 47.2144L33.1575 48.3862L36.6731 44.8706H34.3293Z" fill="#365B7A"/>
<path d="M37.845 46.0425C36.6732 47.2144 35.5013 48.226 32.9973 48.226L35.5013 50.73L39.065 47.2304L37.845 46.0425Z" fill="#365B7A"/>
<path d="M34.3293 44.8706L29.6418 40.1831L24.9543 42.5269L30.8137 48.3862L34.3293 44.8706Z" fill="#427096"/>
<path d="M36.6731 44.8706L41.3606 40.1831L46.0481 42.5269L40.1887 48.3862L36.6731 44.8706Z" fill="#427096"/>
<path d="M43.4639 41.2339C42.7339 43.7164 41.4105 45.9738 39.6118 47.8097L40.1886 48.3864L46.048 42.5271L43.4639 41.2339Z" fill="#365B7A"/>
<path d="M34.3294 49.5581L31.9856 67.1362L35.5012 70.6518L39.0169 67.1362L36.6731 49.5581H34.3294Z" fill="#427096"/>
<path d="M36.6732 49.5581C37.7461 59.2936 34.8442 65.3053 32.448 67.5986L35.5013 70.6519L39.0169 67.1362L36.6732 49.5581Z" fill="#365B7A"/>
<path d="M9.29855 36.0869C8.71524 36.6702 7.94145 36.8422 7.57025 36.471C7.19905 36.0998 7.37101 35.326 7.95432 34.7427C8.53763 34.1594 9.31141 33.9874 9.68261 34.3586C10.0538 34.7298 9.88186 35.5036 9.29855 36.0869Z" fill="#FFE5DD"/>
<path d="M10.6571 34.1308C10.4266 34.2807 10.1624 34.2833 10.067 34.1366C9.97158 33.9899 10.0811 33.7495 10.3116 33.5996C10.5421 33.4497 10.8063 33.447 10.9017 33.5937C10.9971 33.7404 10.8876 33.9809 10.6571 34.1308Z" fill="#FFE5DD"/>
<path d="M65.97 39.0156C65.97 42.8989 62.822 46.0469 58.9387 46.0469C55.0555 46.0469 51.9075 42.8989 51.9075 39.0156C51.9075 35.1324 55.0555 31.9844 58.9387 31.9844C62.822 31.9844 65.97 35.1324 65.97 39.0156Z" fill="#FFD1B5"/>
<path d="M62.9007 44.2568C61.7104 44.9938 60.3387 45.3853 58.9387 45.3875C57.9906 45.3854 57.0598 45.1906 56.1853 44.8451C57.3451 45.6272 58.7118 46.0455 60.1106 46.0467C61.5374 46.044 62.9296 45.6074 64.1023 44.7947C63.7118 44.5964 63.3145 44.4113 62.9007 44.2568Z" fill="#3588CB"/>
<path d="M62.5963 33.021C63.2676 34.1206 63.6239 35.3834 63.6263 36.6717C63.6263 40.5549 60.4783 43.7029 56.595 43.7029C55.3038 43.6997 54.0383 43.341 52.9375 42.6661C54.2112 44.7627 56.4856 46.0439 58.9388 46.0467C62.822 46.0467 65.97 42.8987 65.97 39.0154C65.9663 36.5661 64.6882 34.2951 62.5963 33.021Z" fill="#FFB98D"/>
<path d="M56.1665 36.0869C55.5832 36.6702 54.8094 36.8422 54.4382 36.471C54.067 36.0998 54.2389 35.326 54.8222 34.7427C55.4056 34.1594 56.1793 33.9874 56.5505 34.3586C56.9217 34.7298 56.7498 35.5036 56.1665 36.0869Z" fill="#FFE5DD"/>
<path d="M57.5148 34.1191C57.2843 34.269 57.02 34.2716 56.9247 34.1249C56.8292 33.9782 56.9388 33.7378 57.1693 33.5879C57.3998 33.4379 57.664 33.4353 57.7594 33.582C57.8548 33.7287 57.7453 33.9692 57.5148 34.1191Z" fill="#FFE5DD"/>
</svg>
