<svg width="76" height="67" viewBox="0 0 76 67" fill="none" xmlns="http://www.w3.org/2000/svg">
<path d="M54.9041 64.681H32.4724C34.93 63.6501 36.529 61.2455 36.529 58.5805V56.5332H50.8477V58.5805C50.8476 61.2455 52.4466 63.6501 54.9041 64.681Z" fill="#6D6D6D"/>
<path d="M56.4099 64.6807H30.9665C30.3774 64.6807 29.8999 65.1581 29.8999 65.7471C29.8999 66.3361 30.3774 66.8136 30.9665 66.8136H56.4098C56.9988 66.8136 57.4763 66.3361 57.4763 65.7471C57.4765 65.1581 56.9989 64.6807 56.4099 64.6807Z" fill="#5B5B5B"/>
<path d="M75.9342 14.167V49.2651H11.437V14.167C11.437 12.7322 12.6051 11.564 14.0471 11.564H73.3313C74.766 11.564 75.9342 12.7322 75.9342 14.167Z" fill="#6D6D6D"/>
<path d="M11.4395 49.2637V55.6587C11.4395 57.0991 12.6071 58.2666 14.0475 58.2666H73.3293C74.7696 58.2666 75.9373 57.0991 75.9373 55.6587V49.2637H11.4395Z" fill="#5B5B5B"/>
<path d="M11.4395 49.2637V55.6587C11.4395 57.0991 12.6071 58.2666 14.0475 58.2666H73.3293C74.7696 58.2666 75.9373 57.0991 75.9373 55.6587V49.2637H11.4395Z" fill="#5B5B5B"/>
<g opacity="0.08">
<path d="M75.937 14.1645V55.6572C75.937 57.0982 74.7706 58.2646 73.3296 58.2646H67.1677C68.6087 58.2646 69.7751 57.0982 69.7751 55.6572V14.1645C69.7751 12.7304 68.6018 11.564 67.1677 11.564H73.3296C74.7637 11.5638 75.937 12.7304 75.937 14.1645Z" fill="black"/>
</g>
<path d="M45.7706 53.7678C45.7706 54.9144 44.8404 55.8445 43.6868 55.8445C42.5403 55.8445 41.6101 54.9144 41.6101 53.7678C41.6101 52.6143 42.5403 51.6841 43.6868 51.6841C44.8404 51.6841 45.7706 52.6143 45.7706 53.7678Z" fill="#F2F0F0"/>
<path d="M14.1819 14.3081H73.1925V46.5169H14.1819V14.3081Z" fill="#F2F0F0"/>
<g opacity="0.4">
<path d="M15.4821 52.0587V54.346C15.4821 54.759 15.1474 55.0937 14.7345 55.0937C14.3215 55.0937 13.9868 54.759 13.9868 54.346V52.0587C13.9868 51.6458 14.3215 51.311 14.7345 51.311C15.1474 51.311 15.4821 51.6458 15.4821 52.0587Z" fill="white"/>
</g>
<path d="M55.4615 30.2075L54.1799 29.6167V25.543H45.9556V29.6167L44.6687 30.1719L45.0115 41.7248H45.9556V43.4961H54.1799V41.7248H55.1187L55.4615 30.2075Z" fill="#F2B816"/>
<path d="M60.5104 46.5174C60.4916 40.8469 59.8289 33.4775 56.7354 30.9144C56.3805 30.6207 55.997 30.3921 55.5769 30.2331L55.4096 30.8531C55.3606 31.0122 55.2953 31.1999 55.2178 31.3998C54.765 32.5585 53.8063 34.2718 51.942 35.0102C51.9093 35.0265 51.8727 35.0388 51.8359 35.055C51.2893 35.255 50.6692 35.3732 49.9634 35.3732C49.3189 35.3732 48.7517 35.2753 48.25 35.104C48.2459 35.104 48.2418 35.0999 48.2377 35.0958C46.4264 34.4796 45.4759 32.9335 44.9985 31.7505C44.9455 31.6241 44.9006 31.5016 44.8598 31.3833L44.5538 30.2329C44.1335 30.392 43.75 30.6205 43.3951 30.9142C40.2796 33.4729 39.5047 40.845 39.3965 46.5173H60.5104V46.5174Z" fill="white"/>
<path d="M52.044 34.9979L51.2771 36.6825H48.8782L48.0869 34.9979L50.0655 33.1904L52.044 34.9979Z" fill="#66D5F2"/>
<path d="M45.9081 29.3511L50.0655 33.1922L47.535 35.8584L43.2148 30.6886L45.9081 29.3511Z" fill="#E5E3E5"/>
<path d="M56.9163 30.6976L52.5962 35.8491L50.0657 33.192L53.2018 30.2909L54.223 29.3511C54.223 29.3509 56.9163 30.6885 56.9163 30.6976Z" fill="#E5E3E5"/>
<path d="M51.5769 46.5173L51.5667 46.1757L51.2769 36.6826H48.8781L48.5804 46.241L48.5718 46.5173H51.5769Z" fill="#66D5F2"/>
<path d="M70.4427 46.5175V41.8413C70.4427 38.4324 68.4323 35.3507 65.3141 33.9733C62.464 32.7144 58.8433 31.1703 55.5767 29.9434L55.5604 30.0169L55.2178 31.3999L54.7527 33.2806L51.5666 46.176L51.4822 46.5175H70.4427Z" fill="#F96464"/>
<g opacity="0.08">
<path d="M70.4458 41.8411V46.5136H67.0475V41.8411C67.0475 38.4338 65.0411 35.352 61.923 33.9691C59.9528 33.1015 57.612 32.0982 55.2803 31.1493L55.5605 30.0196L55.5785 29.9473C58.8412 31.1673 62.4653 32.7129 65.3123 33.9691C68.4303 35.352 70.4458 38.4338 70.4458 41.8411Z" fill="black"/>
</g>
<path d="M48.6486 46.5175L48.5804 46.2414L45.3779 33.2806L44.9985 31.7507L44.5702 30.0169L44.554 29.9434C41.2874 31.1703 37.6667 32.7144 34.8166 33.9733C31.6983 35.3507 29.688 38.4324 29.688 41.8413V46.5175H48.6486Z" fill="#F96464"/>
<path d="M53.3599 46.5174L57.6954 38.8475C57.8702 38.5384 57.8476 38.1556 57.638 37.8691L56.9593 36.9414C56.6763 36.5546 56.7444 36.0143 57.1146 35.7098L58.1025 34.8971C58.3029 34.7323 58.4227 34.4893 58.4316 34.2299L58.5321 31.2807C58.544 30.9312 58.3533 30.6061 58.0423 30.4463L56.1419 29.4688C55.6124 29.1965 54.9688 29.5016 54.8447 30.0841L51.3411 46.5174H53.3599Z" fill="#EA4E4E"/>
<path d="M42.0303 34.8971L43.0182 35.7098C43.3882 36.0142 43.4564 36.5546 43.1734 36.9414L42.4948 37.8691C42.2851 38.1556 42.2627 38.5384 42.4373 38.8475L46.7728 46.5174H48.7918L45.2882 30.0841C45.164 29.5016 44.5204 29.1965 43.991 29.4688L42.0905 30.4463C41.7795 30.6063 41.5888 30.9312 41.6006 31.2807L41.7011 34.2299C41.71 34.4891 41.8299 34.7322 42.0303 34.8971Z" fill="#EA4E4E"/>
<path d="M60.2966 11.5524L60.0616 15.9058H40.2145L39.9795 11.6329C39.9795 5.9396 44.7244 1.98438 50.138 1.98438C55.5517 1.98452 60.2966 5.9396 60.2966 11.5524Z" fill="#6D6D6D"/>
<g opacity="0.08">
<path d="M60.2964 11.5555L60.0614 15.9027H57.5398L57.7748 11.5555C57.7748 6.38579 53.7531 2.61704 48.8816 2.05674C49.2882 2.01162 49.713 1.98438 50.1378 1.98438C55.5515 1.98452 60.2964 5.94312 60.2964 11.5555Z" fill="black"/>
</g>
<path d="M59.1111 15.0699L59.054 14.9593C58.2731 13.4476 56.5943 12.7066 54.9153 12.9825C50.5253 13.7043 49.894 8.49075 43.8514 11.4242C43.1355 11.7718 42.5619 12.3609 42.1962 13.0678L41.1625 15.0664C40.8978 15.1303 40.6589 15.2517 40.4595 15.4227C40.0895 15.7381 39.8564 16.204 39.8564 16.7283V18.5103C39.8564 19.4525 40.6151 20.2168 41.5593 20.2227C41.5593 24.6916 46.929 28.928 50.137 28.928C53.3452 28.928 58.7147 24.6922 58.7147 20.2233C59.6553 20.2165 60.4161 19.4532 60.4161 18.511V16.7289C60.416 15.9241 59.859 15.2538 59.1111 15.0699Z" fill="#FFCE29"/>
<path d="M57.2992 25.9945H50.9233V25.0907H57.2992C58.5459 25.0907 59.5605 24.0762 59.5605 22.8294V17.4434H60.4643V22.8294C60.4642 24.5748 59.0446 25.9945 57.2992 25.9945Z" fill="#F2F0F0"/>
<path d="M61.3372 16.5699V18.3176C61.3372 19.4426 60.4252 20.3546 59.3002 20.3546C58.962 20.3546 58.6877 20.0804 58.6877 19.742V15.1453C58.6877 14.8071 58.962 14.5327 59.3002 14.5327C60.4252 14.5329 61.3372 15.4449 61.3372 16.5699Z" fill="#5B5B5B"/>
<path d="M52.9989 25.5377C52.9989 26.3989 52.0084 27.1026 50.7884 27.1026C49.5687 27.1026 48.5781 26.3989 48.5781 25.5377C48.5781 24.6766 49.5688 23.9834 50.7884 23.9834C52.0084 23.9834 52.9989 24.6766 52.9989 25.5377Z" fill="#5B5B5B"/>
<g opacity="0.4">
<path d="M34.1952 41.9856V43.513C34.1952 44.0471 33.7622 44.4801 33.2281 44.4801C32.694 44.4801 32.261 44.0471 32.261 43.513V41.9856C32.261 41.4516 32.694 41.0186 33.2281 41.0186C33.7622 41.0186 34.1952 41.4516 34.1952 41.9856Z" fill="white"/>
</g>
<path d="M35.4184 2.06514V15.2208C35.4184 16.2727 34.5619 17.1292 33.5174 17.1292H30.9479V22.0124C30.9479 22.905 29.852 23.3331 29.247 22.6767L24.1335 17.1292H2.84858C1.79463 17.1292 0.940186 16.2747 0.940186 15.2208V2.06514C0.940186 1.01118 1.79463 0.156738 2.84858 0.156738H33.5174C34.5619 0.156738 35.4184 1.01323 35.4184 2.06514Z" fill="#13BD79"/>
<path d="M30.9631 5.18672H5.40317C4.98833 5.18672 4.65186 4.85024 4.65186 4.4354C4.65186 4.02056 4.98833 3.68408 5.40317 3.68408H30.9631C31.3779 3.68408 31.7144 4.02056 31.7144 4.4354C31.7144 4.85024 31.3779 5.18672 30.9631 5.18672Z" fill="#F2F0F0"/>
<path d="M30.9631 9.39424H5.40317C4.98833 9.39424 4.65186 9.05776 4.65186 8.64292C4.65186 8.22808 4.98833 7.8916 5.40317 7.8916H30.9631C31.3779 7.8916 31.7144 8.22808 31.7144 8.64292C31.7144 9.05776 31.3779 9.39424 30.9631 9.39424Z" fill="#F2F0F0"/>
<path d="M30.9631 13.6018H5.40317C4.98833 13.6018 4.65186 13.2653 4.65186 12.8504C4.65186 12.4356 4.98833 12.0991 5.40317 12.0991H30.9631C31.3779 12.0991 31.7144 12.4356 31.7144 12.8504C31.7144 13.2653 31.3779 13.6018 30.9631 13.6018Z" fill="#F2F0F0"/>
<g opacity="0.08">
<path d="M35.4185 2.06514V15.2208C35.4185 16.2727 34.562 17.1292 33.5175 17.1292H30.9631C32.0074 17.1292 32.8639 16.2727 32.8639 15.2208V2.06514C32.8639 1.01323 32.0074 0.156738 30.9631 0.156738H33.5175C34.562 0.156738 35.4185 1.01323 35.4185 2.06514Z" fill="black"/>
</g>
</svg>
