<svg width="20" height="20" viewBox="0 0 20 20" fill="none" xmlns="http://www.w3.org/2000/svg">
<path fill-rule="evenodd" clip-rule="evenodd" d="M2.45483 3.84223L7.85796 9.24769C9.03639 10.4239 10.9627 10.4249 12.1421 9.24769L17.5453 3.84223C17.5997 3.78781 17.5917 3.6982 17.5286 3.65418C16.9775 3.26984 16.307 3.04199 15.5848 3.04199H4.41538C3.69307 3.04199 3.02257 3.26988 2.47147 3.65418C2.40835 3.6982 2.40042 3.78781 2.45483 3.84223ZM1.01093 6.44641C1.01093 5.87844 1.15175 5.3418 1.39979 4.87012C1.43858 4.79633 1.5369 4.78141 1.59585 4.84035L6.93057 10.1751C8.61991 11.8669 11.3792 11.8679 13.0696 10.1751L18.4043 4.84035C18.4632 4.78141 18.5616 4.79633 18.6003 4.87012C18.8483 5.3418 18.9892 5.87848 18.9892 6.44641V13.5533C18.9892 15.432 17.461 16.9578 15.5848 16.9578H4.41538C2.53913 16.9578 1.01093 15.432 1.01093 13.5533V6.44641Z" fill="white"/>
</svg>
