<svg width="202" height="202" viewBox="0 0 202 202" fill="none" xmlns="http://www.w3.org/2000/svg">
<g filter="url(#filter0_b_259_243)">
<path fill-rule="evenodd" clip-rule="evenodd" d="M100.883 201.849C156.388 201.849 201.383 156.853 201.383 101.349C201.383 45.844 156.388 0.848633 100.883 0.848633C45.3787 0.848633 0.383301 45.844 0.383301 101.349C0.383301 156.853 45.3787 201.849 100.883 201.849ZM100.883 160.709C133.667 160.709 160.243 134.132 160.243 101.349C160.243 68.5655 133.667 41.9893 100.883 41.9893C68.0999 41.9893 41.5237 68.5655 41.5237 101.349C41.5237 134.132 68.0999 160.709 100.883 160.709Z" fill="white"/>
</g>
<path d="M100.637 172.204C102.068 172.204 103.331 172.44 104.427 172.912C105.508 173.399 106.421 174.046 107.167 174.853C107.898 175.675 108.453 176.596 108.834 177.616C109.199 178.651 109.382 179.724 109.382 180.835V181.337C109.382 182.387 109.199 183.415 108.834 184.419C108.468 185.424 107.936 186.33 107.235 187.136C106.52 187.943 105.645 188.582 104.61 189.054C103.559 189.541 102.357 189.785 101.002 189.785C99.5411 189.785 98.2473 189.511 97.1209 188.963C95.9945 188.43 95.0889 187.677 94.4039 186.703C93.719 185.744 93.3156 184.625 93.1938 183.346H96.4588C96.5653 184.062 96.8317 184.671 97.2579 185.173C97.6841 185.69 98.2244 186.086 98.879 186.36C99.5183 186.634 100.226 186.771 101.002 186.771C101.779 186.771 102.486 186.634 103.126 186.36C103.75 186.086 104.282 185.698 104.724 185.196C105.165 184.693 105.508 184.092 105.751 183.392C105.98 182.692 106.094 181.916 106.094 181.063C106.094 180.135 105.964 179.305 105.706 178.574C105.447 177.844 105.082 177.22 104.61 176.702C104.138 176.2 103.567 175.812 102.897 175.538C102.228 175.279 101.474 175.15 100.637 175.15C99.5259 175.15 98.5517 175.378 97.7145 175.835C96.8774 176.306 96.2685 176.915 95.888 177.661L96.4588 175.036V179.328H93.4678V175.629C94.1832 174.548 95.1574 173.704 96.3903 173.095C97.6232 172.501 99.0388 172.204 100.637 172.204ZM101.162 178.689V181.109H92.0751V178.689H101.162Z" fill="black"/>
<path d="M81.8846 169.557C82.9138 169.833 83.7707 170.252 84.4554 170.813C85.1254 171.371 85.6389 172.013 85.9959 172.739C86.3343 173.476 86.5373 174.247 86.605 175.053C86.6579 175.855 86.582 176.638 86.3771 177.403L86.2648 177.822C86.0521 178.616 85.7223 179.347 85.2754 180.015C84.8098 180.694 84.2503 181.253 83.5967 181.693C82.9246 182.143 82.1682 182.437 81.3278 182.574C80.4834 182.726 79.5687 182.67 78.5836 182.406C77.2898 182.059 76.286 181.483 75.5722 180.677C74.8397 179.882 74.3771 178.962 74.1842 177.918C73.9873 176.888 74.0308 175.844 74.3144 174.785L74.6099 173.683L85.2178 176.525L84.7155 178.4L76.0263 176.071L77.2228 175.399C77.0179 176.164 76.9529 176.848 77.0277 177.451C77.1024 178.054 77.3283 178.563 77.7053 178.98C78.0676 179.392 78.5869 179.689 79.2632 179.87C79.9395 180.051 80.5543 180.05 81.1075 179.868C81.6607 179.685 82.1411 179.333 82.5486 178.812C82.9375 178.301 83.2403 177.642 83.4569 176.833C83.6579 176.083 83.7195 175.383 83.6418 174.732C83.5602 174.095 83.3221 173.543 82.9276 173.075C82.5291 172.621 81.9549 172.294 81.205 172.093C80.4552 171.892 79.8057 171.876 79.2564 172.044C78.7032 172.227 78.3013 172.521 78.0508 172.926L75.2279 172.17C75.625 171.394 76.1562 170.764 76.8215 170.281C77.4869 169.797 78.2545 169.491 79.1243 169.361C79.9794 169.228 80.8995 169.293 81.8846 169.557Z" fill="black"/>
<path d="M63.47 161.745C64.4587 162.316 65.2037 162.913 65.705 163.536C66.1855 164.165 66.4089 164.874 66.3752 165.663C66.3338 166.465 66.0126 167.387 65.4113 168.429L59.7749 178.145L57.2044 176.661L62.9436 166.767C63.248 166.239 63.3455 165.751 63.2361 165.301C63.106 164.857 62.7772 164.482 62.25 164.178L60.5693 163.207L61.9277 160.855L63.47 161.745ZM64.4062 174.097L63.2418 176.113L55.649 171.73L56.8134 169.713L64.4062 174.097Z" fill="black"/>
<path d="M43.5112 144.052L26.2344 147.462L23.5859 142.875L35.0977 129.479L36.7644 132.366L26.7254 143.883L26.5782 142.624L28.0052 145.095L26.9765 144.318L41.8901 141.244L43.5112 144.052ZM37.6889 142.826L34.8024 143.306L31.4233 137.454L33.2938 135.214L37.6889 142.826Z" fill="black"/>
<path d="M29.9617 105.198H13.2944L13.2944 101.956H29.9617V105.198ZM23.0208 102.413H20.281L20.2581 95.746H22.998L23.0208 102.413ZM16.0343 102.413H13.2944L13.2944 95.4264H16.0343L16.0343 102.413Z" fill="black"/>
<path d="M31.4684 86.5494L19.4931 83.3406L20.1432 80.9147L25.2156 82.2738L25.1978 82.34C23.4776 81.8791 22.2749 81.1629 21.5898 80.1914C20.9046 79.2199 20.7531 78.021 21.1352 76.5949L21.2534 76.1538L23.9219 76.8688L23.6973 77.7069C23.4216 78.7361 23.4862 79.6122 23.8913 80.3353C24.2856 81.0398 25.0047 81.5319 26.0485 81.8116L32.2898 83.4839L31.4684 86.5494Z" fill="black"/>
<path d="M40.3254 65.3972C39.7926 66.32 39.1664 67.0393 38.4467 67.5553C37.7345 68.0581 36.9817 68.388 36.188 68.5449C35.3888 68.6811 34.5911 68.6775 33.795 68.5343C33.0066 68.3778 32.2696 68.1017 31.5841 67.706L31.2085 67.4891C30.4966 67.0781 29.8759 66.5703 29.3461 65.9657C28.8108 65.3403 28.4155 64.6551 28.1602 63.9101C27.8993 63.1443 27.8113 62.3377 27.8963 61.4904C27.968 60.6355 28.2589 59.7664 28.7688 58.8832C29.4385 57.7232 30.255 56.9027 31.2181 56.4218C32.1756 55.9201 33.1838 55.7112 34.2426 55.7953C35.2882 55.8717 36.2855 56.1838 37.2346 56.7318L38.2233 57.3026L32.7322 66.8134L31.0515 65.843L35.5494 58.0525L35.889 59.3822C35.2035 58.9864 34.5598 58.7466 33.9579 58.6628C33.3561 58.5789 32.8053 58.6652 32.3058 58.9216C31.8138 59.1649 31.3928 59.5897 31.0427 60.196C30.6926 60.8024 30.5342 61.3964 30.5675 61.9781C30.6008 62.5597 30.8163 63.1148 31.2142 63.6433C31.6066 64.151 32.1652 64.6142 32.8902 65.0328C33.5625 65.4209 34.2232 65.6617 34.8722 65.7553C35.5081 65.8412 36.1032 65.7541 36.6575 65.4942C37.1987 65.2266 37.6633 64.7567 38.0515 64.0844C38.4396 63.4121 38.6236 62.7889 38.6035 62.2149C38.5703 61.6333 38.3901 61.169 38.0632 60.822L39.5244 58.2911C40.1713 58.8755 40.6421 59.5516 40.937 60.3194C41.2319 61.0872 41.3293 61.908 41.2291 62.7817C41.1365 63.6422 40.8353 64.514 40.3254 65.3972Z" fill="black"/>
<path d="M51.7476 50.908C50.9941 51.6614 50.2031 52.1942 49.3743 52.5063C48.5563 52.8077 47.7437 52.9315 46.9365 52.8777C46.1293 52.8023 45.3597 52.5924 44.6278 52.248C43.9067 51.8928 43.2663 51.4354 42.7066 50.8757L42.3999 50.569C41.8187 49.9878 41.3505 49.3366 40.9953 48.6155C40.6401 47.8728 40.4356 47.1087 40.3818 46.323C40.328 45.5157 40.4518 44.7139 40.7531 43.9174C41.0437 43.1102 41.5496 42.346 42.2707 41.6249C43.2179 40.6778 44.2188 40.0966 45.2736 39.8813C46.3284 39.6445 47.3562 39.7037 48.3572 40.0589C49.3474 40.4033 50.23 40.963 51.0049 41.7379L51.8121 42.5452L44.0466 50.3107L42.6743 48.9384L49.0353 42.5774L49.0191 43.9497C48.4594 43.3901 47.8998 42.9918 47.3401 42.755C46.7804 42.5182 46.2261 42.459 45.6772 42.5774C45.1391 42.6851 44.6224 42.9864 44.1273 43.4815C43.6322 43.9766 43.3255 44.5094 43.2071 45.0798C43.0887 45.6503 43.1533 46.2423 43.4008 46.8557C43.6484 47.4477 44.0681 48.0397 44.6601 48.6316C45.209 49.1806 45.7848 49.5842 46.3876 49.8425C46.9795 50.09 47.5769 50.16 48.1796 50.0524C48.7716 49.934 49.342 49.6003 49.8909 49.0514C50.4398 48.5025 50.7789 47.9482 50.908 47.3885C51.0264 46.8181 50.9726 46.323 50.7466 45.9032L52.8131 43.8367C53.2867 44.5686 53.5665 45.3435 53.6526 46.1615C53.7387 46.9795 53.6203 47.7975 53.2974 48.6155C52.9853 49.4227 52.4687 50.1869 51.7476 50.908Z" fill="black"/>
<path d="M83.3154 33.1242C81.8599 33.5142 80.5412 33.5917 79.3594 33.3569C78.1777 33.122 77.1457 32.6815 76.2634 32.0354C75.3959 31.3854 74.6778 30.6166 74.109 29.729C73.5402 28.8413 73.1357 27.9491 72.8954 27.0522L72.7654 26.5671C72.4975 25.5673 72.3879 24.5408 72.4367 23.4877C72.5001 22.4307 72.7563 21.4166 73.2052 20.4454C73.654 19.4741 74.3227 18.6174 75.2111 17.8751C76.1103 17.1141 77.2582 16.5465 78.655 16.1723C80.1105 15.7822 81.4459 15.7081 82.661 15.9498C83.8868 16.1729 84.9513 16.6756 85.8543 17.4579C86.7533 18.2255 87.4384 19.2238 87.9095 20.4528L84.7558 21.2978C84.4412 20.5942 84.0111 20.0476 83.4655 19.658C82.9306 19.2498 82.321 19.0034 81.6365 18.9189C80.9481 18.8198 80.2142 18.8746 79.435 19.0834C78.6411 19.2961 77.9728 19.6249 77.4301 20.0697C76.8835 20.4998 76.4714 21.0199 76.1936 21.6301C75.9159 22.2403 75.7574 22.9131 75.7181 23.6485C75.6934 24.38 75.7914 25.1574 76.0121 25.9808C76.2248 26.7747 76.5247 27.4823 76.9117 28.1034C77.3135 28.7206 77.7965 29.2294 78.3608 29.6298C78.9211 30.0154 79.5474 30.2652 80.2398 30.3791C80.9468 30.489 81.712 30.4337 82.5354 30.2131C83.741 29.89 84.6767 29.3241 85.3424 28.5154C86.019 27.6881 86.3017 26.7141 86.1905 25.5935L89.3442 24.7485C89.5045 25.9347 89.3965 27.0903 89.0204 28.2154C88.6442 29.3405 87.9816 30.3374 87.0326 31.2063C86.0835 32.0752 84.8445 32.7145 83.3154 33.1242Z" fill="black"/>
<path d="M101.215 30.8611C100.119 30.8611 99.1527 30.686 98.3155 30.3359C97.4783 29.9858 96.7706 29.514 96.1922 28.9203C95.6137 28.3115 95.1723 27.6265 94.8679 26.8655C94.5787 26.1044 94.4341 25.3129 94.4341 24.491V24.0115C94.4341 23.1591 94.5863 22.3524 94.8907 21.5913C95.2104 20.8151 95.6594 20.1301 96.2378 19.5365C96.8314 18.9276 97.5468 18.4558 98.384 18.1209C99.2212 17.7708 100.165 17.5958 101.215 17.5958C102.265 17.5958 103.209 17.7708 104.046 18.1209C104.883 18.4558 105.591 18.9276 106.17 19.5365C106.763 20.1301 107.212 20.8151 107.517 21.5913C107.821 22.3524 107.973 23.1591 107.973 24.0115V24.491C107.973 25.3129 107.821 26.1044 107.517 26.8655C107.228 27.6265 106.794 28.3115 106.215 28.9203C105.637 29.514 104.929 29.9858 104.092 30.3359C103.255 30.686 102.296 30.8611 101.215 30.8611ZM101.215 28.1441C101.991 28.1441 102.646 27.9766 103.179 27.6418C103.711 27.2917 104.115 26.8274 104.389 26.249C104.663 25.6554 104.8 24.9857 104.8 24.2398C104.8 23.4788 104.655 22.809 104.366 22.2306C104.092 21.637 103.681 21.1727 103.133 20.8379C102.6 20.4878 101.961 20.3128 101.215 20.3128C100.469 20.3128 99.8224 20.4878 99.2745 20.8379C98.7417 21.1727 98.3307 21.637 98.0415 22.2306C97.7523 22.809 97.6077 23.4788 97.6077 24.2398C97.6077 24.9857 97.7447 25.6554 98.0187 26.249C98.3079 26.8274 98.7189 27.2917 99.2516 27.6418C99.7844 27.9766 100.439 28.1441 101.215 28.1441Z" fill="black"/>
<path d="M114.691 31.5696L117.9 19.5943L120.326 20.2444L118.949 25.3829L118.728 25.3238C119.055 24.1035 119.489 23.1324 120.029 22.4104C120.573 21.6737 121.216 21.1843 121.959 20.942C122.716 20.7037 123.573 20.7125 124.528 20.9686L124.661 21.004C126.087 21.3862 127.043 22.1389 127.53 23.2621C128.021 24.3706 128.022 25.8365 127.534 27.6596L125.696 34.5183L122.63 33.6969L124.539 26.5735C124.736 25.8384 124.682 25.1858 124.378 24.6158C124.089 24.0497 123.576 23.6682 122.841 23.4712C122.091 23.2703 121.418 23.3421 120.822 23.6865C120.244 24.0201 119.85 24.5766 119.642 25.3558L117.757 32.391L114.691 31.5696Z" fill="black"/>
<path d="M136.814 40.5152C135.338 39.6628 134.356 38.6833 133.87 37.5767C133.405 36.4645 133.473 35.3433 134.072 34.2132L136.544 35.6402C136.37 36.0321 136.381 36.4862 136.575 37.0025C136.769 37.5188 137.261 38.0052 138.052 38.4619C138.711 38.8424 139.3 39.0244 139.82 39.0078C140.352 38.9989 140.736 38.7901 140.972 38.3814C141.178 38.0255 141.19 37.6546 141.008 37.2686C140.84 36.8903 140.419 36.4627 139.745 35.9858L138.853 35.339C137.73 34.5146 137.005 33.6391 136.679 32.7125C136.352 31.786 136.456 30.8613 136.988 29.9386C137.415 29.2004 137.957 28.6874 138.615 28.3996C139.273 28.1118 139.998 28.0291 140.788 28.1515C141.6 28.2684 142.427 28.5704 143.271 29.0575C144.589 29.8186 145.489 30.725 145.972 31.7769C146.454 32.8287 146.392 33.9263 145.784 35.0696L143.313 33.6426C143.499 33.2583 143.498 32.8354 143.307 32.3739C143.117 31.9124 142.698 31.4952 142.052 31.1222C141.472 30.7874 140.96 30.6407 140.514 30.6821C140.068 30.7235 139.742 30.9222 139.537 31.2781C139.339 31.6209 139.312 31.9568 139.456 32.2859C139.613 32.6227 139.963 32.9915 140.505 33.3922L141.397 34.0391C142.586 34.9015 143.373 35.8216 143.757 36.7994C144.155 37.7848 144.076 38.7587 143.521 39.721C143.11 40.4328 142.554 40.9382 141.854 41.2371C141.175 41.5305 140.403 41.6205 139.537 41.5072C138.671 41.3938 137.763 41.0632 136.814 40.5152Z" fill="black"/>
<path d="M150.639 51.0957C149.627 50.084 149.175 48.9646 149.283 47.7377C149.401 46.5214 150.117 45.2568 151.43 43.9437L156.515 38.8582L158.759 41.1022L153.48 46.3815C152.942 46.9197 152.662 47.5009 152.641 48.1251C152.63 48.7386 152.883 49.3037 153.399 49.8203C153.916 50.3369 154.503 50.5899 155.159 50.5791C155.826 50.5791 156.445 50.2939 157.016 49.7234L162.198 44.541L164.442 46.7851L155.66 55.5678L153.884 53.7919L157.613 50.0625L157.791 50.2401C156.908 51.1226 156.058 51.7469 155.24 52.1128C154.422 52.4788 153.636 52.5864 152.883 52.4357C152.129 52.285 151.414 51.8707 150.736 51.1926L150.639 51.0957Z" fill="black"/>
<path d="M162.117 65.0625L176.551 56.7289L178.138 59.4774L163.704 67.811L162.117 65.0625ZM173.719 56.5716L175.775 55.3844L178.138 59.4774L176.082 60.6646L173.719 56.5716Z" fill="black"/>
<path d="M170.23 85.5404C169.935 84.4377 169.83 83.4887 169.917 82.6935C170.022 81.909 170.365 81.2497 170.947 80.7156C171.543 80.1776 172.422 79.7529 173.584 79.4417L184.44 76.5564L185.208 79.4234L174.153 82.3619C173.565 82.5195 173.151 82.796 172.91 83.1914C172.688 83.5976 172.656 84.0947 172.813 84.6828L173.316 86.5574L170.691 87.2606L170.23 85.5404ZM178.302 76.1446L180.552 75.5418L182.821 84.0105L180.572 84.6132L178.302 76.1446Z" fill="black"/>
<path d="M172.173 104.032H175.849V103.507H179.936C180.651 103.507 181.184 103.332 181.534 102.982C181.884 102.631 182.059 102.091 182.059 101.36C182.059 100.98 182.052 100.523 182.036 99.9906C182.021 99.4578 181.998 98.9175 181.968 98.3695C181.953 97.8368 181.93 97.3573 181.899 96.9311H184.593C184.624 97.2812 184.654 97.677 184.685 98.1184C184.715 98.5598 184.73 99.0088 184.73 99.4654C184.746 99.9373 184.753 100.379 184.753 100.79C184.753 102.068 184.586 103.126 184.251 103.963C183.916 104.816 183.391 105.455 182.676 105.881C181.96 106.323 181.024 106.543 179.867 106.543H172.173V104.032ZM171.853 100.036C171.853 99.1382 172.013 98.3467 172.333 97.6617C172.652 96.992 173.109 96.4669 173.703 96.0863C174.296 95.721 175.012 95.5384 175.849 95.5384C176.762 95.5384 177.508 95.7591 178.086 96.2005C178.665 96.6571 179.099 97.2888 179.388 98.0955C179.677 98.9175 179.822 99.8764 179.822 100.972V103.849H177.927V100.927C177.927 100.196 177.744 99.6329 177.379 99.2371C177.029 98.8566 176.572 98.6663 176.009 98.6663C175.446 98.6663 174.989 98.8566 174.639 99.2371C174.289 99.6329 174.114 100.196 174.114 100.927C174.114 101.368 174.19 101.771 174.342 102.137C174.509 102.517 174.783 102.829 175.164 103.073C175.56 103.332 176.092 103.476 176.762 103.507L175.872 104.283C175.004 104.207 174.274 103.994 173.68 103.644C173.086 103.309 172.63 102.837 172.31 102.228C172.006 101.634 171.853 100.904 171.853 100.036Z" fill="black"/>
<path d="M168.961 122.263C169.256 121.161 169.64 120.287 170.113 119.641C170.596 119.014 171.223 118.615 171.994 118.443C172.779 118.276 173.753 118.347 174.914 118.659L185.759 121.588L184.991 124.455L173.947 121.472C173.359 121.315 172.862 121.347 172.456 121.569C172.061 121.81 171.784 122.224 171.626 122.812L171.124 124.687L168.5 123.984L168.961 122.263ZM180.649 118.162L182.899 118.765L180.629 127.234L178.38 126.631L180.649 118.162Z" fill="black"/>
<path d="M163.335 135.894L174.071 142.092L172.485 144.841L161.748 138.642L163.335 135.894ZM172.883 139.402L174.939 140.59L172.485 144.841L170.428 143.654L172.883 139.402ZM174.774 143.843C175.086 143.302 175.457 142.98 175.886 142.876C176.321 142.793 176.749 142.874 177.171 143.117C177.619 143.376 177.909 143.711 178.041 144.121C178.166 144.544 178.072 145.026 177.76 145.567C177.448 146.107 177.081 146.423 176.66 146.513C176.239 146.604 175.804 146.52 175.356 146.261C174.934 146.018 174.65 145.687 174.505 145.269C174.372 144.859 174.462 144.383 174.774 143.843Z" fill="black"/>
<path d="M150.935 151.61C151.71 150.835 152.518 150.275 153.357 149.931C154.197 149.586 155.031 149.42 155.859 149.43C156.699 149.452 157.495 149.624 158.249 149.947C158.991 150.281 159.653 150.738 160.235 151.319L160.574 151.658C161.176 152.261 161.639 152.939 161.962 153.692C162.285 154.467 162.452 155.269 162.463 156.098C162.473 156.948 162.301 157.788 161.946 158.617C161.601 159.456 161.058 160.247 160.315 160.99C159.573 161.732 158.782 162.276 157.942 162.62C157.113 162.976 156.279 163.142 155.44 163.121C154.6 163.121 153.798 162.954 153.034 162.62C152.281 162.298 151.603 161.835 151 161.232L150.661 160.893C150.08 160.312 149.628 159.644 149.305 158.891C148.971 158.148 148.794 157.357 148.772 156.518C148.761 155.689 148.928 154.855 149.272 154.015C149.617 153.176 150.171 152.374 150.935 151.61ZM152.857 153.531C152.308 154.08 151.963 154.661 151.823 155.275C151.694 155.899 151.737 156.512 151.952 157.115C152.178 157.729 152.555 158.299 153.083 158.826C153.621 159.365 154.197 159.736 154.81 159.94C155.424 160.166 156.042 160.204 156.667 160.053C157.291 159.924 157.867 159.596 158.394 159.069C158.922 158.541 159.255 157.96 159.395 157.325C159.535 156.712 159.497 156.093 159.282 155.468C159.078 154.855 158.706 154.279 158.168 153.741C157.641 153.214 157.07 152.837 156.457 152.611C155.843 152.406 155.224 152.369 154.6 152.498C153.987 152.638 153.405 152.982 152.857 153.531Z" fill="black"/>
<path d="M140.906 160.637L147.104 171.374L144.929 172.63L142.269 168.023L142.467 167.909C143.099 169.003 143.479 169.996 143.608 170.888C143.744 171.794 143.635 172.595 143.281 173.291C142.914 173.995 142.302 174.595 141.446 175.089L141.327 175.158C140.048 175.896 138.84 176.04 137.701 175.59C136.57 175.153 135.533 174.118 134.589 172.483L131.039 166.334L133.787 164.747L137.475 171.134C137.855 171.793 138.354 172.216 138.973 172.404C139.578 172.6 140.21 172.507 140.869 172.127C141.541 171.739 141.966 171.212 142.145 170.547C142.317 169.902 142.202 169.23 141.799 168.532L138.157 162.224L140.906 160.637Z" fill="black"/>
<defs>
<filter id="filter0_b_259_243" x="-31.1767" y="-30.7114" width="264.12" height="264.12" filterUnits="userSpaceOnUse" color-interpolation-filters="sRGB">
<feFlood flood-opacity="0" result="BackgroundImageFix"/>
<feGaussianBlur in="BackgroundImageFix" stdDeviation="15.78"/>
<feComposite in2="SourceAlpha" operator="in" result="effect1_backgroundBlur_259_243"/>
<feBlend mode="normal" in="SourceGraphic" in2="effect1_backgroundBlur_259_243" result="shape"/>
</filter>
</defs>
</svg>
