<svg width="61" height="61" viewBox="0 0 61 61" fill="none" xmlns="http://www.w3.org/2000/svg">
<rect x="0.976807" y="0.269043" width="60" height="60" rx="15" fill="white"/>
<g clip-path="url(#clip0_243_272)">
<path d="M42.084 39.2058H41.9074C42.1096 39.0187 42.2924 38.7964 42.4509 38.5392C42.862 37.8719 43.1075 36.9714 43.1075 36.1302C43.1075 34.5026 41.7833 33.1785 40.1557 33.1785C38.5281 33.1785 37.2056 34.5026 37.2056 36.1302C37.2056 37.2818 37.617 38.4784 38.4011 39.2058H38.2274C37.1049 39.2058 36.119 39.7639 35.5666 40.5998C35.0143 39.7639 34.0284 39.2058 32.9059 39.2058H32.7281C32.9302 39.0187 33.113 38.7964 33.2714 38.5391C33.6824 37.8718 33.9277 36.9713 33.9277 36.1302C33.9277 34.5026 32.6043 33.1785 30.9776 33.1785C29.3508 33.1785 28.0258 34.5026 28.0258 36.1302C28.0258 37.2818 28.4375 38.4784 29.222 39.2058H29.0493C27.9262 39.2058 26.9397 39.7639 26.387 40.5999C25.8347 39.7639 24.8488 39.2058 23.7262 39.2058H23.5524C24.3365 38.4784 24.7479 37.2818 24.7479 36.1302C24.7479 34.5026 23.4245 33.1785 21.7978 33.1785C20.1711 33.1785 18.8461 34.5026 18.8461 36.1302C18.8461 36.9714 19.0915 37.8719 19.5026 38.5392C19.6611 38.7964 19.8439 39.0187 20.0461 39.2058H19.8695C18.143 39.2058 16.7384 40.524 16.7384 42.1442V43.9397C16.7384 44.1985 16.9483 44.4084 17.2072 44.4084C17.466 44.4084 17.6759 44.1985 17.6759 43.9397V42.1442C17.6759 41.0409 18.6599 40.1433 19.8695 40.1433H23.7261C24.9348 40.1433 25.9181 41.0409 25.9181 42.1442V43.9397C25.9181 44.1985 26.1279 44.4084 26.3868 44.4084C26.6457 44.4084 26.8556 44.1985 26.8556 43.9397V42.1442C26.8556 41.0409 27.8396 40.1433 29.0492 40.1433H32.9057C34.1144 40.1433 35.0977 41.0409 35.0977 42.1442V43.9397C35.0977 44.1985 35.3076 44.4084 35.5664 44.4084C35.8253 44.4084 36.0352 44.1985 36.0352 43.9397V42.1442C36.0352 41.0409 37.0185 40.1433 38.2272 40.1433H42.0837C43.2933 40.1433 44.2773 41.0409 44.2773 42.1442V43.9397C44.2773 44.1985 44.4872 44.4084 44.7461 44.4084C45.005 44.4084 45.2148 44.1985 45.2148 43.9397V42.1442C45.2148 40.524 43.8102 39.2058 42.0837 39.2058H42.084ZM38.1431 36.1302C38.1431 35.0195 39.046 34.1159 40.1557 34.1159C41.2655 34.1159 42.17 35.0195 42.17 36.1302C42.17 37.2242 41.6232 38.96 40.1557 38.96C38.7675 38.96 38.1431 37.3052 38.1431 36.1302ZM28.9634 36.1302C28.9634 35.0195 29.867 34.1159 30.9777 34.1159C32.0883 34.1159 32.9903 35.0195 32.9903 36.1302C32.9903 37.2242 32.4439 38.96 30.9777 38.96C29.5883 38.96 28.9634 37.3052 28.9634 36.1302ZM19.7838 36.1302C19.7838 35.0195 20.6873 34.1159 21.798 34.1159C22.9086 34.1159 23.8106 35.0195 23.8106 36.1302C23.8106 37.3052 23.1862 38.96 21.798 38.96C20.3306 38.96 19.7838 37.2242 19.7838 36.1302Z" fill="black"/>
<path d="M22.389 30.3256C22.7729 30.7115 23.2434 30.9072 23.7877 30.9072C24.3265 30.9072 24.8105 30.7058 25.1865 30.3254L26.4613 29.0424V32.7122C26.4613 32.9711 26.6712 33.181 26.9301 33.181C27.189 33.181 27.3988 32.9711 27.3988 32.7122V27.9056C27.3988 27.7158 27.2843 27.5446 27.1088 27.4723C26.9333 27.3999 26.7314 27.4406 26.5976 27.5752L24.5206 29.6654C24.3182 29.8702 24.0785 29.9697 23.7877 29.9697C23.497 29.9697 23.258 29.8699 23.0541 29.6649L19.6777 26.2618C19.4854 26.0679 19.3801 25.809 19.3811 25.533C19.3822 25.257 19.4894 24.9992 19.6831 24.8071C19.877 24.6148 20.1351 24.5091 20.4102 24.5091H20.4137C20.6896 24.51 20.9474 24.6172 21.1395 24.8109L23.4565 27.1478C23.5444 27.2366 23.6643 27.2865 23.7892 27.2865H23.7894C23.9143 27.2865 24.034 27.2366 24.122 27.148L26.1468 25.1083C26.8502 24.399 27.7133 24.0394 28.7122 24.0394H29.4319C29.4001 24.3107 29.4357 24.5981 29.5279 24.7736C29.5288 24.7753 29.5298 24.7771 29.5307 24.7788C29.6067 24.9189 29.7088 25.0454 29.8298 25.1513L29.1184 30.1549C29.0987 30.2937 29.1421 30.4341 29.2368 30.5375L30.5572 31.9791C30.646 32.076 30.7713 32.1312 30.9027 32.1313H30.9029C31.0342 32.1313 31.1596 32.0762 31.2483 31.9794L32.5704 30.5377C32.6652 30.4343 32.7087 30.2939 32.6889 30.1549L31.9775 25.1513C32.0993 25.0447 32.2014 24.9175 32.2761 24.7769C32.3704 24.6006 32.4071 24.3117 32.3753 24.0396H33.0952C34.0941 24.0396 34.9572 24.3992 35.6606 25.1084L37.6835 27.1479C37.7715 27.2367 37.8913 27.2866 38.0164 27.2865C38.1414 27.2865 38.2612 27.2366 38.3492 27.1478L40.6657 24.8115C40.8586 24.6174 41.117 24.5101 41.3932 24.5092H41.3967C41.6715 24.5092 41.929 24.6148 42.1226 24.8072C42.3168 24.9997 42.4242 25.2579 42.4253 25.5341C42.4263 25.8097 42.3209 26.068 42.1282 26.2618L38.751 29.6655C38.5485 29.8703 38.3088 29.9698 38.018 29.9698C37.7273 29.9698 37.4884 29.8699 37.2844 29.6648L35.2099 27.5754C35.0761 27.4407 34.8742 27.4 34.6987 27.4723C34.5231 27.5446 34.4085 27.7158 34.4085 27.9056V32.7122C34.4085 32.9711 34.6184 33.181 34.8773 33.181C35.1361 33.181 35.346 32.9711 35.346 32.7122V29.0431L36.6193 30.3255C37.0031 30.7115 37.4737 30.9072 38.018 30.9072C38.5622 30.9072 39.0353 30.7112 39.417 30.3251L42.7932 26.9224C43.1623 26.5512 43.3645 26.0569 43.3627 25.5307C43.3608 25.0038 43.1548 24.5104 42.783 24.1419C42.4131 23.774 41.921 23.5716 41.3968 23.5716C41.3945 23.5716 41.3923 23.5716 41.3902 23.5716C40.8637 23.5733 40.3703 23.7788 40.0004 24.1508L38.0163 26.152L36.3262 24.4481C35.4404 23.5549 34.3532 23.102 33.0951 23.102H32.7275C33.0145 22.867 33.2713 22.5702 33.4921 22.2119C33.9603 21.4523 34.2399 20.426 34.2399 19.4667C34.2399 17.6267 32.7429 16.1296 30.9028 16.1296C29.0627 16.1296 27.5657 17.6267 27.5657 19.4667C27.5657 20.8529 28.0888 22.2963 29.0822 23.102H28.7121C27.454 23.102 26.3669 23.5549 25.4811 24.448L23.7894 26.1522L21.8051 24.1508C21.4365 23.779 20.9434 23.5733 20.4167 23.5716C19.8894 23.5684 19.3952 23.7722 19.023 24.1413C18.6513 24.5098 18.4455 25.0028 18.4435 25.5294C18.4416 26.0557 18.6434 26.5502 19.012 26.922L22.3889 30.3255L22.389 30.3256ZM31.4332 24.0766C31.4521 24.144 31.4569 24.2855 31.4417 24.3487C31.4028 24.4148 31.3397 24.4725 31.2663 24.5084C31.084 24.5978 30.9799 24.7943 31.0086 24.9953L31.7297 30.0675L30.9032 30.9688L30.0778 30.0676L30.799 24.9953C30.8276 24.7943 30.7236 24.5977 30.5412 24.5084C30.469 24.473 30.4057 24.4158 30.3651 24.3496C30.3502 24.285 30.3551 24.1439 30.3739 24.0756C30.4086 24.0462 30.459 24.0396 30.4978 24.0396H31.3082C31.3345 24.0396 31.3944 24.0433 31.4333 24.0767L31.4332 24.0766ZM28.5033 19.4667C28.5033 18.1436 29.5797 17.0671 30.9029 17.0671C32.226 17.0671 33.3025 18.1436 33.3025 19.4667C33.3025 20.7585 32.651 22.808 30.9029 22.808C29.1547 22.808 28.5033 20.7585 28.5033 19.4667Z" fill="black"/>
<path d="M36.8505 22.1195H37.1656V23.2934C37.1656 23.4738 37.2692 23.6382 37.4318 23.7161C37.4963 23.747 37.5655 23.7622 37.6343 23.7621C37.7392 23.7621 37.8432 23.7269 37.9281 23.6587L39.8424 22.1195H42.2085C42.9258 22.1195 43.5094 21.536 43.5094 20.8187V17.4305C43.5094 16.7132 42.9258 16.1296 42.2085 16.1296H36.8505C36.1332 16.1296 35.5497 16.7132 35.5497 17.4305V20.8187C35.5497 21.536 36.1332 22.1195 36.8505 22.1195H36.8505ZM36.4871 17.4305C36.4871 17.2301 36.6501 17.0671 36.8505 17.0671H42.2085C42.4088 17.0671 42.5718 17.2301 42.5718 17.4305V20.8187C42.5718 21.019 42.4088 21.182 42.2085 21.182H39.6773C39.5704 21.182 39.4668 21.2185 39.3835 21.2854L38.1031 22.315V21.6508C38.1031 21.3919 37.8932 21.182 37.6343 21.182H36.8504C36.6501 21.182 36.4871 21.019 36.4871 20.8187V17.4305H36.4871Z" fill="black"/>
<path d="M37.7723 20.3572H41.2867C41.5455 20.3572 41.7554 20.1473 41.7554 19.8884C41.7554 19.6296 41.5455 19.4197 41.2867 19.4197H37.7723C37.5134 19.4197 37.3035 19.6296 37.3035 19.8884C37.3035 20.1473 37.5134 20.3572 37.7723 20.3572Z" fill="black"/>
<path d="M38.9681 18.8293H41.2867C41.5456 18.8293 41.7554 18.6195 41.7554 18.3606C41.7554 18.1017 41.5456 17.8918 41.2867 17.8918H38.9681C38.7093 17.8918 38.4994 18.1017 38.4994 18.3606C38.4994 18.6195 38.7093 18.8293 38.9681 18.8293Z" fill="black"/>
<path d="M37.7728 18.8293C38.0317 18.8293 38.2416 18.6195 38.2416 18.3606C38.2416 18.1017 38.0317 17.8918 37.7728 17.8918H37.7722C37.5134 17.8918 37.3038 18.1017 37.3038 18.3606C37.3038 18.6195 37.5139 18.8293 37.7728 18.8293Z" fill="black"/>
</g>
<defs>
<clipPath id="clip0_243_272">
<rect width="30" height="30" fill="white" transform="translate(15.9768 15.269)"/>
</clipPath>
</defs>
</svg>
