<svg width="61" height="61" viewBox="0 0 61 61" fill="none" xmlns="http://www.w3.org/2000/svg">
<rect x="0.976807" y="0.269043" width="60" height="60" rx="15" fill="white"/>
<g clip-path="url(#clip0_243_268)">
<path d="M45.107 20.1159L40.0248 15.8911C39.9412 15.8216 39.8334 15.7881 39.7248 15.7981C39.6164 15.8082 39.5165 15.8608 39.447 15.9446L37.9882 17.7023C37.9574 17.6919 37.9261 17.6823 37.8944 17.6736C37.8917 17.6729 37.889 17.6722 37.8863 17.6714L36.4504 17.3068C36.4419 17.3047 36.4335 17.3028 36.425 17.3012C35.2235 17.0757 34.2474 17.7237 33.9958 18.9127C33.9611 19.0768 33.9236 19.2571 33.8836 19.4494C33.5807 20.9048 33.1255 23.0924 32.6677 24.1118C31.5783 25.4245 30.9137 26.1933 30.682 26.4087C30.4783 26.4319 30.3043 26.4491 30.1481 26.4647C29.6465 26.5143 29.3438 26.5442 28.9941 26.6838C28.2116 26.9959 27.0277 27.9063 25.9832 28.7095C25.6451 28.9694 25.3258 29.2149 25.0666 29.403C24.3083 29.9532 24.1149 30.9961 24.6262 31.7772C24.9403 32.2572 25.3459 32.4411 25.7685 32.4718L19.6167 39.8489C19.547 39.9326 19.5133 40.0405 19.5232 40.1489C19.5331 40.2574 19.5858 40.3574 19.6695 40.427L24.7459 44.647C24.8199 44.7085 24.9127 44.7418 25.0081 44.7418C25.0207 44.7418 25.0333 44.7412 25.046 44.74C25.1544 44.73 25.2543 44.6773 25.3238 44.5935L26.8793 42.719C27.1591 42.9719 27.5167 43.1102 27.8946 43.1102H27.8957C28.2802 43.11 28.6436 42.9665 28.9254 42.7051C28.9581 42.7464 28.9929 42.7862 29.0297 42.8243C29.3223 43.1266 29.7064 43.2931 30.1112 43.2931H30.1124C30.9168 43.2925 31.5768 42.6633 31.6269 41.8716C31.8409 41.9836 32.0796 42.0429 32.3272 42.0429H32.3281C32.7324 42.0426 33.1134 41.8841 33.4006 41.5965C33.688 41.3089 33.8461 40.9278 33.8458 40.5234L33.8452 39.7904C34.0584 39.9013 34.296 39.9601 34.5422 39.9601H34.5434C34.9477 39.9599 35.3286 39.8014 35.616 39.5138C35.9033 39.2262 36.0614 38.845 36.0611 38.4429L36.0935 31.619L36.8647 30.6899L37.0063 30.8113C37.2893 31.054 37.6374 31.1729 37.984 31.1729C38.4078 31.1729 38.8294 30.995 39.1262 30.6489C39.1308 30.6436 39.1351 30.6382 39.1394 30.6327C39.4063 30.2876 39.5185 29.8897 39.4825 29.5111C39.8807 29.4914 40.2705 29.3148 40.5498 28.9891C40.5543 28.9838 40.5587 28.9784 40.563 28.9729C40.8303 28.6272 40.9424 28.2288 40.906 27.8498C40.9197 27.8491 40.9333 27.8493 40.947 27.8482C41.3482 27.8175 41.7127 27.6332 41.9735 27.3293C41.978 27.324 41.9823 27.3186 41.9867 27.3132C42.2512 26.971 42.3625 26.5711 42.3277 26.1916C42.7266 26.1724 43.1172 25.9959 43.3971 25.6696C43.9367 25.0403 43.864 24.0893 43.2347 23.5495L42.9752 23.327L45.1608 20.6934C45.305 20.519 45.281 20.2606 45.107 20.1159ZM34.6867 19.6165C34.7266 19.4251 34.7638 19.2457 34.7984 19.0824C34.8519 18.8292 35.0849 18.0755 35.9493 18.0755C36.0454 18.0755 36.1493 18.0848 36.2617 18.1052L37.6798 18.4653C37.9117 18.5302 38.1055 18.6824 38.2256 18.894C38.3464 19.1067 38.3775 19.3524 38.3131 19.5858C38.1795 20.0706 37.6764 20.3562 37.192 20.2227L36.3558 19.9916C36.1998 19.9486 36.033 20.0012 35.93 20.1261C35.8468 20.2271 35.6673 20.4481 35.4221 20.7498C34.9308 21.3545 34.4767 21.9116 34.0596 22.4212C34.3015 21.4675 34.5173 20.4303 34.6867 19.6165ZM24.9546 43.7538L20.5098 40.0588L26.3769 33.023L26.3761 41.5926C26.3762 41.7251 26.3933 41.8551 26.4263 41.9801L24.9546 43.7538ZM38.4965 30.1224C38.379 30.2554 38.2162 30.336 38.0368 30.3498C37.8542 30.3636 37.6775 30.3065 37.54 30.1885L36.3897 29.202C36.0535 28.9137 36.1133 28.5085 36.3226 28.231C36.5683 27.9528 36.9946 27.9221 37.2779 28.1638L38.4294 29.1514L38.4299 29.1518C38.7657 29.4402 38.7058 29.8452 38.4965 30.1224ZM39.9201 28.4625C39.6739 28.7413 39.2469 28.7717 38.9635 28.5287L37.3516 27.1462C37.0153 26.8578 37.0751 26.4525 37.2845 26.1751C37.5307 25.8966 37.9571 25.8662 38.2404 26.1084C38.2406 26.1086 38.2408 26.1088 38.241 26.109L39.853 27.4915C39.853 27.4915 39.853 27.4916 39.8531 27.4916C39.8531 27.4916 39.8532 27.4916 39.8532 27.4917C40.1893 27.7802 40.1295 28.1852 39.9201 28.4625ZM41.3437 26.8028C41.2261 26.9358 41.0633 27.0164 40.8839 27.0302C40.7015 27.0443 40.5247 26.987 40.3871 26.8689L38.7752 25.4864C38.4389 25.198 38.4986 24.7928 38.708 24.5154C38.954 24.237 39.3805 24.2065 39.6638 24.4485C39.6639 24.4486 39.664 24.4486 39.6642 24.4488C39.6644 24.4489 39.6645 24.449 39.6647 24.4492L41.2766 25.8317C41.2773 25.8323 41.2781 25.8329 41.2789 25.8335C41.2796 25.8341 41.2803 25.8349 41.2811 25.8355C41.6015 26.1026 41.5553 26.522 41.3437 26.8028ZM42.774 25.1353C42.656 25.2729 42.4903 25.3564 42.3075 25.3704C42.1244 25.3844 41.9483 25.3271 41.8107 25.2091L40.1987 23.8265C39.8625 23.5381 39.9222 23.133 40.1316 22.8555C40.2491 22.7225 40.412 22.6418 40.5914 22.6281C40.7739 22.6142 40.9506 22.6714 41.0883 22.7894L42.7002 24.1719C42.9813 24.4131 43.0151 24.8542 42.774 25.1353ZM42.3521 22.7927L41.6223 22.1668C41.3184 21.9061 40.9299 21.7796 40.5288 21.8103C40.1275 21.841 39.763 22.0253 39.5023 22.3292C39.4978 22.3345 39.4935 22.3398 39.4891 22.3453C39.222 22.6907 39.1099 23.0887 39.146 23.4674C38.7477 23.4872 38.3579 23.6634 38.0786 23.989C38.0741 23.9942 38.0697 23.9996 38.0655 24.0051C37.7985 24.3505 37.6863 24.7485 37.7223 25.127C37.3241 25.1468 36.9344 25.323 36.6551 25.6487C36.6506 25.654 36.6462 25.6594 36.6419 25.6649C36.265 26.1525 36.1961 26.7449 36.4182 27.2397C36.1452 27.3179 35.8914 27.4736 35.6933 27.7046C35.6888 27.7098 35.6844 27.7152 35.6801 27.7207C35.154 28.4013 35.2278 29.2861 35.8557 29.8246L36.2416 30.1555L35.3682 31.2081C35.3075 31.2812 35.2741 31.3731 35.2736 31.4681L35.2405 38.4412C35.2407 38.6264 35.1679 38.8014 35.0355 38.9339C34.903 39.0665 34.728 39.1396 34.5422 39.1397C34.3572 39.1397 34.1823 39.0668 34.0499 38.9346C33.9202 38.8052 33.8475 38.635 33.8443 38.4544L33.843 36.6485C33.8428 36.4221 33.6593 36.2386 33.4326 36.2386C33.2061 36.2388 33.0226 36.4226 33.0227 36.6491L33.0253 40.5239C33.0255 40.7091 32.9526 40.8841 32.8201 41.0167C32.6877 41.1493 32.5127 41.2223 32.327 41.2224C32.142 41.2224 31.967 41.1496 31.8346 41.0173C31.706 40.8889 31.6333 40.7204 31.629 40.5414L31.6267 37.0016C31.6265 36.7752 31.4429 36.5918 31.2162 36.5918C30.9897 36.592 30.8062 36.7757 30.8063 37.0022L30.8096 41.774C30.8099 42.1589 30.4968 42.4723 30.1112 42.4726C29.8028 42.4729 29.5299 42.2396 29.4367 41.9532C29.3968 41.8305 29.4133 41.7162 29.4132 41.5905L29.4102 37.1546C29.4101 36.9282 29.2265 36.7448 28.9998 36.7448C28.7733 36.7449 28.5897 36.9287 28.5899 37.1552L28.5929 41.5911C28.5933 41.7755 28.5178 41.9537 28.3878 42.0839C28.2553 42.2165 28.0803 42.2896 27.8946 42.2897C27.7095 42.2897 27.5347 42.2168 27.4022 42.0845C27.2696 41.9521 27.1966 41.7772 27.1964 41.5922L27.1973 31.9001C27.1981 31.8652 27.1944 31.8299 27.186 31.7947C27.1811 31.7744 27.1748 31.7546 27.167 31.7355C27.1359 31.659 27.0837 31.5965 27.0191 31.5522C26.9978 31.5375 26.9749 31.5249 26.9506 31.5143C26.8613 31.4754 26.7576 31.468 26.6578 31.5013C25.7236 31.8118 25.4885 31.5965 25.3127 31.3279C25.0414 30.9135 25.145 30.3595 25.5484 30.0668C25.8168 29.872 26.1405 29.6231 26.4832 29.3596C27.4359 28.6271 28.6213 27.7154 29.2981 27.4455C29.54 27.349 29.7703 27.3261 30.229 27.2808C30.4151 27.2624 30.6259 27.2414 30.8837 27.2109C31.0918 27.1863 31.1867 27.175 33.1795 24.7807C34.2116 23.5406 36.306 20.9629 36.3952 20.8533L36.9739 21.0132C37.8951 21.2671 38.8502 20.7244 39.104 19.8036C39.2266 19.3589 39.168 18.892 38.939 18.4888C38.8677 18.363 38.7825 18.2484 38.6856 18.1464L39.8161 16.7842L44.2676 20.4845L42.3521 22.7927ZM20.0173 32.1284C20.2438 32.1284 20.4275 31.9448 20.4275 31.7182C20.4275 30.3406 21.5482 29.2199 22.9258 29.2199C23.1523 29.2199 23.3359 29.0363 23.3359 28.8098C23.3359 28.5832 23.1523 28.3996 22.9258 28.3996C21.5482 28.3996 20.4275 27.2789 20.4275 25.9012C20.4275 25.6747 20.2438 25.4911 20.0173 25.4911C19.7908 25.4911 19.6071 25.6747 19.6071 25.9012C19.6071 27.2788 18.4864 28.3996 17.1088 28.3996C16.8822 28.3996 16.6986 28.5832 16.6986 28.8098C16.6986 29.0363 16.8822 29.2199 17.1088 29.2199C18.4864 29.2199 19.6071 30.3406 19.6071 31.7182C19.6071 31.9448 19.7908 32.1284 20.0173 32.1284ZM18.7059 28.8098C19.2572 28.5058 19.7134 28.0496 20.0174 27.4983C20.3213 28.0496 20.7775 28.5058 21.3288 28.8098C20.7775 29.1137 20.3213 29.5699 20.0174 30.1212C19.7134 29.5699 19.2572 29.1137 18.7059 28.8098ZM17.1088 19.5252C18.4864 19.5252 19.6072 20.6459 19.6072 22.0235C19.6072 22.25 19.7908 22.4337 20.0174 22.4337C20.2439 22.4337 20.4275 22.25 20.4275 22.0235C20.4275 20.6459 21.5482 19.5252 22.9258 19.5252C23.1524 19.5252 23.336 19.3415 23.336 19.115C23.336 18.8885 23.1524 18.7049 22.9258 18.7049C21.5482 18.7049 20.4275 17.5841 20.4275 16.2065C20.4275 15.98 20.2439 15.7964 20.0174 15.7964C19.7908 15.7964 19.6072 15.98 19.6072 16.2065C19.6072 17.5841 18.4864 18.7049 17.1088 18.7049C16.8823 18.7049 16.6987 18.8885 16.6987 19.115C16.6987 19.3415 16.8823 19.5252 17.1088 19.5252ZM20.0173 17.8036C20.3213 18.3549 20.7774 18.811 21.3287 19.115C20.7774 19.419 20.3213 19.8752 20.0173 20.4265C19.7133 19.8752 19.2572 19.419 18.7059 19.115C19.2572 18.8111 19.7134 18.3549 20.0173 17.8036ZM22.2596 24.0467C22.2596 24.2732 22.4432 24.4568 22.6697 24.4568C24.0473 24.4568 25.1681 25.5776 25.1681 26.9552C25.1681 27.1817 25.3517 27.3653 25.5783 27.3653C25.8048 27.3653 25.9884 27.1817 25.9884 26.9552C25.9884 25.5776 27.1091 24.4568 28.4867 24.4568C28.7133 24.4568 28.8969 24.2732 28.8969 24.0467C28.8969 23.8202 28.7133 23.6365 28.4867 23.6365C27.1091 23.6365 25.9884 22.5158 25.9884 21.1382C25.9884 20.9117 25.8048 20.728 25.5783 20.728C25.3517 20.728 25.1681 20.9117 25.1681 21.1382C25.1681 22.5158 24.0473 23.6365 22.6697 23.6365C22.4432 23.6365 22.2596 23.8202 22.2596 24.0467ZM25.5783 22.7352C25.8822 23.2865 26.3384 23.7427 26.8897 24.0467C26.3384 24.3507 25.8822 24.8068 25.5783 25.3581C25.2743 24.8068 24.8181 24.3507 24.2668 24.0467C24.8181 23.7427 25.2743 23.2865 25.5783 22.7352Z" fill="black"/>
</g>
<defs>
<clipPath id="clip0_243_268">
<rect width="30" height="30" fill="white" transform="translate(15.9768 15.269)"/>
</clipPath>
</defs>
</svg>
