<svg width="35" height="32" viewBox="0 0 35 32" fill="none" xmlns="http://www.w3.org/2000/svg">
<path d="M19.6833 30.3217H2.21742C0.907474 30.3217 0.0341797 29.367 0.0341797 27.9348C0.0341797 26.5026 0.907474 25.5479 2.21742 25.5479H19.6833C20.9932 25.5479 21.8665 26.5026 21.8665 27.9348C21.8665 29.367 20.9932 30.3217 19.6833 30.3217Z" fill="black"/>
<path d="M32.7827 18.3872H2.21742C0.907474 18.3872 0.0341797 17.4324 0.0341797 16.0002C0.0341797 14.5681 0.907474 13.6133 2.21742 13.6133H32.7827C34.0927 13.6133 34.966 14.5681 34.966 16.0002C34.966 17.4324 34.0927 18.3872 32.7827 18.3872Z" fill="black"/>
<path d="M32.7827 6.4526H15.3168C14.0068 6.4526 13.1335 5.49783 13.1335 4.06566C13.1335 2.63349 14.0068 1.67871 15.3168 1.67871H32.7827C34.0926 1.67871 34.9659 2.63349 34.9659 4.06566C34.9659 5.49783 34.0926 6.4526 32.7827 6.4526Z" fill="black"/>
</svg>
