<svg width="308" height="66" viewBox="0 0 308 66" fill="none" xmlns="http://www.w3.org/2000/svg">
<g clip-path="url(#clip0_380_198)">
<path d="M42.096 16.5658C44.1894 16.5658 45.8864 14.8712 45.8864 12.7808C45.8864 10.6903 44.1894 8.9957 42.096 8.9957C40.0026 8.9957 38.3056 10.6903 38.3056 12.7808C38.3056 14.8712 40.0026 16.5658 42.096 16.5658Z" fill="black"/>
<path d="M189.754 44.6041C188.333 45.1513 186.802 45.4228 185.163 45.4228C183.44 45.4228 181.842 45.1307 180.367 44.5424C178.892 43.9561 177.607 43.125 176.515 42.0451C175.421 40.9671 174.566 39.7123 173.952 38.2806C173.336 36.8468 173.031 35.2731 173.031 33.5534C173.031 31.8336 173.338 30.2579 173.952 28.8261C174.566 27.3923 175.421 26.1375 176.515 25.0596C177.607 23.9817 178.892 23.1485 180.367 22.5623C181.842 21.9739 183.44 21.6818 185.163 21.6818C186.885 21.6818 188.333 21.9472 189.754 22.48C191.174 23.0128 192.471 23.8788 193.648 25.0802L195.574 23.1547C194.317 21.7641 192.774 20.7191 190.943 20.0238C189.112 19.3285 187.157 18.9788 185.08 18.9788C183.004 18.9788 180.927 19.3409 179.096 20.065C177.265 20.787 175.674 21.8053 174.321 23.1136C172.969 24.4239 171.917 25.9647 171.165 27.74C170.413 29.5153 170.038 31.451 170.038 33.5534C170.038 35.6557 170.413 37.5914 171.165 39.3647C171.917 41.1399 172.961 42.6807 174.302 43.9911C175.639 45.2994 177.225 46.3177 179.055 47.0397C180.886 47.7638 182.882 48.1259 185.039 48.1259C187.196 48.1259 189.112 47.77 190.943 47.0603C192.774 46.3526 194.317 45.2994 195.574 43.9088L193.648 41.9854C192.471 43.1868 191.174 44.059 189.754 44.6041Z" fill="black"/>
<path d="M225.431 27.7421C224.679 25.9668 223.627 24.426 222.273 23.1156C220.922 21.8073 219.33 20.7891 217.498 20.067C215.667 19.345 213.673 18.9809 211.514 18.9809C209.355 18.9809 207.32 19.3429 205.489 20.067C203.657 20.7891 202.067 21.8135 200.716 23.1362C199.362 24.461 198.309 26.0018 197.558 27.7626C196.806 29.5235 196.431 31.4531 196.431 33.5554C196.431 35.6578 196.806 37.5853 197.558 39.3462C198.309 41.107 199.362 42.6499 200.716 43.9726C202.067 45.2953 203.665 46.3197 205.509 47.0418C207.355 47.7659 209.357 48.1279 211.514 48.1279C213.671 48.1279 215.667 47.7659 217.498 47.0418C219.33 46.3197 220.922 45.3015 222.273 43.9931C223.627 42.6828 224.679 41.142 225.431 39.3667C226.181 37.5935 226.558 35.6557 226.558 33.5554C226.558 31.4551 226.181 29.5173 225.431 27.7421ZM222.624 38.2826C222.022 39.7144 221.182 40.9692 220.102 42.0471C219.023 43.125 217.752 43.9582 216.289 44.5444C214.829 45.1328 213.236 45.4249 211.514 45.4249C209.792 45.4249 208.195 45.1328 206.72 44.5444C205.243 43.9582 203.966 43.1271 202.887 42.0471C201.807 40.9692 200.961 39.7082 200.345 38.2621C199.731 36.8159 199.424 35.2464 199.424 33.5554C199.424 31.8645 199.731 30.2599 200.345 28.8282C200.961 27.3944 201.805 26.1396 202.887 25.0617C203.966 23.9837 205.243 23.1506 206.72 22.5643C208.195 21.976 209.794 21.6839 211.514 21.6839C213.234 21.6839 214.829 21.976 216.289 22.5643C217.75 23.1506 219.021 23.9817 220.102 25.0617C221.182 26.1396 222.022 27.3944 222.624 28.8282C223.223 30.2599 223.524 31.8357 223.524 33.5554C223.524 35.2752 223.223 36.8488 222.624 38.2826Z" fill="black"/>
<path d="M255.128 47.879H251.929L248.499 40.2245L247.399 37.7684L240.494 22.3607L233.591 37.7684L232.489 40.2245L229.059 47.879H225.903L239.019 19.2277H242.01L255.128 47.879Z" fill="black"/>
<path d="M274.185 44.6041C272.764 45.1513 271.235 45.4228 269.596 45.4228C267.873 45.4228 266.275 45.1307 264.8 44.5424C263.325 43.9561 262.039 43.125 260.946 42.0451C259.852 40.9671 258.999 39.7123 258.383 38.2806C257.769 36.8468 257.462 35.2731 257.462 33.5534C257.462 31.8336 257.769 30.2579 258.383 28.8261C258.999 27.3923 259.852 26.1375 260.946 25.0596C262.039 23.9817 263.323 23.1485 264.8 22.5623C266.275 21.9739 267.873 21.6818 269.596 21.6818C271.318 21.6818 272.764 21.9472 274.185 22.48C275.607 23.0128 276.904 23.8788 278.081 25.0802L280.007 23.1547C278.748 21.7641 277.205 20.7191 275.374 20.0238C273.542 19.3285 271.59 18.9788 269.513 18.9788C267.437 18.9788 265.36 19.3409 263.529 20.065C261.698 20.787 260.107 21.8053 258.754 23.1136C257.4 24.4239 256.35 25.9647 255.598 27.74C254.846 29.5153 254.469 31.451 254.469 33.5534C254.469 35.6557 254.846 37.5914 255.598 39.3647C256.348 41.1399 257.394 42.6807 258.733 43.9911C260.072 45.2994 261.656 46.3177 263.488 47.0397C265.319 47.7638 267.313 48.1259 269.472 48.1259C271.631 48.1259 273.542 47.77 275.374 47.0603C277.205 46.3526 278.748 45.2994 280.007 43.9088L278.081 41.9854C276.904 43.1868 275.607 44.059 274.185 44.6041Z" fill="black"/>
<path d="M308 31.9982V47.879H305.009V34.6601H287.056V47.879H284.024V19.2277H287.056V31.9982H305.009H308Z" fill="black"/>
<path d="M84.7667 36.1042C84.1384 35.1003 83.3206 34.2919 82.3153 33.6768C81.31 33.0638 80.1997 32.5762 78.9822 32.2121C77.7668 31.8501 76.5514 31.5271 75.336 31.2494C74.1206 30.9696 73.0103 30.6919 72.005 30.4122C70.9998 30.1324 70.1881 29.7621 69.5722 29.3013C68.9583 28.8426 68.6514 28.2358 68.6514 27.4808C68.6514 26.839 68.8347 26.2753 69.1973 25.7857C69.5598 25.2982 70.1593 24.8991 70.9998 24.5926C71.8382 24.2861 72.9135 24.1339 74.2257 24.1339C75.5379 24.1339 76.879 24.3232 78.2489 24.6975C79.6188 25.074 80.9866 25.6541 82.3565 26.4358L84.4515 21.2869C83.0816 20.4229 81.5037 19.7749 79.7156 19.3409C77.9255 18.9089 76.1106 18.6908 74.2669 18.6908C71.5024 18.6908 69.2034 19.1022 67.3742 19.9271C65.5428 20.75 64.175 21.8526 63.2665 23.2329C62.3581 24.6153 61.9028 26.1416 61.9028 27.8161C61.9028 29.3774 62.2159 30.6611 62.8442 31.6649C63.4746 32.6688 64.2904 33.4793 65.2977 34.0923C66.303 34.7074 67.4133 35.2093 68.6287 35.5981C69.8441 35.989 71.0595 36.3181 72.2749 36.5814C73.4923 36.8468 74.6027 37.1265 75.608 37.4186C76.6132 37.7108 77.4228 38.0872 78.0387 38.548C78.6526 39.0088 78.9596 39.63 78.9596 40.4117C78.9596 41.0247 78.7639 41.5699 78.3725 42.043C77.9831 42.5182 77.3734 42.8864 76.5494 43.1518C75.7254 43.4172 74.6418 43.5488 73.3028 43.5488C71.5415 43.5488 69.8029 43.2629 68.0849 42.691C66.3648 42.1212 64.8795 41.3868 63.6209 40.494L61.3157 45.5997C62.63 46.6057 64.3625 47.4223 66.5131 48.0497C68.6637 48.6772 70.9132 48.9898 73.2596 48.9898C76.0529 48.9898 78.3663 48.5722 80.1976 47.735C82.0269 46.8978 83.403 45.7952 84.3259 44.4292C85.2467 43.0613 85.7102 41.5555 85.7102 39.9098C85.7102 38.3752 85.395 37.106 84.7667 36.1001V36.1042Z" fill="black"/>
<path d="M90.3616 19.1969V48.4941H97.1514V19.1969H90.3616Z" fill="black"/>
<path d="M100.798 19.1969V24.7222H110.187V48.4941H116.977V24.7222H126.366V19.1969H100.8H100.798Z" fill="black"/>
<path d="M163.077 48.4941C159.557 48.4941 156.702 45.6491 156.693 42.1335L156.669 30.91L148.818 44.0775C148.33 44.8962 147.446 45.3961 146.492 45.3961C145.547 45.3961 144.671 44.9044 144.181 44.0981L136.38 31.2864V42.1315C136.38 45.645 133.527 48.492 130.01 48.492V19.1989H130.101C133.531 19.1989 136.709 20.9906 138.481 23.9241L146.616 37.3898L154.578 23.9858C156.341 21.0174 159.54 19.1989 162.995 19.1989L163.079 48.4961L163.077 48.4941Z" fill="black"/>
<path d="M61.5979 62.83C61.5979 60.7935 62.6073 59.5037 64.6364 59.5037C66.3009 59.5037 67.1558 60.3039 67.4051 61.7274L66.3009 61.9557C66.0825 61.0095 65.5923 60.5322 64.6261 60.5322C63.2933 60.5322 62.7845 61.4147 62.7845 62.83C62.7845 64.161 63.3366 64.9817 64.6673 64.9817C65.9981 64.9817 66.3648 64.2844 66.3854 63.5582H64.6364V62.5914H67.4978V65.8642H66.406V64.4716H66.303C66.0228 65.3129 65.4089 65.9671 64.2327 65.9671C62.6815 65.9671 61.6 64.918 61.6 62.828L61.5979 62.83ZM66.3957 63.5788V63.5582H66.3854L66.3957 63.5788Z" fill="black"/>
<path d="M76.4608 65.8642H75.2742V59.6292H79.7815V60.6577H76.4608V62.1964H79.4684V63.2147H76.4608V64.8357H79.7712V65.8642H76.4608Z" fill="black"/>
<path d="M86.8782 60.7194V59.6292H91.9149V60.7194H89.9888V65.8642H88.8022V60.7194H86.8761H86.8782Z" fill="black"/>
<path d="M107.651 62.7374C107.651 60.7215 108.817 59.4955 110.69 59.4955C112.313 59.4955 113.281 60.378 113.499 61.8755L112.364 62.0936C112.167 61.0856 111.656 60.5343 110.667 60.5343C109.398 60.5343 108.836 61.46 108.836 62.7374C108.836 64.1095 109.398 64.9715 110.657 64.9715C111.707 64.9715 112.187 64.4099 112.395 63.371L113.52 63.5788C113.312 65.0867 112.313 66 110.659 66C108.743 66 107.651 64.7431 107.651 62.7374Z" fill="black"/>
<path d="M120.798 62.7251C120.798 60.7709 121.974 59.4934 123.921 59.4934C125.868 59.4934 127.044 60.7709 127.044 62.7251C127.044 64.6793 125.919 66 123.921 66C121.923 66 120.798 64.6999 120.798 62.7251ZM125.855 62.7251C125.855 61.4044 125.252 60.5322 123.919 60.5322C122.586 60.5322 121.972 61.425 121.972 62.7251C121.972 64.0252 122.566 64.9694 123.909 64.9694C125.252 64.9694 125.855 64.0869 125.855 62.7251Z" fill="black"/>
<path d="M135.71 64.2741L135.169 65.8642H133.941L136.262 59.6292H137.865L140.187 65.8642H138.918L138.366 64.2741H135.712H135.71ZM136.917 60.6577C136.72 61.3016 136.512 61.9578 136.283 62.6223L136.013 63.3916H138.063L137.803 62.6223C137.575 61.9578 137.367 61.3016 137.189 60.6577H136.92H136.917Z" fill="black"/>
<path d="M146.836 62.7374C146.836 60.7215 148.002 59.4955 149.875 59.4955C151.498 59.4955 152.466 60.378 152.685 61.8755L151.55 62.0936C151.352 61.0856 150.841 60.5343 149.852 60.5343C148.583 60.5343 148.021 61.46 148.021 62.7374C148.021 64.1095 148.583 64.9715 149.842 64.9715C150.892 64.9715 151.372 64.4099 151.581 63.371L152.705 63.5788C152.497 65.0867 151.498 66 149.844 66C147.928 66 146.836 64.7431 146.836 62.7374Z" fill="black"/>
<path d="M160.305 59.6292H161.491V62.2273H164.509V59.6292H165.696V65.8642H164.509V63.2867H161.491V65.8642H160.305V59.6292Z" fill="black"/>
<path d="M174.803 65.8642H173.616V59.6292H178.124V60.6577H174.803V62.1964H177.81V63.2147H174.803V64.8357H178.113V65.8642H174.803Z" fill="black"/>
<path d="M185.888 65.8642V59.6292H188.428C190.582 59.6292 191.571 60.7091 191.571 62.6942C191.571 64.6793 190.374 65.8642 188.428 65.8642H185.888ZM187.074 64.8871H188.333C189.8 64.8871 190.383 64.0972 190.383 62.6942C190.383 61.2913 189.769 60.6166 188.269 60.6166H187.072V64.8871H187.074Z" fill="black"/>
<path d="M207.431 62.83C207.431 60.7935 208.44 59.5037 210.47 59.5037C212.134 59.5037 212.989 60.3039 213.238 61.7274L212.134 61.9557C211.916 61.0095 211.425 60.5322 210.459 60.5322C209.126 60.5322 208.618 61.4147 208.618 62.83C208.618 64.161 209.17 64.9817 210.5 64.9817C211.831 64.9817 212.198 64.2844 212.219 63.5582H210.47V62.5914H213.331V65.8642H212.239V64.4716H212.136C211.856 65.3129 211.242 65.9671 210.066 65.9671C208.515 65.9671 207.433 64.918 207.433 62.828L207.431 62.83ZM212.229 63.5788V63.5582H212.219L212.229 63.5788Z" fill="black"/>
<path d="M222.294 65.8642H221.107V59.6292H225.615V60.6577H222.294V62.1964H225.302V63.2147H222.294V64.8357H225.604V65.8642H222.294Z" fill="black"/>
<path d="M232.711 60.7194V59.6292H237.748V60.7194H235.822V65.8642H234.635V60.7194H232.709H232.711Z" fill="black"/>
<path d="M253.808 59.6292H254.994V62.2273H258.012V59.6292H259.199V65.8642H258.012V63.2867H254.994V65.8642H253.808V59.6292Z" fill="black"/>
<path d="M268.306 65.8642H267.119V59.6292H268.306V65.8642Z" fill="black"/>
<path d="M277.413 63.5274V65.8663H276.227V59.6312H278.849C280.421 59.6312 281.15 60.2854 281.15 61.5238C281.15 62.5112 280.651 63.1448 279.766 63.4039L281.515 65.7532V65.8684H280.13L278.579 63.5294H277.413V63.5274ZM277.413 60.6269V62.5297H278.746C279.568 62.5297 279.984 62.2067 279.984 61.5526C279.984 60.8984 279.65 60.6269 278.767 60.6269H277.413Z" fill="black"/>
<path d="M290.183 65.8642H288.997V59.6292H293.504V60.6577H290.183V62.1964H293.191V63.2147H290.183V64.8357H293.493V65.8642H290.183Z" fill="black"/>
<path d="M301.268 65.8642V59.6292H303.808C305.963 59.6292 306.951 60.7091 306.951 62.6942C306.951 64.6793 305.755 65.8642 303.808 65.8642H301.268ZM302.454 64.8871H303.713C305.18 64.8871 305.763 64.0972 305.763 62.6942C305.763 61.2913 305.149 60.6166 303.649 60.6166H302.452V64.8871H302.454Z" fill="black"/>
<mask id="mask0_380_198" style="mask-type:luminance" maskUnits="userSpaceOnUse" x="11" y="4" width="10" height="9">
<path d="M20.4887 7.76966C20.4887 10.1374 18.5667 12.0525 16.1998 12.0525C13.8329 12.0525 11.9088 10.1374 11.9088 7.76966C11.9088 7.56806 11.9232 7.37264 11.95 7.17927C11.95 7.17927 15.6539 4.64698 19.3392 4.85269C20.054 5.61793 20.4887 6.64237 20.4887 7.76966Z" fill="white"/>
</mask>
<g mask="url(#mask0_380_198)">
<path d="M12.1354 4.64493H11.9088V12.0505H12.1354V4.64493Z" fill="#FF4800"/>
<path d="M12.36 4.64493H12.1334V12.0505H12.36V4.64493Z" fill="#FF4900"/>
<path d="M12.5866 4.64493H12.36V12.0505H12.5866V4.64493Z" fill="#FF4A00"/>
<path d="M12.8132 4.64493H12.5866V12.0505H12.8132V4.64493Z" fill="#FF4B00"/>
<path d="M13.0377 4.64493H12.8111V12.0505H13.0377V4.64493Z" fill="#FF4C00"/>
<path d="M13.2643 4.64493H13.0377V12.0505H13.2643V4.64493Z" fill="#FF4D00"/>
<path d="M13.4909 4.64493H13.2643V12.0505H13.4909V4.64493Z" fill="#FF4E00"/>
<path d="M13.7154 4.64493H13.4888V12.0505H13.7154V4.64493Z" fill="#FF4F00"/>
<path d="M13.942 4.64493H13.7154V12.0505H13.942V4.64493Z" fill="#FF5000"/>
<path d="M14.1666 4.64493H13.94V12.0505H14.1666V4.64493Z" fill="#FF5100"/>
<path d="M14.3932 4.64493H14.1666V12.0505H14.3932V4.64493Z" fill="#FF5200"/>
<path d="M14.6198 4.64493H14.3932V12.0505H14.6198V4.64493Z" fill="#FF5300"/>
<path d="M14.8443 4.64493H14.6177V12.0505H14.8443V4.64493Z" fill="#FF5400"/>
<path d="M15.0709 4.64493H14.8443V12.0505H15.0709V4.64493Z" fill="#FF5500"/>
<path d="M15.2955 4.64493H15.0689V12.0505H15.2955V4.64493Z" fill="#FF5600"/>
<path d="M15.5221 4.64493H15.2955V12.0505H15.5221V4.64493Z" fill="#FF5700"/>
<path d="M15.7487 4.64493H15.5221V12.0505H15.7487V4.64493Z" fill="#FF5800"/>
<path d="M15.9732 4.64493H15.7466V12.0505H15.9732V4.64493Z" fill="#FF5900"/>
<path d="M16.1998 4.64493H15.9732V12.0505H16.1998V4.64493Z" fill="#FF5A00"/>
<path d="M16.4243 4.64493H16.1977V12.0505H16.4243V4.64493Z" fill="#FF5C00"/>
<path d="M16.6509 4.64493H16.4243V12.0505H16.6509V4.64493Z" fill="#FF5D00"/>
<path d="M16.8775 4.64493H16.6509V12.0505H16.8775V4.64493Z" fill="#FF5E00"/>
<path d="M17.1021 4.64493H16.8755V12.0505H17.1021V4.64493Z" fill="#FF5F00"/>
<path d="M17.3287 4.64493H17.1021V12.0505H17.3287V4.64493Z" fill="#FF6000"/>
<path d="M17.5553 4.64493H17.3287V12.0505H17.5553V4.64493Z" fill="#FF6100"/>
<path d="M17.7798 4.64493H17.5532V12.0505H17.7798V4.64493Z" fill="#FF6200"/>
<path d="M18.0064 4.64493H17.7798V12.0505H18.0064V4.64493Z" fill="#FF6300"/>
<path d="M18.2309 4.64493H18.0043V12.0505H18.2309V4.64493Z" fill="#FF6400"/>
<path d="M18.4576 4.64493H18.231V12.0505H18.4576V4.64493Z" fill="#FF6500"/>
<path d="M18.6841 4.64493H18.4576V12.0505H18.6841V4.64493Z" fill="#FF6600"/>
<path d="M18.9087 4.64493H18.6821V12.0505H18.9087V4.64493Z" fill="#FF6700"/>
<path d="M19.1353 4.64493H18.9087V12.0505H19.1353V4.64493Z" fill="#FF6800"/>
<path d="M19.3598 4.64493H19.1332V12.0505H19.3598V4.64493Z" fill="#FF6900"/>
<path d="M19.5864 4.64493H19.3598V12.0505H19.5864V4.64493Z" fill="#FF6A00"/>
<path d="M19.813 4.64493H19.5864V12.0505H19.813V4.64493Z" fill="#FF6B00"/>
<path d="M20.0376 4.64493H19.811V12.0505H20.0376V4.64493Z" fill="#FF6C00"/>
<path d="M20.2642 4.64493H20.0376V12.0505H20.2642V4.64493Z" fill="#FF6D00"/>
<path d="M20.4887 4.64493H20.2621V12.0505H20.4887V4.64493Z" fill="#FF6E00"/>
</g>
<path d="M4.38161 48.961H0L6.88244 18.9294C7.4098 16.6296 9.45743 15.0004 11.8202 15.0004H16.2019L9.31941 45.032C8.79205 47.3318 6.74442 48.961 4.38161 48.961Z" fill="black"/>
<mask id="mask1_380_198" style="mask-type:luminance" maskUnits="userSpaceOnUse" x="16" y="14" width="16" height="27">
<path d="M27.7172 40.0517H30.0121C31.2007 40.0517 32.0473 38.9018 31.6951 37.7704L25.7252 18.5571C25.0681 16.4403 23.107 14.9983 20.8883 14.9983H16.2019L22.8804 36.493C23.5375 38.6097 25.4986 40.0517 27.7172 40.0517Z" fill="white"/>
</mask>
<g mask="url(#mask1_380_198)">
<path d="M16.6118 14.9983H16.2019V40.0517H16.6118V14.9983Z" fill="#FF4800"/>
<path d="M17.0217 14.9983H16.6118V40.0517H17.0217V14.9983Z" fill="#FF4900"/>
<path d="M17.4317 14.9983H17.0217V40.0517H17.4317V14.9983Z" fill="#FF4A00"/>
<path d="M17.8416 14.9983H17.4317V40.0517H17.8416V14.9983Z" fill="#FF4B00"/>
<path d="M18.2516 14.9983H17.8416V40.0517H18.2516V14.9983Z" fill="#FF4C00"/>
<path d="M18.6615 14.9983H18.2516V40.0517H18.6615V14.9983Z" fill="#FF4D00"/>
<path d="M19.0714 14.9983H18.6615V40.0517H19.0714V14.9983Z" fill="#FF4E00"/>
<path d="M19.4814 14.9983H19.0714V40.0517H19.4814V14.9983Z" fill="#FF4F00"/>
<path d="M19.8913 14.9983H19.4814V40.0517H19.8913V14.9983Z" fill="#FF5000"/>
<path d="M20.3013 14.9983H19.8913V40.0517H20.3013V14.9983Z" fill="#FF5100"/>
<path d="M20.7112 14.9983H20.3012V40.0517H20.7112V14.9983Z" fill="#FF5200"/>
<path d="M21.1211 14.9983H20.7112V40.0517H21.1211V14.9983Z" fill="#FF5300"/>
<path d="M21.5311 14.9983H21.1211V40.0517H21.5311V14.9983Z" fill="#FF5400"/>
<path d="M21.941 14.9983H21.5311V40.0517H21.941V14.9983Z" fill="#FF5500"/>
<path d="M22.3509 14.9983H21.941V40.0517H22.3509V14.9983Z" fill="#FF5600"/>
<path d="M22.7609 14.9983H22.3509V40.0517H22.7609V14.9983Z" fill="#FF5700"/>
<path d="M23.1708 14.9983H22.7609V40.0517H23.1708V14.9983Z" fill="#FF5800"/>
<path d="M23.5787 14.9983H23.1688V40.0517H23.5787V14.9983Z" fill="#FF5900"/>
<path d="M23.9886 14.9983H23.5787V40.0517H23.9886V14.9983Z" fill="#FF5A00"/>
<path d="M24.3986 14.9983H23.9886V40.0517H24.3986V14.9983Z" fill="#FF5C00"/>
<path d="M24.8085 14.9983H24.3986V40.0517H24.8085V14.9983Z" fill="#FF5D00"/>
<path d="M25.2185 14.9983H24.8085V40.0517H25.2185V14.9983Z" fill="#FF5E00"/>
<path d="M25.6284 14.9983H25.2184V40.0517H25.6284V14.9983Z" fill="#FF5F00"/>
<path d="M26.0383 14.9983H25.6284V40.0517H26.0383V14.9983Z" fill="#FF6000"/>
<path d="M26.4483 14.9983H26.0383V40.0517H26.4483V14.9983Z" fill="#FF6100"/>
<path d="M26.8582 14.9983H26.4483V40.0517H26.8582V14.9983Z" fill="#FF6200"/>
<path d="M27.2682 14.9983H26.8582V40.0517H27.2682V14.9983Z" fill="#FF6300"/>
<path d="M27.6781 14.9983H27.2681V40.0517H27.6781V14.9983Z" fill="#FF6400"/>
<path d="M28.088 14.9983H27.6781V40.0517H28.088V14.9983Z" fill="#FF6500"/>
<path d="M28.498 14.9983H28.088V40.0517H28.498V14.9983Z" fill="#FF6600"/>
<path d="M28.9079 14.9983H28.498V40.0517H28.9079V14.9983Z" fill="#FF6700"/>
<path d="M29.3178 14.9983H28.9079V40.0517H29.3178V14.9983Z" fill="#FF6800"/>
<path d="M29.7278 14.9983H29.3178V40.0517H29.7278V14.9983Z" fill="#FF6900"/>
<path d="M30.1377 14.9983H29.7278V40.0517H30.1377V14.9983Z" fill="#FF6A00"/>
<path d="M30.5476 14.9983H30.1377V40.0517H30.5476V14.9983Z" fill="#FF6B00"/>
<path d="M30.9576 14.9983H30.5477V40.0517H30.9576V14.9983Z" fill="#FF6C00"/>
<path d="M31.3675 14.9983H30.9576V40.0517H31.3675V14.9983Z" fill="#FF6D00"/>
<path d="M31.7775 14.9983H31.3675V40.0517H31.7775V14.9983Z" fill="#FF6E00"/>
<path d="M32.0473 14.9983H31.7754V40.0517H32.0473V14.9983Z" fill="#FF6E00"/>
</g>
<path d="M31.4767 40.0517H27.6554L33.4564 22.1899C34.1341 20.104 36.0787 18.6929 38.2747 18.6929H42.096L36.295 36.5547C35.6173 38.6406 33.6727 40.0517 31.4767 40.0517Z" fill="black"/>
<mask id="mask2_380_198" style="mask-type:luminance" maskUnits="userSpaceOnUse" x="42" y="18" width="15" height="31">
<path d="M53.0696 48.961H56.5365L50.5008 22.624C49.9734 20.3242 47.9258 18.6949 45.5629 18.6949H42.096L48.1318 45.032C48.6591 47.3318 50.7068 48.961 53.0696 48.961Z" fill="white"/>
</mask>
<g mask="url(#mask2_380_198)">
<path d="M42.475 18.6949H42.096V48.961H42.475V18.6949Z" fill="#FF4800"/>
<path d="M42.8541 18.6949H42.475V48.961H42.8541V18.6949Z" fill="#FF4900"/>
<path d="M43.2352 18.6949H42.8561V48.961H43.2352V18.6949Z" fill="#FF4A00"/>
<path d="M43.6142 18.6949H43.2352V48.961H43.6142V18.6949Z" fill="#FF4B00"/>
<path d="M43.9953 18.6949H43.6163V48.961H43.9953V18.6949Z" fill="#FF4C00"/>
<path d="M44.3743 18.6949H43.9953V48.961H44.3743V18.6949Z" fill="#FF4D00"/>
<path d="M44.7554 18.6949H44.3764V48.961H44.7554V18.6949Z" fill="#FF4E00"/>
<path d="M45.1345 18.6949H44.7554V48.961H45.1345V18.6949Z" fill="#FF4F00"/>
<path d="M45.5156 18.6949H45.1365V48.961H45.5156V18.6949Z" fill="#FF5000"/>
<path d="M45.8946 18.6949H45.5156V48.961H45.8946V18.6949Z" fill="#FF5100"/>
<path d="M46.2757 18.6949H45.8967V48.961H46.2757V18.6949Z" fill="#FF5200"/>
<path d="M46.6547 18.6949H46.2757V48.961H46.6547V18.6949Z" fill="#FF5300"/>
<path d="M47.0338 18.6949H46.6547V48.961H47.0338V18.6949Z" fill="#FF5400"/>
<path d="M47.4149 18.6949H47.0358V48.961H47.4149V18.6949Z" fill="#FF5500"/>
<path d="M47.7939 18.6949H47.4149V48.961H47.7939V18.6949Z" fill="#FF5600"/>
<path d="M48.175 18.6949H47.796V48.961H48.175V18.6949Z" fill="#FF5700"/>
<path d="M48.5541 18.6949H48.175V48.961H48.5541V18.6949Z" fill="#FF5800"/>
<path d="M48.9352 18.6949H48.5561V48.961H48.9352V18.6949Z" fill="#FF5900"/>
<path d="M49.3142 18.6949H48.9352V48.961H49.3142V18.6949Z" fill="#FF5A00"/>
<path d="M49.6953 18.6949H49.3163V48.961H49.6953V18.6949Z" fill="#FF5C00"/>
<path d="M50.0743 18.6949H49.6953V48.961H50.0743V18.6949Z" fill="#FF5D00"/>
<path d="M50.4554 18.6949H50.0764V48.961H50.4554V18.6949Z" fill="#FF5E00"/>
<path d="M50.8345 18.6949H50.4554V48.961H50.8345V18.6949Z" fill="#FF5F00"/>
<path d="M51.2135 18.6949H50.8345V48.961H51.2135V18.6949Z" fill="#FF6000"/>
<path d="M51.5946 18.6949H51.2156V48.961H51.5946V18.6949Z" fill="#FF6100"/>
<path d="M51.9736 18.6949H51.5946V48.961H51.9736V18.6949Z" fill="#FF6200"/>
<path d="M52.3547 18.6949H51.9757V48.961H52.3547V18.6949Z" fill="#FF6300"/>
<path d="M52.7338 18.6949H52.3548V48.961H52.7338V18.6949Z" fill="#FF6400"/>
<path d="M53.1149 18.6949H52.7358V48.961H53.1149V18.6949Z" fill="#FF6500"/>
<path d="M53.4939 18.6949H53.1149V48.961H53.4939V18.6949Z" fill="#FF6600"/>
<path d="M53.875 18.6949H53.496V48.961H53.875V18.6949Z" fill="#FF6700"/>
<path d="M54.2541 18.6949H53.875V48.961H54.2541V18.6949Z" fill="#FF6800"/>
<path d="M54.6352 18.6949H54.2561V48.961H54.6352V18.6949Z" fill="#FF6900"/>
<path d="M55.0142 18.6949H54.6352V48.961H55.0142V18.6949Z" fill="#FF6A00"/>
<path d="M55.3953 18.6949H55.0163V48.961H55.3953V18.6949Z" fill="#FF6B00"/>
<path d="M55.7743 18.6949H55.3953V48.961H55.7743V18.6949Z" fill="#FF6C00"/>
<path d="M56.1534 18.6949H55.7743V48.961H56.1534V18.6949Z" fill="#FF6D00"/>
<path d="M56.5345 18.6949H56.1554V48.961H56.5345V18.6949Z" fill="#FF6E00"/>
</g>
<path d="M18.3401 1.92545L19.09 4.27671C16.4264 4.35077 13.9832 5.13041 11.7626 6.60535L11.0127 4.25408L8.27087 4.14917L13.6928 0L20.5196 0.257138L18.3401 1.92545Z" fill="black"/>
<path d="M9.2226 4.19031L9.79939 6.00261L10.0981 5.90799L9.58927 4.31373L13.6866 1.43379C13.7772 1.48316 13.8885 1.49551 13.9956 1.46054C14.2057 1.39471 14.3211 1.17048 14.2531 0.962717C14.1872 0.752893 13.9626 0.637695 13.7546 0.705579C13.5506 0.76935 13.4332 0.985345 13.4909 1.19106L9.22054 4.19236L9.2226 4.19031Z" fill="#E2E2E2"/>
<path d="M9.89208 6.03554C10.0479 6.03554 10.1743 5.90936 10.1743 5.75372C10.1743 5.59807 10.0479 5.47189 9.89208 5.47189C9.73622 5.47189 9.60986 5.59807 9.60986 5.75372C9.60986 5.90936 9.73622 6.03554 9.89208 6.03554Z" fill="black"/>
<path d="M10.2217 6.11987C10.1887 6.01496 10.0754 5.95736 9.97038 5.99027C9.86532 6.02319 9.80764 6.13633 9.8406 6.24124L10.0322 7.6483L10.8933 7.3747L10.2217 6.11987Z" fill="black"/>
<mask id="mask3_380_198" style="mask-type:luminance" maskUnits="userSpaceOnUse" x="297" y="18" width="11" height="12">
<path d="M308 18.9006V29.4392H305.011V23.9776L301.74 27.2442L299.626 25.1336L302.879 21.8855H297.447V18.9006H308Z" fill="white"/>
</mask>
<g mask="url(#mask3_380_198)">
<path d="M297.447 29.11L297.832 29.4392H297.447V29.11Z" fill="#FF4A00"/>
<path d="M297.447 28.4991L298.551 29.4392H297.832L297.447 29.11V28.4991Z" fill="#FF4B00"/>
<path d="M297.447 27.886L299.268 29.4392H298.551L297.447 28.4991V27.886Z" fill="#FF4C00"/>
<path d="M297.447 27.273L299.987 29.4392H299.268L297.447 27.886V27.273Z" fill="#FF4D00"/>
<path d="M297.447 26.6621L300.706 29.4392H299.987L297.447 27.273V26.6621Z" fill="#FF4E00"/>
<path d="M297.447 26.0491L301.422 29.4392H300.706L297.447 26.6621V26.0491Z" fill="#FF4F00"/>
<path d="M297.447 25.436L302.141 29.4392H301.422L297.447 26.0491V25.436Z" fill="#FF5000"/>
<path d="M297.447 24.8251L302.86 29.4392H302.141L297.447 25.436V24.8251Z" fill="#FF5100"/>
<path d="M297.447 24.2121L303.577 29.4392H302.86L297.447 24.8251V24.2121Z" fill="#FF5200"/>
<path d="M297.447 23.599L304.296 29.4392H303.577L297.447 24.2121V23.599Z" fill="#FF5300"/>
<path d="M297.447 22.9881L305.015 29.4392H304.296L297.447 23.5991V22.9881Z" fill="#FF5400"/>
<path d="M297.447 22.3751L305.734 29.4392H305.015L297.447 22.9881V22.3751Z" fill="#FF5500"/>
<path d="M297.447 21.7621L306.451 29.4392H305.734L297.447 22.3751V21.7621Z" fill="#FF5600"/>
<path d="M297.447 21.1511L307.17 29.4392H306.451L297.447 21.7621V21.1511Z" fill="#FF5700"/>
<path d="M297.447 20.5381L307.889 29.4392H307.17L297.447 21.1511V20.5381Z" fill="#FF5800"/>
<path d="M297.447 19.9251L308 28.9228V29.4392H307.889L297.447 20.5381V19.9251Z" fill="#FF5900"/>
<path d="M297.447 19.3141L308 28.3098V28.9228L297.447 19.9251V19.3141Z" fill="#FF5A00"/>
<path d="M297.679 18.9006L308 27.6968V28.3098L297.447 19.3141V18.9006H297.679Z" fill="#FF5C00"/>
<path d="M298.398 18.9006L308 27.0858V27.6968L297.679 18.9006H298.398Z" fill="#FF5D00"/>
<path d="M299.117 18.9006L308 26.4728V27.0858L298.398 18.9006H299.117Z" fill="#FF5E00"/>
<path d="M299.836 18.9006L308 25.8598V26.4728L299.117 18.9006H299.836Z" fill="#FF5F00"/>
<path d="M300.553 18.9006L308 25.2488V25.8598L299.836 18.9006H300.553Z" fill="#FF6000"/>
<path d="M301.272 18.9006L308 24.6358V25.2488L300.553 18.9006H301.272Z" fill="#FF6100"/>
<path d="M301.991 18.9006L308 24.0228V24.6358L301.272 18.9006H301.991Z" fill="#FF6200"/>
<path d="M302.708 18.9006L308 23.4119V24.0228L301.991 18.9006H302.708Z" fill="#FF6300"/>
<path d="M303.427 18.9006L308 22.7988V23.4119L302.708 18.9006H303.427Z" fill="#FF6400"/>
<path d="M304.146 18.9006L308 22.1858V22.7988L303.427 18.9006H304.146Z" fill="#FF6500"/>
<path d="M304.863 18.9006L308 21.5749V22.1858L304.146 18.9006H304.863Z" fill="#FF6600"/>
<path d="M305.582 18.9006L308 20.9618V21.5749L304.863 18.9006H305.582Z" fill="#FF6700"/>
<path d="M306.301 18.9006L308 20.3509V20.9619L305.582 18.9006H306.301Z" fill="#FF6800"/>
<path d="M307.017 18.9006L308 19.7379V20.3509L306.301 18.9006H307.017Z" fill="#FF6900"/>
<path d="M307.736 18.9006L308 19.1249V19.7379L307.017 18.9006H307.736Z" fill="#FF6A00"/>
<path d="M308 19.1249L307.736 18.9006H308V19.1249Z" fill="#FF6B00"/>
</g>
</g>
<defs>
<clipPath id="clip0_380_198">
<rect width="308" height="66" fill="white"/>
</clipPath>
</defs>
</svg>
