<svg width="34" height="34" viewBox="0 0 34 34" fill="none" xmlns="http://www.w3.org/2000/svg">
<rect x="0.796631" y="0.182617" width="33" height="33" rx="16.5" fill="black"/>
<g clip-path="url(#clip0_307_198)">
<path d="M22.0894 16.3389L14.8755 9.12518C14.7087 8.9582 14.486 8.86621 14.2485 8.86621C14.011 8.86621 13.7883 8.9582 13.6214 9.12518L13.0902 9.6563C12.7445 10.0024 12.7445 10.5649 13.0902 10.9104L19.1478 16.9681L13.0834 23.0325C12.9166 23.1995 12.8245 23.4221 12.8245 23.6594C12.8245 23.8971 12.9166 24.1197 13.0834 24.2868L13.6147 24.8178C13.7817 24.9847 14.0043 25.0767 14.2418 25.0767C14.4792 25.0767 14.702 24.9847 14.8688 24.8178L22.0894 17.5974C22.2567 17.4299 22.3485 17.2063 22.348 16.9685C22.3485 16.7298 22.2567 16.5063 22.0894 16.3389Z" fill="white"/>
</g>
<defs>
<clipPath id="clip0_307_198">
<rect width="16.2105" height="16.2105" fill="white" transform="translate(9.48096 8.86719)"/>
</clipPath>
</defs>
</svg>
