<svg width="51" height="50" viewBox="0 0 51 50" fill="none" xmlns="http://www.w3.org/2000/svg">
<g clip-path="url(#clip0_316_477)">
<path d="M49.9292 42.7344H48.6333V15.8305C48.6333 13.86 47.0649 12.2569 45.1372 12.2569H43.4168C43.6049 11.8545 43.7086 11.4082 43.7086 10.9444C43.7086 9.81511 43.1024 8.78507 42.1266 8.25617L32.5494 3.06902C32.192 2.87531 31.7486 3.0147 31.5594 3.38025C31.37 3.74569 31.5063 4.19891 31.8638 4.39252L41.4407 9.57957C41.9436 9.85205 42.2437 10.3623 42.2437 10.9444C42.2437 11.5265 41.9436 12.0366 41.4409 12.309L32.1312 17.3516L26.2124 10.4506C25.9457 10.1396 25.4829 10.1087 25.1788 10.3814C24.8747 10.654 24.8443 11.1272 25.111 11.4382L30.8009 18.0722L27.2782 19.9802C26.266 20.5277 25.0575 20.5277 24.0456 19.9804L9.88252 12.3092C9.37978 12.0367 9.07949 11.5265 9.07949 10.9445C9.07949 10.3625 9.37969 9.85225 9.88232 9.57977L24.0451 1.90857C25.0573 1.361 26.2658 1.361 27.2776 1.90837L29.305 3.00671C29.6624 3.20042 30.1058 3.06113 30.2951 2.69568C30.4845 2.33024 30.3482 1.87692 29.9909 1.68332L27.9632 0.584778C26.522 -0.194942 24.8011 -0.194943 23.3598 0.584877L9.19648 8.25637C8.2208 8.78517 7.61475 9.81521 7.61475 10.9445C7.61475 11.4083 7.71846 11.8545 7.90654 12.257H6.18604C4.2583 12.257 2.68994 13.8601 2.68994 15.8306V42.7345H1.39404C0.989551 42.7345 0.661621 43.0698 0.661621 43.4834V45.1431C0.661621 47.8212 2.79248 50 5.41172 50H45.9114C48.5307 50 50.6616 47.8213 50.6616 45.1431V43.4834C50.6616 43.0697 50.3337 42.7344 49.9292 42.7344ZM31.962 29.7425L32.917 31.4337C33.1144 31.7833 32.9827 32.0919 32.917 32.2083C32.8513 32.3247 32.6557 32.5956 32.2608 32.5956H31.6631C31.2683 32.5956 31.0728 32.3247 31.0069 32.2083C30.9411 32.0918 30.8096 31.7833 31.0069 31.4337L31.962 29.7425ZM32.6944 18.7415L35.7251 17.1V20.0738C35.7251 22.2096 34.5446 24.1243 32.6944 25.0335V18.7415ZM25.6615 21.8888C26.4521 21.8888 27.2428 21.6938 27.9635 21.304L31.2296 19.535V25.6129C27.2278 26.9683 22.8004 26.8161 18.8944 25.1562C16.892 24.3053 15.5981 22.3103 15.5981 20.0739V17.0999L23.3602 21.3041C24.0807 21.694 24.871 21.8888 25.6615 21.8888ZM4.15479 15.8305C4.15479 14.6858 5.06602 13.7546 6.18604 13.7546H9.42207L13.1089 15.7516H6.84033C6.43584 15.7516 6.10791 16.0869 6.10791 16.5005V39.9889C6.10791 40.4025 6.43584 40.7378 6.84033 40.7378H10.7065C11.111 40.7378 11.439 40.4025 11.439 39.9889C11.439 39.5754 11.111 39.2401 10.7065 39.2401H7.57275V17.2494H14.1333V20.0738C14.1333 22.9174 15.7814 25.4551 18.3323 26.5392C20.6612 27.5289 23.1614 28.0238 25.6617 28.0238C27.542 28.0238 29.4222 27.7437 31.2297 27.1839V28.044L29.7385 30.6848C29.3367 31.3963 29.3367 32.2458 29.7385 32.9572C30.1402 33.6686 30.8597 34.0934 31.6632 34.0934H32.2609C33.0645 34.0934 33.7839 33.6686 34.1856 32.9572C34.5874 32.2458 34.5874 31.3963 34.1856 30.6848L32.6944 28.044V26.6607C32.7935 26.6207 32.8926 26.581 32.991 26.5392C35.5418 25.4551 37.1899 22.9174 37.1899 20.0738V17.2494H43.7505V39.2401H13.6362C13.2317 39.2401 12.9038 39.5754 12.9038 39.9889C12.9038 40.4025 13.2317 40.7378 13.6362 40.7378H44.4829C44.8874 40.7378 45.2153 40.4025 45.2153 39.9889V16.5005C45.2153 16.0869 44.8874 15.7516 44.4829 15.7516H38.2143L41.9011 13.7546H45.1371C46.2571 13.7546 47.1684 14.6858 47.1684 15.8305V42.7344H4.15479V15.8305ZM30.1909 44.2325C29.9203 45.0378 29.172 45.6182 28.2938 45.6182H23.0296C22.1513 45.6182 21.403 45.0378 21.1323 44.2325H30.1909ZM49.1968 45.143C49.1968 46.9952 47.7229 48.5022 45.9114 48.5022H5.41172C3.6002 48.5022 2.12646 46.9952 2.12646 45.143V44.2321H3.41484C3.41738 44.2321 3.41982 44.2325 3.42236 44.2325H19.6213C19.9266 45.8722 21.3383 47.116 23.0296 47.116H28.2938C29.985 47.116 31.3967 45.8721 31.702 44.2325H47.9009C47.9034 44.2325 47.9059 44.2321 47.9084 44.2321H49.1968V45.143Z" fill="black"/>
<path d="M25.8831 36.492C25.8831 36.0785 25.5552 35.7432 25.1507 35.7432H10.4881C10.0836 35.7432 9.75568 36.0785 9.75568 36.492C9.75568 36.9056 10.0836 37.2409 10.4881 37.2409H25.1508C25.5552 37.2409 25.8831 36.9056 25.8831 36.492Z" fill="#FF4800"/>
<path d="M10.4881 34.0915H20.2918C20.6963 34.0915 21.0242 33.7562 21.0242 33.3426C21.0242 32.929 20.6963 32.5938 20.2918 32.5938H10.4881C10.0836 32.5938 9.75568 32.929 9.75568 33.3426C9.75568 33.7562 10.0835 34.0915 10.4881 34.0915Z" fill="#FF4800"/>
</g>
<defs>
<clipPath id="clip0_316_477">
<rect width="50" height="50" fill="white" transform="translate(0.661621)"/>
</clipPath>
</defs>
</svg>
