<svg width="51" height="50" viewBox="0 0 51 50" fill="none" xmlns="http://www.w3.org/2000/svg">
<g clip-path="url(#clip0_316_438)">
<path d="M49.8287 2.18173e-08H49.8283H1.49495C1.03485 -0.000104145 0.661725 0.372812 0.661621 0.832917V0.833333V17.5H2.32829V1.66667H48.995V20H19.8283V21.6667H49.8283C50.2884 21.6668 50.6615 21.2939 50.6616 20.8337V20.8333V0.833333C50.6617 0.373229 50.2888 0.000104188 49.8287 2.18173e-08Z" fill="black"/>
<path d="M44.8283 4.16699H28.1616V5.83366H44.8283V4.16699Z" fill="#FF4800"/>
<path d="M47.3283 9.16699H30.6616V10.8337H47.3283V9.16699Z" fill="#FF4800"/>
<path d="M43.995 14.167H27.3283V15.8337H43.995V14.167Z" fill="#FF4800"/>
<path d="M27.2618 7.18447C26.6913 5.81311 25.1171 5.16395 23.7459 5.73447C23.7225 5.74426 23.6991 5.75426 23.676 5.76467L16.9189 9.26988C17.1854 8.71759 17.3253 8.1128 17.3283 7.49967C17.3283 5.19853 15.4628 3.33301 13.1616 3.33301C10.8605 3.33301 8.99495 5.19853 8.99495 7.49967C8.99808 8.40415 9.29839 9.28259 9.84964 9.99967H9.81496C7.44954 10.0155 5.33798 11.486 4.50287 13.6993L2.27829 21.3669C1.7487 22.7425 2.43454 24.2871 3.81027 24.8167C4.43756 25.0581 5.13287 25.0541 5.75735 24.8052C6.47485 24.5161 7.03318 23.9324 7.29016 23.2028L8.16162 20.4294V32.4901C7.44454 31.9389 6.5661 31.6386 5.66162 31.6354C3.36391 31.632 1.49839 33.4919 1.49495 35.7897C1.49329 36.915 1.94745 37.9929 2.75402 38.7777C1.47402 39.4317 0.666621 40.7458 0.661621 42.1831V49.1663C0.661517 49.6264 1.03443 49.9996 1.49454 49.9997H1.49495H9.82829C10.2884 49.9998 10.6615 49.6269 10.6616 49.1668V49.1663V42.1831C10.6576 41.002 10.1088 39.8888 9.17454 39.1663H15.4821C14.5478 39.8888 13.999 41.002 13.9951 42.1831V49.1663C13.995 49.6264 14.3679 49.9996 14.828 49.9997H14.8284H23.1617C23.6218 49.9998 23.995 49.6269 23.9951 49.1668V49.1663V42.1831C23.9901 40.7458 23.1827 39.4317 21.9027 38.7777C23.548 37.1718 23.58 34.536 21.974 32.8907C20.9851 31.8775 19.5489 31.4363 18.1617 31.7197V14.6725L25.8118 10.7003C27.1831 10.1299 27.8322 8.55572 27.2618 7.18447ZM13.1616 4.99967C14.5424 4.99967 15.6616 6.11895 15.6616 7.49967C15.6616 8.8804 14.5424 9.99967 13.1616 9.99967C11.7815 9.99822 10.6631 8.87978 10.6616 7.49967C10.6616 6.11895 11.7809 4.99967 13.1616 4.99967ZM5.66162 33.3021C7.04235 33.3021 8.16162 34.4213 8.16162 35.8021C8.16162 37.1828 7.04235 38.3021 5.66162 38.3021C4.28089 38.3021 3.16162 37.1828 3.16162 35.8021C3.16308 34.422 4.28152 33.3036 5.66162 33.3021ZM8.99495 48.333H2.32829V42.1831C2.32995 40.9778 3.30673 40.0011 4.51214 39.9997H6.8111C8.01641 40.0011 8.99329 40.9778 8.99495 42.1831V48.333ZM22.3283 42.1831V48.333H15.6616V42.1831C15.6633 40.9778 16.6401 40.0011 17.8455 39.9997H20.1444C21.3499 40.0011 22.3266 40.9778 22.3283 42.1831ZM18.995 33.3021C20.3751 33.3035 21.4935 34.422 21.495 35.8021C21.495 37.1828 20.3757 38.3021 18.995 38.3021C17.6142 38.3021 16.495 37.1828 16.495 35.8021C16.495 34.4213 17.6142 33.3021 18.995 33.3021ZM25.7369 8.57467C25.6254 8.86092 25.3963 9.08561 25.1079 9.19155L16.9446 13.4265C16.6684 13.5699 16.495 13.8552 16.495 14.1663V32.4901C14.934 33.6443 14.3933 35.7331 15.1983 37.4997H13.995V23.333H12.3283V37.4997H9.45829C9.69537 36.9757 9.82027 36.408 9.82516 35.833H9.82829V14.9997C9.82818 14.5394 9.45495 14.1663 8.99475 14.1664C8.63089 14.1666 8.30912 14.4027 8.19995 14.7499L5.71162 22.6681C5.52308 23.1881 4.9486 23.4569 4.4286 23.2682C4.39214 23.255 4.35641 23.2397 4.32162 23.2223C3.84089 22.9738 3.63683 22.3938 3.8562 21.899L6.08068 14.2314C6.68058 12.6908 8.16152 11.6735 9.81485 11.6663H15.7154C15.8489 11.6665 15.9806 11.6344 16.0991 11.5728L24.3816 7.27353C24.8785 7.06624 25.4512 7.27832 25.6931 7.75936C25.8213 8.0129 25.8372 8.30874 25.7369 8.57467Z" fill="black"/>
<path d="M35.2359 38.7781C36.8841 37.1722 36.9185 34.5342 35.3127 32.886C33.7068 31.2377 31.0688 31.2034 29.4206 32.8092C27.7724 34.415 27.738 37.0531 29.3438 38.7013C29.3691 38.7272 29.3948 38.7528 29.4207 38.7781C28.1408 39.432 27.3333 40.7462 27.3283 42.1835V49.1667C27.3282 49.6268 27.7011 49.9999 28.1612 50C28.1613 50 28.1615 50 28.1616 50H36.495C36.9551 50.0001 37.3282 49.6272 37.3283 49.1671C37.3283 49.167 37.3283 49.1668 37.3283 49.1667V42.1835C37.3233 40.7462 36.5159 39.432 35.2359 38.7781ZM32.3283 33.3024C33.709 33.3024 34.8283 34.4217 34.8283 35.8024C34.8283 37.1832 33.709 38.3024 32.3283 38.3024C30.9476 38.3024 29.8283 37.1832 29.8283 35.8024C29.8298 34.4223 30.9482 33.304 32.3283 33.3024ZM35.6616 48.3334H28.995V42.1835C28.9966 40.9782 29.9734 40.0015 31.1788 40H33.4778C34.6831 40.0015 35.66 40.9782 35.6616 42.1835V48.3334Z" fill="black"/>
<path d="M48.5692 38.7781C50.2175 37.1722 50.2518 34.5342 48.646 32.886C47.0402 31.2377 44.4021 31.2034 42.7539 32.8092C41.1057 34.415 41.0713 37.0531 42.6771 38.7013C42.7025 38.7272 42.7281 38.7528 42.754 38.7781C41.4741 39.432 40.6666 40.7462 40.6616 42.1835V49.1667C40.6615 49.6268 41.0344 49.9999 41.4945 50C41.4946 50 41.4949 50 41.495 50H49.8283C50.2884 50.0001 50.6615 49.6272 50.6616 49.1671C50.6616 49.167 50.6616 49.1668 50.6616 49.1667V42.1835C50.6566 40.7462 49.8492 39.432 48.5692 38.7781ZM45.6616 33.3024C47.0424 33.3024 48.1616 34.4217 48.1616 35.8024C48.1616 37.1832 47.0424 38.3024 45.6616 38.3024C44.2809 38.3024 43.1616 37.1832 43.1616 35.8024C43.1631 34.4223 44.2815 33.304 45.6616 33.3024ZM48.995 48.3334H42.3283V42.1835C42.33 40.9782 43.3067 40.0015 44.5121 40H46.8111C48.0164 40.0015 48.9933 40.9782 48.995 42.1835V48.3334Z" fill="black"/>
</g>
<defs>
<clipPath id="clip0_316_438">
<rect width="50" height="50" fill="white" transform="translate(0.661621)"/>
</clipPath>
</defs>
</svg>
