<svg width="73" height="72" viewBox="0 0 73 72" fill="none" xmlns="http://www.w3.org/2000/svg">
<g clip-path="url(#clip0_285_236)">
<path d="M43.2607 0H69.1042C71.0499 0 72.5 1.73756 72.5 3.63487V19.9131C72.5 21.8104 71.0499 23.5479 69.1042 23.5479H43.2607C41.2998 23.5479 39.8643 21.8104 39.8643 19.9131V16.9639L34.3642 14.1576C32.6739 13.2964 32.6739 10.7617 34.3642 9.90056C36.1979 8.96006 38.0311 8.03531 39.8643 7.09425V3.63487C39.8637 1.73756 41.2992 0 43.2607 0ZM69.1042 2.24775H43.2607C42.5435 2.24775 42.1126 2.98125 42.1126 3.63487V7.7805C42.1126 8.17875 41.8899 8.57756 41.491 8.76881C39.4497 9.82125 37.4253 10.8737 35.3845 11.9098C35.2732 11.9734 35.3047 12.1168 35.3845 12.1489L41.396 15.2421C41.81 15.4013 42.1132 15.8001 42.1132 16.2782V19.9131C42.1132 20.5667 42.544 21.3002 43.2612 21.3002H69.1047C69.8219 21.3002 70.2528 20.5667 70.2528 19.9131V3.63487C70.2522 2.98125 69.8214 2.24775 69.1042 2.24775Z" fill="black"/>
<path d="M47.9958 7.92353C46.5125 7.92353 46.5125 5.67578 47.9958 5.67578H64.8635C66.3305 5.67578 66.3305 7.92353 64.8635 7.92353H47.9958ZM47.9958 17.8882C46.5125 17.8882 46.5125 15.6399 47.9958 15.6399H58.0083C59.491 15.6399 59.491 17.8882 58.0083 17.8882H47.9958ZM47.9958 12.8983C46.5125 12.8983 46.5125 10.65 47.9958 10.65H64.8635C66.3305 10.65 66.3305 12.8983 64.8635 12.8983H47.9958Z" fill="black"/>
<path d="M14.9765 21.2839C14.6418 21.1562 14.3549 21.0128 14.0838 20.8536L13.9078 22.1451L17.6068 26.3059L21.2894 22.1451L21.1139 20.8536C20.8434 21.0128 20.5559 21.1568 20.237 21.2839C18.7548 21.8739 16.4435 21.8739 14.9765 21.2839ZM12.0431 19.2116L11.9317 19.116C10.2093 17.5854 9.365 15.4811 9.365 13.185V8.019C9.365 3.14044 12.8086 0 17.6073 0C22.406 0 25.8339 3.14044 25.8339 8.019V13.185C25.8339 15.4811 24.989 17.5854 23.2672 19.116L23.1553 19.2116L23.522 21.9218L25.4514 23.6115L30.92 25.9875C32.1001 26.514 33.0406 27.3268 33.6943 28.3472C34.3479 29.3833 34.6989 30.5949 34.6989 31.8864V34.9954C34.6989 35.6169 34.2044 36.1277 33.5829 36.1277C32.9613 36.1277 32.4506 35.6175 32.4506 34.9954V31.8864C32.4506 31.0095 32.2278 30.2124 31.7969 29.5588C31.3829 28.9052 30.7771 28.3792 30.0273 28.0446L25.5476 26.0994L23.666 31.9826C23.4905 32.5727 22.8532 32.8916 22.2631 32.7161C22.1517 32.6683 22.0398 32.6205 21.9442 32.5406L18.7233 30.1967V34.9954C18.7233 35.6169 18.2294 36.1277 17.6079 36.1277C16.9863 36.1277 16.475 35.6169 16.475 34.9954V30.1967L13.2704 32.5564C13.2704 32.5564 12.9678 32.6998 12.9357 32.7156C12.3457 32.8911 11.7241 32.5721 11.5329 31.9821L9.66763 26.0989L5.17156 28.044C4.42231 28.3787 3.8165 28.9046 3.40194 29.5583C2.98737 30.2119 2.74831 31.0095 2.74831 31.8859V45.9951C2.74831 46.6172 2.25388 47.1274 1.63231 47.1274C1.01075 47.1274 0.5 46.6183 0.5 45.9962V31.8864C0.5 30.5949 0.851 29.3833 1.52038 28.3472C2.15825 27.3268 3.09875 26.5134 4.27831 25.9875L9.74694 23.6121L11.6763 21.9223L12.0431 19.2116ZM13.9083 17.8723C13.9719 17.9201 14.0203 17.9679 14.0681 18.0315C14.594 18.4939 15.1357 18.9405 15.7899 19.1953C16.7309 19.5621 18.4848 19.5621 19.4096 19.1953C20.0632 18.9399 20.6054 18.4939 21.1314 18.0315C21.1798 17.9679 21.2433 17.9201 21.3069 17.8723C21.4666 17.7289 21.6258 17.5854 21.7693 17.4414C23.0129 16.3254 23.5867 14.8427 23.5867 13.185V10.7938C19.4574 11.5746 17.1134 9.69356 15.9176 8.1315C14.5783 9.70988 12.8727 9.78919 11.6291 9.55013V13.185C11.6291 14.8427 12.1871 16.3254 13.4308 17.4414C13.5899 17.5854 13.7491 17.7289 13.9083 17.8723ZM12.6331 24.0739L11.6443 24.9351L13.1906 29.8136L15.9485 27.8049L12.6331 24.0739ZM22.5658 24.0739L19.2656 27.8049L22.0078 29.8136L23.5546 24.9351L22.5658 24.0739ZM7.10038 38.4716C7.10038 37.8501 7.61056 37.3393 8.23269 37.3393C8.85481 37.3393 9.34869 37.8495 9.34869 38.4716V45.9962C9.34869 46.6183 8.85425 47.1285 8.23269 47.1285C7.61112 47.1285 7.10038 46.6189 7.10038 45.9962V38.4716ZM11.6606 7.254C12.5381 7.47731 14.0681 7.54087 14.8972 5.50012C15.296 4.54331 16.619 4.51181 17.0015 5.58C17.0015 5.58 18.4201 9.67725 23.5861 8.49769V8.019C23.5861 4.38412 21.1629 2.24775 17.6073 2.24775C14.4028 2.24775 11.9958 3.98531 11.6606 7.254Z" fill="black"/>
<path d="M47.2623 48.994C45.2053 47.176 44.2012 44.9918 44.2012 42.2333V36.3985C44.2012 30.9934 48.0116 27.502 53.3531 27.502C58.6783 27.502 62.4881 30.994 62.4881 36.3985V42.2333C62.4881 44.9912 61.4992 47.1754 59.4433 48.994L59.8899 53.6329L68.3234 56.806C70.9379 57.954 72.5006 60.4892 72.5006 63.327V70.8679C72.5006 71.4895 71.9909 72.0002 71.3688 72.0002C70.7467 72.0002 70.2528 71.49 70.2528 70.8679V63.327C70.2528 61.3819 69.2488 59.6758 67.4465 58.8788L58.4549 55.483C55.0918 54.4153 51.6948 54.1915 48.2833 55.1961L39.2433 58.8788C37.4579 59.6758 36.4533 61.3819 36.4533 63.327V70.8679C36.4533 71.4895 35.9431 72.0002 35.321 72.0002C34.7 72.0002 34.2056 71.49 34.2056 70.8679V63.327C34.2056 60.4892 35.7676 57.954 38.3827 56.806L46.8489 53.3623L47.2623 48.994ZM56.7804 50.1094H49.9089C49.622 50.1094 49.3824 50.3327 49.3509 50.619L49.1596 52.6603C51.9648 52.1023 54.7874 52.2295 57.5617 52.8994L57.3384 50.619C57.3221 50.3327 57.083 50.1094 56.7804 50.1094ZM49.8133 47.8937H56.876C57.29 47.8937 57.8008 47.5106 58.2474 47.0803C59.6024 45.741 60.2403 44.179 60.2403 42.2338V36.3985C60.2403 32.2208 57.4503 29.7497 53.3531 29.7497C49.2558 29.7497 46.4495 32.2213 46.4495 36.3985V42.2333C46.4495 44.2903 47.1988 45.9638 48.7299 47.3194C49.0961 47.6541 49.478 47.8937 49.8133 47.8937Z" fill="black"/>
<path d="M12.0751 48.7545L13.9398 38.0726C14.2272 36.4307 15.7893 35.0908 17.4475 35.0908H36.4038C38.2527 35.0908 39.5127 36.6698 39.1943 38.4551L36.8026 52.0862C36.4994 53.8401 34.8417 55.275 33.0558 55.275H14.4983H8.67927C7.43502 55.275 6.1919 54.5736 5.87296 53.2978L5.10796 50.1568C4.93246 49.4396 5.47471 48.7539 6.19246 48.7539L12.0751 48.7545ZM26.3918 44.0194C27.0134 44.0194 27.5078 44.5138 27.5078 45.1348C27.5078 45.7564 27.0134 46.2671 26.3918 46.2671C25.7703 46.2671 25.2595 45.7569 25.2595 45.1348C25.2601 44.5138 25.7703 44.0194 26.3918 44.0194ZM13.7648 52.0868C13.685 52.629 13.9561 53.0273 14.5141 53.0273H33.0563C33.7735 53.0273 34.4592 52.4057 34.5875 51.7037L36.9786 38.0726C37.0585 37.6418 36.8352 37.3391 36.4043 37.3391H17.4481C16.858 37.3391 16.268 37.8656 16.1566 38.4551C15.3595 42.9984 14.5619 47.5429 13.7648 52.0868ZM11.6763 51.0023H7.62683L8.05715 52.7561C8.24896 53.0908 8.51952 53.0267 8.67927 53.0267H11.5806C11.485 52.5964 11.485 52.134 11.5486 51.7031L11.6763 51.0023Z" fill="black"/>
</g>
<defs>
<clipPath id="clip0_285_236">
<rect width="72" height="72" fill="white" transform="translate(0.5)"/>
</clipPath>
</defs>
</svg>
