<svg width="73" height="72" viewBox="0 0 73 72" fill="none" xmlns="http://www.w3.org/2000/svg">
<g clip-path="url(#clip0_285_202)">
<path d="M64.2488 27.3809H46.0629C45.4804 27.3809 45.0083 27.8531 45.0083 28.4354C45.0083 29.0177 45.4805 29.49 46.0629 29.49H64.2489C64.8314 29.49 65.3034 29.0177 65.3034 28.4354C65.3034 27.8531 64.8312 27.3809 64.2488 27.3809Z" fill="black"/>
<path d="M64.2488 33.7393H46.0629C45.4804 33.7393 45.0083 34.2115 45.0083 34.7938C45.0083 35.3761 45.4805 35.8484 46.0629 35.8484H64.2489C64.8314 35.8484 65.3034 35.3761 65.3034 34.7938C65.3034 34.2115 64.8312 33.7393 64.2488 33.7393Z" fill="black"/>
<path d="M65.3034 41.1512C65.3034 40.5688 64.8312 40.0967 64.2489 40.0967H46.0629C45.4804 40.0967 45.0083 40.5689 45.0083 41.1512C45.0083 41.7336 45.4805 42.2058 46.0629 42.2058H64.2489C64.8312 42.2059 65.3034 41.7337 65.3034 41.1512Z" fill="black"/>
<path d="M46.0629 46.4551C45.4804 46.4551 45.0083 46.9273 45.0083 47.5096C45.0083 48.092 45.4805 48.5642 46.0629 48.5642H55.1558C55.7383 48.5642 56.2103 48.092 56.2103 47.5096C56.2103 46.9273 55.7381 46.4551 55.1558 46.4551H46.0629Z" fill="black"/>
<path d="M70.6183 12.4019L59.7451 1.52859C58.779 0.561797 57.4553 0 56.0551 0H20.2746C17.3974 0 15.0567 2.34084 15.0567 5.21803V16.0154C15.0567 16.5978 15.5289 17.0699 16.1112 17.0699C16.6936 17.0699 17.1658 16.5977 17.1658 16.0154V5.21803C17.1658 3.50381 18.5603 2.10923 20.2746 2.10923H56.0551C56.2826 2.10923 56.5063 2.13356 56.725 2.1818V11.7859C56.725 13.7907 58.356 15.4216 60.3607 15.4216H69.9637C70.0124 15.6417 70.0373 15.8671 70.0373 16.0916V66.7821C70.0373 68.4962 68.6427 69.8909 66.9285 69.8909H52.7608C53.9939 68.0472 53.7976 65.5238 52.1709 63.897L42.5823 54.3085C41.884 53.6102 40.8674 53.4226 39.9954 53.7407L37.931 51.6763C43.7551 43.5887 42.8963 32.3986 35.7737 25.2758C27.8687 17.371 14.8989 17.2135 6.83672 25.2758C-1.14121 33.2537 -1.14121 46.2348 6.83672 54.2128C13.9532 61.3294 25.154 62.1752 33.2365 56.3694L35.3016 58.4345C34.9835 59.3065 35.1711 60.3231 35.8696 61.0214L44.7391 69.8909H20.2746C18.5605 69.8909 17.1658 68.4963 17.1658 66.7821V63.4022C17.1658 62.8197 16.6936 62.3476 16.1112 62.3476C15.5289 62.3476 15.0567 62.8199 15.0567 63.4022V66.7821C15.0567 69.6593 17.3975 72 20.2746 72H66.9286C69.8058 72 72.1466 69.6592 72.1466 66.7821V16.0916C72.1466 14.723 71.6035 13.3864 70.6183 12.4019ZM8.32833 52.7213C1.17277 45.5657 1.17277 33.9228 8.32833 26.7671C15.575 19.5204 27.2058 19.6906 34.2825 26.7671C40.8713 33.3561 41.4852 43.8249 35.7101 51.1186C34.8236 52.2381 33.8006 53.2616 32.6798 54.1489C25.4327 59.8868 14.9381 59.3311 8.32833 52.7213ZM34.8975 55.0394C35.4938 54.5085 36.0627 53.9408 36.6042 53.3323L38.3409 55.069L36.63 56.78L34.8934 55.0433C34.8948 55.0419 34.8961 55.0405 34.8975 55.0394ZM46.9494 69.1183L37.3611 59.5299C37.2237 59.3925 37.2234 59.1694 37.3611 59.0316L37.375 59.0176C37.3753 59.0174 37.3756 59.0172 37.3757 59.0169L40.5928 55.7999C40.73 55.6625 40.9538 55.6625 41.0911 55.7999L50.6795 65.3884C51.7078 66.4168 51.7078 68.0899 50.6795 69.1183C49.6486 70.1491 47.9804 70.1491 46.9494 69.1183ZM58.8342 11.7859V3.60056L68.5461 13.3124H60.3609C59.5189 13.3124 58.8342 12.6276 58.8342 11.7859Z" fill="black"/>
<path d="M44.8492 6.84277H23.926C22.6753 6.84277 21.6577 7.86034 21.6577 9.11105V13.153C21.6577 14.4038 22.6753 15.4213 23.926 15.4213H44.8492C46.0999 15.4213 47.1175 14.4038 47.1175 13.153V9.11105C47.1173 7.86034 46.0997 6.84277 44.8492 6.84277ZM45.0081 13.1529C45.0081 13.2405 44.9368 13.3119 44.849 13.3119H23.926C23.8384 13.3119 23.7669 13.2406 23.7669 13.1529V9.11105C23.7669 9.02345 23.8382 8.95201 23.926 8.95201H44.8492C44.9369 8.95201 45.0082 9.0233 45.0082 9.11105L45.0081 13.1529Z" fill="black"/>
<path d="M32.8 51.239C39.1383 44.9009 39.1383 34.5879 32.8 28.2498C26.4618 21.9115 16.149 21.9115 9.81077 28.2498C7.34477 30.7159 5.7633 33.8362 5.23737 37.2737C5.14933 37.8494 5.54449 38.3876 6.12035 38.4756C6.69635 38.5641 7.23424 38.1685 7.32227 37.5926C7.77987 34.6024 9.15602 31.8873 11.3021 29.7411C16.8178 24.2254 25.7927 24.2254 31.3085 29.7411C36.6008 35.0334 36.8143 43.5097 31.9508 49.06C31.4876 48.1174 30.6996 47.3499 29.6691 46.8962C28.4198 46.3463 26.266 45.9967 24.9412 45.822L24.9356 44.4903C26.2158 43.5477 27.1245 42.1251 27.3857 40.4792C27.6108 40.3857 27.8174 40.2475 27.9943 40.0693C28.3474 39.7138 28.5399 39.2423 28.5367 38.7415C28.5273 37.3439 28.5285 35.0273 28.5285 33.6779C28.5285 32.4017 27.5987 31.3385 26.381 31.1299C26.1473 29.9433 25.099 29.0456 23.8447 29.0456H18.7537C16.1292 29.0456 13.9939 31.1807 13.9939 33.8052V38.7612C13.9939 39.5306 14.4635 40.1924 15.131 40.4752C15.3863 42.0708 16.2498 43.4574 17.4692 44.4003L17.4754 45.8534C16.1521 46.0391 14.0014 46.4069 12.7564 46.9674C11.8098 47.3939 11.0699 48.1171 10.6146 49.0077C8.92849 47.0668 7.81207 44.727 7.36938 42.1825C7.26954 41.6087 6.72335 41.2244 6.1496 41.3242C5.57571 41.4241 5.19152 41.9703 5.29137 42.544C5.8668 45.8507 7.42957 48.8573 9.81091 51.2387C16.1769 57.6051 26.4899 57.5494 32.8 51.239ZM18.7537 31.155H23.8447C24.1071 31.155 24.3206 31.3684 24.3206 31.6308C24.3206 32.4974 25.0256 33.2023 25.8921 33.2023H25.9437C26.2061 33.2023 26.4196 33.4158 26.4196 33.6782V34.2442L25.1448 34.1247C23.8961 34.0078 22.6189 34.304 21.549 34.9591C20.9622 35.3184 20.2883 35.5084 19.6002 35.5084H16.1033V33.8056C16.1032 32.3439 17.2922 31.155 18.7537 31.155ZM16.1032 38.5361V37.6174H19.6001C20.6773 37.6174 21.732 37.32 22.6505 36.7575C23.334 36.3388 24.1499 36.1495 24.9476 36.2243L26.42 36.3624C26.4208 37.012 26.4225 37.869 26.4262 38.5321C25.8391 38.6352 25.3822 39.1301 25.3463 39.7432C25.2207 41.8995 23.4264 43.5886 21.2613 43.5886C19.1007 43.5886 17.3037 41.901 17.17 39.7463C17.1323 39.1391 16.6824 38.6473 16.1032 38.5361ZM21.2613 45.6978C21.8028 45.6978 22.3286 45.6267 22.8307 45.4955L22.8332 46.0836C22.8343 46.3564 22.8969 46.6167 23.0077 46.8507C22.4833 47.2045 21.8622 47.3997 21.211 47.4016C21.2077 47.4016 21.2045 47.4016 21.2013 47.4016C20.5561 47.4016 19.9396 47.2117 19.417 46.8653C19.5259 46.6303 19.5869 46.3699 19.5858 46.0971L19.5831 45.4665C20.1177 45.6171 20.6808 45.6978 21.2613 45.6978ZM12.2659 50.6257C12.4191 49.8541 12.9117 49.2111 13.6224 48.8907C14.3399 48.5677 15.7218 48.2433 17.4622 47.9862C18.4564 48.962 19.7877 49.5107 21.2008 49.5107H21.2169C22.6406 49.5065 23.979 48.946 24.9721 47.9546C26.7147 48.197 28.0993 48.5096 28.8195 48.8267C29.6265 49.182 30.1482 49.8586 30.2761 50.6833C25.0571 54.9698 17.4639 54.9502 12.2659 50.6257Z" fill="black"/>
</g>
<defs>
<clipPath id="clip0_285_202">
<rect width="72" height="72" fill="white" transform="translate(0.5)"/>
</clipPath>
</defs>
</svg>
