<svg width="73" height="72" viewBox="0 0 73 72" fill="none" xmlns="http://www.w3.org/2000/svg">
<path d="M44.1243 13.1726C44.7567 13.1726 45.3663 13.3586 45.8875 13.7106C46.3704 14.0366 47.0261 13.9097 47.3522 13.427C47.6785 12.9441 47.5514 12.2883 47.0686 11.9622C46.1974 11.3737 45.1792 11.0625 44.1243 11.0625C41.2214 11.0625 38.8596 13.4243 38.8596 16.3272C38.8596 19.2301 41.2214 21.5921 44.1243 21.5921C45.2846 21.5921 46.3262 21.2106 47.1365 20.489C47.2956 20.3474 47.4463 20.1917 47.585 20.0265C47.9593 19.5799 47.9007 18.9144 47.4542 18.5401C47.0077 18.1656 46.3421 18.2244 45.9679 18.6709C45.8949 18.7579 45.8159 18.8396 45.7331 18.9133C45.3094 19.2906 44.7681 19.482 44.1243 19.482C42.3848 19.482 40.9696 18.0667 40.9696 16.3272C40.9696 14.5878 42.3848 13.1726 44.1243 13.1726Z" fill="black"/>
<path d="M54.6272 21.5914H54.6356C55.1651 21.5879 55.6354 21.2487 55.8083 20.7402L58.5574 12.4649C58.741 11.912 58.4416 11.3149 57.8887 11.1311C57.3356 10.9472 56.7385 11.2467 56.5548 11.7996L54.6092 17.6565L52.5662 11.771C52.3751 11.2204 51.7739 10.9289 51.2235 11.1203C50.6731 11.3114 50.3817 11.9124 50.5728 12.4628L53.4539 20.7629C53.6303 21.2595 54.1011 21.5914 54.6272 21.5914Z" fill="black"/>
<path d="M58.2855 34.3037H38.4988C37.9162 34.3037 37.4438 34.7761 37.4438 35.3587C37.4438 35.9413 37.9162 36.4136 38.4988 36.4136H58.2855C58.8681 36.4136 59.3404 35.9413 59.3404 35.3587C59.3404 34.7761 58.8682 34.3037 58.2855 34.3037Z" fill="black"/>
<path d="M38.4988 42.8853H48.3922C48.9748 42.8853 49.4472 42.4131 49.4472 41.8304C49.4472 41.2476 48.9748 40.7754 48.3922 40.7754H38.4988C37.9162 40.7754 37.4438 41.2476 37.4438 41.8304C37.4438 42.4131 37.9162 42.8853 38.4988 42.8853Z" fill="black"/>
<path d="M58.2855 47.2461H38.4988C37.9162 47.2461 37.4438 47.7183 37.4438 48.3011C37.4438 48.8838 37.9162 49.356 38.4988 49.356H58.2855C58.8681 49.356 59.3404 48.8837 59.3404 48.3011C59.3404 47.7185 58.8682 47.2461 58.2855 47.2461Z" fill="black"/>
<path d="M59.3406 54.7727C59.3406 54.19 58.8682 53.7178 58.2856 53.7178H38.4988C37.9162 53.7178 37.4438 54.19 37.4438 54.7727C37.4438 55.3555 37.9162 55.8277 38.4988 55.8277H58.2855C58.8682 55.8279 59.3406 55.3555 59.3406 54.7727Z" fill="black"/>
<path d="M38.4988 60.3623C37.9162 60.3623 37.4438 60.8345 37.4438 61.4173C37.4438 62 37.9162 62.4722 38.4988 62.4722H48.3922C48.9748 62.4722 49.4472 61.9999 49.4472 61.4173C49.4472 60.8347 48.9748 60.3623 48.3922 60.3623H38.4988Z" fill="black"/>
<path d="M58.2855 27.832H38.4988C37.9162 27.832 37.4438 28.3044 37.4438 28.887C37.4438 29.4696 37.9162 29.942 38.4988 29.942H58.2855C58.8681 29.942 59.3404 29.4696 59.3404 28.887C59.3404 28.3044 58.8682 27.832 58.2855 27.832Z" fill="black"/>
<path d="M63.9101 14.8037C64.4928 14.8037 64.9651 14.3314 64.9651 13.7488V4.03748C64.9653 1.81125 63.154 0 60.9276 0H12.0725C9.84616 0 8.03491 1.81125 8.03491 4.03748V67.9624C8.03491 70.1886 9.84616 71.9999 12.0725 71.9999H60.9275C63.1539 71.9999 64.9651 70.1886 64.9651 67.9624V18.681C64.9651 18.0983 64.4928 17.6261 63.9101 17.6261C63.3275 17.6261 62.8552 18.0984 62.8552 18.681V67.9625C62.8552 69.0254 61.9905 69.8901 60.9276 69.8901H34.0383V2.11008H60.9275C61.9903 2.11008 62.855 2.97464 62.855 4.03762V13.7489C62.8552 14.3315 63.3275 14.8037 63.9101 14.8037ZM31.9282 69.8899H12.0725C11.0097 69.8899 10.145 69.0254 10.145 67.9624V4.03748C10.145 2.97464 11.0097 2.10994 12.0725 2.10994H31.9282V69.8899Z" fill="black"/>
<path d="M21.0501 24.6915C25.6481 24.6915 29.4149 20.9476 29.4149 16.3267C29.4149 11.7144 25.6625 7.96191 21.0501 7.96191C16.4377 7.96191 12.6853 11.7144 12.6853 16.3267C12.6853 20.942 16.4465 24.6915 21.0501 24.6915ZM21.0501 22.5814C19.6832 22.5814 18.4184 22.1394 17.3882 21.3927C17.8274 20.5037 18.5865 19.7902 19.5059 19.4112C19.975 19.6318 20.4983 19.7559 21.0501 19.7559C21.6019 19.7559 22.1252 19.6318 22.5943 19.4112C23.5137 19.7902 24.2728 20.5037 24.712 21.3927C23.6819 22.1396 22.417 22.5814 21.0501 22.5814ZM19.5187 16.1144C19.5187 15.2698 20.2056 14.5828 21.0502 14.5828C21.8947 14.5828 22.5818 15.2698 22.5818 16.1144C22.5818 16.9588 21.8948 17.6458 21.0502 17.6458C20.2056 17.6458 19.5187 16.9588 19.5187 16.1144ZM21.0501 10.072C24.4991 10.072 27.3048 12.8779 27.3048 16.3267C27.3048 17.6164 26.9123 18.8161 26.2407 19.8128C25.729 19.0228 25.0455 18.3597 24.236 17.8758C24.5259 17.3534 24.6917 16.7529 24.6917 16.1144C24.6917 14.1064 23.0581 12.4727 21.0501 12.4727C19.0421 12.4727 17.4085 14.1064 17.4085 16.1144C17.4085 16.7531 17.5743 17.3534 17.8642 17.8758C17.0545 18.3597 16.3711 19.0228 15.8595 19.8128C15.1879 18.8161 14.7954 17.6164 14.7954 16.3267C14.7954 12.8779 17.6013 10.072 21.0501 10.072Z" fill="black"/>
<path d="M14.9371 40.1095H27.1631C28.4196 40.1095 29.4418 39.0873 29.4418 37.8309V34.8166C29.4418 33.5601 28.4196 32.5381 27.1631 32.5381H14.9371C13.6807 32.5381 12.6584 33.5603 12.6584 34.8166V37.8309C12.6584 39.0873 13.6807 40.1095 14.9371 40.1095ZM14.7685 34.8166C14.7685 34.7237 14.8442 34.648 14.9371 34.648H27.1631C27.256 34.648 27.3317 34.7235 27.3317 34.8166V37.8309C27.3317 37.9239 27.256 37.9995 27.1631 37.9995H14.9371C14.8442 37.9995 14.7685 37.924 14.7685 37.8309V34.8166Z" fill="black"/>
<path d="M14.9371 51.2911H16.0017C16.5843 51.2911 17.0566 50.8189 17.0566 50.2361C17.0566 49.6534 16.5843 49.1812 16.0017 49.1812H14.9371C14.8442 49.1812 14.7685 49.1057 14.7685 49.0126V45.9983C14.7685 45.9053 14.8442 45.8297 14.9371 45.8297H27.1631C27.256 45.8297 27.3317 45.9052 27.3317 45.9983V49.0126C27.3317 49.1055 27.256 49.1812 27.1631 49.1812H20.9338C20.3512 49.1812 19.8788 49.6535 19.8788 50.2361C19.8788 50.8188 20.3512 51.2911 20.9338 51.2911H27.1631C28.4196 51.2911 29.4418 50.2689 29.4418 49.0126V45.9983C29.4418 44.7418 28.4196 43.7197 27.1631 43.7197H14.9371C13.6807 43.7197 12.6584 44.7419 12.6584 45.9983V49.0126C12.6584 50.2691 13.6807 51.2911 14.9371 51.2911Z" fill="black"/>
<path d="M14.9371 62.4718H27.1631C28.4196 62.4718 29.4418 61.4496 29.4418 60.1932V57.1789C29.4418 55.9225 28.4196 54.9004 27.1631 54.9004H14.9371C13.6807 54.9004 12.6584 55.9226 12.6584 57.1789V60.1932C12.6584 61.4496 13.6807 62.4718 14.9371 62.4718ZM14.7685 57.1788C14.7685 57.0858 14.8442 57.0102 14.9371 57.0102H27.1631C27.256 57.0102 27.3317 57.0857 27.3317 57.1788V60.1931C27.3317 60.286 27.256 60.3617 27.1631 60.3617H14.9371C14.8442 60.3617 14.7685 60.2862 14.7685 60.1931V57.1788Z" fill="black"/>
</svg>
