<svg width="73" height="72" viewBox="0 0 73 72" fill="none" xmlns="http://www.w3.org/2000/svg">
<path d="M12.875 24.75C17.2175 24.75 20.75 21.2175 20.75 16.875C20.75 12.5325 17.2175 9 12.875 9C8.5325 9 5 12.5325 5 16.875C5 21.2175 8.5325 24.75 12.875 24.75ZM12.875 11.25C15.98 11.25 18.5 13.77 18.5 16.875C18.5 19.98 15.98 22.5 12.875 22.5C9.77 22.5 7.25 19.98 7.25 16.875C7.25 13.77 9.77 11.25 12.875 11.25Z" fill="black"/>
<path d="M21.875 50.625C22.4938 50.625 23 50.1188 23 49.5V43.2563L30.875 37.1362V58.5112C30.875 59.13 31.3812 59.6362 32 59.6362H65.75C66.3688 59.6362 66.875 59.13 66.875 58.5112V2.25C66.875 1.63125 66.3688 1.125 65.75 1.125H32C31.3812 1.125 30.875 1.63125 30.875 2.25V28.5075L23 34.1325V33.75C23 29.4075 19.4675 25.875 15.125 25.875H10.625C6.2825 25.875 2.75 29.4075 2.75 33.75V49.5C2.75 50.1188 3.25625 50.625 3.875 50.625V68.625H1.625V70.875H71.375V68.625H21.875V50.625ZM33.125 3.375H64.625V57.375H33.125V35.3813L35.1837 33.7725C35.1837 33.7725 35.195 33.75 35.2063 33.75H55.6138V31.5H36.455C36.455 31.4325 36.4887 31.3762 36.4887 31.3087C36.545 30.3412 36.185 29.385 35.4988 28.6988C34.8463 28.0463 33.9912 27.72 33.1137 27.7087V3.375H33.125ZM22.865 36.99L32.4387 30.15C32.9 29.8237 33.5188 29.8687 33.9125 30.2737C34.1488 30.51 34.2725 30.825 34.25 31.1625C34.2275 31.5 34.07 31.7925 33.8113 31.995L22.1675 41.0513L16.0587 36.9787C15.665 36.7087 15.4063 36.2812 15.3613 35.8087C15.3163 35.3362 15.485 34.8638 15.8225 34.5263C16.1375 34.2113 16.5425 34.0538 16.9475 34.0538C17.2737 34.0538 17.6 34.155 17.8812 34.3575L21.5712 36.99C21.965 37.2713 22.4825 37.2713 22.8762 36.99H22.865ZM10.895 68.625L12.875 59.3663L14.855 68.625H10.8837H10.895ZM19.625 68.625H17.1613L13.9775 53.7638C13.865 53.2463 13.4037 52.875 12.875 52.875C12.3463 52.875 11.885 53.2463 11.7725 53.7638L8.58875 68.625H6.125V50.625H19.625V68.625ZM20.75 48.375H5V33.75C5 30.645 7.52 28.125 10.625 28.125H15.125C18.1963 28.125 20.6825 30.5887 20.7387 33.6487L19.175 32.5237C17.6338 31.4212 15.5525 31.6013 14.225 32.9288C13.4037 33.75 12.9988 34.875 13.1225 36.0225C13.2463 37.17 13.8537 38.205 14.8212 38.8462L20.7725 42.8062V48.3638L20.75 48.375Z" fill="black"/>
<path d="M38.4238 14.6252C38.4238 14.6252 38.4575 14.6252 38.4688 14.6252C38.8175 14.6139 39.1325 14.4339 39.335 14.1527L44.1613 7.40266L42.3275 6.09766L38.345 11.6777L37.355 10.5189L35.645 11.9814L37.5688 14.2314C37.7825 14.4789 38.0975 14.6252 38.4238 14.6252Z" fill="black"/>
<path d="M43.25 12.375H47.75V14.625H43.25V12.375Z" fill="black"/>
<path d="M50 12.375H62.375V14.625H50V12.375Z" fill="black"/>
<path d="M57.875 16.875H62.375V19.125H57.875V16.875Z" fill="black"/>
<path d="M35.375 16.875H55.625V19.125H35.375V16.875Z" fill="black"/>
<path d="M38.4238 45.0002C38.4238 45.0002 38.4575 45.0002 38.4688 45.0002C38.8175 44.9889 39.1325 44.8089 39.335 44.5277L44.1613 37.7777L42.3275 36.4727L38.345 42.0527L37.355 40.8939L35.645 42.3564L37.5688 44.6064C37.7825 44.8539 38.0975 45.0002 38.4238 45.0002Z" fill="black"/>
<path d="M43.25 42.75H47.75V45H43.25V42.75Z" fill="black"/>
<path d="M50 42.75H62.375V45H50V42.75Z" fill="black"/>
<path d="M57.875 47.25H62.375V49.5H57.875V47.25Z" fill="black"/>
<path d="M35.375 47.25H55.625V49.5H35.375V47.25Z" fill="black"/>
<path d="M43.25 27H47.75V29.25H43.25V27Z" fill="black"/>
<path d="M50 27H62.375V29.25H50V27Z" fill="black"/>
<path d="M57.875 31.5H62.375V33.75H57.875V31.5Z" fill="black"/>
<path d="M40.3364 21.4316L38.7502 23.0179L37.1639 21.4316L35.5664 23.0179L37.1639 24.6154L35.5664 26.2016L37.1639 27.7991L38.7502 26.2016L40.3364 27.7991L41.9339 26.2016L40.3364 24.6154L41.9339 23.0179L40.3364 21.4316Z" fill="black"/>
</svg>
