<svg width="128" height="37" viewBox="0 0 128 37" fill="none" xmlns="http://www.w3.org/2000/svg">
<path d="M123.259 37H4.74074C2.13452 37 0 34.9188 0 32.3778V4.64445C0 2.10338 2.13452 0.0222273 4.74074 0.0222273H123.259C125.865 0.0222273 128 2.10338 128 4.64445V32.3778C128 34.9188 125.865 37 123.259 37Z" fill="white"/>
<path d="M123.259 0.762937C125.454 0.762937 127.24 2.50436 127.24 4.64445V32.3778C127.24 34.5179 125.454 36.2593 123.259 36.2593H4.74074C2.54578 36.2593 0.759703 34.5179 0.759703 32.3778V4.64445C0.759703 2.50436 2.54578 0.762937 4.74074 0.762937H123.259ZM123.259 0.0222273H4.74074C2.13452 0.0222273 0 2.10338 0 4.64445V32.3778C0 34.9188 2.13452 37 4.74074 37H123.259C125.865 37 128 34.9188 128 32.3778V4.64445C128 2.10338 125.865 0.0222273 123.259 0.0222273Z" fill="#A6A6A6"/>
<path d="M9.89393 6.99117C9.61542 7.27543 9.45423 7.71801 9.45423 8.29117V28.7353C9.45423 29.3084 9.61542 29.751 9.89393 30.0353L9.96268 30.0977L21.7126 18.6461V18.3757L9.96268 6.92415L9.89393 6.99117Z" fill="url(#paint0_linear_138_177)"/>
<path d="M25.6249 22.4648L21.7126 18.6457V18.3753L25.6296 14.5562L25.7173 14.6059L30.3561 17.1793C31.68 17.9096 31.68 19.1114 30.3561 19.8464L25.7173 22.4152L25.6249 22.4648Z" fill="url(#paint1_linear_138_177)"/>
<path d="M25.7173 22.4153L21.7126 18.5106L9.89392 30.035C10.3336 30.4857 11.0507 30.54 11.8661 30.0893L25.7173 22.4153Z" fill="url(#paint2_linear_138_177)"/>
<path d="M25.7173 14.6061L11.8661 6.93208C11.0507 6.48604 10.3336 6.54034 9.89392 6.99101L21.7126 18.5107L25.7173 14.6061Z" fill="url(#paint3_linear_138_177)"/>
<path d="M44.9588 9.49261C44.9588 10.2645 44.7218 10.8827 44.2548 11.3438C43.7179 11.8904 43.0187 12.1654 42.1618 12.1654C41.3428 12.1654 40.6435 11.8858 40.0699 11.3346C39.4951 10.7753 39.2083 10.0889 39.2083 9.26727C39.2083 8.44567 39.4951 7.75927 40.0699 7.20461C40.6435 6.64879 41.3428 6.36914 42.1618 6.36914C42.5695 6.36914 42.9582 6.45119 43.3292 6.60372C43.699 6.75741 44 6.96541 44.2181 7.22194L43.7227 7.70959C43.3422 7.27163 42.8243 7.05554 42.1618 7.05554C41.5644 7.05554 41.0465 7.25892 40.6068 7.66914C40.1718 8.08052 39.9538 8.61323 39.9538 9.26727C39.9538 9.92132 40.1718 10.4586 40.6068 10.87C41.0465 11.2756 41.5644 11.4836 42.1618 11.4836C42.7958 11.4836 43.3292 11.2756 43.7499 10.8654C44.0273 10.5939 44.1849 10.2195 44.2264 9.74105H42.1618V9.07314H44.9161C44.9493 9.21758 44.9588 9.35741 44.9588 9.49261Z" fill="black" stroke="black" stroke-width="0.0379259" stroke-miterlimit="10"/>
<path d="M49.3286 7.17672H46.7413V8.93316H49.0738V9.60107H46.7413V11.3575H49.3286V12.0381H46.0089V6.49609H49.3286V7.17672Z" fill="black" stroke="black" stroke-width="0.0379259" stroke-miterlimit="10"/>
<path d="M52.4124 12.0381H51.68V7.17672H50.093V6.49609H54.0006V7.17672H52.4124V12.0381Z" fill="black" stroke="black" stroke-width="0.0379259" stroke-miterlimit="10"/>
<path d="M56.8285 12.0381V6.49609H57.5597V12.0381H56.8285Z" fill="black" stroke="black" stroke-width="0.0379259" stroke-miterlimit="10"/>
<path d="M60.8012 12.0381H60.0746V7.17672H58.4818V6.49609H62.394V7.17672H60.8012V12.0381Z" fill="black" stroke="black" stroke-width="0.0379259" stroke-miterlimit="10"/>
<path d="M69.792 11.3253C69.2314 11.8858 68.5369 12.1654 67.7084 12.1654C66.8752 12.1654 66.1807 11.8858 65.6201 11.3253C65.0607 10.766 64.7822 10.0796 64.7822 9.26727C64.7822 8.45492 65.0607 7.76852 65.6201 7.20923C66.1807 6.64879 66.8752 6.36914 67.7084 6.36914C68.5321 6.36914 69.2267 6.64878 69.7873 7.21385C70.3514 7.77776 70.6299 8.45954 70.6299 9.26727C70.6299 10.0796 70.3514 10.766 69.792 11.3253ZM66.1618 10.8608C66.5837 11.2756 67.0969 11.4836 67.7084 11.4836C68.3152 11.4836 68.8332 11.2756 69.2504 10.8608C69.6711 10.4459 69.8844 9.91323 69.8844 9.26727C69.8844 8.62132 69.6711 8.08861 69.2504 7.67376C68.8332 7.25892 68.3152 7.05092 67.7084 7.05092C67.0969 7.05092 66.5837 7.25892 66.1618 7.67376C65.741 8.08861 65.5277 8.62132 65.5277 9.26727C65.5277 9.91323 65.741 10.4459 66.1618 10.8608Z" fill="black" stroke="black" stroke-width="0.0379259" stroke-miterlimit="10"/>
<path d="M71.6575 12.0381V6.49609H72.5464L75.3102 10.8063H75.3422L75.3102 9.74089V6.49609H76.0415V12.0381H75.2782L72.384 7.51529H72.352L72.384 8.58534V12.0381H71.6575Z" fill="black" stroke="black" stroke-width="0.0379259" stroke-miterlimit="10"/>
<path d="M64.6021 20.1316C62.3751 20.1316 60.5558 21.7841 60.5558 24.064C60.5558 26.3254 62.3751 27.9952 64.6021 27.9952C66.8338 27.9952 68.653 26.3254 68.653 24.064C68.653 21.7841 66.8338 20.1316 64.6021 20.1316ZM64.6021 26.4467C63.3801 26.4467 62.3289 25.4633 62.3289 24.064C62.3289 22.6461 63.3801 21.6801 64.6021 21.6801C65.824 21.6801 66.88 22.6461 66.88 24.064C66.88 25.4633 65.824 26.4467 64.6021 26.4467ZM55.7736 20.1316C53.5419 20.1316 51.7274 21.7841 51.7274 24.064C51.7274 26.3254 53.5419 27.9952 55.7736 27.9952C58.0041 27.9952 59.8198 26.3254 59.8198 24.064C59.8198 21.7841 58.0041 20.1316 55.7736 20.1316ZM55.7736 26.4467C54.5505 26.4467 53.4957 25.4633 53.4957 24.064C53.4957 22.6461 54.5505 21.6801 55.7736 21.6801C56.9955 21.6801 58.0468 22.6461 58.0468 24.064C58.0468 25.4633 56.9955 26.4467 55.7736 26.4467ZM45.2681 21.3369V23.0078H49.3606C49.2409 23.9415 48.9209 24.6279 48.4302 25.1063C47.8329 25.6841 46.9025 26.3254 45.2681 26.3254C42.7496 26.3254 40.7775 24.3436 40.7775 21.8881C40.7775 19.4325 42.7496 17.4507 45.2681 17.4507C46.6299 17.4507 47.6207 17.9696 48.352 18.6421L49.5597 17.4646C48.5369 16.5124 47.1763 15.781 45.2681 15.781C41.8145 15.781 38.912 18.5208 38.912 21.8881C38.912 25.2553 41.8145 27.9952 45.2681 27.9952C47.1348 27.9952 48.5369 27.3989 49.6391 26.2803C50.7686 25.1791 51.1206 23.6306 51.1206 22.3803C51.1206 21.9921 51.0874 21.635 51.0281 21.3369H45.2681ZM88.2264 22.6322C87.8933 21.7529 86.8658 20.1316 84.7727 20.1316C82.6987 20.1316 80.9718 21.7251 80.9718 24.064C80.9718 26.2665 82.6809 27.9952 84.9718 27.9952C86.8243 27.9952 87.8933 26.8939 88.333 26.2526L86.9582 25.3593C86.4995 26.0134 85.875 26.4467 84.9718 26.4467C84.0747 26.4467 83.4311 26.0457 83.0186 25.2553L88.4124 23.0794L88.2264 22.6322ZM82.7271 23.9415C82.6809 22.4254 83.9348 21.6489 84.8332 21.6489C85.5372 21.6489 86.1345 21.9921 86.3336 22.4832L82.7271 23.9415ZM78.3431 27.756H80.1161V16.2004H78.3431V27.756ZM75.4394 21.0075H75.3801C74.9819 20.5476 74.2222 20.1316 73.2598 20.1316C71.2403 20.1316 69.3938 21.8603 69.3938 24.0767C69.3938 26.2803 71.2403 27.9952 73.2598 27.9952C74.2222 27.9952 74.9819 27.5757 75.3801 27.1019H75.4394V27.6658C75.4394 29.1692 74.6157 29.9769 73.2871 29.9769C72.2038 29.9769 71.5318 29.2143 71.2545 28.5729L69.7126 29.2004C70.157 30.2427 71.3339 31.5254 73.2871 31.5254C75.3659 31.5254 77.12 30.3329 77.12 27.4313V20.3708H75.4394V21.0075ZM73.4115 26.4467C72.1896 26.4467 71.1668 25.4495 71.1668 24.0767C71.1668 22.6912 72.1896 21.6801 73.4115 21.6801C74.6157 21.6801 75.565 22.6912 75.565 24.0767C75.565 25.4495 74.6157 26.4467 73.4115 26.4467ZM96.5274 16.2004H92.2868V27.756H94.0551V23.3776H96.5274C98.4912 23.3776 100.417 21.9921 100.417 19.7884C100.417 17.5859 98.4865 16.2004 96.5274 16.2004ZM96.5736 21.7702H94.0551V17.8078H96.5736C97.8939 17.8078 98.6477 18.8767 98.6477 19.7884C98.6477 20.6828 97.8939 21.7702 96.5736 21.7702ZM107.505 20.1097C106.227 20.1097 104.898 20.6597 104.352 21.8788L105.921 22.5201C106.259 21.8788 106.88 21.6708 107.537 21.6708C108.454 21.6708 109.384 22.2082 109.398 23.1569V23.2782C109.078 23.0979 108.393 22.831 107.551 22.831C105.861 22.831 104.139 23.7381 104.139 25.431C104.139 26.9794 105.523 27.9767 107.079 27.9767C108.269 27.9767 108.926 27.4532 109.338 26.8442H109.398V27.7375H111.106V23.3048C111.106 21.256 109.537 20.1097 107.505 20.1097ZM107.291 26.4421C106.713 26.4421 105.907 26.1625 105.907 25.4633C105.907 24.5689 106.912 24.2257 107.782 24.2257C108.561 24.2257 108.926 24.3933 109.398 24.614C109.26 25.6841 108.315 26.4421 107.291 26.4421ZM117.329 20.3627L115.296 25.3721H115.236L113.134 20.3627H111.227L114.385 27.3631L112.583 31.2585H114.431L119.296 20.3627H117.329ZM101.389 27.756H103.162V16.2004H101.389V27.756Z" fill="black"/>
<defs>
<linearGradient id="paint0_linear_138_177" x1="20.6693" y1="28.9482" x2="5.15992" y2="13.0411" gradientUnits="userSpaceOnUse">
<stop stop-color="#00A0FF"/>
<stop offset="0.0066" stop-color="#00A1FF"/>
<stop offset="0.2601" stop-color="#00BEFF"/>
<stop offset="0.5122" stop-color="#00D2FF"/>
<stop offset="0.7604" stop-color="#00DFFF"/>
<stop offset="1" stop-color="#00E3FF"/>
</linearGradient>
<linearGradient id="paint1_linear_138_177" x1="32.08" y1="18.5092" x2="9.13776" y2="18.5092" gradientUnits="userSpaceOnUse">
<stop stop-color="#FFE000"/>
<stop offset="0.4087" stop-color="#FFBD00"/>
<stop offset="0.7754" stop-color="#FFA500"/>
<stop offset="1" stop-color="#FF9C00"/>
</linearGradient>
<linearGradient id="paint2_linear_138_177" x1="23.5397" y1="16.388" x2="2.50763" y2="-5.18331" gradientUnits="userSpaceOnUse">
<stop stop-color="#FF3A44"/>
<stop offset="1" stop-color="#C31162"/>
</linearGradient>
<linearGradient id="paint3_linear_138_177" x1="6.91892" y1="36.8367" x2="16.3107" y2="27.2043" gradientUnits="userSpaceOnUse">
<stop stop-color="#32A071"/>
<stop offset="0.0685" stop-color="#2DA771"/>
<stop offset="0.4762" stop-color="#15CF74"/>
<stop offset="0.8009" stop-color="#06E775"/>
<stop offset="1" stop-color="#00F076"/>
</linearGradient>
</defs>
</svg>
