<svg width="60" height="60" viewBox="0 0 60 60" fill="none" xmlns="http://www.w3.org/2000/svg">
<path fill-rule="evenodd" clip-rule="evenodd" d="M30.0012 0C38.1558 0 45.5388 3.30551 50.8829 8.64961C56.227 13.9937 59.5325 21.3766 59.5325 29.5312C59.5325 37.6859 56.227 45.0688 50.8829 50.4129C45.5388 55.757 38.1558 59.0625 30.0012 59.0625C21.8466 59.0625 14.4637 55.757 9.11958 50.4129C3.77548 45.0688 0.469971 37.6859 0.469971 29.5312C0.469971 21.3766 3.77548 13.9937 9.11958 8.64961C14.4637 3.30551 21.8466 0 30.0012 0ZM43.6455 30.7536C43.8597 30.6342 44.0453 30.4569 44.1765 30.2289C44.5618 29.5584 44.3306 28.7025 43.6601 28.3173L33.5113 22.4579L23.4794 16.6659C23.2496 16.5023 22.9684 16.4062 22.6649 16.4062C21.8883 16.4062 21.2587 17.0359 21.2587 17.8125V29.5312V41.25H21.2645C21.2643 41.4871 21.3243 41.7273 21.4509 41.9476C21.8362 42.618 22.692 42.8493 23.3624 42.4639L33.5112 36.6046L43.6455 30.7536Z" fill="white"/>
</svg>
