<svg width="20" height="21" viewBox="0 0 20 21" fill="none" xmlns="http://www.w3.org/2000/svg">
<g clip-path="url(#clip0_67_207)">
<path d="M17.8525 4.00827H18.47C18.6854 4.00827 18.8601 3.83346 18.8601 3.6179C18.8601 3.40234 18.6854 3.22753 18.47 3.22753H16.9877C16.7723 3.22753 16.5977 3.40234 16.5977 3.6179V5.1013C16.5977 5.31686 16.7723 5.49167 16.9877 5.49167C17.2031 5.49167 17.3778 5.31686 17.3778 5.1013V4.67178C18.5614 6.2575 19.2047 8.18151 19.2047 10.1826C19.2047 15.2662 15.0721 19.4019 9.99243 19.4019C4.91274 19.4019 0.780147 15.2662 0.780147 10.1826C0.780147 5.09908 4.91274 0.963355 9.99243 0.963355C10.3681 0.963355 10.7462 0.986191 11.1163 1.0312C11.3299 1.05704 11.5246 0.904839 11.5506 0.690799C11.5766 0.476799 11.4243 0.282161 11.2105 0.256163C10.8092 0.207367 10.3995 0.182617 9.99243 0.182617C7.32335 0.182617 4.81401 1.22279 2.92672 3.11155C1.03939 5.00028 0 7.51152 0 10.1826C0 12.8537 1.03939 15.365 2.92672 17.2537C4.81401 19.1424 7.32335 20.1826 9.99243 20.1826C12.6615 20.1826 15.1708 19.1424 17.0581 17.2537C18.9455 15.365 19.9849 12.8537 19.9849 10.1826C19.9849 7.92859 19.2324 5.7647 17.8525 4.00827Z" fill="#747474"/>
<path d="M4.2312 6.07723C4.04915 5.96192 3.8082 6.01618 3.69293 6.19825C2.80244 7.60576 2.40823 9.29848 2.58294 10.9646C2.76023 12.6555 3.52068 14.25 4.72421 15.4544C6.17665 16.908 8.08454 17.6348 9.99246 17.6348C11.9004 17.6348 13.8082 16.908 15.2607 15.4544C18.1656 12.5473 18.1656 7.81707 15.2607 4.90999C14.059 3.70742 12.4683 2.94667 10.7816 2.76788C9.11979 2.59163 7.43019 2.98305 6.02432 3.86985C5.84204 3.98481 5.78747 4.22587 5.90231 4.40825C6.01719 4.59067 6.25806 4.64528 6.4403 4.53036C9.09038 2.8588 12.4905 3.24186 14.709 5.46205C17.3098 8.06475 17.3098 12.2996 14.709 14.9023C12.1083 17.5051 7.87659 17.5051 5.27589 14.9023C3.08805 12.7128 2.69953 9.2279 4.35212 6.61594C4.46731 6.43375 4.41321 6.19258 4.2312 6.07723Z" fill="#747474"/>
<path d="M15.0637 10.5796H15.5451C15.7607 10.5796 15.9355 10.4048 15.9355 10.1892C15.9355 9.97363 15.7607 9.79883 15.5451 9.79883H15.0637C14.8482 9.79883 14.6734 9.97363 14.6734 10.1892C14.6734 10.4048 14.8481 10.5796 15.0637 10.5796Z" fill="#747474"/>
<path d="M4.05032 10.1765C4.05032 10.3921 4.22513 10.5669 4.44069 10.5669H4.9221C5.13766 10.5669 5.31246 10.3921 5.31246 10.1765C5.31246 9.96094 5.13766 9.78613 4.9221 9.78613H4.44069C4.22513 9.78613 4.05032 9.9609 4.05032 10.1765Z" fill="#747474"/>
<path d="M10.3894 5.1081V4.6267C10.3894 4.41114 10.2146 4.23633 9.99904 4.23633C9.78348 4.23633 9.60867 4.41114 9.60867 4.6267V5.1081C9.60867 5.32366 9.78348 5.49847 9.99904 5.49847C10.2146 5.49847 10.3894 5.32366 10.3894 5.1081Z" fill="#747474"/>
<path d="M9.59604 15.2576V15.739C9.59604 15.9545 9.77085 16.1293 9.98641 16.1293C10.202 16.1293 10.3768 15.9545 10.3768 15.739V15.2576C10.3768 15.042 10.202 14.8672 9.98641 14.8672C9.77085 14.8672 9.59604 15.042 9.59604 15.2576Z" fill="#747474"/>
<path d="M8.03723 7.67365C7.88487 7.52125 7.63795 7.52125 7.48555 7.67365C7.33323 7.82609 7.33323 8.07327 7.48555 8.22575L8.80755 9.54875C8.70625 9.73769 8.64863 9.95344 8.64863 10.1824C8.64863 10.924 9.25145 11.5273 9.99243 11.5273C10.7334 11.5273 11.3362 10.924 11.3362 10.1824C11.3362 9.95344 11.2786 9.73769 11.1773 9.54875L13.8448 6.87929C13.9971 6.72685 13.9971 6.47967 13.8448 6.32719C13.6924 6.17479 13.4455 6.17479 13.2931 6.32719L10.6256 8.99665C10.4368 8.89527 10.2213 8.83761 9.99243 8.83761C9.76362 8.83761 9.54802 8.89531 9.35923 8.99665L8.03723 7.67365ZM10.5561 10.1824C10.5561 10.4935 10.3032 10.7465 9.99243 10.7465C9.68162 10.7465 9.42878 10.4935 9.42878 10.1824C9.42878 9.87139 9.68162 9.61835 9.99243 9.61835C10.3032 9.61835 10.5561 9.87139 10.5561 10.1824Z" fill="#747474"/>
<path d="M5.27616 5.46226C5.34916 5.38965 5.39089 5.28893 5.39089 5.18627C5.39089 5.0836 5.34916 4.98328 5.27616 4.91028C5.20355 4.83771 5.10319 4.7959 5.00017 4.7959C4.8975 4.7959 4.79679 4.83767 4.72418 4.91028C4.65161 4.98289 4.6098 5.0836 4.6098 5.18627C4.6098 5.28932 4.65157 5.38965 4.72418 5.46226C4.79679 5.53483 4.8975 5.57664 5.00017 5.57664C5.10319 5.57664 5.20355 5.53483 5.27616 5.46226Z" fill="#747474"/>
<path d="M12.6948 1.3491C12.7979 1.3491 12.8986 1.30768 12.9711 1.23472C13.0438 1.16211 13.0856 1.06175 13.0856 0.958728C13.0856 0.856061 13.0438 0.755346 12.9711 0.682737C12.8986 0.610168 12.7979 0.568359 12.6948 0.568359C12.5921 0.568359 12.4914 0.610129 12.4188 0.682737C12.3462 0.755346 12.3044 0.856061 12.3044 0.958728C12.3044 1.06179 12.3462 1.16211 12.4188 1.23472C12.4914 1.30768 12.5921 1.3491 12.6948 1.3491Z" fill="#747474"/>
</g>
<defs>
<clipPath id="clip0_67_207">
<rect width="19.9849" height="20" fill="white" transform="translate(0 0.182617)"/>
</clipPath>
</defs>
</svg>
